<svg xmlns="http://www.w3.org/2000/svg" xmlns:xlink="http://www.w3.org/1999/xlink" width="425.1600000000001" height="87.76800000000001"><path fill="#2e7d32" d="M22.82 70.06L22.82 70.06Q17.21 70.06 12.78 67.57Q8.35 65.09 5.83 60.73Q3.31 56.38 3.31 50.76L3.31 50.76Q3.31 45.07 5.83 40.75Q8.35 36.43 12.78 33.98Q17.21 31.54 22.82 31.54L22.82 31.54Q27.65 31.54 31.54 33.41Q35.42 35.28 37.66 39.02L37.66 39.02L33.84 41.62Q31.90 38.74 29.02 37.37Q26.14 36.00 22.75 36.00L22.75 36.00Q18.72 36.00 15.48 37.84Q12.24 39.67 10.37 42.98Q8.50 46.30 8.50 50.76L8.50 50.76Q8.50 55.22 10.37 58.54Q12.24 61.85 15.48 63.68Q18.72 65.52 22.75 65.52L22.75 65.52Q26.14 65.52 29.02 64.15Q31.90 62.78 33.84 59.98L33.84 59.98L37.66 62.57Q35.42 66.24 31.54 68.15Q27.65 70.06 22.82 70.06ZM63.07 70.06L63.07 70.06Q57.60 70.06 53.24 67.57Q48.89 65.09 46.37 60.73Q43.85 56.38 43.85 50.76L43.85 50.76Q43.85 45.07 46.37 40.75Q48.89 36.43 53.21 33.98Q57.53 31.54 63.07 31.54L63.07 31.54Q68.69 31.54 73.04 33.98Q77.40 36.43 79.88 40.75Q82.37 45.07 82.37 50.76L82.37 50.76Q82.37 56.38 79.88 60.73Q77.40 65.09 73.01 67.57Q68.62 70.06 63.07 70.06ZM63.07 65.52L63.07 65.52Q67.18 65.52 70.34 63.68Q73.51 61.85 75.35 58.50Q77.18 55.15 77.18 50.76L77.18 50.76Q77.18 46.30 75.35 42.98Q73.51 39.67 70.34 37.84Q67.18 36.00 63.14 36.00L63.14 36.00Q59.11 36.00 55.94 37.84Q52.78 39.67 50.90 42.98Q49.03 46.30 49.03 50.76L49.03 50.76Q49.03 55.15 50.90 58.50Q52.78 61.85 55.94 63.68Q59.11 65.52 63.07 65.52ZM98.78 69.70L93.67 69.70L93.67 27.14Q93.67 22.10 96.62 19.01Q99.58 15.91 105.12 15.91L105.12 15.91Q107.28 15.91 109.30 16.49Q111.31 17.06 112.68 18.29L112.68 18.29L110.95 22.10Q109.87 21.17 108.43 20.70Q106.99 20.23 105.34 20.23L105.34 20.23Q102.10 20.23 100.37 22.03Q98.64 23.83 98.64 27.36L98.64 27.36L98.64 33.12L98.78 35.50L98.78 69.70ZM110.30 36.14L86.90 36.14L86.90 31.90L110.30 31.90L110.30 36.14ZM123.19 69.70L118.08 69.70L118.08 27.14Q118.08 22.10 121.03 19.01Q123.98 15.91 129.53 15.91L129.53 15.91Q131.69 15.91 133.70 16.49Q135.72 17.06 137.09 18.29L137.09 18.29L135.36 22.10Q134.28 21.17 132.84 20.70Q131.40 20.23 129.74 20.23L129.74 20.23Q126.50 20.23 124.78 22.03Q123.05 23.83 123.05 27.36L123.05 27.36L123.05 33.12L123.19 35.50L123.19 69.70ZM134.71 36.14L111.31 36.14L111.31 31.90L134.71 31.90L134.71 36.14ZM157.68 70.06L157.68 70.06Q151.78 70.06 147.31 67.57Q142.85 65.09 140.33 60.73Q137.81 56.38 137.81 50.76L137.81 50.76Q137.81 45.14 140.22 40.82Q142.63 36.50 146.84 34.02Q151.06 31.54 156.31 31.54L156.31 31.54Q161.64 31.54 165.78 33.95Q169.92 36.36 172.30 40.72Q174.67 45.07 174.67 50.76L174.67 50.76Q174.67 51.12 174.64 51.52Q174.60 51.91 174.60 52.34L174.60 52.34L141.70 52.34L141.70 48.53L171.86 48.53L169.85 50.04Q169.85 45.94 168.08 42.73Q166.32 39.53 163.30 37.73Q160.27 35.93 156.31 35.93L156.31 35.93Q152.42 35.93 149.33 37.73Q146.23 39.53 144.50 42.77Q142.78 46.01 142.78 50.18L142.78 50.18L142.78 50.98Q142.78 55.30 144.68 58.57Q146.59 61.85 150.01 63.68Q153.43 65.52 157.82 65.52L157.82 65.52Q161.28 65.52 164.27 64.30Q167.26 63.07 169.42 60.55L169.42 60.55L172.30 63.86Q169.78 66.89 166.00 68.47Q162.22 70.06 157.68 70.06ZM201.17 70.06L201.17 70.06Q195.26 70.06 190.80 67.57Q186.34 65.09 183.82 60.73Q181.30 56.38 181.30 50.76L181.30 50.76Q181.30 45.14 183.71 40.82Q186.12 36.50 190.33 34.02Q194.54 31.54 199.80 31.54L199.80 31.54Q205.13 31.54 209.27 33.95Q213.41 36.36 215.78 40.72Q218.16 45.07 218.16 50.76L218.16 50.76Q218.16 51.12 218.12 51.52Q218.09 51.91 218.09 52.34L218.09 52.34L185.18 52.34L185.18 48.53L215.35 48.53L213.34 50.04Q213.34 45.94 211.57 42.73Q209.81 39.53 206.78 37.73Q203.76 35.93 199.80 35.93L199.80 35.93Q195.91 35.93 192.82 37.73Q189.72 39.53 187.99 42.77Q186.26 46.01 186.26 50.18L186.26 50.18L186.26 50.98Q186.26 55.30 188.17 58.57Q190.08 61.85 193.50 63.68Q196.92 65.52 201.31 65.52L201.31 65.52Q204.77 65.52 207.76 64.30Q210.74 63.07 212.90 60.55L212.90 60.55L215.78 63.86Q213.26 66.89 209.48 68.47Q205.70 70.06 201.17 70.06ZM290.66 69.70L285.41 69.70L285.41 19.30L290.66 19.30L290.66 69.70ZM253.87 69.70L248.54 69.70L248.54 19.30L253.87 19.30L253.87 69.70ZM285.91 46.44L253.30 46.44L253.30 41.76L285.91 41.76L285.91 46.44ZM334.58 69.70L329.69 69.70L329.69 61.34L329.47 59.98L329.47 46.01Q329.47 41.18 326.77 38.59Q324.07 36.00 318.74 36.00L318.74 36.00Q315.07 36.00 311.76 37.22Q308.45 38.45 306.14 40.46L306.14 40.46L303.84 36.65Q306.72 34.20 310.75 32.87Q314.78 31.54 319.25 31.54L319.25 31.54Q326.59 31.54 330.59 35.17Q334.58 38.81 334.58 46.22L334.58 46.22L334.58 69.70ZM316.66 70.06L316.66 70.06Q312.41 70.06 309.28 68.65Q306.14 67.25 304.49 64.76Q302.83 62.28 302.83 59.04L302.83 59.04Q302.83 56.09 304.24 53.68Q305.64 51.26 308.84 49.79Q312.05 48.31 317.45 48.31L317.45 48.31L330.48 48.31L330.48 52.13L317.59 52.13Q312.12 52.13 310.00 54.07Q307.87 56.02 307.87 58.90L307.87 58.90Q307.87 62.14 310.39 64.08Q312.91 66.02 317.45 66.02L317.45 66.02Q321.77 66.02 324.90 64.04Q328.03 62.06 329.47 58.32L329.47 58.32L330.62 61.85Q329.18 65.59 325.62 67.82Q322.06 70.06 316.66 70.06ZM353.59 69.70L348.48 69.70L348.48 31.90L353.38 31.90L353.38 42.26L352.58 40.32Q354.38 36.22 358.34 33.88Q362.30 31.54 367.78 31.54L367.78 31.54Q372.38 31.54 375.88 33.30Q379.37 35.06 381.35 38.66Q383.33 42.26 383.33 47.74L383.33 47.74L383.33 69.70L378.22 69.70L378.22 48.24Q378.22 42.26 375.23 39.20Q372.24 36.14 366.84 36.14L366.84 36.14Q362.81 36.14 359.82 37.76Q356.83 39.38 355.21 42.44Q353.59 45.50 353.59 49.82L353.59 49.82L353.59 69.70ZM407.30 70.06L407.30 70.06Q402.62 70.06 398.45 68.72Q394.27 67.39 391.90 65.38L391.90 65.38L394.20 61.34Q396.50 63.07 400.10 64.33Q403.70 65.59 407.66 65.59L407.66 65.59Q413.06 65.59 415.44 63.90Q417.82 62.21 417.82 59.40L417.82 59.40Q417.82 57.31 416.48 56.12Q415.15 54.94 412.99 54.32Q410.83 53.71 408.17 53.28Q405.50 52.85 402.88 52.27Q400.25 51.70 398.09 50.58Q395.93 49.46 394.60 47.52Q393.26 45.58 393.26 42.34L393.26 42.34Q393.26 39.24 394.99 36.79Q396.72 34.34 400.07 32.94Q403.42 31.54 408.24 31.54L408.24 31.54Q411.91 31.54 415.58 32.51Q419.26 33.48 421.63 35.06L421.63 35.06L419.40 39.17Q416.88 37.44 414.00 36.68Q411.12 35.93 408.24 35.93L408.24 35.93Q403.13 35.93 400.72 37.69Q398.30 39.46 398.30 42.19L398.30 42.19Q398.30 44.35 399.64 45.58Q400.97 46.80 403.16 47.48Q405.36 48.17 407.99 48.60Q410.62 49.03 413.24 49.64Q415.87 50.26 418.07 51.30Q420.26 52.34 421.60 54.25Q422.93 56.16 422.93 59.26L422.93 59.26Q422.93 62.57 421.09 64.98Q419.26 67.39 415.76 68.72Q412.27 70.06 407.30 70.06Z"/></svg>