<svg xmlns="http://www.w3.org/2000/svg" xmlns:xlink="http://www.w3.org/1999/xlink" width="515.1600000000001" height="100.80000000000001"><path fill="#212121" d="M25.13 35.42Q29.59 35.42 33.19 37.33Q36.79 39.24 38.84 43.06Q40.90 46.87 40.90 52.34L40.90 52.34L40.90 75.60L34.42 75.60L34.42 53.28Q34.42 47.38 31.46 44.24Q28.51 41.11 23.40 41.11L23.40 41.11Q18.22 41.11 15.16 44.35Q12.10 47.59 12.10 53.78L12.10 53.78L12.10 75.60L5.54 75.60L5.54 22.32L12.10 22.32L12.10 41.76Q14.04 38.74 17.46 37.08Q20.88 35.42 25.13 35.42L25.13 35.42ZM49.18 55.73Q49.18 49.68 51.62 45.11Q54.07 40.54 58.36 38.02Q62.64 35.50 67.90 35.50L67.90 35.50Q73.08 35.50 76.90 37.73Q80.71 39.96 82.58 43.34L82.58 43.34L82.58 36.14L89.21 36.14L89.21 75.60L82.58 75.60L82.58 68.26Q80.64 71.71 76.79 73.98Q72.94 76.25 67.82 76.25L67.82 76.25Q62.57 76.25 58.32 73.66Q54.07 71.06 51.62 66.38Q49.18 61.70 49.18 55.73L49.18 55.73ZM82.58 55.80Q82.58 51.34 80.78 48.02Q78.98 44.71 75.92 42.95Q72.86 41.18 69.19 41.18L69.19 41.18Q65.52 41.18 62.50 42.91Q59.47 44.64 57.67 47.95Q55.87 51.26 55.87 55.73L55.87 55.73Q55.87 60.26 57.67 63.61Q59.47 66.96 62.50 68.72Q65.52 70.49 69.19 70.49L69.19 70.49Q72.86 70.49 75.92 68.72Q78.98 66.96 80.78 63.61Q82.58 60.26 82.58 55.80L82.58 55.80ZM119.52 35.42Q126.72 35.42 131.18 39.78Q135.65 44.14 135.65 52.34L135.65 52.34L135.65 75.60L129.17 75.60L129.17 53.28Q129.17 47.38 126.22 44.24Q123.26 41.11 118.15 41.11L118.15 41.11Q112.97 41.11 109.91 44.35Q106.85 47.59 106.85 53.78L106.85 53.78L106.85 75.60L100.30 75.60L100.30 36.14L106.85 36.14L106.85 41.76Q108.79 38.74 112.14 37.08Q115.49 35.42 119.52 35.42L119.52 35.42ZM160.34 76.25Q155.81 76.25 152.21 74.70Q148.61 73.15 146.52 70.38Q144.43 67.61 144.22 64.01L144.22 64.01L150.98 64.01Q151.27 66.96 153.76 68.83Q156.24 70.70 160.27 70.70L160.27 70.70Q164.02 70.70 166.18 69.05Q168.34 67.39 168.34 64.87L168.34 64.87Q168.34 62.28 166.03 61.02Q163.73 59.76 158.90 58.54L158.90 58.54Q154.51 57.38 151.74 56.20Q148.97 55.01 146.99 52.67Q145.01 50.33 145.01 46.51L145.01 46.51Q145.01 43.49 146.81 40.97Q148.61 38.45 151.92 36.97Q155.23 35.50 159.48 35.50L159.48 35.50Q166.03 35.50 170.06 38.81Q174.10 42.12 174.38 47.88L174.38 47.88L167.83 47.88Q167.62 44.78 165.35 42.91Q163.08 41.04 159.26 41.04L159.26 41.04Q155.74 41.04 153.65 42.55Q151.56 44.06 151.56 46.51L151.56 46.51Q151.56 48.46 152.82 49.72Q154.08 50.98 155.99 51.73Q157.90 52.49 161.28 53.42L161.28 53.42Q165.53 54.58 168.19 55.69Q170.86 56.81 172.76 59.04Q174.67 61.27 174.74 64.87L174.74 64.87Q174.74 68.11 172.94 70.70Q171.14 73.30 167.87 74.77Q164.59 76.25 160.34 76.25L160.34 76.25ZM205.56 36.14L217.87 69.55L230.11 36.14L237.10 36.14L221.62 75.60L213.98 75.60L198.50 36.14L205.56 36.14ZM241.13 55.73Q241.13 49.68 243.58 45.11Q246.02 40.54 250.31 38.02Q254.59 35.50 259.85 35.50L259.85 35.50Q265.03 35.50 268.85 37.73Q272.66 39.96 274.54 43.34L274.54 43.34L274.54 36.14L281.16 36.14L281.16 75.60L274.54 75.60L274.54 68.26Q272.59 71.71 268.74 73.98Q264.89 76.25 259.78 76.25L259.78 76.25Q254.52 76.25 250.27 73.66Q246.02 71.06 243.58 66.38Q241.13 61.70 241.13 55.73L241.13 55.73ZM274.54 55.80Q274.54 51.34 272.74 48.02Q270.94 44.71 267.88 42.95Q264.82 41.18 261.14 41.18L261.14 41.18Q257.47 41.18 254.45 42.91Q251.42 44.64 249.62 47.95Q247.82 51.26 247.82 55.73L247.82 55.73Q247.82 60.26 249.62 63.61Q251.42 66.96 254.45 68.72Q257.47 70.49 261.14 70.49L261.14 70.49Q264.82 70.49 267.88 68.72Q270.94 66.96 272.74 63.61Q274.54 60.26 274.54 55.80L274.54 55.80ZM289.80 55.80Q289.80 49.68 292.25 45.11Q294.70 40.54 299.05 38.02Q303.41 35.50 309.02 35.50L309.02 35.50Q316.30 35.50 321.01 39.02Q325.73 42.55 327.24 48.82L327.24 48.82L320.18 48.82Q319.18 45.22 316.26 43.13Q313.34 41.04 309.02 41.04L309.02 41.04Q303.41 41.04 299.95 44.89Q296.50 48.74 296.50 55.80L296.50 55.80Q296.50 62.93 299.95 66.82Q303.41 70.70 309.02 70.70L309.02 70.70Q313.34 70.70 316.22 68.69Q319.10 66.67 320.18 62.93L320.18 62.93L327.24 62.93Q325.66 68.98 320.90 72.61Q316.15 76.25 309.02 76.25L309.02 76.25Q303.41 76.25 299.05 73.73Q294.70 71.21 292.25 66.60Q289.80 61.99 289.80 55.80L289.80 55.80ZM333.50 55.73Q333.50 49.68 335.95 45.11Q338.40 40.54 342.68 38.02Q346.97 35.50 352.22 35.50L352.22 35.50Q357.41 35.50 361.22 37.73Q365.04 39.96 366.91 43.34L366.91 43.34L366.91 36.14L373.54 36.14L373.54 75.60L366.91 75.60L366.91 68.26Q364.97 71.71 361.12 73.98Q357.26 76.25 352.15 76.25L352.15 76.25Q346.90 76.25 342.65 73.66Q338.40 71.06 335.95 66.38Q333.50 61.70 333.50 55.73L333.50 55.73ZM366.91 55.80Q366.91 51.34 365.11 48.02Q363.31 44.71 360.25 42.95Q357.19 41.18 353.52 41.18L353.52 41.18Q349.85 41.18 346.82 42.91Q343.80 44.64 342.00 47.95Q340.20 51.26 340.20 55.73L340.20 55.73Q340.20 60.26 342.00 63.61Q343.80 66.96 346.82 68.72Q349.85 70.49 353.52 70.49L353.52 70.49Q357.19 70.49 360.25 68.72Q363.31 66.96 365.11 63.61Q366.91 60.26 366.91 55.80L366.91 55.80ZM402.91 41.54L392.62 41.54L392.62 64.80Q392.62 67.68 393.84 68.87Q395.06 70.06 398.09 70.06L398.09 70.06L402.91 70.06L402.91 75.60L397.01 75.60Q391.54 75.60 388.80 73.08Q386.06 70.56 386.06 64.80L386.06 64.80L386.06 41.54L380.95 41.54L380.95 36.14L386.06 36.14L386.06 26.21L392.62 26.21L392.62 36.14L402.91 36.14L402.91 41.54ZM414.22 29.74Q412.34 29.74 411.05 28.44Q409.75 27.14 409.75 25.27L409.75 25.27Q409.75 23.40 411.05 22.10Q412.34 20.81 414.22 20.81L414.22 20.81Q416.02 20.81 417.28 22.10Q418.54 23.40 418.54 25.27L418.54 25.27Q418.54 27.14 417.28 28.44Q416.02 29.74 414.22 29.74L414.22 29.74ZM410.83 36.14L417.38 36.14L417.38 75.60L410.83 75.60L410.83 36.14ZM445.75 76.25Q440.21 76.25 435.71 73.73Q431.21 71.21 428.65 66.56Q426.10 61.92 426.10 55.80L426.10 55.80Q426.10 49.75 428.72 45.11Q431.35 40.46 435.89 37.98Q440.42 35.50 446.04 35.50L446.04 35.50Q451.66 35.50 456.19 37.98Q460.73 40.46 463.36 45.07Q465.98 49.68 465.98 55.80L465.98 55.80Q465.98 61.92 463.28 66.56Q460.58 71.21 455.98 73.73Q451.37 76.25 445.75 76.25L445.75 76.25ZM445.75 70.49Q449.28 70.49 452.38 68.83Q455.47 67.18 457.38 63.86Q459.29 60.55 459.29 55.80L459.29 55.80Q459.29 51.05 457.42 47.74Q455.54 44.42 452.52 42.80Q449.50 41.18 445.97 41.18L445.97 41.18Q442.37 41.18 439.38 42.80Q436.39 44.42 434.59 47.74Q432.79 51.05 432.79 55.80L432.79 55.80Q432.79 60.62 434.56 63.94Q436.32 67.25 439.27 68.87Q442.22 70.49 445.75 70.49L445.75 70.49ZM493.85 35.42Q501.05 35.42 505.51 39.78Q509.98 44.14 509.98 52.34L509.98 52.34L509.98 75.60L503.50 75.60L503.50 53.28Q503.50 47.38 500.54 44.24Q497.59 41.11 492.48 41.11L492.48 41.11Q487.30 41.11 484.24 44.35Q481.18 47.59 481.18 53.78L481.18 53.78L481.18 75.60L474.62 75.60L474.62 36.14L481.18 36.14L481.18 41.76Q483.12 38.74 486.47 37.08Q489.82 35.42 493.85 35.42L493.85 35.42Z"/></svg>