<svg xmlns="http://www.w3.org/2000/svg" xmlns:xlink="http://www.w3.org/1999/xlink" width="441.93600000000004" height="126.43200000000002"><path fill="#f57c00" d="M62.21 62.71Q63.86 62.71 64.62 63.43Q65.38 64.15 65.38 65.30L65.38 65.30Q65.38 67.18 64.26 68.62Q63.14 70.06 60.77 70.13L60.77 70.13Q55.01 70.27 50.54 69.26L50.54 69.26Q45.43 79.99 38.20 87.08Q30.96 94.18 23.69 94.18L23.69 94.18Q16.20 94.18 12.53 85.46Q8.86 76.75 8.86 61.92L8.86 61.92Q8.86 49.25 10.66 39.17L10.66 39.17Q11.30 35.42 12.49 34.09Q13.68 32.76 16.56 32.76L16.56 32.76Q21.31 32.76 21.31 36.86L21.31 36.86Q21.31 37.30 21.17 38.45L21.17 38.45Q19.01 51.41 19.01 61.92L19.01 61.92Q19.01 72.94 20.84 78.66Q22.68 84.38 26.35 84.38L26.35 84.38Q30.10 84.38 34.49 79.20Q38.88 74.02 42.55 66.17L42.55 66.17Q38.16 63.43 35.93 59.08Q33.70 54.72 33.70 49.03L33.70 49.03Q33.70 43.34 35.46 39.42Q37.22 35.50 40.28 33.55Q43.34 31.61 47.09 31.61L47.09 31.61Q51.70 31.61 54.40 34.92Q57.10 38.23 57.10 43.99L57.10 43.99Q57.10 52.27 53.50 62.06L53.50 62.06Q57.31 62.71 62.21 62.71L62.21 62.71ZM40.97 48.53Q40.97 55.58 45.50 58.97L45.50 58.97Q48.31 50.90 48.31 45.65L48.31 45.65Q48.31 42.62 47.52 41.22Q46.73 39.82 45.36 39.82L45.36 39.82Q43.42 39.82 42.19 42.08Q40.97 44.35 40.97 48.53L40.97 48.53ZM64.37 94.18Q59.90 94.18 57.24 90.94Q54.58 87.70 54.58 82.44L54.58 82.44Q54.58 76.68 57.24 71.53Q59.90 66.38 64.33 63.25Q68.76 60.12 73.73 60.12L73.73 60.12Q75.31 60.12 75.85 60.73Q76.39 61.34 76.75 62.93L76.75 62.93Q78.26 62.64 79.92 62.64L79.92 62.64Q83.45 62.64 83.45 65.16L83.45 65.16Q83.45 66.67 82.37 72.36L82.37 72.36Q80.71 80.64 80.71 83.88L80.71 83.88Q80.71 84.96 81.25 85.61Q81.79 86.26 82.66 86.26L82.66 86.26Q84.02 86.26 85.97 84.49Q87.91 82.73 91.22 78.77L91.22 78.77Q92.09 77.76 93.17 77.76L93.17 77.76Q94.10 77.76 94.64 78.62Q95.18 79.49 95.18 81.00L95.18 81.00Q95.18 83.88 93.82 85.46L93.82 85.46Q90.86 89.14 87.55 91.66Q84.24 94.18 81.14 94.18L81.14 94.18Q78.77 94.18 76.79 92.56Q74.81 90.94 73.80 88.13L73.80 88.13Q70.06 94.18 64.37 94.18L64.37 94.18ZM66.96 86.90Q68.54 86.90 69.98 85.03Q71.42 83.16 72.07 80.06L72.07 80.06L74.74 66.82Q71.71 66.89 69.16 69.08Q66.60 71.28 65.09 74.88Q63.58 78.48 63.58 82.51L63.58 82.51Q63.58 84.74 64.48 85.82Q65.38 86.90 66.96 86.90L66.96 86.90ZM103.10 94.18Q96.05 94.18 92.12 90.18Q88.20 86.18 88.20 79.63L88.20 79.63Q88.20 73.80 90.50 69.41Q92.81 65.02 96.48 62.64Q100.15 60.26 104.18 60.26L104.18 60.26Q108.14 60.26 110.34 62.60Q112.54 64.94 112.54 68.62L112.54 68.62Q112.54 71.64 111.20 73.73Q109.87 75.82 107.71 75.82L107.71 75.82Q106.34 75.82 105.52 75.17Q104.69 74.52 104.69 73.37L104.69 73.37Q104.69 72.86 104.83 72.22Q104.98 71.57 105.05 71.28L105.05 71.28Q105.41 70.20 105.41 69.26L105.41 69.26Q105.41 68.33 104.94 67.82Q104.47 67.32 103.61 67.32L103.61 67.32Q101.95 67.32 100.51 68.80Q99.07 70.27 98.21 72.79Q97.34 75.31 97.34 78.34L97.34 78.34Q97.34 86.69 104.62 86.69L104.62 86.69Q107.57 86.69 110.99 84.71Q114.41 82.73 117.72 78.77L117.72 78.77Q118.58 77.76 119.66 77.76L119.66 77.76Q120.60 77.76 121.14 78.62Q121.68 79.49 121.68 81.00L121.68 81.00Q121.68 83.74 120.31 85.46L120.31 85.46Q116.93 89.64 112.21 91.91Q107.50 94.18 103.10 94.18L103.10 94.18ZM123.98 94.18Q119.52 94.18 116.86 90.94Q114.19 87.70 114.19 82.44L114.19 82.44Q114.19 76.68 116.86 71.53Q119.52 66.38 123.95 63.25Q128.38 60.12 133.34 60.12L133.34 60.12Q134.93 60.12 135.47 60.73Q136.01 61.34 136.37 62.93L136.37 62.93Q137.88 62.64 139.54 62.64L139.54 62.64Q143.06 62.64 143.06 65.16L143.06 65.16Q143.06 66.67 141.98 72.36L141.98 72.36Q140.33 80.64 140.33 83.88L140.33 83.88Q140.33 84.96 140.87 85.61Q141.41 86.26 142.27 86.26L142.27 86.26Q143.64 86.26 145.58 84.49Q147.53 82.73 150.84 78.77L150.84 78.77Q151.70 77.76 152.78 77.76L152.78 77.76Q153.72 77.76 154.26 78.62Q154.80 79.49 154.80 81.00L154.80 81.00Q154.80 83.88 153.43 85.46L153.43 85.46Q150.48 89.14 147.17 91.66Q143.86 94.18 140.76 94.18L140.76 94.18Q138.38 94.18 136.40 92.56Q134.42 90.94 133.42 88.13L133.42 88.13Q129.67 94.18 123.98 94.18L123.98 94.18ZM126.58 86.90Q128.16 86.90 129.60 85.03Q131.04 83.16 131.69 80.06L131.69 80.06L134.35 66.82Q131.33 66.89 128.77 69.08Q126.22 71.28 124.70 74.88Q123.19 78.48 123.19 82.51L123.19 82.51Q123.19 84.74 124.09 85.82Q124.99 86.90 126.58 86.90L126.58 86.90ZM181.08 77.76Q182.02 77.76 182.56 78.62Q183.10 79.49 183.10 81.00L183.10 81.00Q183.10 83.88 181.73 85.46L181.73 85.46Q178.63 89.28 174.96 91.73Q171.29 94.18 166.54 94.18L166.54 94.18Q151.85 94.18 151.85 73.51L151.85 73.51Q151.85 70.34 152.06 67.10L152.06 67.10L149.26 67.10Q147.10 67.10 146.34 66.31Q145.58 65.52 145.58 63.79L145.58 63.79Q145.58 59.76 148.82 59.76L148.82 59.76L152.93 59.76Q154.15 51.84 156.67 45.29Q159.19 38.74 162.76 34.85Q166.32 30.96 170.42 30.96L170.42 30.96Q173.45 30.96 175.18 33.62Q176.90 36.29 176.90 40.32L176.90 40.32Q176.90 51.48 167.54 59.76L167.54 59.76L175.61 59.76Q176.76 59.76 177.26 60.26Q177.77 60.77 177.77 62.14L177.77 62.14Q177.77 67.10 169.63 67.10L169.63 67.10L160.85 67.10Q160.70 70.70 160.70 72.72L160.70 72.72Q160.70 80.21 162.47 83.23Q164.23 86.26 168.05 86.26L168.05 86.26Q171.14 86.26 173.52 84.38Q175.90 82.51 179.14 78.77L179.14 78.77Q180.00 77.76 181.08 77.76L181.08 77.76ZM168.48 37.87Q167.40 37.87 166.07 40.57Q164.74 43.27 163.55 48.06Q162.36 52.85 161.57 58.68L161.57 58.68Q165.82 55.01 167.94 50.44Q170.06 45.86 170.06 42.12L170.06 42.12Q170.06 37.87 168.48 37.87L168.48 37.87ZM186.70 55.51Q183.67 55.51 182.16 54.11Q180.65 52.70 180.65 50.18L180.65 50.18Q180.65 47.66 182.63 45.97Q184.61 44.28 187.56 44.28L187.56 44.28Q190.22 44.28 191.88 45.58Q193.54 46.87 193.54 49.25L193.54 49.25Q193.54 52.13 191.66 53.82Q189.79 55.51 186.70 55.51L186.70 55.51ZM186.12 94.18Q181.44 94.18 179.32 90.86Q177.19 87.55 177.19 82.08L177.19 82.08Q177.19 78.84 178.02 73.76Q178.85 68.69 180.14 64.30L180.14 64.30Q180.79 61.99 181.87 61.13Q182.95 60.26 185.33 60.26L185.33 60.26Q189.00 60.26 189.00 62.71L189.00 62.71Q189.00 64.51 187.63 71.06L187.63 71.06Q185.90 78.98 185.90 81.79L185.90 81.79Q185.90 83.95 186.48 85.10Q187.06 86.26 188.42 86.26L188.42 86.26Q189.72 86.26 191.66 84.46Q193.61 82.66 196.85 78.77L196.85 78.77Q197.71 77.76 198.79 77.76L198.79 77.76Q199.73 77.76 200.27 78.62Q200.81 79.49 200.81 81.00L200.81 81.00Q200.81 83.88 199.44 85.46L199.44 85.46Q192.31 94.18 186.12 94.18L186.12 94.18ZM231.70 71.71Q232.63 71.71 233.14 72.65Q233.64 73.58 233.64 75.02L233.64 75.02Q233.64 78.48 231.55 79.13L231.55 79.13Q227.23 80.64 222.05 80.86L222.05 80.86Q220.68 86.90 216.65 90.54Q212.62 94.18 207.50 94.18L207.50 94.18Q203.18 94.18 200.12 92.09Q197.06 90.00 195.48 86.54Q193.90 83.09 193.90 79.06L193.90 79.06Q193.90 73.58 195.98 69.30Q198.07 65.02 201.74 62.60Q205.42 60.19 209.88 60.19L209.88 60.19Q215.35 60.19 218.70 63.97Q222.05 67.75 222.62 73.30L222.62 73.30Q226.01 73.08 230.69 71.86L230.69 71.86Q231.26 71.71 231.70 71.71L231.70 71.71ZM208.08 86.54Q210.38 86.54 212.08 84.67Q213.77 82.80 214.34 79.27L214.34 79.27Q212.11 77.76 210.92 75.31Q209.74 72.86 209.74 70.13L209.74 70.13Q209.74 68.98 209.95 67.82L209.95 67.82L209.59 67.82Q206.71 67.82 204.80 70.60Q202.90 73.37 202.90 78.41L202.90 78.41Q202.90 82.37 204.44 84.46Q205.99 86.54 208.08 86.54L208.08 86.54ZM232.56 94.18Q229.82 94.18 228.71 91.30Q227.59 88.42 227.59 82.08L227.59 82.08Q227.59 72.72 230.26 64.30L230.26 64.30Q230.90 62.21 232.38 61.24Q233.86 60.26 236.52 60.26L236.52 60.26Q237.96 60.26 238.54 60.62Q239.11 60.98 239.11 61.99L239.11 61.99Q239.11 63.14 238.03 67.18L238.03 67.18Q237.31 70.06 236.88 72.22Q236.45 74.38 236.16 77.54L236.16 77.54Q238.54 71.35 241.49 67.46Q244.44 63.58 247.28 61.92Q250.13 60.26 252.50 60.26L252.50 60.26Q257.18 60.26 257.18 64.94L257.18 64.94Q257.18 67.75 255.60 75.10L255.60 75.10Q254.23 81.36 254.23 83.38L254.23 83.38Q254.23 86.26 256.32 86.26L256.32 86.26Q257.76 86.26 259.74 84.49Q261.72 82.73 265.03 78.77L265.03 78.77Q265.90 77.76 266.98 77.76L266.98 77.76Q267.91 77.76 268.45 78.62Q268.99 79.49 268.99 81.00L268.99 81.00Q268.99 83.88 267.62 85.46L267.62 85.46Q264.53 89.28 260.96 91.73Q257.40 94.18 252.86 94.18L252.86 94.18Q249.19 94.18 247.32 92.05Q245.45 89.93 245.45 85.90L245.45 85.90Q245.45 83.88 246.46 78.70L246.46 78.70Q247.39 74.16 247.39 72.43L247.39 72.43Q247.39 71.28 246.60 71.28L246.60 71.28Q245.66 71.28 243.97 73.69Q242.28 76.10 240.52 80.06Q238.75 84.02 237.67 88.42L237.67 88.42Q236.88 91.80 235.84 92.99Q234.79 94.18 232.56 94.18L232.56 94.18ZM348.91 77.76Q349.85 77.76 350.39 78.62Q350.93 79.49 350.93 81.00L350.93 81.00Q350.93 83.81 349.56 85.46L349.56 85.46Q342.43 94.18 334.37 94.18L334.37 94.18Q327.38 94.18 323.21 88.78Q319.03 83.38 319.03 73.30L319.03 73.30Q319.03 70.85 319.25 68.40L319.25 68.40Q314.50 69.26 308.88 69.70L308.88 69.70Q305.14 69.98 303.77 70.06L303.77 70.06Q302.33 77.40 299.74 88.06L299.74 88.06Q298.22 94.32 293.98 94.32L293.98 94.32Q289.37 94.32 289.37 90.14L289.37 90.14Q289.37 89.21 289.73 87.55L289.73 87.55Q292.18 77.69 293.62 70.85L293.62 70.85L290.16 70.99Q287.78 70.99 286.70 70.16Q285.62 69.34 285.62 67.46L285.62 67.46Q285.62 65.09 286.99 63.97Q288.36 62.86 291.53 62.71L291.53 62.71L295.34 62.57Q297.22 52.42 297.22 47.09L297.22 47.09Q297.22 43.70 296.21 42.48Q295.20 41.26 293.54 41.26L293.54 41.26Q288.50 41.26 282.17 49.68L282.17 49.68Q281.23 50.90 280.08 50.90L280.08 50.90Q279.07 50.90 278.35 49.97Q277.63 49.03 277.63 47.59L277.63 47.59Q277.63 45.36 279.43 42.84L279.43 42.84Q282.60 38.45 287.42 35.60Q292.25 32.76 297.22 32.76L297.22 32.76Q301.90 32.76 304.45 35.96Q307.01 39.17 307.01 45.94L307.01 45.94Q307.01 51.91 305.28 62.14L305.28 62.14L312.34 61.78Q316.87 61.56 320.11 61.06L320.11 61.06Q321.41 53.14 324.07 46.22Q326.74 39.31 330.70 34.99Q334.66 30.67 339.55 30.67L339.55 30.67Q343.15 30.67 345.24 33.52Q347.33 36.36 347.33 40.97L347.33 40.97Q347.33 58.82 329.11 65.74L329.11 65.74Q328.90 68.62 328.90 71.71L328.90 71.71Q328.90 79.27 330.77 82.44Q332.64 85.61 336.02 85.61L336.02 85.61Q338.98 85.61 341.42 84.06Q343.87 82.51 346.97 78.77L346.97 78.77Q347.83 77.76 348.91 77.76L348.91 77.76ZM339.19 36.94Q337.61 36.94 335.84 39.82Q334.08 42.70 332.50 47.66Q330.91 52.63 329.98 58.54L329.98 58.54Q335.74 56.16 338.47 51.77Q341.21 47.38 341.21 40.46L341.21 40.46Q341.21 38.81 340.63 37.87Q340.06 36.94 339.19 36.94L339.19 36.94ZM353.95 94.18Q349.49 94.18 346.82 90.94Q344.16 87.70 344.16 82.44L344.16 82.44Q344.16 76.68 346.82 71.53Q349.49 66.38 353.92 63.25Q358.34 60.12 363.31 60.12L363.31 60.12Q364.90 60.12 365.44 60.73Q365.98 61.34 366.34 62.93L366.34 62.93Q367.85 62.64 369.50 62.64L369.50 62.64Q373.03 62.64 373.03 65.16L373.03 65.16Q373.03 66.67 371.95 72.36L371.95 72.36Q370.30 80.64 370.30 83.88L370.30 83.88Q370.30 84.96 370.84 85.61Q371.38 86.26 372.24 86.26L372.24 86.26Q373.61 86.26 375.55 84.49Q377.50 82.73 380.81 78.77L380.81 78.77Q381.67 77.76 382.75 77.76L382.75 77.76Q383.69 77.76 384.23 78.62Q384.77 79.49 384.77 81.00L384.77 81.00Q384.77 83.88 383.40 85.46L383.40 85.46Q380.45 89.14 377.14 91.66Q373.82 94.18 370.73 94.18L370.73 94.18Q368.35 94.18 366.37 92.56Q364.39 90.94 363.38 88.13L363.38 88.13Q359.64 94.18 353.95 94.18L353.95 94.18ZM356.54 86.90Q358.13 86.90 359.57 85.03Q361.01 83.16 361.66 80.06L361.66 80.06L364.32 66.82Q361.30 66.89 358.74 69.08Q356.18 71.28 354.67 74.88Q353.16 78.48 353.16 82.51L353.16 82.51Q353.16 84.74 354.06 85.82Q354.96 86.90 356.54 86.90L356.54 86.90ZM384.05 94.18Q381.31 94.18 380.20 91.30Q379.08 88.42 379.08 82.08L379.08 82.08Q379.08 72.72 381.74 64.30L381.74 64.30Q382.39 62.21 383.87 61.24Q385.34 60.26 388.01 60.26L388.01 60.26Q389.45 60.26 390.02 60.62Q390.60 60.98 390.60 61.99L390.60 61.99Q390.60 63.14 389.52 67.18L389.52 67.18Q388.80 70.06 388.37 72.22Q387.94 74.38 387.65 77.54L387.65 77.54Q390.02 71.35 392.98 67.46Q395.93 63.58 398.77 61.92Q401.62 60.26 403.99 60.26L403.99 60.26Q408.67 60.26 408.67 64.94L408.67 64.94Q408.67 67.75 407.09 75.10L407.09 75.10Q405.72 81.36 405.72 83.38L405.72 83.38Q405.72 86.26 407.81 86.26L407.81 86.26Q409.25 86.26 411.23 84.49Q413.21 82.73 416.52 78.77L416.52 78.77Q417.38 77.76 418.46 77.76L418.46 77.76Q419.40 77.76 419.94 78.62Q420.48 79.49 420.48 81.00L420.48 81.00Q420.48 83.88 419.11 85.46L419.11 85.46Q416.02 89.28 412.45 91.73Q408.89 94.18 404.35 94.18L404.35 94.18Q400.68 94.18 398.81 92.05Q396.94 89.93 396.94 85.90L396.94 85.90Q396.94 83.88 397.94 78.70L397.94 78.70Q398.88 74.16 398.88 72.43L398.88 72.43Q398.88 71.28 398.09 71.28L398.09 71.28Q397.15 71.28 395.46 73.69Q393.77 76.10 392.00 80.06Q390.24 84.02 389.16 88.42L389.16 88.42Q388.37 91.80 387.32 92.99Q386.28 94.18 384.05 94.18L384.05 94.18ZM428.04 95.76Q424.30 95.76 422.32 94.03Q420.34 92.30 420.34 90.14L420.34 90.14Q420.34 88.27 421.70 86.90Q423.07 85.54 425.74 85.54L425.74 85.54Q426.67 85.54 427.93 85.72Q429.19 85.90 429.84 85.97L429.84 85.97Q429.77 84.10 429.01 82.44Q428.26 80.78 427.10 79.24Q425.95 77.69 424.94 76.54L424.94 76.54Q422.71 80.78 420.52 83.59Q418.32 86.40 415.73 88.92L415.73 88.92Q414.43 90.22 412.99 90.22L412.99 90.22Q411.84 90.22 411.12 89.39Q410.40 88.56 410.40 87.34L410.40 87.34Q410.40 85.90 411.41 84.67L411.41 84.67L412.34 83.52Q416.30 78.62 418.32 75.46L418.32 75.46Q419.54 73.37 421.20 69.88Q422.86 66.38 424.44 62.64L424.44 62.64Q425.81 59.47 430.13 59.47L430.13 59.47Q432.14 59.47 432.94 59.83Q433.73 60.19 433.73 60.98L433.73 60.98Q433.73 61.42 433.44 62.35Q433.15 63.29 432.65 64.22L432.65 64.22Q431.35 66.82 431.35 68.62L431.35 68.62Q431.35 69.70 432.11 70.99Q432.86 72.29 434.45 74.23L434.45 74.23Q436.75 77.26 437.94 79.38Q439.13 81.50 439.13 84.02L439.13 84.02Q439.13 84.74 438.98 86.04L438.98 86.04Q442.51 84.67 447.26 78.77L447.26 78.77Q448.13 77.76 449.21 77.76L449.21 77.76Q450.14 77.76 450.68 78.62Q451.22 79.49 451.22 81.00L451.22 81.00Q451.22 83.74 449.86 85.46L449.86 85.46Q446.26 89.93 442.98 91.55Q439.70 93.17 434.88 93.31L434.88 93.31Q432 95.76 428.04 95.76L428.04 95.76Z"/></svg>