
      <svg width="630.52" height="246.28" viewBox="0 0 630.52 246.28" xmlns="http://www.w3.org/2000/svg">
        <rect width="100%" height="100%" fill="#ffffff" />
        <path fill="#000000" d="M123.08 166.16L63.68 166.16L63.68 82.16L121.28 82.16L121.28 89.84L72.56 89.84L72.56 158.48L123.08 158.48L123.08 166.16ZM116 127.28L71.60 127.28L71.60 119.72L116 119.72L116 127.28ZM150.68 166.16L142.16 166.16L142.16 103.16L150.32 103.16L150.32 120.44L149 117.20Q152 110.36 158.60 106.46Q165.20 102.56 174.32 102.56L174.32 102.56Q182 102.56 187.82 105.50Q193.64 108.44 196.94 114.44Q200.24 120.44 200.24 129.56L200.24 129.56L200.24 166.16L191.72 166.16L191.72 130.40Q191.72 120.44 186.74 115.34Q181.76 110.24 172.76 110.24L172.76 110.24Q166.04 110.24 161.06 112.94Q156.08 115.64 153.38 120.74Q150.68 125.84 150.68 133.04L150.68 133.04L150.68 166.16ZM249.44 166.76L249.44 166.76Q240.08 166.76 232.70 162.62Q225.32 158.48 221.12 151.22Q216.92 143.96 216.92 134.60L216.92 134.60Q216.92 125.12 221.12 117.92Q225.32 110.72 232.70 106.64Q240.08 102.56 249.44 102.56L249.44 102.56Q257.48 102.56 263.96 105.68Q270.44 108.80 274.16 115.04L274.16 115.04L267.80 119.36Q264.56 114.56 259.76 112.28Q254.96 110 249.32 110L249.32 110Q242.60 110 237.20 113.06Q231.80 116.12 228.68 121.64Q225.56 127.16 225.56 134.60L225.56 134.60Q225.56 142.04 228.68 147.56Q231.80 153.08 237.20 156.14Q242.60 159.20 249.32 159.20L249.32 159.20Q254.96 159.20 259.76 156.92Q264.56 154.64 267.80 149.96L267.80 149.96L274.16 154.28Q270.44 160.40 263.96 163.58Q257.48 166.76 249.44 166.76ZM316.52 166.76L316.52 166.76Q307.40 166.76 300.14 162.62Q292.88 158.48 288.68 151.22Q284.48 143.96 284.48 134.60L284.48 134.60Q284.48 125.12 288.68 117.92Q292.88 110.72 300.08 106.64Q307.28 102.56 316.52 102.56L316.52 102.56Q325.88 102.56 333.14 106.64Q340.40 110.72 344.54 117.92Q348.68 125.12 348.68 134.60L348.68 134.60Q348.68 143.96 344.54 151.22Q340.40 158.48 333.08 162.62Q325.76 166.76 316.52 166.76ZM316.52 159.20L316.52 159.20Q323.36 159.20 328.64 156.14Q333.92 153.08 336.98 147.50Q340.04 141.92 340.04 134.60L340.04 134.60Q340.04 127.16 336.98 121.64Q333.92 116.12 328.64 113.06Q323.36 110 316.64 110L316.64 110Q309.92 110 304.64 113.06Q299.36 116.12 296.24 121.64Q293.12 127.16 293.12 134.60L293.12 134.60Q293.12 141.92 296.24 147.50Q299.36 153.08 304.64 156.14Q309.92 159.20 316.52 159.20ZM376.04 166.16L367.52 166.16L367.52 95.24Q367.52 86.84 372.44 81.68Q377.36 76.52 386.60 76.52L386.60 76.52Q390.20 76.52 393.56 77.48Q396.92 78.44 399.20 80.48L399.20 80.48L396.32 86.84Q394.52 85.28 392.12 84.50Q389.72 83.72 386.96 83.72L386.96 83.72Q381.56 83.72 378.68 86.72Q375.80 89.72 375.80 95.60L375.80 95.60L375.80 105.20L376.04 109.16L376.04 166.16ZM395.24 110.24L356.24 110.24L356.24 103.16L395.24 103.16L395.24 110.24ZM416.72 166.16L408.20 166.16L408.20 95.24Q408.20 86.84 413.12 81.68Q418.04 76.52 427.28 76.52L427.28 76.52Q430.88 76.52 434.24 77.48Q437.60 78.44 439.88 80.48L439.88 80.48L437 86.84Q435.20 85.28 432.80 84.50Q430.40 83.72 427.64 83.72L427.64 83.72Q422.24 83.72 419.36 86.72Q416.48 89.72 416.48 95.60L416.48 95.60L416.48 105.20L416.72 109.16L416.72 166.16ZM435.92 110.24L396.92 110.24L396.92 103.16L435.92 103.16L435.92 110.24ZM474.20 166.76L474.20 166.76Q464.36 166.76 456.92 162.62Q449.48 158.48 445.28 151.22Q441.08 143.96 441.08 134.60L441.08 134.60Q441.08 125.24 445.10 118.04Q449.12 110.84 456.14 106.70Q463.16 102.56 471.92 102.56L471.92 102.56Q480.80 102.56 487.70 106.58Q494.60 110.60 498.56 117.86Q502.52 125.12 502.52 134.60L502.52 134.60Q502.52 135.20 502.46 135.86Q502.40 136.52 502.40 137.24L502.40 137.24L447.56 137.24L447.56 130.88L497.84 130.88L494.48 133.40Q494.48 126.56 491.54 121.22Q488.60 115.88 483.56 112.88Q478.52 109.88 471.92 109.88L471.92 109.88Q465.44 109.88 460.28 112.88Q455.12 115.88 452.24 121.28Q449.36 126.68 449.36 133.64L449.36 133.64L449.36 134.96Q449.36 142.16 452.54 147.62Q455.72 153.08 461.42 156.14Q467.12 159.20 474.44 159.20L474.44 159.20Q480.20 159.20 485.18 157.16Q490.16 155.12 493.76 150.92L493.76 150.92L498.56 156.44Q494.36 161.48 488.06 164.12Q481.76 166.76 474.20 166.76ZM546.68 166.76L546.68 166.76Q536.84 166.76 529.40 162.62Q521.96 158.48 517.76 151.22Q513.56 143.96 513.56 134.60L513.56 134.60Q513.56 125.24 517.58 118.04Q521.60 110.84 528.62 106.70Q535.64 102.56 544.40 102.56L544.40 102.56Q553.28 102.56 560.18 106.58Q567.08 110.60 571.04 117.86Q575 125.12 575 134.60L575 134.60Q575 135.20 574.94 135.86Q574.88 136.52 574.88 137.24L574.88 137.24L520.04 137.24L520.04 130.88L570.32 130.88L566.96 133.40Q566.96 126.56 564.02 121.22Q561.08 115.88 556.04 112.88Q551 109.88 544.40 109.88L544.40 109.88Q537.92 109.88 532.76 112.88Q527.60 115.88 524.72 121.28Q521.84 126.68 521.84 133.64L521.84 133.64L521.84 134.96Q521.84 142.16 525.02 147.62Q528.20 153.08 533.90 156.14Q539.60 159.20 546.92 159.20L546.92 159.20Q552.68 159.20 557.66 157.16Q562.64 155.12 566.24 150.92L566.24 150.92L571.04 156.44Q566.84 161.48 560.54 164.12Q554.24 166.76 546.68 166.76Z"/>
      </svg>
    