
      <svg xmlns="http://www.w3.org/2000/svg" width="800" height="300">
        <rect width="100%" height="100%" fill="#ffffff" stroke="red" stroke-width="5"/>
        <line x1="0" y1="0" x2="800" y2="300" stroke="blue" stroke-width="2"/>
        <line x1="0" y1="300" x2="800" y2="0" stroke="blue" stroke-width="2"/>
        <svg xmlns="http://www.w3.org/2000/svg" xmlns:xlink="http://www.w3.org/1999/xlink" width="758.04" height="210.72"><path fill="#000000" d="M80.26 228.60Q81.82 228.60 82.72 230.04Q83.62 231.48 83.62 234L83.62 234Q83.62 238.80 81.34 241.44L81.34 241.44Q76.90 246.84 68.80 251.40Q60.70 255.96 51.46 255.96L51.46 255.96Q38.86 255.96 31.90 249.12Q24.94 242.28 24.94 230.40L24.94 230.40Q24.94 222.12 28.42 214.98Q31.90 207.84 38.08 203.64Q44.26 199.44 52.06 199.44L52.06 199.44Q59.02 199.44 63.22 203.58Q67.42 207.72 67.42 214.80L67.42 214.80Q67.42 223.08 61.48 229.02Q55.54 234.96 41.38 238.44L41.38 238.44Q44.38 243.96 52.78 243.96L52.78 243.96Q58.18 243.96 65.08 240.18Q71.98 236.40 77.02 230.28L77.02 230.28Q78.46 228.60 80.26 228.60L80.26 228.60ZM50.02 211.20Q45.58 211.20 42.52 216.36Q39.46 221.52 39.46 228.84L39.46 228.84L39.46 229.08Q46.54 227.40 50.62 224.04Q54.70 220.68 54.70 216.24L54.70 216.24Q54.70 213.96 53.44 212.58Q52.18 211.20 50.02 211.20L50.02 211.20ZM164.02 218.88Q164.38 218.76 165.22 218.76L165.22 218.76Q167.02 218.76 167.98 219.96Q168.94 221.16 168.94 223.20L168.94 223.20Q168.94 226.92 167.50 229.02Q166.06 231.12 163.18 232.08L163.18 232.08Q157.66 233.88 151.42 233.88L151.42 233.88Q146.14 233.88 141.46 232.44L141.46 232.44Q137.98 238.08 133.78 244.08L133.78 244.08Q128.98 250.92 125.56 253.44Q122.14 255.96 117.82 255.96L117.82 255.96Q113.02 255.96 110.56 252.24Q108.10 248.52 107.50 240L107.50 240L106.90 231.24Q103.18 241.32 100.24 246.60Q97.30 251.88 94.36 253.92Q91.42 255.96 87.46 255.96L87.46 255.96Q82.54 255.96 79.72 252.12Q76.90 248.28 76.18 240L76.18 240Q74.74 223.20 74.74 210.60L74.74 210.60L74.74 206.40Q74.86 202.44 76.90 200.88Q78.94 199.32 83.02 199.32L83.02 199.32Q86.14 199.32 87.64 200.70Q89.14 202.08 89.14 205.32L89.14 205.32Q89.14 219.12 90.82 241.20L90.82 241.20Q98.98 224.04 105.82 205.44L105.82 205.44Q107.14 201.84 109 200.58Q110.86 199.32 113.50 199.32L113.50 199.32Q116.74 199.32 118 200.64Q119.26 201.96 119.26 205.32L119.26 205.32Q119.26 219.12 120.94 241.20L120.94 241.20Q128.14 230.52 131.74 224.16L131.74 224.16Q129.94 220.68 129.94 215.88L129.94 215.88Q129.94 211.80 131.74 207.96Q133.54 204.12 136.66 201.72Q139.78 199.32 143.74 199.32L143.74 199.32Q147.22 199.32 149.38 201.78Q151.54 204.24 151.54 208.92L151.54 208.92Q151.54 214.32 148.66 221.28L148.66 221.28Q153.22 221.04 160.78 219.48L160.78 219.48L164.02 218.88ZM167.02 255.96Q162.46 255.96 160.60 251.16Q158.74 246.36 158.74 235.80L158.74 235.80Q158.74 220.20 163.18 206.16L163.18 206.16Q164.26 202.68 166.72 201.06Q169.18 199.44 173.62 199.44L173.62 199.44Q176.02 199.44 176.98 200.04Q177.94 200.64 177.94 202.32L177.94 202.32Q177.94 204.24 176.14 210.96L176.14 210.96Q174.94 215.76 174.22 219.36Q173.50 222.96 173.02 228.24L173.02 228.24Q176.98 217.92 181.90 211.44Q186.82 204.96 191.56 202.20Q196.30 199.44 200.26 199.44L200.26 199.44Q208.06 199.44 208.06 207.24L208.06 207.24Q208.06 208.80 206.98 214.80L206.98 214.80Q206.02 219.60 206.02 220.80L206.02 220.80Q206.02 225 209.02 225L209.02 225Q212.38 225 217.66 219.72L217.66 219.72Q219.22 218.16 220.90 218.16L220.90 218.16Q222.46 218.16 223.36 219.54Q224.26 220.92 224.26 223.20L224.26 223.20Q224.26 227.64 221.86 230.16L221.86 230.16Q218.50 233.64 214 236.10Q209.50 238.56 204.46 238.56L204.46 238.56Q198.10 238.56 194.80 235.32Q191.50 232.08 191.50 226.56L191.50 226.56Q191.50 224.76 191.86 222.96L191.86 222.96Q192.10 220.56 192.10 219.72L192.10 219.72Q192.10 217.80 190.78 217.80L190.78 217.80Q188.98 217.80 186.04 221.82Q183.10 225.84 180.22 232.44Q177.34 239.04 175.54 246.36L175.54 246.36Q174.22 252 172.48 253.98Q170.74 255.96 167.02 255.96L167.02 255.96ZM307.42 218.88Q307.78 218.76 308.62 218.76L308.62 218.76Q310.42 218.76 311.38 219.96Q312.34 221.16 312.34 223.20L312.34 223.20Q312.34 226.92 310.90 229.02Q309.46 231.12 306.58 232.08L306.58 232.08Q301.06 233.88 294.82 233.88L294.82 233.88Q289.54 233.88 284.86 232.44L284.86 232.44Q281.38 238.08 277.18 244.08L277.18 244.08Q272.38 250.92 268.96 253.44Q265.54 255.96 261.22 255.96L261.22 255.96Q256.42 255.96 253.96 252.24Q251.50 248.52 250.90 240L250.90 240L250.30 231.24Q246.58 241.32 243.64 246.60Q240.70 251.88 237.76 253.92Q234.82 255.96 230.86 255.96L230.86 255.96Q225.94 255.96 223.12 252.12Q220.30 248.28 219.58 240L219.58 240Q218.14 223.20 218.14 210.60L218.14 210.60L218.14 206.40Q218.26 202.44 220.30 200.88Q222.34 199.32 226.42 199.32L226.42 199.32Q229.54 199.32 231.04 200.70Q232.54 202.08 232.54 205.32L232.54 205.32Q232.54 219.12 234.22 241.20L234.22 241.20Q242.38 224.04 249.22 205.44L249.22 205.44Q250.54 201.84 252.40 200.58Q254.26 199.32 256.90 199.32L256.90 199.32Q260.14 199.32 261.40 200.64Q262.66 201.96 262.66 205.32L262.66 205.32Q262.66 219.12 264.34 241.20L264.34 241.20Q271.54 230.52 275.14 224.16L275.14 224.16Q273.34 220.68 273.34 215.88L273.34 215.88Q273.34 211.80 275.14 207.96Q276.94 204.12 280.06 201.72Q283.18 199.32 287.14 199.32L287.14 199.32Q290.62 199.32 292.78 201.78Q294.94 204.24 294.94 208.92L294.94 208.92Q294.94 214.32 292.06 221.28L292.06 221.28Q296.62 221.04 304.18 219.48L304.18 219.48L307.42 218.88ZM355.42 228.60Q356.98 228.60 357.88 230.04Q358.78 231.48 358.78 234L358.78 234Q358.78 238.80 356.50 241.44L356.50 241.44Q352.06 246.84 343.96 251.40Q335.86 255.96 326.62 255.96L326.62 255.96Q314.02 255.96 307.06 249.12Q300.10 242.28 300.10 230.40L300.10 230.40Q300.10 222.12 303.58 214.98Q307.06 207.84 313.24 203.64Q319.42 199.44 327.22 199.44L327.22 199.44Q334.18 199.44 338.38 203.58Q342.58 207.72 342.58 214.80L342.58 214.80Q342.58 223.08 336.64 229.02Q330.70 234.96 316.54 238.44L316.54 238.44Q319.54 243.96 327.94 243.96L327.94 243.96Q333.34 243.96 340.24 240.18Q347.14 236.40 352.18 230.28L352.18 230.28Q353.62 228.60 355.42 228.60L355.42 228.60ZM325.18 211.20Q320.74 211.20 317.68 216.36Q314.62 221.52 314.62 228.84L314.62 228.84L314.62 229.08Q321.70 227.40 325.78 224.04Q329.86 220.68 329.86 216.24L329.86 216.24Q329.86 213.96 328.60 212.58Q327.34 211.20 325.18 211.20L325.18 211.20ZM357.58 255.96Q353.02 255.96 351.16 251.16Q349.30 246.36 349.30 235.80L349.30 235.80Q349.30 220.20 353.74 206.16L353.74 206.16Q354.82 202.68 357.28 201.06Q359.74 199.44 364.18 199.44L364.18 199.44Q366.58 199.44 367.54 200.04Q368.50 200.64 368.50 202.32L368.50 202.32Q368.50 204.24 366.70 210.96L366.70 210.96Q365.50 215.76 364.78 219.36Q364.06 222.96 363.58 228.24L363.58 228.24Q367.54 217.92 372.46 211.44Q377.38 204.96 382.12 202.20Q386.86 199.44 390.82 199.44L390.82 199.44Q398.62 199.44 398.62 207.24L398.62 207.24Q398.62 208.80 397.54 214.80L397.54 214.80Q396.58 219.60 396.58 220.80L396.58 220.80Q396.58 225 399.58 225L399.58 225Q402.94 225 408.22 219.72L408.22 219.72Q409.78 218.16 411.46 218.16L411.46 218.16Q413.02 218.16 413.92 219.54Q414.82 220.92 414.82 223.20L414.82 223.20Q414.82 227.64 412.42 230.16L412.42 230.16Q409.06 233.64 404.56 236.10Q400.06 238.56 395.02 238.56L395.02 238.56Q388.66 238.56 385.36 235.32Q382.06 232.08 382.06 226.56L382.06 226.56Q382.06 224.76 382.42 222.96L382.42 222.96Q382.66 220.56 382.66 219.72L382.66 219.72Q382.66 217.80 381.34 217.80L381.34 217.80Q379.54 217.80 376.60 221.82Q373.66 225.84 370.78 232.44Q367.90 239.04 366.10 246.36L366.10 246.36Q364.78 252 363.04 253.98Q361.30 255.96 357.58 255.96L357.58 255.96ZM497.98 218.88Q498.34 218.76 499.18 218.76L499.18 218.76Q500.98 218.76 501.94 219.96Q502.90 221.16 502.90 223.20L502.90 223.20Q502.90 226.92 501.46 229.02Q500.02 231.12 497.14 232.08L497.14 232.08Q491.62 233.88 485.38 233.88L485.38 233.88Q480.10 233.88 475.42 232.44L475.42 232.44Q471.94 238.08 467.74 244.08L467.74 244.08Q462.94 250.92 459.52 253.44Q456.10 255.96 451.78 255.96L451.78 255.96Q446.98 255.96 444.52 252.24Q442.06 248.52 441.46 240L441.46 240L440.86 231.24Q437.14 241.32 434.20 246.60Q431.26 251.88 428.32 253.92Q425.38 255.96 421.42 255.96L421.42 255.96Q416.50 255.96 413.68 252.12Q410.86 248.28 410.14 240L410.14 240Q408.70 223.20 408.70 210.60L408.70 210.60L408.70 206.40Q408.82 202.44 410.86 200.88Q412.90 199.32 416.98 199.32L416.98 199.32Q420.10 199.32 421.60 200.70Q423.10 202.08 423.10 205.32L423.10 205.32Q423.10 219.12 424.78 241.20L424.78 241.20Q432.94 224.04 439.78 205.44L439.78 205.44Q441.10 201.84 442.96 200.58Q444.82 199.32 447.46 199.32L447.46 199.32Q450.70 199.32 451.96 200.64Q453.22 201.96 453.22 205.32L453.22 205.32Q453.22 219.12 454.90 241.20L454.90 241.20Q462.10 230.52 465.70 224.16L465.70 224.16Q463.90 220.68 463.90 215.88L463.90 215.88Q463.90 211.80 465.70 207.96Q467.50 204.12 470.62 201.72Q473.74 199.32 477.70 199.32L477.70 199.32Q481.18 199.32 483.34 201.78Q485.50 204.24 485.50 208.92L485.50 208.92Q485.50 214.32 482.62 221.28L482.62 221.28Q487.18 221.04 494.74 219.48L494.74 219.48L497.98 218.88ZM545.98 228.60Q547.54 228.60 548.44 230.04Q549.34 231.48 549.34 234L549.34 234Q549.34 238.80 547.06 241.44L547.06 241.44Q542.62 246.84 534.52 251.40Q526.42 255.96 517.18 255.96L517.18 255.96Q504.58 255.96 497.62 249.12Q490.66 242.28 490.66 230.40L490.66 230.40Q490.66 222.12 494.14 214.98Q497.62 207.84 503.80 203.64Q509.98 199.44 517.78 199.44L517.78 199.44Q524.74 199.44 528.94 203.58Q533.14 207.72 533.14 214.80L533.14 214.80Q533.14 223.08 527.20 229.02Q521.26 234.96 507.10 238.44L507.10 238.44Q510.10 243.96 518.50 243.96L518.50 243.96Q523.90 243.96 530.80 240.18Q537.70 236.40 542.74 230.28L542.74 230.28Q544.18 228.60 545.98 228.60L545.98 228.60ZM515.74 211.20Q511.30 211.20 508.24 216.36Q505.18 221.52 505.18 228.84L505.18 228.84L505.18 229.08Q512.26 227.40 516.34 224.04Q520.42 220.68 520.42 216.24L520.42 216.24Q520.42 213.96 519.16 212.58Q517.90 211.20 515.74 211.20L515.74 211.20ZM548.14 255.96Q543.58 255.96 541.72 251.16Q539.86 246.36 539.86 235.80L539.86 235.80Q539.86 220.20 544.30 206.16L544.30 206.16Q545.38 202.68 547.84 201.06Q550.30 199.44 554.74 199.44L554.74 199.44Q557.14 199.44 558.10 200.04Q559.06 200.64 559.06 202.32L559.06 202.32Q559.06 204.24 557.26 210.96L557.26 210.96Q556.06 215.76 555.34 219.36Q554.62 222.96 554.14 228.24L554.14 228.24Q558.10 217.92 563.02 211.44Q567.94 204.96 572.68 202.20Q577.42 199.44 581.38 199.44L581.38 199.44Q589.18 199.44 589.18 207.24L589.18 207.24Q589.18 208.80 588.10 214.80L588.10 214.80Q587.14 219.60 587.14 220.80L587.14 220.80Q587.14 225 590.14 225L590.14 225Q593.50 225 598.78 219.72L598.78 219.72Q600.34 218.16 602.02 218.16L602.02 218.16Q603.58 218.16 604.48 219.54Q605.38 220.92 605.38 223.20L605.38 223.20Q605.38 227.64 602.98 230.16L602.98 230.16Q599.62 233.64 595.12 236.10Q590.62 238.56 585.58 238.56L585.58 238.56Q579.22 238.56 575.92 235.32Q572.62 232.08 572.62 226.56L572.62 226.56Q572.62 224.76 572.98 222.96L572.98 222.96Q573.22 220.56 573.22 219.72L573.22 219.72Q573.22 217.80 571.90 217.80L571.90 217.80Q570.10 217.80 567.16 221.82Q564.22 225.84 561.34 232.44Q558.46 239.04 556.66 246.36L556.66 246.36Q555.34 252 553.60 253.98Q551.86 255.96 548.14 255.96L548.14 255.96ZM688.54 218.88Q688.90 218.76 689.74 218.76L689.74 218.76Q691.54 218.76 692.50 219.96Q693.46 221.16 693.46 223.20L693.46 223.20Q693.46 226.92 692.02 229.02Q690.58 231.12 687.70 232.08L687.70 232.08Q682.18 233.88 675.94 233.88L675.94 233.88Q670.66 233.88 665.98 232.44L665.98 232.44Q662.50 238.08 658.30 244.08L658.30 244.08Q653.50 250.92 650.08 253.44Q646.66 255.96 642.34 255.96L642.34 255.96Q637.54 255.96 635.08 252.24Q632.62 248.52 632.02 240L632.02 240L631.42 231.24Q627.70 241.32 624.76 246.60Q621.82 251.88 618.88 253.92Q615.94 255.96 611.98 255.96L611.98 255.96Q607.06 255.96 604.24 252.12Q601.42 248.28 600.70 240L600.70 240Q599.26 223.20 599.26 210.60L599.26 210.60L599.26 206.40Q599.38 202.44 601.42 200.88Q603.46 199.32 607.54 199.32L607.54 199.32Q610.66 199.32 612.16 200.70Q613.66 202.08 613.66 205.32L613.66 205.32Q613.66 219.12 615.34 241.20L615.34 241.20Q623.50 224.04 630.34 205.44L630.34 205.44Q631.66 201.84 633.52 200.58Q635.38 199.32 638.02 199.32L638.02 199.32Q641.26 199.32 642.52 200.64Q643.78 201.96 643.78 205.32L643.78 205.32Q643.78 219.12 645.46 241.20L645.46 241.20Q652.66 230.52 656.26 224.16L656.26 224.16Q654.46 220.68 654.46 215.88L654.46 215.88Q654.46 211.80 656.26 207.96Q658.06 204.12 661.18 201.72Q664.30 199.32 668.26 199.32L668.26 199.32Q671.74 199.32 673.90 201.78Q676.06 204.24 676.06 208.92L676.06 208.92Q676.06 214.32 673.18 221.28L673.18 221.28Q677.74 221.04 685.30 219.48L685.30 219.48L688.54 218.88ZM736.54 228.60Q738.10 228.60 739 230.04Q739.90 231.48 739.90 234L739.90 234Q739.90 238.80 737.62 241.44L737.62 241.44Q733.18 246.84 725.08 251.40Q716.98 255.96 707.74 255.96L707.74 255.96Q695.14 255.96 688.18 249.12Q681.22 242.28 681.22 230.40L681.22 230.40Q681.22 222.12 684.70 214.98Q688.18 207.84 694.36 203.64Q700.54 199.44 708.34 199.44L708.34 199.44Q715.30 199.44 719.50 203.58Q723.70 207.72 723.70 214.80L723.70 214.80Q723.70 223.08 717.76 229.02Q711.82 234.96 697.66 238.44L697.66 238.44Q700.66 243.96 709.06 243.96L709.06 243.96Q714.46 243.96 721.36 240.18Q728.26 236.40 733.30 230.28L733.30 230.28Q734.74 228.60 736.54 228.60L736.54 228.60ZM706.30 211.20Q701.86 211.20 698.80 216.36Q695.74 221.52 695.74 228.84L695.74 228.84L695.74 229.08Q702.82 227.40 706.90 224.04Q710.98 220.68 710.98 216.24L710.98 216.24Q710.98 213.96 709.72 212.58Q708.46 211.20 706.30 211.20L706.30 211.20ZM738.70 255.96Q734.14 255.96 732.28 251.16Q730.42 246.36 730.42 235.80L730.42 235.80Q730.42 220.20 734.86 206.16L734.86 206.16Q735.94 202.68 738.40 201.06Q740.86 199.44 745.30 199.44L745.30 199.44Q747.70 199.44 748.66 200.04Q749.62 200.64 749.62 202.32L749.62 202.32Q749.62 204.24 747.82 210.96L747.82 210.96Q746.62 215.76 745.90 219.36Q745.18 222.96 744.70 228.24L744.70 228.24Q748.66 217.92 753.58 211.44Q758.50 204.96 763.24 202.20Q767.98 199.44 771.94 199.44L771.94 199.44Q779.74 199.44 779.74 207.24L779.74 207.24Q779.74 208.80 778.66 214.80L778.66 214.80Q777.70 219.60 777.70 220.80L777.70 220.80Q777.70 225 780.70 225L780.70 225Q784.06 225 789.34 219.72L789.34 219.72Q790.90 218.16 792.58 218.16L792.58 218.16Q794.14 218.16 795.04 219.54Q795.94 220.92 795.94 223.20L795.94 223.20Q795.94 227.64 793.54 230.16L793.54 230.16Q790.18 233.64 785.68 236.10Q781.18 238.56 776.14 238.56L776.14 238.56Q769.78 238.56 766.48 235.32Q763.18 232.08 763.18 226.56L763.18 226.56Q763.18 224.76 763.54 222.96L763.54 222.96Q763.78 220.56 763.78 219.72L763.78 219.72Q763.78 217.80 762.46 217.80L762.46 217.80Q760.66 217.80 757.72 221.82Q754.78 225.84 751.90 232.44Q749.02 239.04 747.22 246.36L747.22 246.36Q745.90 252 744.16 253.98Q742.42 255.96 738.70 255.96L738.70 255.96Z"/></svg>
      </svg>
    