
      <svg xmlns="http://www.w3.org/2000/svg" width="800" height="300">
        <rect width="100%" height="100%" fill="#ffffff" stroke="red" stroke-width="5"/>
        <line x1="0" y1="0" x2="800" y2="300" stroke="blue" stroke-width="2"/>
        <line x1="0" y1="300" x2="800" y2="0" stroke="blue" stroke-width="2"/>
        <svg xmlns="http://www.w3.org/2000/svg" xmlns:xlink="http://www.w3.org/1999/xlink" width="961.6800000000001" height="146.28"><path fill="#2e7d32" d="M-42.20 223.74L-42.20 223.74Q-52.04 223.74-59.48 219.60Q-66.92 215.46-71.12 208.20Q-75.32 200.94-75.32 191.58L-75.32 191.58Q-75.32 182.22-71.30 175.02Q-67.28 167.82-60.26 163.68Q-53.24 159.54-44.48 159.54L-44.48 159.54Q-35.60 159.54-28.70 163.56Q-21.80 167.58-17.84 174.84Q-13.88 182.10-13.88 191.58L-13.88 191.58Q-13.88 192.18-13.94 192.84Q-14.00 193.50-14.00 194.22L-14.00 194.22L-68.84 194.22L-68.84 187.86L-18.56 187.86L-21.92 190.38Q-21.92 183.54-24.86 178.20Q-27.80 172.86-32.84 169.86Q-37.88 166.86-44.48 166.86L-44.48 166.86Q-50.96 166.86-56.12 169.86Q-61.28 172.86-64.16 178.26Q-67.04 183.66-67.04 190.62L-67.04 190.62L-67.04 191.94Q-67.04 199.14-63.86 204.60Q-60.68 210.06-54.98 213.12Q-49.28 216.18-41.96 216.18L-41.96 216.18Q-36.20 216.18-31.22 214.14Q-26.24 212.10-22.64 207.90L-22.64 207.90L-17.84 213.42Q-22.04 218.46-28.34 221.10Q-34.64 223.74-42.20 223.74ZM24.40 223.14L16.36 223.14L-7.40 160.14L0.76 160.14L22.36 218.58L18.64 218.58L40.84 160.14L48.16 160.14L70.12 218.58L66.40 218.58L88.36 160.14L96.16 160.14L72.28 223.14L64.24 223.14L43.12 168.18L45.64 168.18L24.40 223.14ZM129.88 223.14L121.84 223.14L98.08 160.14L106.24 160.14L127.84 218.58L124.12 218.58L146.32 160.14L153.64 160.14L175.60 218.58L171.88 218.58L193.84 160.14L201.64 160.14L177.76 223.14L169.72 223.14L148.60 168.18L151.12 168.18L129.88 223.14ZM223.00 223.14L214.48 223.14L214.48 160.14L222.64 160.14L222.64 177.30L221.80 174.30Q224.44 167.10 230.68 163.32Q236.92 159.54 246.16 159.54L246.16 159.54L246.16 167.82Q245.68 167.82 245.20 167.76Q244.72 167.70 244.24 167.70L244.24 167.70Q234.28 167.70 228.64 173.76Q223.00 179.82 223.00 190.98L223.00 190.98L223.00 223.14ZM289.36 223.74L289.36 223.74Q279.52 223.74 272.08 219.60Q264.64 215.46 260.44 208.20Q256.24 200.94 256.24 191.58L256.24 191.58Q256.24 182.22 260.26 175.02Q264.28 167.82 271.30 163.68Q278.32 159.54 287.08 159.54L287.08 159.54Q295.96 159.54 302.86 163.56Q309.76 167.58 313.72 174.84Q317.68 182.10 317.68 191.58L317.68 191.58Q317.68 192.18 317.62 192.84Q317.56 193.50 317.56 194.22L317.56 194.22L262.72 194.22L262.72 187.86L313 187.86L309.64 190.38Q309.64 183.54 306.70 178.20Q303.76 172.86 298.72 169.86Q293.68 166.86 287.08 166.86L287.08 166.86Q280.60 166.86 275.44 169.86Q270.28 172.86 267.40 178.26Q264.52 183.66 264.52 190.62L264.52 190.62L264.52 191.94Q264.52 199.14 267.70 204.60Q270.88 210.06 276.58 213.12Q282.28 216.18 289.60 216.18L289.60 216.18Q295.36 216.18 300.34 214.14Q305.32 212.10 308.92 207.90L308.92 207.90L313.72 213.42Q309.52 218.46 303.22 221.10Q296.92 223.74 289.36 223.74ZM355.96 223.14L347.92 223.14L324.16 160.14L332.32 160.14L353.92 218.58L350.20 218.58L372.40 160.14L379.72 160.14L401.68 218.58L397.96 218.58L419.92 160.14L427.72 160.14L403.84 223.14L395.80 223.14L374.68 168.18L377.20 168.18L355.96 223.14ZM461.44 223.14L453.40 223.14L429.64 160.14L437.80 160.14L459.40 218.58L455.68 218.58L477.88 160.14L485.20 160.14L507.16 218.58L503.44 218.58L525.40 160.14L533.20 160.14L509.32 223.14L501.28 223.14L480.16 168.18L482.68 168.18L461.44 223.14ZM572.80 223.74L572.80 223.74Q562.96 223.74 555.52 219.60Q548.08 215.46 543.88 208.20Q539.68 200.94 539.68 191.58L539.68 191.58Q539.68 182.22 543.70 175.02Q547.72 167.82 554.74 163.68Q561.76 159.54 570.52 159.54L570.52 159.54Q579.40 159.54 586.30 163.56Q593.20 167.58 597.16 174.84Q601.12 182.10 601.12 191.58L601.12 191.58Q601.12 192.18 601.06 192.84Q601 193.50 601 194.22L601 194.22L546.16 194.22L546.16 187.86L596.44 187.86L593.08 190.38Q593.08 183.54 590.14 178.20Q587.20 172.86 582.16 169.86Q577.12 166.86 570.52 166.86L570.52 166.86Q564.04 166.86 558.88 169.86Q553.72 172.86 550.84 178.26Q547.96 183.66 547.96 190.62L547.96 190.62L547.96 191.94Q547.96 199.14 551.14 204.60Q554.32 210.06 560.02 213.12Q565.72 216.18 573.04 216.18L573.04 216.18Q578.80 216.18 583.78 214.14Q588.76 212.10 592.36 207.90L592.36 207.90L597.16 213.42Q592.96 218.46 586.66 221.10Q580.36 223.74 572.80 223.74ZM627.04 223.14L618.52 223.14L618.52 160.14L626.68 160.14L626.68 177.30L625.84 174.30Q628.48 167.10 634.72 163.32Q640.96 159.54 650.20 159.54L650.20 159.54L650.20 167.82Q649.72 167.82 649.24 167.76Q648.76 167.70 648.28 167.70L648.28 167.70Q638.32 167.70 632.68 173.76Q627.04 179.82 627.04 190.98L627.04 190.98L627.04 223.14ZM687.52 223.14L679.48 223.14L655.72 160.14L663.88 160.14L685.48 218.58L681.76 218.58L703.96 160.14L711.28 160.14L733.24 218.58L729.52 218.58L751.48 160.14L759.28 160.14L735.40 223.14L727.36 223.14L706.24 168.18L708.76 168.18L687.52 223.14ZM798.88 223.74L798.88 223.74Q789.04 223.74 781.60 219.60Q774.16 215.46 769.96 208.20Q765.76 200.94 765.76 191.58L765.76 191.58Q765.76 182.22 769.78 175.02Q773.80 167.82 780.82 163.68Q787.84 159.54 796.60 159.54L796.60 159.54Q805.48 159.54 812.38 163.56Q819.28 167.58 823.24 174.84Q827.20 182.10 827.20 191.58L827.20 191.58Q827.20 192.18 827.14 192.84Q827.08 193.50 827.08 194.22L827.08 194.22L772.24 194.22L772.24 187.86L822.52 187.86L819.16 190.38Q819.16 183.54 816.22 178.20Q813.28 172.86 808.24 169.86Q803.20 166.86 796.60 166.86L796.60 166.86Q790.12 166.86 784.96 169.86Q779.80 172.86 776.92 178.26Q774.04 183.66 774.04 190.62L774.04 190.62L774.04 191.94Q774.04 199.14 777.22 204.60Q780.40 210.06 786.10 213.12Q791.80 216.18 799.12 216.18L799.12 216.18Q804.88 216.18 809.86 214.14Q814.84 212.10 818.44 207.90L818.44 207.90L823.24 213.42Q819.04 218.46 812.74 221.10Q806.44 223.74 798.88 223.74ZM853.12 223.14L844.60 223.14L844.60 160.14L852.76 160.14L852.76 177.30L851.92 174.30Q854.56 167.10 860.80 163.32Q867.04 159.54 876.28 159.54L876.28 159.54L876.28 167.82Q875.80 167.82 875.32 167.76Q874.84 167.70 874.36 167.70L874.36 167.70Q864.40 167.70 858.76 173.76Q853.12 179.82 853.12 190.98L853.12 190.98L853.12 223.14Z"/></svg>
      </svg>
    