
      <svg width="3521.439999999999" height="246.28" viewBox="0 0 3521.439999999999 246.28" xmlns="http://www.w3.org/2000/svg">
        <rect width="100%" height="100%" fill="#ffffff" />
        <path fill="#000000" d="M72.56 166.16L63.68 166.16L63.68 82.16L121.28 82.16L121.28 89.84L72.56 89.84L72.56 166.16ZM116 130.52L71.60 130.52L71.60 122.84L116 122.84L116 130.52ZM164.60 166.76L164.60 166.76Q154.76 166.76 147.32 162.62Q139.88 158.48 135.68 151.22Q131.48 143.96 131.48 134.60L131.48 134.60Q131.48 125.24 135.50 118.04Q139.52 110.84 146.54 106.70Q153.56 102.56 162.32 102.56L162.32 102.56Q171.20 102.56 178.10 106.58Q185 110.60 188.96 117.86Q192.92 125.12 192.92 134.60L192.92 134.60Q192.92 135.20 192.86 135.86Q192.80 136.52 192.80 137.24L192.80 137.24L137.96 137.24L137.96 130.88L188.24 130.88L184.88 133.40Q184.88 126.56 181.94 121.22Q179 115.88 173.96 112.88Q168.92 109.88 162.32 109.88L162.32 109.88Q155.84 109.88 150.68 112.88Q145.52 115.88 142.64 121.28Q139.76 126.68 139.76 133.64L139.76 133.64L139.76 134.96Q139.76 142.16 142.94 147.62Q146.12 153.08 151.82 156.14Q157.52 159.20 164.84 159.20L164.84 159.20Q170.60 159.20 175.58 157.16Q180.56 155.12 184.16 150.92L184.16 150.92L188.96 156.44Q184.76 161.48 178.46 164.12Q172.16 166.76 164.60 166.76ZM237.08 166.76L237.08 166.76Q227.24 166.76 219.80 162.62Q212.36 158.48 208.16 151.22Q203.96 143.96 203.96 134.60L203.96 134.60Q203.96 125.24 207.98 118.04Q212 110.84 219.02 106.70Q226.04 102.56 234.80 102.56L234.80 102.56Q243.68 102.56 250.58 106.58Q257.48 110.60 261.44 117.86Q265.40 125.12 265.40 134.60L265.40 134.60Q265.40 135.20 265.34 135.86Q265.28 136.52 265.28 137.24L265.28 137.24L210.44 137.24L210.44 130.88L260.72 130.88L257.36 133.40Q257.36 126.56 254.42 121.22Q251.48 115.88 246.44 112.88Q241.40 109.88 234.80 109.88L234.80 109.88Q228.32 109.88 223.16 112.88Q218 115.88 215.12 121.28Q212.24 126.68 212.24 133.64L212.24 133.64L212.24 134.96Q212.24 142.16 215.42 147.62Q218.60 153.08 224.30 156.14Q230 159.20 237.32 159.20L237.32 159.20Q243.08 159.20 248.06 157.16Q253.04 155.12 256.64 150.92L256.64 150.92L261.44 156.44Q257.24 161.48 250.94 164.12Q244.64 166.76 237.08 166.76ZM307.88 166.76L307.88 166.76Q298.88 166.76 291.74 162.68Q284.60 158.60 280.52 151.34Q276.44 144.08 276.44 134.60L276.44 134.60Q276.44 125 280.52 117.80Q284.60 110.60 291.74 106.58Q298.88 102.56 307.88 102.56L307.88 102.56Q316.16 102.56 322.70 106.28Q329.24 110 333.14 117.14Q337.04 124.28 337.04 134.60L337.04 134.60Q337.04 144.80 333.20 152Q329.36 159.20 322.82 162.98Q316.28 166.76 307.88 166.76ZM308.48 159.20L308.48 159.20Q315.20 159.20 320.54 156.14Q325.88 153.08 328.94 147.50Q332 141.92 332 134.60L332 134.60Q332 127.16 328.94 121.64Q325.88 116.12 320.54 113.06Q315.20 110 308.48 110L308.48 110Q301.88 110 296.60 113.06Q291.32 116.12 288.20 121.64Q285.08 127.16 285.08 134.60L285.08 134.60Q285.08 141.92 288.20 147.50Q291.32 153.08 296.60 156.14Q301.88 159.20 308.48 159.20ZM340.40 166.16L332.24 166.16L332.24 147.20L333.08 134.48L331.88 121.76L331.88 77.12L340.40 77.12L340.40 166.16ZM391.16 166.16L382.28 166.16L382.28 89.84L352.76 89.84L352.76 82.16L420.68 82.16L420.68 89.84L391.16 89.84L391.16 166.16ZM459.80 166.76L459.80 166.76Q449.96 166.76 442.52 162.62Q435.08 158.48 430.88 151.22Q426.68 143.96 426.68 134.60L426.68 134.60Q426.68 125.24 430.70 118.04Q434.72 110.84 441.74 106.70Q448.76 102.56 457.52 102.56L457.52 102.56Q466.40 102.56 473.30 106.58Q480.20 110.60 484.16 117.86Q488.12 125.12 488.12 134.60L488.12 134.60Q488.12 135.20 488.06 135.86Q488 136.52 488 137.24L488 137.24L433.16 137.24L433.16 130.88L483.44 130.88L480.08 133.40Q480.08 126.56 477.14 121.22Q474.20 115.88 469.16 112.88Q464.12 109.88 457.52 109.88L457.52 109.88Q451.04 109.88 445.88 112.88Q440.72 115.88 437.84 121.28Q434.96 126.68 434.96 133.64L434.96 133.64L434.96 134.96Q434.96 142.16 438.14 147.62Q441.32 153.08 447.02 156.14Q452.72 159.20 460.04 159.20L460.04 159.20Q465.80 159.20 470.78 157.16Q475.76 155.12 479.36 150.92L479.36 150.92L484.16 156.44Q479.96 161.48 473.66 164.12Q467.36 166.76 459.80 166.76ZM531.68 166.76L531.68 166.76Q522.32 166.76 514.94 162.62Q507.56 158.48 503.36 151.22Q499.16 143.96 499.16 134.60L499.16 134.60Q499.16 125.12 503.36 117.92Q507.56 110.72 514.94 106.64Q522.32 102.56 531.68 102.56L531.68 102.56Q539.72 102.56 546.20 105.68Q552.68 108.80 556.40 115.04L556.40 115.04L550.04 119.36Q546.80 114.56 542 112.28Q537.20 110 531.56 110L531.56 110Q524.84 110 519.44 113.06Q514.04 116.12 510.92 121.64Q507.80 127.16 507.80 134.60L507.80 134.60Q507.80 142.04 510.92 147.56Q514.04 153.08 519.44 156.14Q524.84 159.20 531.56 159.20L531.56 159.20Q537.20 159.20 542 156.92Q546.80 154.64 550.04 149.96L550.04 149.96L556.40 154.28Q552.68 160.40 546.20 163.58Q539.72 166.76 531.68 166.76ZM581.60 166.16L573.08 166.16L573.08 77.12L581.60 77.12L581.60 120.44L579.92 117.20Q582.92 110.36 589.52 106.46Q596.12 102.56 605.24 102.56L605.24 102.56Q612.92 102.56 618.74 105.50Q624.56 108.44 627.86 114.44Q631.16 120.44 631.16 129.56L631.16 129.56L631.16 166.16L622.64 166.16L622.64 130.40Q622.64 120.44 617.66 115.34Q612.68 110.24 603.68 110.24L603.68 110.24Q596.96 110.24 591.98 112.94Q587 115.64 584.30 120.74Q581.60 125.84 581.60 133.04L581.60 133.04L581.60 166.16ZM696.32 166.16L687.44 166.16L687.44 82.16L745.04 82.16L745.04 89.84L696.32 89.84L696.32 166.16ZM739.76 130.52L695.36 130.52L695.36 122.84L739.76 122.84L739.76 130.52ZM770.12 166.16L761.60 166.16L761.60 103.16L769.76 103.16L769.76 120.32L768.92 117.32Q771.56 110.12 777.80 106.34Q784.04 102.56 793.28 102.56L793.28 102.56L793.28 110.84Q792.80 110.84 792.32 110.78Q791.84 110.72 791.36 110.72L791.36 110.72Q781.40 110.72 775.76 116.78Q770.12 122.84 770.12 134L770.12 134L770.12 166.16ZM836.48 166.76L836.48 166.76Q826.64 166.76 819.20 162.62Q811.76 158.48 807.56 151.22Q803.36 143.96 803.36 134.60L803.36 134.60Q803.36 125.24 807.38 118.04Q811.40 110.84 818.42 106.70Q825.44 102.56 834.20 102.56L834.20 102.56Q843.08 102.56 849.98 106.58Q856.88 110.60 860.84 117.86Q864.80 125.12 864.80 134.60L864.80 134.60Q864.80 135.20 864.74 135.86Q864.68 136.52 864.68 137.24L864.68 137.24L809.84 137.24L809.84 130.88L860.12 130.88L856.76 133.40Q856.76 126.56 853.82 121.22Q850.88 115.88 845.84 112.88Q840.80 109.88 834.20 109.88L834.20 109.88Q827.72 109.88 822.56 112.88Q817.40 115.88 814.52 121.28Q811.64 126.68 811.64 133.64L811.64 133.64L811.64 134.96Q811.64 142.16 814.82 147.62Q818 153.08 823.70 156.14Q829.40 159.20 836.72 159.20L836.72 159.20Q842.48 159.20 847.46 157.16Q852.44 155.12 856.04 150.92L856.04 150.92L860.84 156.44Q856.64 161.48 850.34 164.12Q844.04 166.76 836.48 166.76ZM890.72 166.16L882.20 166.16L882.20 103.16L890.36 103.16L890.36 120.44L889.04 117.20Q892.04 110.36 898.64 106.46Q905.24 102.56 914.36 102.56L914.36 102.56Q922.04 102.56 927.86 105.50Q933.68 108.44 936.98 114.44Q940.28 120.44 940.28 129.56L940.28 129.56L940.28 166.16L931.76 166.16L931.76 130.40Q931.76 120.44 926.78 115.34Q921.80 110.24 912.80 110.24L912.80 110.24Q906.08 110.24 901.10 112.94Q896.12 115.64 893.42 120.74Q890.72 125.84 890.72 133.04L890.72 133.04L890.72 166.16ZM1007.84 166.16L956.48 166.16L956.48 160.52L998.48 107.36L1000.28 110.24L957.20 110.24L957.20 103.16L1007 103.16L1007 108.68L965.12 161.96L962.96 159.08L1007.84 159.08L1007.84 166.16ZM1025.12 190.04L1025.12 190.04Q1020.68 190.04 1016.66 188.60Q1012.64 187.16 1009.76 184.28L1009.76 184.28L1013.72 177.92Q1016.12 180.20 1018.94 181.46Q1021.76 182.72 1025.24 182.72L1025.24 182.72Q1029.44 182.72 1032.50 180.38Q1035.56 178.04 1038.32 172.16L1038.32 172.16L1042.40 162.92L1043.36 161.60L1069.28 103.16L1077.68 103.16L1046.12 173.72Q1043.48 179.84 1040.30 183.44Q1037.12 187.04 1033.40 188.54Q1029.68 190.04 1025.12 190.04ZM1047.44 161L1041.92 167.96L1012.88 103.16L1021.76 103.16L1047.44 161ZM1090.52 115.64L1090.52 115.64Q1087.88 115.64 1086.02 113.72Q1084.16 111.80 1084.16 109.04L1084.16 109.04Q1084.16 106.16 1086.02 104.36Q1087.88 102.56 1090.52 102.56L1090.52 102.56Q1093.16 102.56 1095.02 104.36Q1096.88 106.16 1096.88 109.04L1096.88 109.04Q1096.88 111.80 1095.02 113.72Q1093.16 115.64 1090.52 115.64ZM1090.52 166.76L1090.52 166.76Q1087.88 166.76 1086.02 164.84Q1084.16 162.92 1084.16 160.16L1084.16 160.16Q1084.16 157.28 1086.02 155.48Q1087.88 153.68 1090.52 153.68L1090.52 153.68Q1093.16 153.68 1095.02 155.48Q1096.88 157.28 1096.88 160.16L1096.88 160.16Q1096.88 162.92 1095.02 164.84Q1093.16 166.76 1090.52 166.76ZM1176.68 166.16L1167.44 166.16L1139.12 82.16L1148.24 82.16L1174.76 161.24L1170.20 161.24L1197.56 82.16L1205.72 82.16L1232.72 161.24L1228.40 161.24L1255.16 82.16L1263.68 82.16L1235.36 166.16L1226.00 166.16L1200.20 91.16L1202.60 91.16L1176.68 166.16ZM1288.40 166.16L1279.88 166.16L1279.88 77.12L1288.40 77.12L1288.40 120.44L1286.72 117.20Q1289.72 110.36 1296.32 106.46Q1302.92 102.56 1312.04 102.56L1312.04 102.56Q1319.72 102.56 1325.54 105.50Q1331.36 108.44 1334.66 114.44Q1337.96 120.44 1337.96 129.56L1337.96 129.56L1337.96 166.16L1329.44 166.16L1329.44 130.40Q1329.44 120.44 1324.46 115.34Q1319.48 110.24 1310.48 110.24L1310.48 110.24Q1303.76 110.24 1298.78 112.94Q1293.80 115.64 1291.10 120.74Q1288.40 125.84 1288.40 133.04L1288.40 133.04L1288.40 166.16ZM1387.76 166.76L1387.76 166.76Q1377.92 166.76 1370.48 162.62Q1363.04 158.48 1358.84 151.22Q1354.64 143.96 1354.64 134.60L1354.64 134.60Q1354.64 125.24 1358.66 118.04Q1362.68 110.84 1369.70 106.70Q1376.72 102.56 1385.48 102.56L1385.48 102.56Q1394.36 102.56 1401.26 106.58Q1408.16 110.60 1412.12 117.86Q1416.08 125.12 1416.08 134.60L1416.08 134.60Q1416.08 135.20 1416.02 135.86Q1415.96 136.52 1415.96 137.24L1415.96 137.24L1361.12 137.24L1361.12 130.88L1411.40 130.88L1408.04 133.40Q1408.04 126.56 1405.10 121.22Q1402.16 115.88 1397.12 112.88Q1392.08 109.88 1385.48 109.88L1385.48 109.88Q1379.00 109.88 1373.84 112.88Q1368.68 115.88 1365.80 121.28Q1362.92 126.68 1362.92 133.64L1362.92 133.64L1362.92 134.96Q1362.92 142.16 1366.10 147.62Q1369.28 153.08 1374.98 156.14Q1380.68 159.20 1388 159.20L1388 159.20Q1393.76 159.20 1398.74 157.16Q1403.72 155.12 1407.32 150.92L1407.32 150.92L1412.12 156.44Q1407.92 161.48 1401.62 164.12Q1395.32 166.76 1387.76 166.76ZM1442.00 166.16L1433.48 166.16L1433.48 103.16L1441.64 103.16L1441.64 120.32L1440.80 117.32Q1443.44 110.12 1449.68 106.34Q1455.92 102.56 1465.16 102.56L1465.16 102.56L1465.16 110.84Q1464.68 110.84 1464.20 110.78Q1463.72 110.72 1463.24 110.72L1463.24 110.72Q1453.28 110.72 1447.64 116.78Q1442.00 122.84 1442.00 134L1442.00 134L1442.00 166.16ZM1508.36 166.76L1508.36 166.76Q1498.52 166.76 1491.08 162.62Q1483.64 158.48 1479.44 151.22Q1475.24 143.96 1475.24 134.60L1475.24 134.60Q1475.24 125.24 1479.26 118.04Q1483.28 110.84 1490.30 106.70Q1497.32 102.56 1506.08 102.56L1506.08 102.56Q1514.96 102.56 1521.86 106.58Q1528.76 110.60 1532.72 117.86Q1536.68 125.12 1536.68 134.60L1536.68 134.60Q1536.68 135.20 1536.62 135.86Q1536.56 136.52 1536.56 137.24L1536.56 137.24L1481.72 137.24L1481.72 130.88L1532 130.88L1528.64 133.40Q1528.64 126.56 1525.70 121.22Q1522.76 115.88 1517.72 112.88Q1512.68 109.88 1506.08 109.88L1506.08 109.88Q1499.60 109.88 1494.44 112.88Q1489.28 115.88 1486.40 121.28Q1483.52 126.68 1483.52 133.64L1483.52 133.64L1483.52 134.96Q1483.52 142.16 1486.70 147.62Q1489.88 153.08 1495.58 156.14Q1501.28 159.20 1508.60 159.20L1508.60 159.20Q1514.36 159.20 1519.34 157.16Q1524.32 155.12 1527.92 150.92L1527.92 150.92L1532.72 156.44Q1528.52 161.48 1522.22 164.12Q1515.92 166.76 1508.36 166.76ZM1596.20 166.16L1587.32 166.16L1587.32 82.16L1596.20 82.16L1596.20 166.16ZM1630.28 166.16L1621.76 166.16L1621.76 103.16L1629.92 103.16L1629.92 120.44L1628.60 117.20Q1631.60 110.36 1638.20 106.46Q1644.80 102.56 1653.92 102.56L1653.92 102.56Q1661.60 102.56 1667.42 105.50Q1673.24 108.44 1676.54 114.44Q1679.84 120.44 1679.84 129.56L1679.84 129.56L1679.84 166.16L1671.32 166.16L1671.32 130.40Q1671.32 120.44 1666.34 115.34Q1661.36 110.24 1652.36 110.24L1652.36 110.24Q1645.64 110.24 1640.66 112.94Q1635.68 115.64 1632.98 120.74Q1630.28 125.84 1630.28 133.04L1630.28 133.04L1630.28 166.16ZM1711.40 166.16L1702.88 166.16L1702.88 103.16L1711.04 103.16L1711.04 120.44L1709.72 117.20Q1712.72 110.36 1719.32 106.46Q1725.92 102.56 1735.04 102.56L1735.04 102.56Q1742.72 102.56 1748.54 105.50Q1754.36 108.44 1757.66 114.44Q1760.96 120.44 1760.96 129.56L1760.96 129.56L1760.96 166.16L1752.44 166.16L1752.44 130.40Q1752.44 120.44 1747.46 115.34Q1742.48 110.24 1733.48 110.24L1733.48 110.24Q1726.76 110.24 1721.78 112.94Q1716.80 115.64 1714.10 120.74Q1711.40 125.84 1711.40 133.04L1711.40 133.04L1711.40 166.16ZM1809.68 166.76L1809.68 166.76Q1800.56 166.76 1793.30 162.62Q1786.04 158.48 1781.84 151.22Q1777.64 143.96 1777.64 134.60L1777.64 134.60Q1777.64 125.12 1781.84 117.92Q1786.04 110.72 1793.24 106.64Q1800.44 102.56 1809.68 102.56L1809.68 102.56Q1819.04 102.56 1826.30 106.64Q1833.56 110.72 1837.70 117.92Q1841.84 125.12 1841.84 134.60L1841.84 134.60Q1841.84 143.96 1837.70 151.22Q1833.56 158.48 1826.24 162.62Q1818.92 166.76 1809.68 166.76ZM1809.68 159.20L1809.68 159.20Q1816.52 159.20 1821.80 156.14Q1827.08 153.08 1830.14 147.50Q1833.20 141.92 1833.20 134.60L1833.20 134.60Q1833.20 127.16 1830.14 121.64Q1827.08 116.12 1821.80 113.06Q1816.52 110 1809.80 110L1809.80 110Q1803.08 110 1797.80 113.06Q1792.52 116.12 1789.40 121.64Q1786.28 127.16 1786.28 134.60L1786.28 134.60Q1786.28 141.92 1789.40 147.50Q1792.52 153.08 1797.80 156.14Q1803.08 159.20 1809.68 159.20ZM1884.20 166.16L1875.44 166.16L1847.48 103.16L1856.36 103.16L1882.04 161.60L1877.84 161.60L1903.88 103.16L1912.28 103.16L1884.20 166.16ZM1971.92 166.16L1963.76 166.16L1963.76 152.24L1963.40 149.96L1963.40 126.68Q1963.40 118.64 1958.90 114.32Q1954.40 110 1945.52 110L1945.52 110Q1939.40 110 1933.88 112.04Q1928.36 114.08 1924.52 117.44L1924.52 117.44L1920.68 111.08Q1925.48 107 1932.20 104.78Q1938.92 102.56 1946.36 102.56L1946.36 102.56Q1958.60 102.56 1965.26 108.62Q1971.92 114.68 1971.92 127.04L1971.92 127.04L1971.92 166.16ZM1942.04 166.76L1942.04 166.76Q1934.96 166.76 1929.74 164.42Q1924.52 162.08 1921.76 157.94Q1919.00 153.80 1919.00 148.40L1919.00 148.40Q1919.00 143.48 1921.34 139.46Q1923.68 135.44 1929.02 132.98Q1934.36 130.52 1943.36 130.52L1943.36 130.52L1965.08 130.52L1965.08 136.88L1943.60 136.88Q1934.48 136.88 1930.94 140.12Q1927.40 143.36 1927.40 148.16L1927.40 148.16Q1927.40 153.56 1931.60 156.80Q1935.80 160.04 1943.36 160.04L1943.36 160.04Q1950.56 160.04 1955.78 156.74Q1961.00 153.44 1963.40 147.20L1963.40 147.20L1965.32 153.08Q1962.92 159.32 1956.98 163.04Q1951.04 166.76 1942.04 166.76ZM2015.00 166.76L2015.00 166.76Q2006.12 166.76 2001.32 161.96Q1996.52 157.16 1996.52 148.40L1996.52 148.40L1996.52 89.24L2005.04 89.24L2005.04 147.92Q2005.04 153.44 2007.86 156.44Q2010.68 159.44 2015.96 159.44L2015.96 159.44Q2021.60 159.44 2025.32 156.20L2025.32 156.20L2028.32 162.32Q2025.80 164.60 2022.26 165.68Q2018.72 166.76 2015.00 166.76ZM2024.24 110.24L1985.24 110.24L1985.24 103.16L2024.24 103.16L2024.24 110.24ZM2052.32 166.16L2043.80 166.16L2043.80 103.16L2052.32 103.16L2052.32 166.16ZM2048.12 89.24L2048.12 89.24Q2045.48 89.24 2043.68 87.44Q2041.88 85.64 2041.88 83.12L2041.88 83.12Q2041.88 80.60 2043.68 78.86Q2045.48 77.12 2048.12 77.12L2048.12 77.12Q2050.76 77.12 2052.56 78.80Q2054.36 80.48 2054.36 83L2054.36 83Q2054.36 85.64 2052.62 87.44Q2050.88 89.24 2048.12 89.24ZM2101.76 166.76L2101.76 166.76Q2092.64 166.76 2085.38 162.62Q2078.12 158.48 2073.92 151.22Q2069.72 143.96 2069.72 134.60L2069.72 134.60Q2069.72 125.12 2073.92 117.92Q2078.12 110.72 2085.32 106.64Q2092.52 102.56 2101.76 102.56L2101.76 102.56Q2111.12 102.56 2118.38 106.64Q2125.64 110.72 2129.78 117.92Q2133.92 125.12 2133.92 134.60L2133.92 134.60Q2133.92 143.96 2129.78 151.22Q2125.64 158.48 2118.32 162.62Q2111 166.76 2101.76 166.76ZM2101.76 159.20L2101.76 159.20Q2108.60 159.20 2113.88 156.14Q2119.16 153.08 2122.22 147.50Q2125.28 141.92 2125.28 134.60L2125.28 134.60Q2125.28 127.16 2122.22 121.64Q2119.16 116.12 2113.88 113.06Q2108.60 110 2101.88 110L2101.88 110Q2095.16 110 2089.88 113.06Q2084.60 116.12 2081.48 121.64Q2078.36 127.16 2078.36 134.60L2078.36 134.60Q2078.36 141.92 2081.48 147.50Q2084.60 153.08 2089.88 156.14Q2095.16 159.20 2101.76 159.20ZM2159.84 166.16L2151.32 166.16L2151.32 103.16L2159.48 103.16L2159.48 120.44L2158.16 117.20Q2161.16 110.36 2167.76 106.46Q2174.36 102.56 2183.48 102.56L2183.48 102.56Q2191.16 102.56 2196.98 105.50Q2202.80 108.44 2206.10 114.44Q2209.40 120.44 2209.40 129.56L2209.40 129.56L2209.40 166.16L2200.88 166.16L2200.88 130.40Q2200.88 120.44 2195.90 115.34Q2190.92 110.24 2181.92 110.24L2181.92 110.24Q2175.20 110.24 2170.22 112.94Q2165.24 115.64 2162.54 120.74Q2159.84 125.84 2159.84 133.04L2159.84 133.04L2159.84 166.16ZM2274.20 166.16L2265.68 166.16L2265.68 82.16L2273.00 82.16L2311.40 147.68L2307.56 147.68L2345.60 82.16L2352.92 82.16L2352.92 166.16L2344.40 166.16L2344.40 95.48L2346.44 95.48L2311.40 155.48L2307.20 155.48L2271.92 95.48L2274.20 95.48L2274.20 166.16ZM2405.24 166.76L2405.24 166.76Q2395.40 166.76 2387.96 162.62Q2380.52 158.48 2376.32 151.22Q2372.12 143.96 2372.12 134.60L2372.12 134.60Q2372.12 125.24 2376.14 118.04Q2380.16 110.84 2387.18 106.70Q2394.20 102.56 2402.96 102.56L2402.96 102.56Q2411.84 102.56 2418.74 106.58Q2425.64 110.60 2429.60 117.86Q2433.56 125.12 2433.56 134.60L2433.56 134.60Q2433.56 135.20 2433.50 135.86Q2433.44 136.52 2433.44 137.24L2433.44 137.24L2378.60 137.24L2378.60 130.88L2428.88 130.88L2425.52 133.40Q2425.52 126.56 2422.58 121.22Q2419.64 115.88 2414.60 112.88Q2409.56 109.88 2402.96 109.88L2402.96 109.88Q2396.48 109.88 2391.32 112.88Q2386.16 115.88 2383.28 121.28Q2380.40 126.68 2380.40 133.64L2380.40 133.64L2380.40 134.96Q2380.40 142.16 2383.58 147.62Q2386.76 153.08 2392.46 156.14Q2398.16 159.20 2405.48 159.20L2405.48 159.20Q2411.24 159.20 2416.22 157.16Q2421.20 155.12 2424.80 150.92L2424.80 150.92L2429.60 156.44Q2425.40 161.48 2419.10 164.12Q2412.80 166.76 2405.24 166.76ZM2477.72 166.76L2477.72 166.76Q2467.88 166.76 2460.44 162.62Q2453.00 158.48 2448.80 151.22Q2444.60 143.96 2444.60 134.60L2444.60 134.60Q2444.60 125.24 2448.62 118.04Q2452.64 110.84 2459.66 106.70Q2466.68 102.56 2475.44 102.56L2475.44 102.56Q2484.32 102.56 2491.22 106.58Q2498.12 110.60 2502.08 117.86Q2506.04 125.12 2506.04 134.60L2506.04 134.60Q2506.04 135.20 2505.98 135.86Q2505.92 136.52 2505.92 137.24L2505.92 137.24L2451.08 137.24L2451.08 130.88L2501.36 130.88L2498.00 133.40Q2498.00 126.56 2495.06 121.22Q2492.12 115.88 2487.08 112.88Q2482.04 109.88 2475.44 109.88L2475.44 109.88Q2468.96 109.88 2463.80 112.88Q2458.64 115.88 2455.76 121.28Q2452.88 126.68 2452.88 133.64L2452.88 133.64L2452.88 134.96Q2452.88 142.16 2456.06 147.62Q2459.24 153.08 2464.94 156.14Q2470.64 159.20 2477.96 159.20L2477.96 159.20Q2483.72 159.20 2488.70 157.16Q2493.68 155.12 2497.28 150.92L2497.28 150.92L2502.08 156.44Q2497.88 161.48 2491.58 164.12Q2485.28 166.76 2477.72 166.76ZM2543.36 166.76L2543.36 166.76Q2534.48 166.76 2529.68 161.96Q2524.88 157.16 2524.88 148.40L2524.88 148.40L2524.88 89.24L2533.40 89.24L2533.40 147.92Q2533.40 153.44 2536.22 156.44Q2539.04 159.44 2544.32 159.44L2544.32 159.44Q2549.96 159.44 2553.68 156.20L2553.68 156.20L2556.68 162.32Q2554.16 164.60 2550.62 165.68Q2547.08 166.76 2543.36 166.76ZM2552.60 110.24L2513.60 110.24L2513.60 103.16L2552.60 103.16L2552.60 110.24ZM2589.08 166.76L2589.08 166.76Q2581.28 166.76 2574.32 164.54Q2567.36 162.32 2563.40 158.96L2563.40 158.96L2567.24 152.24Q2571.08 155.12 2577.08 157.22Q2583.08 159.32 2589.68 159.32L2589.68 159.32Q2598.68 159.32 2602.64 156.50Q2606.60 153.68 2606.60 149L2606.60 149Q2606.60 145.52 2604.38 143.54Q2602.16 141.56 2598.56 140.54Q2594.96 139.52 2590.52 138.80Q2586.08 138.08 2581.70 137.12Q2577.32 136.16 2573.72 134.30Q2570.12 132.44 2567.90 129.20Q2565.68 125.96 2565.68 120.56L2565.68 120.56Q2565.68 115.40 2568.56 111.32Q2571.44 107.24 2577.02 104.90Q2582.60 102.56 2590.64 102.56L2590.64 102.56Q2596.76 102.56 2602.88 104.18Q2609.00 105.80 2612.96 108.44L2612.96 108.44L2609.24 115.28Q2605.04 112.40 2600.24 111.14Q2595.44 109.88 2590.64 109.88L2590.64 109.88Q2582.12 109.88 2578.10 112.82Q2574.08 115.76 2574.08 120.32L2574.08 120.32Q2574.08 123.92 2576.30 125.96Q2578.52 128 2582.18 129.14Q2585.84 130.28 2590.22 131Q2594.60 131.72 2598.98 132.74Q2603.36 133.76 2607.02 135.50Q2610.68 137.24 2612.90 140.42Q2615.12 143.60 2615.12 148.76L2615.12 148.76Q2615.12 154.28 2612.06 158.30Q2609.00 162.32 2603.18 164.54Q2597.36 166.76 2589.08 166.76ZM2698.16 166.16L2663.96 166.16L2663.96 82.16L2698.16 82.16Q2711.60 82.16 2721.74 87.50Q2731.88 92.84 2737.52 102.32Q2743.16 111.80 2743.16 124.16L2743.16 124.16Q2743.16 136.52 2737.52 146Q2731.88 155.48 2721.74 160.82Q2711.60 166.16 2698.16 166.16L2698.16 166.16ZM2672.84 89.84L2672.84 158.48L2697.68 158.48Q2708.84 158.48 2717.06 154.10Q2725.28 149.72 2729.84 141.98Q2734.40 134.24 2734.40 124.16L2734.40 124.16Q2734.40 113.96 2729.84 106.28Q2725.28 98.60 2717.06 94.22Q2708.84 89.84 2697.68 89.84L2697.68 89.84L2672.84 89.84ZM2788.04 166.76L2788.04 166.76Q2778.20 166.76 2770.76 162.62Q2763.32 158.48 2759.12 151.22Q2754.92 143.96 2754.92 134.60L2754.92 134.60Q2754.92 125.24 2758.94 118.04Q2762.96 110.84 2769.98 106.70Q2777.00 102.56 2785.76 102.56L2785.76 102.56Q2794.64 102.56 2801.54 106.58Q2808.44 110.60 2812.40 117.86Q2816.36 125.12 2816.36 134.60L2816.36 134.60Q2816.36 135.20 2816.30 135.86Q2816.24 136.52 2816.24 137.24L2816.24 137.24L2761.40 137.24L2761.40 130.88L2811.68 130.88L2808.32 133.40Q2808.32 126.56 2805.38 121.22Q2802.44 115.88 2797.40 112.88Q2792.36 109.88 2785.76 109.88L2785.76 109.88Q2779.28 109.88 2774.12 112.88Q2768.96 115.88 2766.08 121.28Q2763.20 126.68 2763.20 133.64L2763.20 133.64L2763.20 134.96Q2763.20 142.16 2766.38 147.62Q2769.56 153.08 2775.26 156.14Q2780.96 159.20 2788.28 159.20L2788.28 159.20Q2794.04 159.20 2799.02 157.16Q2804.00 155.12 2807.60 150.92L2807.60 150.92L2812.40 156.44Q2808.20 161.48 2801.90 164.12Q2795.60 166.76 2788.04 166.76ZM2842.28 166.16L2833.76 166.16L2833.76 77.12L2842.28 77.12L2842.28 166.16ZM2874.56 166.16L2866.04 166.16L2866.04 103.16L2874.56 103.16L2874.56 166.16ZM2870.36 89.24L2870.36 89.24Q2867.72 89.24 2865.92 87.44Q2864.12 85.64 2864.12 83.12L2864.12 83.12Q2864.12 80.60 2865.92 78.86Q2867.72 77.12 2870.36 77.12L2870.36 77.12Q2873.00 77.12 2874.80 78.80Q2876.60 80.48 2876.60 83L2876.60 83Q2876.60 85.64 2874.86 87.44Q2873.12 89.24 2870.36 89.24ZM2924.48 166.76L2924.48 166.76Q2915.12 166.76 2907.74 162.62Q2900.36 158.48 2896.16 151.22Q2891.96 143.96 2891.96 134.60L2891.96 134.60Q2891.96 125.12 2896.16 117.92Q2900.36 110.72 2907.74 106.64Q2915.12 102.56 2924.48 102.56L2924.48 102.56Q2932.52 102.56 2939.00 105.68Q2945.48 108.80 2949.20 115.04L2949.20 115.04L2942.84 119.36Q2939.60 114.56 2934.80 112.28Q2930.00 110 2924.36 110L2924.36 110Q2917.64 110 2912.24 113.06Q2906.84 116.12 2903.72 121.64Q2900.60 127.16 2900.60 134.60L2900.60 134.60Q2900.60 142.04 2903.72 147.56Q2906.84 153.08 2912.24 156.14Q2917.64 159.20 2924.36 159.20L2924.36 159.20Q2930.00 159.20 2934.80 156.92Q2939.60 154.64 2942.84 149.96L2942.84 149.96L2949.20 154.28Q2945.48 160.40 2939.00 163.58Q2932.52 166.76 2924.48 166.76ZM2974.40 166.16L2965.88 166.16L2965.88 103.16L2974.40 103.16L2974.40 166.16ZM2970.20 89.24L2970.20 89.24Q2967.56 89.24 2965.76 87.44Q2963.96 85.64 2963.96 83.12L2963.96 83.12Q2963.96 80.60 2965.76 78.86Q2967.56 77.12 2970.20 77.12L2970.20 77.12Q2972.84 77.12 2974.64 78.80Q2976.44 80.48 2976.44 83L2976.44 83Q2976.44 85.64 2974.70 87.44Q2972.96 89.24 2970.20 89.24ZM3023.84 166.76L3023.84 166.76Q3014.72 166.76 3007.46 162.62Q3000.20 158.48 2996.00 151.22Q2991.80 143.96 2991.80 134.60L2991.80 134.60Q2991.80 125.12 2996.00 117.92Q3000.20 110.72 3007.40 106.64Q3014.60 102.56 3023.84 102.56L3023.84 102.56Q3033.20 102.56 3040.46 106.64Q3047.72 110.72 3051.86 117.92Q3056.00 125.12 3056.00 134.60L3056.00 134.60Q3056.00 143.96 3051.86 151.22Q3047.72 158.48 3040.40 162.62Q3033.08 166.76 3023.84 166.76ZM3023.84 159.20L3023.84 159.20Q3030.68 159.20 3035.96 156.14Q3041.24 153.08 3044.30 147.50Q3047.36 141.92 3047.36 134.60L3047.36 134.60Q3047.36 127.16 3044.30 121.64Q3041.24 116.12 3035.96 113.06Q3030.68 110 3023.96 110L3023.96 110Q3017.24 110 3011.96 113.06Q3006.68 116.12 3003.56 121.64Q3000.44 127.16 3000.44 134.60L3000.44 134.60Q3000.44 141.92 3003.56 147.50Q3006.68 153.08 3011.96 156.14Q3017.24 159.20 3023.84 159.20ZM3099.44 166.76L3099.44 166.76Q3091.40 166.76 3085.40 163.76Q3079.40 160.76 3076.10 154.76Q3072.80 148.76 3072.80 139.76L3072.80 139.76L3072.80 103.16L3081.32 103.16L3081.32 138.80Q3081.32 148.88 3086.30 153.98Q3091.28 159.08 3100.28 159.08L3100.28 159.08Q3106.88 159.08 3111.74 156.38Q3116.60 153.68 3119.18 148.52Q3121.76 143.36 3121.76 136.16L3121.76 136.16L3121.76 103.16L3130.28 103.16L3130.28 166.16L3122.12 166.16L3122.12 148.88L3123.44 152Q3120.44 158.96 3114.14 162.86Q3107.84 166.76 3099.44 166.76ZM3170.96 166.76L3170.96 166.76Q3163.16 166.76 3156.20 164.54Q3149.24 162.32 3145.28 158.96L3145.28 158.96L3149.12 152.24Q3152.96 155.12 3158.96 157.22Q3164.96 159.32 3171.56 159.32L3171.56 159.32Q3180.56 159.32 3184.52 156.50Q3188.48 153.68 3188.48 149L3188.48 149Q3188.48 145.52 3186.26 143.54Q3184.04 141.56 3180.44 140.54Q3176.84 139.52 3172.40 138.80Q3167.96 138.08 3163.58 137.12Q3159.20 136.16 3155.60 134.30Q3152.00 132.44 3149.78 129.20Q3147.56 125.96 3147.56 120.56L3147.56 120.56Q3147.56 115.40 3150.44 111.32Q3153.32 107.24 3158.90 104.90Q3164.48 102.56 3172.52 102.56L3172.52 102.56Q3178.64 102.56 3184.76 104.18Q3190.88 105.80 3194.84 108.44L3194.84 108.44L3191.12 115.28Q3186.92 112.40 3182.12 111.14Q3177.32 109.88 3172.52 109.88L3172.52 109.88Q3164.00 109.88 3159.98 112.82Q3155.96 115.76 3155.96 120.32L3155.96 120.32Q3155.96 123.92 3158.18 125.96Q3160.40 128 3164.06 129.14Q3167.72 130.28 3172.10 131Q3176.48 131.72 3180.86 132.74Q3185.24 133.76 3188.90 135.50Q3192.56 137.24 3194.78 140.42Q3197.00 143.60 3197.00 148.76L3197.00 148.76Q3197.00 154.28 3193.94 158.30Q3190.88 162.32 3185.06 164.54Q3179.24 166.76 3170.96 166.76ZM3221.12 166.16L3212.60 166.16L3212.60 103.16L3220.76 103.16L3220.76 120.44L3219.44 117.20Q3222.44 110.36 3229.04 106.46Q3235.64 102.56 3244.76 102.56L3244.76 102.56Q3252.44 102.56 3258.26 105.50Q3264.08 108.44 3267.38 114.44Q3270.68 120.44 3270.68 129.56L3270.68 129.56L3270.68 166.16L3262.16 166.16L3262.16 130.40Q3262.16 120.44 3257.18 115.34Q3252.20 110.24 3243.20 110.24L3243.20 110.24Q3236.48 110.24 3231.50 112.94Q3226.52 115.64 3223.82 120.74Q3221.12 125.84 3221.12 133.04L3221.12 133.04L3221.12 166.16ZM3320.48 166.76L3320.48 166.76Q3310.64 166.76 3303.20 162.62Q3295.76 158.48 3291.56 151.22Q3287.36 143.96 3287.36 134.60L3287.36 134.60Q3287.36 125.24 3291.38 118.04Q3295.40 110.84 3302.42 106.70Q3309.44 102.56 3318.20 102.56L3318.20 102.56Q3327.08 102.56 3333.98 106.58Q3340.88 110.60 3344.84 117.86Q3348.80 125.12 3348.80 134.60L3348.80 134.60Q3348.80 135.20 3348.74 135.86Q3348.68 136.52 3348.68 137.24L3348.68 137.24L3293.84 137.24L3293.84 130.88L3344.12 130.88L3340.76 133.40Q3340.76 126.56 3337.82 121.22Q3334.88 115.88 3329.84 112.88Q3324.80 109.88 3318.20 109.88L3318.20 109.88Q3311.72 109.88 3306.56 112.88Q3301.40 115.88 3298.52 121.28Q3295.64 126.68 3295.64 133.64L3295.64 133.64L3295.64 134.96Q3295.64 142.16 3298.82 147.62Q3302.00 153.08 3307.70 156.14Q3313.40 159.20 3320.72 159.20L3320.72 159.20Q3326.48 159.20 3331.46 157.16Q3336.44 155.12 3340.04 150.92L3340.04 150.92L3344.84 156.44Q3340.64 161.48 3334.34 164.12Q3328.04 166.76 3320.48 166.76ZM3383.12 166.76L3383.12 166.76Q3375.32 166.76 3368.36 164.54Q3361.40 162.32 3357.44 158.96L3357.44 158.96L3361.28 152.24Q3365.12 155.12 3371.12 157.22Q3377.12 159.32 3383.72 159.32L3383.72 159.32Q3392.72 159.32 3396.68 156.50Q3400.64 153.68 3400.64 149L3400.64 149Q3400.64 145.52 3398.42 143.54Q3396.20 141.56 3392.60 140.54Q3389.00 139.52 3384.56 138.80Q3380.12 138.08 3375.74 137.12Q3371.36 136.16 3367.76 134.30Q3364.16 132.44 3361.94 129.20Q3359.72 125.96 3359.72 120.56L3359.72 120.56Q3359.72 115.40 3362.60 111.32Q3365.48 107.24 3371.06 104.90Q3376.64 102.56 3384.68 102.56L3384.68 102.56Q3390.80 102.56 3396.92 104.18Q3403.04 105.80 3407.00 108.44L3407.00 108.44L3403.28 115.28Q3399.08 112.40 3394.28 111.14Q3389.48 109.88 3384.68 109.88L3384.68 109.88Q3376.16 109.88 3372.14 112.82Q3368.12 115.76 3368.12 120.32L3368.12 120.32Q3368.12 123.92 3370.34 125.96Q3372.56 128 3376.22 129.14Q3379.88 130.28 3384.26 131Q3388.64 131.72 3393.02 132.74Q3397.40 133.76 3401.06 135.50Q3404.72 137.24 3406.94 140.42Q3409.16 143.60 3409.16 148.76L3409.16 148.76Q3409.16 154.28 3406.10 158.30Q3403.04 162.32 3397.22 164.54Q3391.40 166.76 3383.12 166.76ZM3441.68 166.76L3441.68 166.76Q3433.88 166.76 3426.92 164.54Q3419.96 162.32 3416.00 158.96L3416.00 158.96L3419.84 152.24Q3423.68 155.12 3429.68 157.22Q3435.68 159.32 3442.28 159.32L3442.28 159.32Q3451.28 159.32 3455.24 156.50Q3459.20 153.68 3459.20 149L3459.20 149Q3459.20 145.52 3456.98 143.54Q3454.76 141.56 3451.16 140.54Q3447.56 139.52 3443.12 138.80Q3438.68 138.08 3434.30 137.12Q3429.92 136.16 3426.32 134.30Q3422.72 132.44 3420.50 129.20Q3418.28 125.96 3418.28 120.56L3418.28 120.56Q3418.28 115.40 3421.16 111.32Q3424.04 107.24 3429.62 104.90Q3435.20 102.56 3443.24 102.56L3443.24 102.56Q3449.36 102.56 3455.48 104.18Q3461.60 105.80 3465.56 108.44L3465.56 108.44L3461.84 115.28Q3457.64 112.40 3452.84 111.14Q3448.04 109.88 3443.24 109.88L3443.24 109.88Q3434.72 109.88 3430.70 112.82Q3426.68 115.76 3426.68 120.32L3426.68 120.32Q3426.68 123.92 3428.90 125.96Q3431.12 128 3434.78 129.14Q3438.44 130.28 3442.82 131Q3447.20 131.72 3451.58 132.74Q3455.96 133.76 3459.62 135.50Q3463.28 137.24 3465.50 140.42Q3467.72 143.60 3467.72 148.76L3467.72 148.76Q3467.72 154.28 3464.66 158.30Q3461.60 162.32 3455.78 164.54Q3449.96 166.76 3441.68 166.76Z"/>
      </svg>
    