
      <svg xmlns="http://www.w3.org/2000/svg" width="800" height="300">
        <rect width="100%" height="100%" fill="#ffffff" stroke="red" stroke-width="5"/>
        <line x1="0" y1="0" x2="800" y2="300" stroke="blue" stroke-width="2"/>
        <line x1="0" y1="300" x2="800" y2="0" stroke="blue" stroke-width="2"/>
        <svg xmlns="http://www.w3.org/2000/svg" xmlns:xlink="http://www.w3.org/1999/xlink" width="245.39999999999998" height="146.28"><path fill="#2e7d32" d="M299.14 223.14L290.62 223.14L290.62 152.22Q290.62 143.82 295.54 138.66Q300.46 133.50 309.70 133.50L309.70 133.50Q313.30 133.50 316.66 134.46Q320.02 135.42 322.30 137.46L322.30 137.46L319.42 143.82Q317.62 142.26 315.22 141.48Q312.82 140.70 310.06 140.70L310.06 140.70Q304.66 140.70 301.78 143.70Q298.90 146.70 298.90 152.58L298.90 152.58L298.90 162.18L299.14 166.14L299.14 223.14ZM318.34 167.22L279.34 167.22L279.34 160.14L318.34 160.14L318.34 167.22ZM355.54 223.74L355.54 223.74Q346.42 223.74 339.16 219.60Q331.90 215.46 327.70 208.20Q323.50 200.94 323.50 191.58L323.50 191.58Q323.50 182.10 327.70 174.90Q331.90 167.70 339.10 163.62Q346.30 159.54 355.54 159.54L355.54 159.54Q364.90 159.54 372.16 163.62Q379.42 167.70 383.56 174.90Q387.70 182.10 387.70 191.58L387.70 191.58Q387.70 200.94 383.56 208.20Q379.42 215.46 372.10 219.60Q364.78 223.74 355.54 223.74ZM355.54 216.18L355.54 216.18Q362.38 216.18 367.66 213.12Q372.94 210.06 376 204.48Q379.06 198.90 379.06 191.58L379.06 191.58Q379.06 184.14 376 178.62Q372.94 173.10 367.66 170.04Q362.38 166.98 355.66 166.98L355.66 166.98Q348.94 166.98 343.66 170.04Q338.38 173.10 335.26 178.62Q332.14 184.14 332.14 191.58L332.14 191.58Q332.14 198.90 335.26 204.48Q338.38 210.06 343.66 213.12Q348.94 216.18 355.54 216.18ZM413.62 223.14L405.10 223.14L405.10 160.14L413.26 160.14L413.26 177.30L412.42 174.30Q415.06 167.10 421.30 163.32Q427.54 159.54 436.78 159.54L436.78 159.54L436.78 167.82Q436.30 167.82 435.82 167.76Q435.34 167.70 434.86 167.70L434.86 167.70Q424.90 167.70 419.26 173.76Q413.62 179.82 413.62 190.98L413.62 190.98L413.62 223.14ZM478.30 223.74L478.30 223.74Q469.30 223.74 462.16 219.66Q455.02 215.58 450.94 208.32Q446.86 201.06 446.86 191.58L446.86 191.58Q446.86 181.98 450.94 174.78Q455.02 167.58 462.16 163.56Q469.30 159.54 478.30 159.54L478.30 159.54Q486.58 159.54 493.12 163.26Q499.66 166.98 503.56 174.12Q507.46 181.26 507.46 191.58L507.46 191.58Q507.46 201.78 503.62 208.98Q499.78 216.18 493.24 219.96Q486.70 223.74 478.30 223.74ZM478.90 216.18L478.90 216.18Q485.62 216.18 490.96 213.12Q496.30 210.06 499.36 204.48Q502.42 198.90 502.42 191.58L502.42 191.58Q502.42 184.14 499.36 178.62Q496.30 173.10 490.96 170.04Q485.62 166.98 478.90 166.98L478.90 166.98Q472.30 166.98 467.02 170.04Q461.74 173.10 458.62 178.62Q455.50 184.14 455.50 191.58L455.50 191.58Q455.50 198.90 458.62 204.48Q461.74 210.06 467.02 213.12Q472.30 216.18 478.90 216.18ZM510.82 223.14L502.66 223.14L502.66 204.18L503.50 191.46L502.30 178.74L502.30 134.10L510.82 134.10L510.82 223.14Z"/></svg>
      </svg>
    