
      <svg width="575.9199999999998" height="251.2" viewBox="0 0 575.9199999999998 251.2" xmlns="http://www.w3.org/2000/svg">
        <rect width="100%" height="100%" fill="#ffffff" />
        <path fill="#000000" d="M111.32 127.28L111.32 127.28Q110.96 128.12 108.56 128.60Q106.16 129.08 100.88 129.68L100.88 129.68Q99.32 129.80 96.26 129.92Q93.20 130.04 89.66 130.16Q86.12 130.28 83.24 130.22Q80.36 130.16 79.28 129.92L79.28 129.92Q79.28 129.92 78.74 130.52Q78.20 131.12 78.20 132.08L78.20 132.08Q77.36 133.52 76.10 136.52Q74.84 139.52 73.34 143.12Q71.84 146.72 70.58 150.32Q69.32 153.92 68.48 156.56Q67.64 159.20 67.64 160.16L67.64 160.16Q66.56 163.04 66.32 165.08Q66.08 167.12 65.48 167.48L65.48 167.48Q65.36 167.96 63.92 167.72Q62.48 167.48 61.52 166.40L61.52 166.40Q60.08 165.32 59.90 164.42Q59.72 163.52 60.56 160.88L60.56 160.88Q60.92 159.32 61.82 156.26Q62.72 153.20 63.86 149.48Q65.00 145.76 66.26 142.22Q67.52 138.68 68.72 136.40L68.72 136.40Q70.04 134.12 70.40 132.26Q70.76 130.40 71.36 128.84L71.36 128.84Q71.24 127.52 71.36 127.04Q71.48 126.56 72.32 125.60L72.32 125.60Q72.92 125.12 73.82 123.86Q74.72 122.60 75.92 119.96L75.92 119.96Q76.28 118.76 77.06 116.66Q77.84 114.56 78.56 112.34Q79.28 110.12 79.88 108.56Q80.48 107 80.48 106.88L80.48 106.88Q80.72 106.40 81.20 105.02Q81.68 103.64 81.92 102.80L81.92 102.80Q82.40 101.12 82.70 100.04Q83.00 98.96 82.52 98.96L82.52 98.96Q81.56 99.20 78.68 99.32L78.68 99.32Q77.24 99.56 76.58 99.62Q75.92 99.68 75.44 99.80L75.44 99.80Q74.24 99.92 73.28 99.56Q72.32 99.20 72.32 98.12L72.32 98.12Q72.56 96.20 73.70 94.94Q74.84 93.68 76.64 93.56L76.64 93.56Q77.48 93.32 78.50 93.14Q79.52 92.96 81.32 92.48L81.32 92.48Q83.60 92.00 84.86 91.70Q86.12 91.40 86.84 91.64L86.84 91.64Q87.44 91.28 87.92 90.86Q88.40 90.44 88.40 89.96L88.40 89.96Q88.40 89.36 88.94 89.06Q89.48 88.76 90.20 88.70Q90.92 88.64 91.70 88.88Q92.48 89.12 92.84 89.72L92.84 89.72Q93.08 90.08 93.92 90.32Q94.76 90.56 96.98 90.26Q99.20 89.96 103.28 89.12L103.28 89.12Q105.44 88.88 108.74 88.64Q112.04 88.40 113.96 89.00L113.96 89.00Q116.00 88.64 117.62 88.70Q119.24 88.76 119.84 88.28L119.84 88.28Q122.36 88.76 123.50 88.94Q124.64 89.12 125.36 89.72L125.36 89.72Q125.84 90.20 125.66 90.62Q125.48 91.04 125.48 91.04L125.48 91.04Q125.00 90.80 125.60 91.10Q126.20 91.40 126.44 91.64L126.44 91.64Q127.28 92.00 127.52 92.54Q127.76 93.08 127.76 93.56Q127.76 94.04 127.64 94.40L127.64 94.40Q127.52 95.48 126.44 95.66Q125.36 95.84 121.04 95.72L121.04 95.72Q115.88 95.00 110.90 95.18Q105.92 95.36 99.32 96.32L99.32 96.32Q96.92 96.44 95.06 96.98Q93.20 97.52 92.96 97.52L92.96 97.52Q92.48 97.52 91.28 99.14Q90.08 100.76 89.00 103.88L89.00 103.88Q88.52 104.72 87.32 107.72Q86.12 110.72 84.74 114.20Q83.36 117.68 82.34 120.32Q81.32 122.96 81.08 123.20L81.08 123.20Q82.76 123.68 86.54 123.68Q90.32 123.68 94.94 123.38Q99.56 123.08 103.40 122.72L103.40 122.72Q105.20 122.36 107.18 122.06Q109.16 121.76 109.76 122L109.76 122Q110.36 122.36 110.84 123.38Q111.32 124.40 111.50 125.48Q111.68 126.56 111.32 127.28ZM122.36 163.40L122.36 163.40Q120.80 163.40 119.90 162.80Q119.00 162.20 117.68 161.12L117.68 161.12Q115.40 158.72 114.44 156.50Q113.48 154.28 113.84 152.24L113.84 152.24Q114.20 151.28 114.14 150.38Q114.08 149.48 114.08 149.48L114.08 149.48Q113.48 148.88 113.72 148.70Q113.96 148.52 114.20 148.04L114.20 148.04Q114.92 148.04 114.68 146.72L114.68 146.72Q114.44 145.76 115.64 142.52Q116.84 139.28 118.64 136.40L118.64 136.40Q119.36 135.20 120.80 133.22Q122.24 131.24 123.98 129.26Q125.72 127.28 127.16 126.08L127.16 126.08Q130.16 123.56 132.44 122.36Q134.72 121.16 137.36 120.56L137.36 120.56Q140.00 119.96 141.02 119.96Q142.04 119.96 143.84 121.88L143.84 121.88Q146.60 123.08 147.86 124.76Q149.12 126.44 149.48 129.68L149.48 129.68Q149.84 133.28 148.94 137.90Q148.04 142.52 143.24 149.36L143.24 149.36Q140.24 153.68 137.72 155.78Q135.20 157.88 131.72 159.92L131.72 159.92Q129.20 161.60 127.16 162.38Q125.12 163.16 122.36 163.40ZM133.88 150.68L133.88 150.68Q136.76 147.44 138.50 144.56Q140.24 141.68 141.80 137.24L141.80 137.24Q142.28 135.92 142.40 133.94Q142.52 131.96 142.34 130.22Q142.16 128.48 141.44 128.24L141.44 128.24Q140.00 127.40 137.96 127.70Q135.92 128 133.52 130.04L133.52 130.04Q129.80 133.16 127.04 137.78Q124.28 142.40 121.64 148.28L121.64 148.28Q119.84 152.60 120.86 155.18Q121.88 157.76 125.30 156.98Q128.72 156.20 133.88 150.68ZM158.72 161L158.72 161Q157.64 160.16 157.22 159.32Q156.80 158.48 157.16 156.08L157.16 156.08Q157.52 152.72 158.12 150.14Q158.72 147.56 159.56 144.20L159.56 144.20Q159.80 142.76 160.94 139.28Q162.08 135.80 163.76 131.72Q165.44 127.64 167.12 123.98Q168.80 120.32 170.00 118.52L170.00 118.52Q170.96 117.80 172.34 117.92Q173.72 118.04 174.68 119L174.68 119Q176.00 120.08 175.10 122.78Q174.20 125.48 171.44 131.24L171.44 131.24Q170.00 134.48 169.28 136.10Q168.56 137.72 168.68 138.02Q168.80 138.32 169.76 137.72L169.76 137.72Q170.48 136.40 172.40 134.66Q174.32 132.92 176.48 131.24Q178.64 129.56 180.56 128.24Q182.48 126.92 183.20 126.56L183.20 126.56Q184.16 125.96 185.42 125.54Q186.68 125.12 187.16 124.88L187.16 124.88Q189.92 123.56 192.80 123.92Q195.68 124.28 196.40 126.08L196.40 126.08Q196.52 127.04 197.18 127.52Q197.84 128 197.84 128L197.84 128Q198.32 128 198.38 128.36Q198.44 128.72 198.44 128.72L198.44 128.72Q198.44 129.56 197.18 129.74Q195.92 129.92 194.00 130.04L194.00 130.04Q192.44 130.16 191.24 130.64Q190.04 131.12 188.36 131.84L188.36 131.84Q183.80 134.48 179.66 137Q175.52 139.52 171.68 143.72L171.68 143.72Q170.84 144.68 170.00 146Q169.16 147.32 168.20 148.88L168.20 148.88Q167.60 149.48 167.00 151.52Q166.40 153.56 165.98 155.42Q165.56 157.28 165.56 157.64L165.56 157.64Q165.56 157.64 165.20 158.78Q164.84 159.92 164.00 161L164.00 161Q162.56 162.92 161.60 162.92Q160.64 162.92 158.72 161ZM231.08 167.48L231.08 167.48Q229.52 167.84 228.50 167.06Q227.48 166.28 227.00 164.84L227.00 164.84Q226.04 162.08 225.62 158.78Q225.20 155.48 225.44 152.96L225.44 152.96L225.68 150.44L221.00 154.16Q216.92 157.76 213.14 159.32Q209.36 160.88 206.48 160.88L206.48 160.88Q205.16 160.64 203.84 159.92Q202.52 159.20 201.50 158.12Q200.48 157.04 199.88 155.84L199.88 155.84Q199.16 154.16 199.46 151.28Q199.76 148.40 200.90 144.98Q202.04 141.56 203.78 138.26Q205.52 134.96 207.80 132.44L207.80 132.44Q211.76 126.44 216.32 125.12Q220.88 123.80 225.32 126.44L225.32 126.44Q228.44 127.76 229.22 127.64Q230.00 127.52 230.60 124.88L230.60 124.88Q231.08 122.96 231.56 120.98Q232.04 119 233.12 115.64L233.12 115.64Q236.12 106.52 238.34 101.36Q240.56 96.20 242.36 92.36L242.36 92.36Q243.68 89.60 244.58 88.94Q245.48 88.28 246.44 88.40L246.44 88.40Q247.76 88.40 248.84 89.36Q249.92 90.32 250.52 92.00L250.52 92.00Q251.00 93.08 250.94 93.86Q250.88 94.64 250.16 95.96L250.16 95.96Q248.60 98.84 246.50 103.58Q244.40 108.32 242.30 113.96Q240.20 119.60 238.40 125.12Q236.60 130.64 235.40 134.84L235.40 134.84Q234.68 137.48 234.14 141.56Q233.60 145.64 233.24 149.90Q232.88 154.16 232.82 157.46Q232.76 160.76 233.00 161.72L233.00 161.72Q233.72 164.12 233.66 165.32Q233.60 166.52 233.00 166.94Q232.40 167.36 231.08 167.48ZM210.80 154.16L210.80 154.16Q212.48 153.80 214.10 152.84Q215.72 151.88 217.52 150.56L217.52 150.56Q221.12 147.80 223.76 145.52Q226.40 143.24 227.24 138.56L227.24 138.56Q227.48 136.28 226.82 134.90Q226.16 133.52 224.72 132.32L224.72 132.32Q223.28 131.36 220.82 131.54Q218.36 131.72 215.72 134.12L215.72 134.12Q212.84 136.76 210.14 141.20Q207.44 145.64 206.12 152.12L206.12 152.12Q205.88 153.32 206.84 154.04Q207.80 154.76 210.80 154.16ZM323.60 171.56L323.60 171.56Q322.04 171.68 320.78 170.90Q319.52 170.12 319.04 168.92L319.04 168.92Q318.56 168.32 317.60 166.88Q316.64 165.44 316.40 164L316.40 164Q316.04 160.16 315.98 156.56Q315.92 152.96 316.28 146.48L316.28 146.48Q316.64 141.20 317.66 136.22Q318.68 131.24 319.70 127.28Q320.72 123.32 321.32 120.98Q321.92 118.64 321.56 118.64L321.56 118.64Q321.08 118.64 320.12 120.38Q319.16 122.12 317.96 124.64Q316.76 127.16 315.56 129.62Q314.36 132.08 313.52 133.64L313.52 133.64Q311.84 137.36 309.62 141.50Q307.40 145.64 305.12 149.48Q302.84 153.32 301.16 156.20L301.16 156.20Q300.08 157.40 298.64 159.62Q297.20 161.84 295.52 164.24Q293.84 166.64 292.04 168.20L292.04 168.20Q289.40 170.72 286.82 170.96Q284.24 171.20 282.44 169.64L282.44 169.64Q282.08 169.16 281.66 168.50Q281.24 167.84 281.00 166.76Q280.76 165.68 281.12 164.24L281.12 164.24Q281.00 162.56 281.18 159.02Q281.36 155.48 281.84 151.22Q282.32 146.96 282.86 143Q283.40 139.04 283.88 136.40L283.88 136.40Q284.96 128.72 286.82 120.68Q288.68 112.64 290.24 104.48L290.24 104.48Q291.20 102.08 291.98 99.02Q292.76 95.96 293.60 93.32L293.60 93.32Q293.72 90.68 294.80 89.78Q295.88 88.88 297.26 89.18Q298.64 89.48 299.48 90.68L299.48 90.68Q300.68 91.88 301.34 94.40Q302.00 96.92 300.32 100.76L300.32 100.76Q297.92 106.64 295.70 115.10Q293.48 123.56 291.68 135.56L291.68 135.56Q291.20 138.44 290.60 142.40Q290.00 146.36 289.52 150.08Q289.04 153.80 288.86 156.32Q288.68 158.84 288.92 158.96L288.92 158.96Q289.88 159.20 291.56 157.46Q293.24 155.72 294.56 152.84L294.56 152.84Q299.48 144.68 304.34 135.74Q309.20 126.80 313.64 118.04L313.64 118.04Q315.68 114.56 317.78 110.42Q319.88 106.28 321.80 102.80L321.80 102.80Q323.84 99.20 325.52 96.26Q327.20 93.32 328.40 91.40Q329.60 89.48 330.32 89.24L330.32 89.24Q332.24 89.36 333.62 90.14Q335.00 90.92 335.96 93.32L335.96 93.32Q336.20 93.92 335.84 95.36Q335.48 96.80 335.00 97.88L335.00 97.88Q334.88 98.72 333.98 101.36Q333.08 104 332.36 107.24L332.36 107.24Q331.16 110.48 330.26 113.66Q329.36 116.84 329.00 118.88L329.00 118.88Q328.04 124.04 326.60 130.22Q325.16 136.40 324.14 142.46Q323.12 148.52 323.00 153.32L323.00 153.32Q322.88 156.68 323.06 158.60Q323.24 160.52 323.72 161.60L323.72 161.60Q323.96 162.56 325.22 162.80Q326.48 163.04 327.32 161.96L327.32 161.96Q329.72 158.96 331.46 156.50Q333.20 154.04 334.76 151.46Q336.32 148.88 338.00 145.64L338.00 145.64Q341.00 140.12 344.18 133.34Q347.36 126.56 350.30 119.84Q353.24 113.12 355.40 108.08L355.40 108.08Q357.68 101.60 359.06 97.76Q360.44 93.92 361.52 92.00Q362.60 90.08 363.80 89.36L363.80 89.36Q364.40 88.88 365.48 88.88Q366.56 88.88 367.64 89.84L367.64 89.84Q368.12 90.32 368.54 91.34Q368.96 92.36 368.84 93.80L368.84 93.80Q368.24 95.72 366.74 99.92Q365.24 104.12 363.32 109.16Q361.40 114.20 359.60 118.76Q357.80 123.32 356.48 126.08L356.48 126.08Q355.16 128.60 353.96 130.40Q352.76 132.20 352.76 133.16L352.76 133.16Q352.76 133.64 351.56 136.10Q350.36 138.56 348.50 142.04Q346.64 145.52 344.48 149.24Q342.32 152.96 340.40 156.08Q338.48 159.20 337.16 160.88L337.16 160.88Q334.16 164.60 331.34 167Q328.52 169.40 326.48 170.48Q324.44 171.56 323.60 171.56ZM367.16 161.36L367.16 161.36Q366.20 160.40 365.78 158.96Q365.36 157.52 365.48 156.08Q365.60 154.64 366.08 153.68L366.08 153.68Q366.08 152.72 366.38 152.18Q366.68 151.64 366.56 151.16L366.56 151.16Q366.44 150.68 366.80 149.48Q367.16 148.28 367.52 147.20L367.52 147.20Q368.36 145.28 369.32 142.58Q370.28 139.88 371.12 137.24Q371.96 134.60 372.56 132.68Q373.16 130.76 373.28 130.28L373.28 130.28Q373.28 128.84 375.20 128.72L375.20 128.72Q376.64 128.24 377.36 128.66Q378.08 129.08 379.28 131L379.28 131Q380.24 131.96 380.00 133.88Q379.76 135.80 378.44 138.68L378.44 138.68Q377.96 139.64 377.30 141.44Q376.64 143.24 376.40 144.68L376.40 144.68Q375.92 145.64 375.26 147.38Q374.60 149.12 374.12 150.68L374.12 150.68Q373.88 151.28 373.64 152.42Q373.40 153.56 373.04 154.82Q372.68 156.08 372.08 157.04L372.08 157.04Q371.00 161.96 370.10 162.80Q369.20 163.64 367.16 161.36ZM378.80 112.64L378.80 112.64Q378.20 112.04 377.72 110.90Q377.24 109.76 377.12 108.74Q377.00 107.72 377.36 107.72L377.36 107.72Q378.32 107.60 379.64 105.68Q380.96 103.76 380.72 102.32L380.72 102.32Q380.72 101.84 381.08 101.42Q381.44 101.00 381.92 100.88L381.92 100.88Q383.36 99.92 384.74 100.58Q386.12 101.24 387.32 103.16L387.32 103.16Q388.40 105.44 387.92 106.94Q387.44 108.44 385.28 111.08L385.28 111.08Q383.48 113.48 381.98 113.72Q380.48 113.96 378.80 112.64ZM391.88 165.20L391.88 165.20Q389.60 165.80 388.22 164.24Q386.84 162.68 386.60 159.44Q386.36 156.20 387.32 151.76L387.32 151.76Q387.92 150.32 388.28 148.94Q388.64 147.56 388.64 146.72L388.64 146.72Q388.88 145.52 389.60 143.18Q390.32 140.84 391.16 138.32Q392.00 135.80 392.78 133.82Q393.56 131.84 393.80 131.36L393.80 131.36Q394.28 131.36 394.64 130.52Q395.00 129.68 395.00 128.84L395.00 128.84Q395.00 127.88 395.42 126.68Q395.84 125.48 396.32 125L396.32 125Q396.32 124.40 396.62 123.62Q396.92 122.84 396.92 122.36L396.92 122.36Q396.92 121.88 397.22 121.40Q397.52 120.92 397.52 120.44L397.52 120.44Q398.36 118.88 399.74 115.46Q401.12 112.04 402.74 107.84Q404.36 103.64 405.80 99.56Q407.24 95.48 408.14 92.66Q409.04 89.84 409.04 89.24L409.04 89.24Q409.04 88.28 409.52 87.80Q410.00 87.32 410.96 87.32L410.96 87.32Q411.32 86.96 411.86 86.84Q412.40 86.72 412.88 86.72L412.88 86.72Q412.88 86.72 413.36 87.20Q413.84 87.68 414.80 88.64L414.80 88.64Q415.76 89.48 415.94 90.56Q416.12 91.64 416.12 93.08L416.12 93.08Q416.12 94.64 415.76 95.84Q415.40 97.04 414.32 99.32Q413.24 101.60 410.96 106.40L410.96 106.40Q410.00 108.80 408.92 110.90Q407.84 113 407.84 113.48L407.84 113.48Q407.84 113.96 407.42 114.92Q407.00 115.88 406.52 117.32L406.52 117.32Q406.04 118.28 405.20 120.14Q404.36 122 403.46 124.10Q402.56 126.20 401.96 127.70Q401.36 129.20 401.36 129.44L401.36 129.44Q401.36 129.92 401.30 130.40Q401.24 130.88 400.76 131.36L400.76 131.36Q400.28 131.36 400.22 132.02Q400.16 132.68 400.16 132.68L400.16 132.68Q400.16 133.88 398.24 139.04L398.24 139.04Q396.32 145.64 394.70 151.16Q393.08 156.68 393.08 160.04L393.08 160.04Q393.08 162.92 392.96 163.82Q392.84 164.72 391.88 165.20ZM440.00 167.48L440.00 167.48Q438.44 167.84 437.42 167.06Q436.40 166.28 435.92 164.84L435.92 164.84Q434.96 162.08 434.54 158.78Q434.12 155.48 434.36 152.96L434.36 152.96L434.60 150.44L429.92 154.16Q425.84 157.76 422.06 159.32Q418.28 160.88 415.40 160.88L415.40 160.88Q414.08 160.64 412.76 159.92Q411.44 159.20 410.42 158.12Q409.40 157.04 408.80 155.84L408.80 155.84Q408.08 154.16 408.38 151.28Q408.68 148.40 409.82 144.98Q410.96 141.56 412.70 138.26Q414.44 134.96 416.72 132.44L416.72 132.44Q420.68 126.44 425.24 125.12Q429.80 123.80 434.24 126.44L434.24 126.44Q437.36 127.76 438.14 127.64Q438.92 127.52 439.52 124.88L439.52 124.88Q440.00 122.96 440.48 120.98Q440.96 119 442.04 115.64L442.04 115.64Q445.04 106.52 447.26 101.36Q449.48 96.20 451.28 92.36L451.28 92.36Q452.60 89.60 453.50 88.94Q454.40 88.28 455.36 88.40L455.36 88.40Q456.68 88.40 457.76 89.36Q458.84 90.32 459.44 92.00L459.44 92.00Q459.92 93.08 459.86 93.86Q459.80 94.64 459.08 95.96L459.08 95.96Q457.52 98.84 455.42 103.58Q453.32 108.32 451.22 113.96Q449.12 119.60 447.32 125.12Q445.52 130.64 444.32 134.84L444.32 134.84Q443.60 137.48 443.06 141.56Q442.52 145.64 442.16 149.90Q441.80 154.16 441.74 157.46Q441.68 160.76 441.92 161.72L441.92 161.72Q442.64 164.12 442.58 165.32Q442.52 166.52 441.92 166.94Q441.32 167.36 440.00 167.48ZM419.72 154.16L419.72 154.16Q421.40 153.80 423.02 152.84Q424.64 151.88 426.44 150.56L426.44 150.56Q430.04 147.80 432.68 145.52Q435.32 143.24 436.16 138.56L436.16 138.56Q436.40 136.28 435.74 134.90Q435.08 133.52 433.64 132.32L433.64 132.32Q432.20 131.36 429.74 131.54Q427.28 131.72 424.64 134.12L424.64 134.12Q421.76 136.76 419.06 141.20Q416.36 145.64 415.04 152.12L415.04 152.12Q414.80 153.32 415.76 154.04Q416.72 154.76 419.72 154.16ZM476.84 161L476.84 161Q474.32 163.16 471.02 163.52Q467.72 163.88 464.60 162.50Q461.48 161.12 459.44 158.24L459.44 158.24Q457.40 155.60 456.80 152.18Q456.20 148.76 456.68 143.24L456.68 143.24Q457.04 138.56 459.68 133.82Q462.32 129.08 466.10 125.36Q469.88 121.64 473.60 120.20L473.60 120.20Q475.40 119 476.66 119.06Q477.92 119.12 480.56 119.36L480.56 119.36Q483.32 119.72 484.70 120.44Q486.08 121.16 486.92 122.36L486.92 122.36Q488.72 124.16 489.32 125.90Q489.92 127.64 489.92 129.32L489.92 129.32Q489.44 131.96 486.38 135.74Q483.32 139.52 478.40 141.92L478.40 141.92Q475.76 142.76 472.64 142.64Q469.52 142.52 467.48 141.08L467.48 141.08Q465.20 140.12 464.48 141.38Q463.76 142.64 463.16 147.44L463.16 147.44Q462.68 152 463.88 154.10Q465.08 156.20 467.12 156.56L467.12 156.56Q469.52 157.04 470.90 157.22Q472.28 157.40 474.32 156.20L474.32 156.20Q476.24 155 476.72 154.82Q477.20 154.64 477.50 154.34Q477.80 154.04 479.00 152.84L479.00 152.84Q479.84 152 480.32 151.58Q480.80 151.16 481.40 151.16L481.40 151.16Q482.00 151.16 482.48 151.70Q482.96 152.24 483.44 152.48L483.44 152.48Q484.64 152.48 483.98 153.92Q483.32 155.36 481.40 157.34Q479.48 159.32 476.84 161ZM476.72 135.56L476.72 135.56Q478.04 134.96 479.48 133.82Q480.92 132.68 481.94 131.30Q482.96 129.92 482.96 128.96L482.96 128.96Q482.96 127.28 481.40 126.14Q479.84 125 476.72 125.84L476.72 125.84Q475.40 126.20 473.72 127.58Q472.04 128.96 470.54 130.64Q469.04 132.32 468.14 133.64Q467.24 134.96 467.48 135.20L467.48 135.20Q467.84 135.80 469.52 136.10Q471.20 136.40 473.30 136.28Q475.40 136.16 476.72 135.56ZM497.00 161L497.00 161Q495.92 160.16 495.50 159.32Q495.08 158.48 495.44 156.08L495.44 156.08Q495.80 152.72 496.40 150.14Q497.00 147.56 497.84 144.20L497.84 144.20Q498.08 142.76 499.22 139.28Q500.36 135.80 502.04 131.72Q503.72 127.64 505.40 123.98Q507.08 120.32 508.28 118.52L508.28 118.52Q509.24 117.80 510.62 117.92Q512.00 118.04 512.96 119L512.96 119Q514.28 120.08 513.38 122.78Q512.48 125.48 509.72 131.24L509.72 131.24Q508.28 134.48 507.56 136.10Q506.84 137.72 506.96 138.02Q507.08 138.32 508.04 137.72L508.04 137.72Q508.76 136.40 510.68 134.66Q512.60 132.92 514.76 131.24Q516.92 129.56 518.84 128.24Q520.76 126.92 521.48 126.56L521.48 126.56Q522.44 125.96 523.70 125.54Q524.96 125.12 525.44 124.88L525.44 124.88Q528.20 123.56 531.08 123.92Q533.96 124.28 534.68 126.08L534.68 126.08Q534.80 127.04 535.46 127.52Q536.12 128 536.12 128L536.12 128Q536.60 128 536.66 128.36Q536.72 128.72 536.72 128.72L536.72 128.72Q536.72 129.56 535.46 129.74Q534.20 129.92 532.28 130.04L532.28 130.04Q530.72 130.16 529.52 130.64Q528.32 131.12 526.64 131.84L526.64 131.84Q522.08 134.48 517.94 137Q513.80 139.52 509.96 143.72L509.96 143.72Q509.12 144.68 508.28 146Q507.44 147.32 506.48 148.88L506.48 148.88Q505.88 149.48 505.28 151.52Q504.68 153.56 504.26 155.42Q503.84 157.28 503.84 157.64L503.84 157.64Q503.84 157.64 503.48 158.78Q503.12 159.92 502.28 161L502.28 161Q500.84 162.92 499.88 162.92Q498.92 162.92 497.00 161Z"/>
      </svg>
    