
      <svg xmlns="http://www.w3.org/2000/svg" width="800" height="300">
        <rect width="100%" height="100%" fill="#ffffff" stroke="red" stroke-width="5"/>
        <line x1="0" y1="0" x2="800" y2="300" stroke="blue" stroke-width="2"/>
        <line x1="0" y1="300" x2="800" y2="0" stroke="blue" stroke-width="2"/>
        <svg xmlns="http://www.w3.org/2000/svg" xmlns:xlink="http://www.w3.org/1999/xlink" width="242.15999999999997" height="168"><path fill="#212121" d="M314.92 168.24L314.92 177.24L301.12 177.24L301.12 234L290.20 234L290.20 177.24L281.68 177.24L281.68 168.24L290.20 168.24L290.20 163.56Q290.20 152.52 295.90 147.42Q301.60 142.32 314.20 142.32L314.20 142.32L314.20 151.44Q307 151.44 304.06 154.26Q301.12 157.08 301.12 163.56L301.12 163.56L301.12 168.24L314.92 168.24ZM356.32 235.08Q347.08 235.08 339.58 230.88Q332.08 226.68 327.82 218.94Q323.56 211.20 323.56 201L323.56 201Q323.56 190.92 327.94 183.18Q332.32 175.44 339.88 171.30Q347.44 167.16 356.80 167.16L356.80 167.16Q366.16 167.16 373.72 171.30Q381.28 175.44 385.66 183.12Q390.04 190.80 390.04 201L390.04 201Q390.04 211.20 385.54 218.94Q381.04 226.68 373.36 230.88Q365.68 235.08 356.32 235.08L356.32 235.08ZM356.32 225.48Q362.20 225.48 367.36 222.72Q372.52 219.96 375.70 214.44Q378.88 208.92 378.88 201L378.88 201Q378.88 193.08 375.76 187.56Q372.64 182.04 367.60 179.34Q362.56 176.64 356.68 176.64L356.68 176.64Q350.68 176.64 345.70 179.34Q340.72 182.04 337.72 187.56Q334.72 193.08 334.72 201L334.72 201Q334.72 209.04 337.66 214.56Q340.60 220.08 345.52 222.78Q350.44 225.48 356.32 225.48L356.32 225.48ZM415.36 178.92Q418.24 173.28 423.58 170.16Q428.92 167.04 436.60 167.04L436.60 167.04L436.60 178.32L433.72 178.32Q415.36 178.32 415.36 198.24L415.36 198.24L415.36 234L404.44 234L404.44 168.24L415.36 168.24L415.36 178.92ZM445.12 200.88Q445.12 190.80 449.20 183.18Q453.28 175.56 460.42 171.36Q467.56 167.16 476.44 167.16L476.44 167.16Q484.12 167.16 490.72 170.70Q497.32 174.24 500.80 180L500.80 180L500.80 145.20L511.84 145.20L511.84 234L500.80 234L500.80 221.64Q497.56 227.52 491.20 231.30Q484.84 235.08 476.32 235.08L476.32 235.08Q467.56 235.08 460.42 230.76Q453.28 226.44 449.20 218.64Q445.12 210.84 445.12 200.88L445.12 200.88ZM500.80 201Q500.80 193.56 497.80 188.04Q494.80 182.52 489.70 179.58Q484.60 176.64 478.48 176.64L478.48 176.64Q472.36 176.64 467.32 179.52Q462.28 182.40 459.28 187.92Q456.28 193.44 456.28 200.88L456.28 200.88Q456.28 208.44 459.28 214.02Q462.28 219.60 467.32 222.54Q472.36 225.48 478.48 225.48L478.48 225.48Q484.60 225.48 489.70 222.54Q494.80 219.60 497.80 214.02Q500.80 208.44 500.80 201L500.80 201Z"/></svg>
      </svg>
    