
      <svg width="836.56" height="310.72" viewBox="0 0 836.56 310.72" xmlns="http://www.w3.org/2000/svg">
        <rect width="100%" height="100%" fill="#de1212" />
        <path fill="#b09292" d="M166.88 179.60Q168.44 179.60 169.34 181.04Q170.24 182.48 170.24 185L170.24 185Q170.24 189.68 167.96 192.44L167.96 192.44Q156.08 206.96 142.64 206.96L142.64 206.96Q131 206.96 124.04 197.96Q117.08 188.96 117.08 172.16L117.08 172.16Q117.08 168.08 117.44 164L117.44 164Q109.52 165.44 100.16 166.16L100.16 166.16Q93.92 166.64 91.64 166.76L91.64 166.76Q89.24 179 84.92 196.76L84.92 196.76Q82.40 207.20 75.32 207.20L75.32 207.20Q67.64 207.20 67.64 200.24L67.64 200.24Q67.64 198.68 68.24 195.92L68.24 195.92Q72.32 179.48 74.72 168.08L74.72 168.08L68.96 168.32Q65 168.32 63.20 166.94Q61.40 165.56 61.40 162.44L61.40 162.44Q61.40 158.48 63.68 156.62Q65.96 154.76 71.24 154.52L71.24 154.52L77.60 154.28Q80.72 137.36 80.72 128.48L80.72 128.48Q80.72 122.84 79.04 120.80Q77.36 118.76 74.60 118.76L74.60 118.76Q66.20 118.76 55.64 132.80L55.64 132.80Q54.08 134.84 52.16 134.84L52.16 134.84Q50.48 134.84 49.28 133.28Q48.08 131.72 48.08 129.32L48.08 129.32Q48.08 125.60 51.08 121.40L51.08 121.40Q56.36 114.08 64.40 109.34Q72.44 104.60 80.72 104.60L80.72 104.60Q88.52 104.60 92.78 109.94Q97.04 115.28 97.04 126.56L97.04 126.56Q97.04 136.52 94.16 153.56L94.16 153.56L105.92 152.96Q113.48 152.60 118.88 151.76L118.88 151.76Q121.04 138.56 125.48 127.04Q129.92 115.52 136.52 108.32Q143.12 101.12 151.28 101.12L151.28 101.12Q157.28 101.12 160.76 105.86Q164.24 110.60 164.24 118.28L164.24 118.28Q164.24 148.04 133.88 159.56L133.88 159.56Q133.52 164.36 133.52 169.52L133.52 169.52Q133.52 182.12 136.64 187.40Q139.76 192.68 145.40 192.68L145.40 192.68Q150.32 192.68 154.40 190.10Q158.48 187.52 163.64 181.28L163.64 181.28Q165.08 179.60 166.88 179.60L166.88 179.60ZM150.68 111.56Q148.04 111.56 145.10 116.36Q142.16 121.16 139.52 129.44Q136.88 137.72 135.32 147.56L135.32 147.56Q144.92 143.60 149.48 136.28Q154.04 128.96 154.04 117.44L154.04 117.44Q154.04 114.68 153.08 113.12Q152.12 111.56 150.68 111.56L150.68 111.56ZM175.28 206.96Q167.84 206.96 163.40 201.56Q158.96 196.16 158.96 187.40L158.96 187.40Q158.96 177.80 163.40 169.22Q167.84 160.64 175.22 155.42Q182.60 150.20 190.88 150.20L190.88 150.20Q193.52 150.20 194.42 151.22Q195.32 152.24 195.92 154.88L195.92 154.88Q198.44 154.40 201.20 154.40L201.20 154.40Q207.08 154.40 207.08 158.60L207.08 158.60Q207.08 161.12 205.28 170.60L205.28 170.60Q202.52 184.40 202.52 189.80L202.52 189.80Q202.52 191.60 203.42 192.68Q204.32 193.76 205.76 193.76L205.76 193.76Q208.04 193.76 211.28 190.82Q214.52 187.88 220.04 181.28L220.04 181.28Q221.48 179.60 223.28 179.60L223.28 179.60Q224.84 179.60 225.74 181.04Q226.64 182.48 226.64 185L226.64 185Q226.64 189.80 224.36 192.44L224.36 192.44Q219.44 198.56 213.92 202.76Q208.40 206.96 203.24 206.96L203.24 206.96Q199.28 206.96 195.98 204.26Q192.68 201.56 191 196.88L191 196.88Q184.76 206.96 175.28 206.96L175.28 206.96ZM179.60 194.84Q182.24 194.84 184.64 191.72Q187.04 188.60 188.12 183.44L188.12 183.44L192.56 161.36Q187.52 161.48 183.26 165.14Q179 168.80 176.48 174.80Q173.96 180.80 173.96 187.52L173.96 187.52Q173.96 191.24 175.46 193.04Q176.96 194.84 179.60 194.84L179.60 194.84ZM225.44 206.96Q220.88 206.96 219.02 202.16Q217.16 197.36 217.16 186.80L217.16 186.80Q217.16 171.20 221.60 157.16L221.60 157.16Q222.68 153.68 225.14 152.06Q227.60 150.44 232.04 150.44L232.04 150.44Q234.44 150.44 235.40 151.04Q236.36 151.64 236.36 153.32L236.36 153.32Q236.36 155.24 234.56 161.96L234.56 161.96Q233.36 166.76 232.64 170.36Q231.92 173.96 231.44 179.24L231.44 179.24Q235.40 168.92 240.32 162.44Q245.24 155.96 249.98 153.20Q254.72 150.44 258.68 150.44L258.68 150.44Q266.48 150.44 266.48 158.24L266.48 158.24Q266.48 162.92 263.84 175.16L263.84 175.16Q261.56 185.60 261.56 188.96L261.56 188.96Q261.56 193.76 265.04 193.76L265.04 193.76Q267.44 193.76 270.74 190.82Q274.04 187.88 279.56 181.28L279.56 181.28Q281 179.60 282.80 179.60L282.80 179.60Q284.36 179.60 285.26 181.04Q286.16 182.48 286.16 185L286.16 185Q286.16 189.80 283.88 192.44L283.88 192.44Q278.72 198.80 272.78 202.88Q266.84 206.96 259.28 206.96L259.28 206.96Q253.16 206.96 250.04 203.42Q246.92 199.88 246.92 193.16L246.92 193.16Q246.92 189.80 248.60 181.16L248.60 181.16Q250.16 173.60 250.16 170.72L250.16 170.72Q250.16 168.80 248.84 168.80L248.84 168.80Q247.28 168.80 244.46 172.82Q241.64 176.84 238.70 183.44Q235.76 190.04 233.96 197.36L233.96 197.36Q232.64 203 230.90 204.98Q229.16 206.96 225.44 206.96L225.44 206.96ZM298.76 209.60Q292.52 209.60 289.22 206.72Q285.92 203.84 285.92 200.24L285.92 200.24Q285.92 197.12 288.20 194.84Q290.48 192.56 294.92 192.56L294.92 192.56Q296.48 192.56 298.58 192.86Q300.68 193.16 301.76 193.28L301.76 193.28Q301.64 190.16 300.38 187.40Q299.12 184.64 297.20 182.06Q295.28 179.48 293.60 177.56L293.60 177.56Q289.88 184.64 286.22 189.32Q282.56 194 278.24 198.20L278.24 198.20Q276.08 200.36 273.68 200.36L273.68 200.36Q271.76 200.36 270.56 198.98Q269.36 197.60 269.36 195.56L269.36 195.56Q269.36 193.16 271.04 191.12L271.04 191.12L272.60 189.20Q279.20 181.04 282.56 175.76L282.56 175.76Q284.60 172.28 287.36 166.46Q290.12 160.64 292.76 154.40L292.76 154.40Q295.04 149.12 302.24 149.12L302.24 149.12Q305.60 149.12 306.92 149.72Q308.24 150.32 308.24 151.64L308.24 151.64Q308.24 152.36 307.76 153.92Q307.28 155.48 306.44 157.04L306.44 157.04Q304.28 161.36 304.28 164.36L304.28 164.36Q304.28 166.16 305.54 168.32Q306.80 170.48 309.44 173.72L309.44 173.72Q313.28 178.76 315.26 182.30Q317.24 185.84 317.24 190.04L317.24 190.04Q317.24 191.24 317 193.40L317 193.40Q322.88 191.12 330.80 181.28L330.80 181.28Q332.24 179.60 334.04 179.60L334.04 179.60Q335.60 179.60 336.50 181.04Q337.40 182.48 337.40 185L337.40 185Q337.40 189.56 335.12 192.44L335.12 192.44Q329.12 199.88 323.66 202.58Q318.20 205.28 310.16 205.52L310.16 205.52Q305.36 209.60 298.76 209.60L298.76 209.60ZM457.40 154.52Q460.16 154.52 461.42 155.72Q462.68 156.92 462.68 158.84L462.68 158.84Q462.68 161.96 460.82 164.36Q458.96 166.76 455 166.88L455 166.88Q445.40 167.12 437.96 165.44L437.96 165.44Q429.44 183.32 417.38 195.14Q405.32 206.96 393.20 206.96L393.20 206.96Q380.72 206.96 374.60 192.44Q368.48 177.92 368.48 153.20L368.48 153.20Q368.48 132.08 371.48 115.28L371.48 115.28Q372.56 109.04 374.54 106.82Q376.52 104.60 381.32 104.60L381.32 104.60Q389.24 104.60 389.24 111.44L389.24 111.44Q389.24 112.16 389 114.08L389 114.08Q385.40 135.68 385.40 153.20L385.40 153.20Q385.40 171.56 388.46 181.10Q391.52 190.64 397.64 190.64L397.64 190.64Q403.88 190.64 411.20 182Q418.52 173.36 424.64 160.28L424.64 160.28Q417.32 155.72 413.60 148.46Q409.88 141.20 409.88 131.72L409.88 131.72Q409.88 122.24 412.82 115.70Q415.76 109.16 420.86 105.92Q425.96 102.68 432.20 102.68L432.20 102.68Q439.88 102.68 444.38 108.20Q448.88 113.72 448.88 123.32L448.88 123.32Q448.88 137.12 442.88 153.44L442.88 153.44Q449.24 154.52 457.40 154.52L457.40 154.52ZM422 130.88Q422 142.64 429.56 148.28L429.56 148.28Q434.24 134.84 434.24 126.08L434.24 126.08Q434.24 121.04 432.92 118.70Q431.60 116.36 429.32 116.36L429.32 116.36Q426.08 116.36 424.04 120.14Q422 123.92 422 130.88L422 130.88ZM461 206.96Q453.56 206.96 449.12 201.56Q444.68 196.16 444.68 187.40L444.68 187.40Q444.68 177.80 449.12 169.22Q453.56 160.64 460.94 155.42Q468.32 150.20 476.60 150.20L476.60 150.20Q479.24 150.20 480.14 151.22Q481.04 152.24 481.64 154.88L481.64 154.88Q484.16 154.40 486.92 154.40L486.92 154.40Q492.80 154.40 492.80 158.60L492.80 158.60Q492.80 161.12 491 170.60L491 170.60Q488.24 184.40 488.24 189.80L488.24 189.80Q488.24 191.60 489.14 192.68Q490.04 193.76 491.48 193.76L491.48 193.76Q493.76 193.76 497 190.82Q500.24 187.88 505.76 181.28L505.76 181.28Q507.20 179.60 509 179.60L509 179.60Q510.56 179.60 511.46 181.04Q512.36 182.48 512.36 185L512.36 185Q512.36 189.80 510.08 192.44L510.08 192.44Q505.16 198.56 499.64 202.76Q494.12 206.96 488.96 206.96L488.96 206.96Q485 206.96 481.70 204.26Q478.40 201.56 476.72 196.88L476.72 196.88Q470.48 206.96 461 206.96L461 206.96ZM465.32 194.84Q467.96 194.84 470.36 191.72Q472.76 188.60 473.84 183.44L473.84 183.44L478.28 161.36Q473.24 161.48 468.98 165.14Q464.72 168.80 462.20 174.80Q459.68 180.80 459.68 187.52L459.68 187.52Q459.68 191.24 461.18 193.04Q462.68 194.84 465.32 194.84L465.32 194.84ZM525.56 206.96Q513.80 206.96 507.26 200.30Q500.72 193.64 500.72 182.72L500.72 182.72Q500.72 173 504.56 165.68Q508.40 158.36 514.52 154.40Q520.64 150.44 527.36 150.44L527.36 150.44Q533.96 150.44 537.62 154.34Q541.28 158.24 541.28 164.36L541.28 164.36Q541.28 169.40 539.06 172.88Q536.84 176.36 533.24 176.36L533.24 176.36Q530.96 176.36 529.58 175.28Q528.20 174.20 528.20 172.28L528.20 172.28Q528.20 171.44 528.44 170.36Q528.68 169.28 528.80 168.80L528.80 168.80Q529.40 167 529.40 165.44L529.40 165.44Q529.40 163.88 528.62 163.04Q527.84 162.20 526.40 162.20L526.40 162.20Q523.64 162.20 521.24 164.66Q518.84 167.12 517.40 171.32Q515.96 175.52 515.96 180.56L515.96 180.56Q515.96 194.48 528.08 194.48L528.08 194.48Q533 194.48 538.70 191.18Q544.40 187.88 549.92 181.28L549.92 181.28Q551.36 179.60 553.16 179.60L553.16 179.60Q554.72 179.60 555.62 181.04Q556.52 182.48 556.52 185L556.52 185Q556.52 189.56 554.24 192.44L554.24 192.44Q548.60 199.40 540.74 203.18Q532.88 206.96 525.56 206.96L525.56 206.96ZM560.36 206.96Q552.92 206.96 548.48 201.56Q544.04 196.16 544.04 187.40L544.04 187.40Q544.04 177.80 548.48 169.22Q552.92 160.64 560.30 155.42Q567.68 150.20 575.96 150.20L575.96 150.20Q578.60 150.20 579.50 151.22Q580.40 152.24 581.00 154.88L581.00 154.88Q583.52 154.40 586.28 154.40L586.28 154.40Q592.16 154.40 592.16 158.60L592.16 158.60Q592.16 161.12 590.36 170.60L590.36 170.60Q587.60 184.40 587.60 189.80L587.60 189.80Q587.60 191.60 588.50 192.68Q589.40 193.76 590.84 193.76L590.84 193.76Q593.12 193.76 596.36 190.82Q599.60 187.88 605.12 181.28L605.12 181.28Q606.56 179.60 608.36 179.60L608.36 179.60Q609.92 179.60 610.82 181.04Q611.72 182.48 611.72 185L611.72 185Q611.72 189.80 609.44 192.44L609.44 192.44Q604.52 198.56 599.00 202.76Q593.48 206.96 588.32 206.96L588.32 206.96Q584.36 206.96 581.06 204.26Q577.76 201.56 576.08 196.88L576.08 196.88Q569.84 206.96 560.36 206.96L560.36 206.96ZM564.68 194.84Q567.32 194.84 569.72 191.72Q572.12 188.60 573.20 183.44L573.20 183.44L577.64 161.36Q572.60 161.48 568.34 165.14Q564.08 168.80 561.56 174.80Q559.04 180.80 559.04 187.52L559.04 187.52Q559.04 191.24 560.54 193.04Q562.04 194.84 564.68 194.84L564.68 194.84ZM655.52 179.60Q657.08 179.60 657.98 181.04Q658.88 182.48 658.88 185L658.88 185Q658.88 189.80 656.60 192.44L656.60 192.44Q651.44 198.80 645.32 202.88Q639.20 206.96 631.28 206.96L631.28 206.96Q606.80 206.96 606.80 172.52L606.80 172.52Q606.80 167.24 607.16 161.84L607.16 161.84L602.48 161.84Q598.88 161.84 597.62 160.52Q596.36 159.20 596.36 156.32L596.36 156.32Q596.36 149.60 601.76 149.60L601.76 149.60L608.60 149.60Q610.64 136.40 614.84 125.48Q619.04 114.56 624.98 108.08Q630.92 101.60 637.76 101.60L637.76 101.60Q642.80 101.60 645.68 106.04Q648.56 110.48 648.56 117.20L648.56 117.20Q648.56 135.80 632.96 149.60L632.96 149.60L646.40 149.60Q648.32 149.60 649.16 150.44Q650.00 151.28 650.00 153.56L650.00 153.56Q650.00 161.84 636.44 161.84L636.44 161.84L621.80 161.84Q621.56 167.84 621.56 171.20L621.56 171.20Q621.56 183.68 624.50 188.72Q627.44 193.76 633.80 193.76L633.80 193.76Q638.96 193.76 642.92 190.64Q646.88 187.52 652.28 181.28L652.28 181.28Q653.72 179.60 655.52 179.60L655.52 179.60ZM634.52 113.12Q632.72 113.12 630.50 117.62Q628.28 122.12 626.30 130.10Q624.32 138.08 623.00 147.80L623.00 147.80Q630.08 141.68 633.62 134.06Q637.16 126.44 637.16 120.20L637.16 120.20Q637.16 113.12 634.52 113.12L634.52 113.12ZM664.88 142.52Q659.84 142.52 657.32 140.18Q654.80 137.84 654.80 133.64L654.80 133.64Q654.80 129.44 658.10 126.62Q661.40 123.80 666.32 123.80L666.32 123.80Q670.76 123.80 673.52 125.96Q676.28 128.12 676.28 132.08L676.28 132.08Q676.28 136.88 673.16 139.70Q670.04 142.52 664.88 142.52L664.88 142.52ZM663.92 206.96Q656.12 206.96 652.58 201.44Q649.04 195.92 649.04 186.80L649.04 186.80Q649.04 181.40 650.42 172.94Q651.80 164.48 653.96 157.16L653.96 157.16Q655.04 153.32 656.84 151.88Q658.64 150.44 662.60 150.44L662.60 150.44Q668.72 150.44 668.72 154.52L668.72 154.52Q668.72 157.52 666.44 168.44L666.44 168.44Q663.56 181.64 663.56 186.32L663.56 186.32Q663.56 189.92 664.52 191.84Q665.48 193.76 667.76 193.76L667.76 193.76Q669.92 193.76 673.16 190.76Q676.40 187.76 681.80 181.28L681.80 181.28Q683.24 179.60 685.04 179.60L685.04 179.60Q686.60 179.60 687.50 181.04Q688.40 182.48 688.40 185L688.40 185Q688.40 189.80 686.12 192.44L686.12 192.44Q674.24 206.96 663.92 206.96L663.92 206.96ZM739.88 169.52Q741.44 169.52 742.28 171.08Q743.12 172.64 743.12 175.04L743.12 175.04Q743.12 180.80 739.64 181.88L739.64 181.88Q732.44 184.40 723.80 184.76L723.80 184.76Q721.52 194.84 714.80 200.90Q708.08 206.96 699.56 206.96L699.56 206.96Q692.36 206.96 687.26 203.48Q682.16 200 679.52 194.24Q676.88 188.48 676.88 181.76L676.88 181.76Q676.88 172.64 680.36 165.50Q683.84 158.36 689.96 154.34Q696.08 150.32 703.52 150.32L703.52 150.32Q712.64 150.32 718.22 156.62Q723.80 162.92 724.76 172.16L724.76 172.16Q730.40 171.80 738.20 169.76L738.20 169.76Q739.16 169.52 739.88 169.52L739.88 169.52ZM700.52 194.24Q704.36 194.24 707.18 191.12Q710.00 188 710.96 182.12L710.96 182.12Q707.24 179.60 705.26 175.52Q703.28 171.44 703.28 166.88L703.28 166.88Q703.28 164.96 703.64 163.04L703.64 163.04L703.04 163.04Q698.24 163.04 695.06 167.66Q691.88 172.28 691.88 180.68L691.88 180.68Q691.88 187.28 694.46 190.76Q697.04 194.24 700.52 194.24L700.52 194.24ZM741.32 206.96Q736.76 206.96 734.90 202.16Q733.04 197.36 733.04 186.80L733.04 186.80Q733.04 171.20 737.48 157.16L737.48 157.16Q738.56 153.68 741.02 152.06Q743.48 150.44 747.92 150.44L747.92 150.44Q750.32 150.44 751.28 151.04Q752.24 151.64 752.24 153.32L752.24 153.32Q752.24 155.24 750.44 161.96L750.44 161.96Q749.24 166.76 748.52 170.36Q747.80 173.96 747.32 179.24L747.32 179.24Q751.28 168.92 756.20 162.44Q761.12 155.96 765.86 153.20Q770.60 150.44 774.56 150.44L774.56 150.44Q782.36 150.44 782.36 158.24L782.36 158.24Q782.36 162.92 779.72 175.16L779.72 175.16Q777.44 185.60 777.44 188.96L777.44 188.96Q777.44 193.76 780.92 193.76L780.92 193.76Q783.32 193.76 786.62 190.82Q789.92 187.88 795.44 181.28L795.44 181.28Q796.88 179.60 798.68 179.60L798.68 179.60Q800.24 179.60 801.14 181.04Q802.04 182.48 802.04 185L802.04 185Q802.04 189.80 799.76 192.44L799.76 192.44Q794.60 198.80 788.66 202.88Q782.72 206.96 775.16 206.96L775.16 206.96Q769.04 206.96 765.92 203.42Q762.80 199.88 762.80 193.16L762.80 193.16Q762.80 189.80 764.48 181.16L764.48 181.16Q766.04 173.60 766.04 170.72L766.04 170.72Q766.04 168.80 764.72 168.80L764.72 168.80Q763.16 168.80 760.34 172.82Q757.52 176.84 754.58 183.44Q751.64 190.04 749.84 197.36L749.84 197.36Q748.52 203 746.78 204.98Q745.04 206.96 741.32 206.96L741.32 206.96Z"/>
      </svg>
    