
      <svg width="850.8399999999999" height="246.28" viewBox="0 0 850.8399999999999 246.28" xmlns="http://www.w3.org/2000/svg">
        <rect width="100%" height="100%" fill="#ffffff" />
        <path fill="#de1b1b" d="M72.68 166.88L72.68 166.88Q65.60 166.88 59.42 163.76Q53.24 160.64 49.52 154.88L49.52 154.88L54.68 148.88Q58.16 153.92 62.72 156.56Q67.28 159.20 72.80 159.20L72.80 159.20Q88.40 159.20 88.40 140.72L88.40 140.72L88.40 89.84L57.68 89.84L57.68 82.16L97.16 82.16L97.16 140.36Q97.16 153.68 90.98 160.28Q84.80 166.88 72.68 166.88ZM169.64 166.16L161.48 166.16L161.48 152.24L161.12 149.96L161.12 126.68Q161.12 118.64 156.62 114.32Q152.12 110 143.24 110L143.24 110Q137.12 110 131.60 112.04Q126.08 114.08 122.24 117.44L122.24 117.44L118.40 111.08Q123.20 107 129.92 104.78Q136.64 102.56 144.08 102.56L144.08 102.56Q156.32 102.56 162.98 108.62Q169.64 114.68 169.64 127.04L169.64 127.04L169.64 166.16ZM139.76 166.76L139.76 166.76Q132.68 166.76 127.46 164.42Q122.24 162.08 119.48 157.94Q116.72 153.80 116.72 148.40L116.72 148.40Q116.72 143.48 119.06 139.46Q121.40 135.44 126.74 132.98Q132.08 130.52 141.08 130.52L141.08 130.52L162.80 130.52L162.80 136.88L141.32 136.88Q132.20 136.88 128.66 140.12Q125.12 143.36 125.12 148.16L125.12 148.16Q125.12 153.56 129.32 156.80Q133.52 160.04 141.08 160.04L141.08 160.04Q148.28 160.04 153.50 156.74Q158.72 153.44 161.12 147.20L161.12 147.20L163.04 153.08Q160.64 159.32 154.70 163.04Q148.76 166.76 139.76 166.76ZM201.32 166.16L192.80 166.16L192.80 103.16L200.96 103.16L200.96 120.44L199.64 117.20Q202.64 110.36 209.24 106.46Q215.84 102.56 224.96 102.56L224.96 102.56Q232.64 102.56 238.46 105.50Q244.28 108.44 247.58 114.44Q250.88 120.44 250.88 129.56L250.88 129.56L250.88 166.16L242.36 166.16L242.36 130.40Q242.36 120.44 237.38 115.34Q232.40 110.24 223.40 110.24L223.40 110.24Q216.68 110.24 211.70 112.94Q206.72 115.64 204.02 120.74Q201.32 125.84 201.32 133.04L201.32 133.04L201.32 166.16ZM372.20 161.84L367.28 167.48L320.96 119.84Q316.76 115.40 314.30 112.10Q311.84 108.80 310.88 105.80Q309.92 102.80 309.92 99.44L309.92 99.44Q309.92 94.04 312.50 90.02Q315.08 86 319.88 83.78Q324.68 81.56 331.16 81.56L331.16 81.56Q337.04 81.56 341.42 83.54Q345.80 85.52 348.26 89.24Q350.72 92.96 350.72 98.24L350.72 98.24Q350.72 102.80 348.50 106.76Q346.28 110.72 341.24 114.50Q336.20 118.28 327.56 122.96L327.56 122.96Q320 127.16 315.62 130.64Q311.24 134.12 309.44 137.42Q307.64 140.72 307.64 144.68L307.64 144.68Q307.64 149.24 310.22 152.66Q312.80 156.08 317.42 157.94Q322.04 159.80 328.04 159.80L328.04 159.80Q336.44 159.80 343.04 156.32Q349.64 152.84 354.14 145.76Q358.64 138.68 360.68 128L360.68 128L367.52 130.16Q365.24 142.16 359.72 150.32Q354.20 158.48 346.04 162.68Q337.88 166.88 327.56 166.88L327.56 166.88Q319.40 166.88 313.04 164.18Q306.68 161.48 303.02 156.68Q299.36 151.88 299.36 145.52L299.36 145.52Q299.36 140.12 301.76 135.62Q304.16 131.12 309.50 126.74Q314.84 122.36 323.72 117.56L323.72 117.56Q331.28 113.36 335.54 110.30Q339.80 107.24 341.60 104.42Q343.40 101.60 343.40 98.36L343.40 98.36Q343.40 93.68 340.22 90.80Q337.04 87.92 331.16 87.92L331.16 87.92Q324.80 87.92 321.32 91.10Q317.84 94.28 317.84 99.32L317.84 99.32Q317.84 101.84 318.62 104.12Q319.40 106.40 321.62 109.16Q323.84 111.92 327.80 116.12L327.80 116.12L372.20 161.84ZM427.40 166.16L418.88 166.16L418.88 82.16L426.20 82.16L464.60 147.68L460.76 147.68L498.80 82.16L506.12 82.16L506.12 166.16L497.60 166.16L497.60 95.48L499.64 95.48L464.60 155.48L460.40 155.48L425.12 95.48L427.40 95.48L427.40 166.16ZM579.32 166.16L571.16 166.16L571.16 152.24L570.80 149.96L570.80 126.68Q570.80 118.64 566.30 114.32Q561.80 110 552.92 110L552.92 110Q546.80 110 541.28 112.04Q535.76 114.08 531.92 117.44L531.92 117.44L528.08 111.08Q532.88 107 539.60 104.78Q546.32 102.56 553.76 102.56L553.76 102.56Q566 102.56 572.66 108.62Q579.32 114.68 579.32 127.04L579.32 127.04L579.32 166.16ZM549.44 166.76L549.44 166.76Q542.36 166.76 537.14 164.42Q531.92 162.08 529.16 157.94Q526.40 153.80 526.40 148.40L526.40 148.40Q526.40 143.48 528.74 139.46Q531.08 135.44 536.42 132.98Q541.76 130.52 550.76 130.52L550.76 130.52L572.48 130.52L572.48 136.88L551 136.88Q541.88 136.88 538.34 140.12Q534.80 143.36 534.80 148.16L534.80 148.16Q534.80 153.56 539 156.80Q543.20 160.04 550.76 160.04L550.76 160.04Q557.96 160.04 563.18 156.74Q568.40 153.44 570.80 147.20L570.80 147.20L572.72 153.08Q570.32 159.32 564.38 163.04Q558.44 166.76 549.44 166.76ZM611.00 166.16L602.48 166.16L602.48 103.16L610.64 103.16L610.64 120.32L609.80 117.32Q612.44 110.12 618.68 106.34Q624.92 102.56 634.16 102.56L634.16 102.56L634.16 110.84Q633.68 110.84 633.20 110.78Q632.72 110.72 632.24 110.72L632.24 110.72Q622.28 110.72 616.64 116.78Q611.00 122.84 611.00 134L611.00 134L611.00 166.16ZM670.52 166.76L670.52 166.76Q661.64 166.76 656.84 161.96Q652.04 157.16 652.04 148.40L652.04 148.40L652.04 89.24L660.56 89.24L660.56 147.92Q660.56 153.44 663.38 156.44Q666.20 159.44 671.48 159.44L671.48 159.44Q677.12 159.44 680.84 156.20L680.84 156.20L683.84 162.32Q681.32 164.60 677.78 165.68Q674.24 166.76 670.52 166.76ZM679.76 110.24L640.76 110.24L640.76 103.16L679.76 103.16L679.76 110.24ZM707.84 166.16L699.32 166.16L699.32 103.16L707.84 103.16L707.84 166.16ZM703.64 89.24L703.64 89.24Q701.00 89.24 699.20 87.44Q697.40 85.64 697.40 83.12L697.40 83.12Q697.40 80.60 699.20 78.86Q701.00 77.12 703.64 77.12L703.64 77.12Q706.28 77.12 708.08 78.80Q709.88 80.48 709.88 83L709.88 83Q709.88 85.64 708.14 87.44Q706.40 89.24 703.64 89.24ZM740.12 166.16L731.60 166.16L731.60 103.16L739.76 103.16L739.76 120.44L738.44 117.20Q741.44 110.36 748.04 106.46Q754.64 102.56 763.76 102.56L763.76 102.56Q771.44 102.56 777.26 105.50Q783.08 108.44 786.38 114.44Q789.68 120.44 789.68 129.56L789.68 129.56L789.68 166.16L781.16 166.16L781.16 130.40Q781.16 120.44 776.18 115.34Q771.20 110.24 762.20 110.24L762.20 110.24Q755.48 110.24 750.50 112.94Q745.52 115.64 742.82 120.74Q740.12 125.84 740.12 133.04L740.12 133.04L740.12 166.16Z"/>
      </svg>
    