
      <svg width="1665.4000000000003" height="246.28" viewBox="0 0 1665.4000000000003 246.28" xmlns="http://www.w3.org/2000/svg">
        <rect width="100%" height="100%" fill="#ffffff" />
        <path fill="#000000" d="M72.20 166.16L63.68 166.16L63.68 82.16L71 82.16L109.40 147.68L105.56 147.68L143.60 82.16L150.92 82.16L150.92 166.16L142.40 166.16L142.40 95.48L144.44 95.48L109.40 155.48L105.20 155.48L69.92 95.48L72.20 95.48L72.20 166.16ZM203.24 166.76L203.24 166.76Q193.40 166.76 185.96 162.62Q178.52 158.48 174.32 151.22Q170.12 143.96 170.12 134.60L170.12 134.60Q170.12 125.24 174.14 118.04Q178.16 110.84 185.18 106.70Q192.20 102.56 200.96 102.56L200.96 102.56Q209.84 102.56 216.74 106.58Q223.64 110.60 227.60 117.86Q231.56 125.12 231.56 134.60L231.56 134.60Q231.56 135.20 231.50 135.86Q231.44 136.52 231.44 137.24L231.44 137.24L176.60 137.24L176.60 130.88L226.88 130.88L223.52 133.40Q223.52 126.56 220.58 121.22Q217.64 115.88 212.60 112.88Q207.56 109.88 200.96 109.88L200.96 109.88Q194.48 109.88 189.32 112.88Q184.16 115.88 181.28 121.28Q178.40 126.68 178.40 133.64L178.40 133.64L178.40 134.96Q178.40 142.16 181.58 147.62Q184.76 153.08 190.46 156.14Q196.16 159.20 203.48 159.20L203.48 159.20Q209.24 159.20 214.22 157.16Q219.20 155.12 222.80 150.92L222.80 150.92L227.60 156.44Q223.40 161.48 217.10 164.12Q210.80 166.76 203.24 166.76ZM257.48 166.16L248.96 166.16L248.96 103.16L257.12 103.16L257.12 120.44L255.80 117.20Q258.80 110.36 265.40 106.46Q272 102.56 281.12 102.56L281.12 102.56Q288.80 102.56 294.62 105.50Q300.44 108.44 303.74 114.44Q307.04 120.44 307.04 129.56L307.04 129.56L307.04 166.16L298.52 166.16L298.52 130.40Q298.52 120.44 293.54 115.34Q288.56 110.24 279.56 110.24L279.56 110.24Q272.84 110.24 267.86 112.94Q262.88 115.64 260.18 120.74Q257.48 125.84 257.48 133.04L257.48 133.04L257.48 166.16ZM356.24 166.76L356.24 166.76Q346.88 166.76 339.50 162.62Q332.12 158.48 327.92 151.22Q323.72 143.96 323.72 134.60L323.72 134.60Q323.72 125.12 327.92 117.92Q332.12 110.72 339.50 106.64Q346.88 102.56 356.24 102.56L356.24 102.56Q364.28 102.56 370.76 105.68Q377.24 108.80 380.96 115.04L380.96 115.04L374.60 119.36Q371.36 114.56 366.56 112.28Q361.76 110 356.12 110L356.12 110Q349.40 110 344 113.06Q338.60 116.12 335.48 121.64Q332.36 127.16 332.36 134.60L332.36 134.60Q332.36 142.04 335.48 147.56Q338.60 153.08 344 156.14Q349.40 159.20 356.12 159.20L356.12 159.20Q361.76 159.20 366.56 156.92Q371.36 154.64 374.60 149.96L374.60 149.96L380.96 154.28Q377.24 160.40 370.76 163.58Q364.28 166.76 356.24 166.76ZM421.76 133.76L404.36 149.84L404.60 138.92L443.84 103.16L454.28 103.16L426.56 129.68L421.76 133.76ZM406.16 166.16L397.64 166.16L397.64 77.12L406.16 77.12L406.16 166.16ZM456.92 166.16L446.48 166.16L420.20 133.40L425.72 126.80L456.92 166.16ZM496.16 166.76L496.16 166.76Q486.32 166.76 478.88 162.62Q471.44 158.48 467.24 151.22Q463.04 143.96 463.04 134.60L463.04 134.60Q463.04 125.24 467.06 118.04Q471.08 110.84 478.10 106.70Q485.12 102.56 493.88 102.56L493.88 102.56Q502.76 102.56 509.66 106.58Q516.56 110.60 520.52 117.86Q524.48 125.12 524.48 134.60L524.48 134.60Q524.48 135.20 524.42 135.86Q524.36 136.52 524.36 137.24L524.36 137.24L469.52 137.24L469.52 130.88L519.80 130.88L516.44 133.40Q516.44 126.56 513.50 121.22Q510.56 115.88 505.52 112.88Q500.48 109.88 493.88 109.88L493.88 109.88Q487.40 109.88 482.24 112.88Q477.08 115.88 474.20 121.28Q471.32 126.68 471.32 133.64L471.32 133.64L471.32 134.96Q471.32 142.16 474.50 147.62Q477.68 153.08 483.38 156.14Q489.08 159.20 496.40 159.20L496.40 159.20Q502.16 159.20 507.14 157.16Q512.12 155.12 515.72 150.92L515.72 150.92L520.52 156.44Q516.32 161.48 510.02 164.12Q503.72 166.76 496.16 166.76ZM582.32 166.16L543.68 166.16L543.68 82.16L579.92 82.16Q593.96 82.16 601.70 87.80Q609.44 93.44 609.44 103.76L609.44 103.76Q609.44 110.60 606.26 115.28Q603.08 119.96 597.62 122.36Q592.16 124.76 585.68 124.76L585.68 124.76L587.72 121.88Q595.76 121.88 601.58 124.34Q607.40 126.80 610.64 131.66Q613.88 136.52 613.88 143.72L613.88 143.72Q613.88 154.40 606.02 160.28Q598.16 166.16 582.32 166.16L582.32 166.16ZM552.56 89.48L552.56 158.84L582.20 158.84Q593.24 158.84 599.12 155.06Q605 151.28 605 143L605 143Q605 134.84 599.12 131.06Q593.24 127.28 582.20 127.28L582.20 127.28L551.60 127.28L551.60 119.96L579.32 119.96Q589.40 119.96 594.98 116.12Q600.56 112.28 600.56 104.72L600.56 104.72Q600.56 97.04 594.98 93.26Q589.40 89.48 579.32 89.48L579.32 89.48L552.56 89.48ZM632.84 190.04L632.84 190.04Q628.40 190.04 624.38 188.60Q620.36 187.16 617.48 184.28L617.48 184.28L621.44 177.92Q623.84 180.20 626.66 181.46Q629.48 182.72 632.96 182.72L632.96 182.72Q637.16 182.72 640.22 180.38Q643.28 178.04 646.04 172.16L646.04 172.16L650.12 162.92L651.08 161.60L677 103.16L685.40 103.16L653.84 173.72Q651.20 179.84 648.02 183.44Q644.84 187.04 641.12 188.54Q637.40 190.04 632.84 190.04ZM655.16 161L649.64 167.96L620.60 103.16L629.48 103.16L655.16 161ZM717.32 166.76L717.32 166.76Q708.44 166.76 703.64 161.96Q698.84 157.16 698.84 148.40L698.84 148.40L698.84 89.24L707.36 89.24L707.36 147.92Q707.36 153.44 710.18 156.44Q713 159.44 718.28 159.44L718.28 159.44Q723.92 159.44 727.64 156.20L727.64 156.20L730.64 162.32Q728.12 164.60 724.58 165.68Q721.04 166.76 717.32 166.76ZM726.56 110.24L687.56 110.24L687.56 103.16L726.56 103.16L726.56 110.24ZM772.88 166.76L772.88 166.76Q763.04 166.76 755.60 162.62Q748.16 158.48 743.96 151.22Q739.76 143.96 739.76 134.60L739.76 134.60Q739.76 125.24 743.78 118.04Q747.80 110.84 754.82 106.70Q761.84 102.56 770.60 102.56L770.60 102.56Q779.48 102.56 786.38 106.58Q793.28 110.60 797.24 117.86Q801.20 125.12 801.20 134.60L801.20 134.60Q801.20 135.20 801.14 135.86Q801.08 136.52 801.08 137.24L801.08 137.24L746.24 137.24L746.24 130.88L796.52 130.88L793.16 133.40Q793.16 126.56 790.22 121.22Q787.28 115.88 782.24 112.88Q777.20 109.88 770.60 109.88L770.60 109.88Q764.12 109.88 758.96 112.88Q753.80 115.88 750.92 121.28Q748.04 126.68 748.04 133.64L748.04 133.64L748.04 134.96Q748.04 142.16 751.22 147.62Q754.40 153.08 760.10 156.14Q765.80 159.20 773.12 159.20L773.12 159.20Q778.88 159.20 783.86 157.16Q788.84 155.12 792.44 150.92L792.44 150.92L797.24 156.44Q793.04 161.48 786.74 164.12Q780.44 166.76 772.88 166.76ZM819.44 115.64L819.44 115.64Q816.80 115.64 814.94 113.72Q813.08 111.80 813.08 109.04L813.08 109.04Q813.08 106.16 814.94 104.36Q816.80 102.56 819.44 102.56L819.44 102.56Q822.08 102.56 823.94 104.36Q825.80 106.16 825.80 109.04L825.80 109.04Q825.80 111.80 823.94 113.72Q822.08 115.64 819.44 115.64ZM819.44 166.76L819.44 166.76Q816.80 166.76 814.94 164.84Q813.08 162.92 813.08 160.16L813.08 160.16Q813.08 157.28 814.94 155.48Q816.80 153.68 819.44 153.68L819.44 153.68Q822.08 153.68 823.94 155.48Q825.80 157.28 825.80 160.16L825.80 160.16Q825.80 162.92 823.94 164.84Q822.08 166.76 819.44 166.76ZM915.92 166.16L877.28 166.16L877.28 82.16L913.52 82.16Q927.56 82.16 935.30 87.80Q943.04 93.44 943.04 103.76L943.04 103.76Q943.04 110.60 939.86 115.28Q936.68 119.96 931.22 122.36Q925.76 124.76 919.28 124.76L919.28 124.76L921.32 121.88Q929.36 121.88 935.18 124.34Q941.00 126.80 944.24 131.66Q947.48 136.52 947.48 143.72L947.48 143.72Q947.48 154.40 939.62 160.28Q931.76 166.16 915.92 166.16L915.92 166.16ZM886.16 89.48L886.16 158.84L915.80 158.84Q926.84 158.84 932.72 155.06Q938.60 151.28 938.60 143L938.60 143Q938.60 134.84 932.72 131.06Q926.84 127.28 915.80 127.28L915.80 127.28L885.20 127.28L885.20 119.96L912.92 119.96Q923.00 119.96 928.58 116.12Q934.16 112.28 934.16 104.72L934.16 104.72Q934.16 97.04 928.58 93.26Q923.00 89.48 912.92 89.48L912.92 89.48L886.16 89.48ZM966.44 190.04L966.44 190.04Q962.00 190.04 957.98 188.60Q953.96 187.16 951.08 184.28L951.08 184.28L955.04 177.92Q957.44 180.20 960.26 181.46Q963.08 182.72 966.56 182.72L966.56 182.72Q970.76 182.72 973.82 180.38Q976.88 178.04 979.64 172.16L979.64 172.16L983.72 162.92L984.68 161.60L1010.60 103.16L1019.00 103.16L987.44 173.72Q984.80 179.84 981.62 183.44Q978.44 187.04 974.72 188.54Q971.00 190.04 966.44 190.04ZM988.76 161L983.24 167.96L954.20 103.16L963.08 103.16L988.76 161ZM1050.92 166.76L1050.92 166.76Q1042.04 166.76 1037.24 161.96Q1032.44 157.16 1032.44 148.40L1032.44 148.40L1032.44 89.24L1040.96 89.24L1040.96 147.92Q1040.96 153.44 1043.78 156.44Q1046.60 159.44 1051.88 159.44L1051.88 159.44Q1057.52 159.44 1061.24 156.20L1061.24 156.20L1064.24 162.32Q1061.72 164.60 1058.18 165.68Q1054.64 166.76 1050.92 166.76ZM1060.16 110.24L1021.16 110.24L1021.16 103.16L1060.16 103.16L1060.16 110.24ZM1106.48 166.76L1106.48 166.76Q1096.64 166.76 1089.20 162.62Q1081.76 158.48 1077.56 151.22Q1073.36 143.96 1073.36 134.60L1073.36 134.60Q1073.36 125.24 1077.38 118.04Q1081.40 110.84 1088.42 106.70Q1095.44 102.56 1104.20 102.56L1104.20 102.56Q1113.08 102.56 1119.98 106.58Q1126.88 110.60 1130.84 117.86Q1134.80 125.12 1134.80 134.60L1134.80 134.60Q1134.80 135.20 1134.74 135.86Q1134.68 136.52 1134.68 137.24L1134.68 137.24L1079.84 137.24L1079.84 130.88L1130.12 130.88L1126.76 133.40Q1126.76 126.56 1123.82 121.22Q1120.88 115.88 1115.84 112.88Q1110.80 109.88 1104.20 109.88L1104.20 109.88Q1097.72 109.88 1092.56 112.88Q1087.40 115.88 1084.52 121.28Q1081.64 126.68 1081.64 133.64L1081.64 133.64L1081.64 134.96Q1081.64 142.16 1084.82 147.62Q1088.00 153.08 1093.70 156.14Q1099.40 159.20 1106.72 159.20L1106.72 159.20Q1112.48 159.20 1117.46 157.16Q1122.44 155.12 1126.04 150.92L1126.04 150.92L1130.84 156.44Q1126.64 161.48 1120.34 164.12Q1114.04 166.76 1106.48 166.76ZM1169.12 166.76L1169.12 166.76Q1161.32 166.76 1154.36 164.54Q1147.40 162.32 1143.44 158.96L1143.44 158.96L1147.28 152.24Q1151.12 155.12 1157.12 157.22Q1163.12 159.32 1169.72 159.32L1169.72 159.32Q1178.72 159.32 1182.68 156.50Q1186.64 153.68 1186.64 149L1186.64 149Q1186.64 145.52 1184.42 143.54Q1182.20 141.56 1178.60 140.54Q1175.00 139.52 1170.56 138.80Q1166.12 138.08 1161.74 137.12Q1157.36 136.16 1153.76 134.30Q1150.16 132.44 1147.94 129.20Q1145.72 125.96 1145.72 120.56L1145.72 120.56Q1145.72 115.40 1148.60 111.32Q1151.48 107.24 1157.06 104.90Q1162.64 102.56 1170.68 102.56L1170.68 102.56Q1176.80 102.56 1182.92 104.18Q1189.04 105.80 1193.00 108.44L1193.00 108.44L1189.28 115.28Q1185.08 112.40 1180.28 111.14Q1175.48 109.88 1170.68 109.88L1170.68 109.88Q1162.16 109.88 1158.14 112.82Q1154.12 115.76 1154.12 120.32L1154.12 120.32Q1154.12 123.92 1156.34 125.96Q1158.56 128 1162.22 129.14Q1165.88 130.28 1170.26 131Q1174.64 131.72 1179.02 132.74Q1183.40 133.76 1187.06 135.50Q1190.72 137.24 1192.94 140.42Q1195.16 143.60 1195.16 148.76L1195.16 148.76Q1195.16 154.28 1192.10 158.30Q1189.04 162.32 1183.22 164.54Q1177.40 166.76 1169.12 166.76ZM1267.88 166.76L1267.88 166.76Q1258.76 166.76 1251.50 162.62Q1244.24 158.48 1240.04 151.22Q1235.84 143.96 1235.84 134.60L1235.84 134.60Q1235.84 125.12 1240.04 117.92Q1244.24 110.72 1251.44 106.64Q1258.64 102.56 1267.88 102.56L1267.88 102.56Q1277.24 102.56 1284.50 106.64Q1291.76 110.72 1295.90 117.92Q1300.04 125.12 1300.04 134.60L1300.04 134.60Q1300.04 143.96 1295.90 151.22Q1291.76 158.48 1284.44 162.62Q1277.12 166.76 1267.88 166.76ZM1267.88 159.20L1267.88 159.20Q1274.72 159.20 1280.00 156.14Q1285.28 153.08 1288.34 147.50Q1291.40 141.92 1291.40 134.60L1291.40 134.60Q1291.40 127.16 1288.34 121.64Q1285.28 116.12 1280.00 113.06Q1274.72 110 1268.00 110L1268.00 110Q1261.28 110 1256.00 113.06Q1250.72 116.12 1247.60 121.64Q1244.48 127.16 1244.48 134.60L1244.48 134.60Q1244.48 141.92 1247.60 147.50Q1250.72 153.08 1256.00 156.14Q1261.28 159.20 1267.88 159.20ZM1327.40 166.16L1318.88 166.16L1318.88 95.24Q1318.88 86.84 1323.80 81.68Q1328.72 76.52 1337.96 76.52L1337.96 76.52Q1341.56 76.52 1344.92 77.48Q1348.28 78.44 1350.56 80.48L1350.56 80.48L1347.68 86.84Q1345.88 85.28 1343.48 84.50Q1341.08 83.72 1338.32 83.72L1338.32 83.72Q1332.92 83.72 1330.04 86.72Q1327.16 89.72 1327.16 95.60L1327.16 95.60L1327.16 105.20L1327.40 109.16L1327.40 166.16ZM1346.60 110.24L1307.60 110.24L1307.60 103.16L1346.60 103.16L1346.60 110.24ZM1400.24 166.16L1391.36 166.16L1391.36 82.16L1448.96 82.16L1448.96 89.84L1400.24 89.84L1400.24 166.16ZM1443.68 130.52L1399.28 130.52L1399.28 122.84L1443.68 122.84L1443.68 130.52ZM1491.56 166.76L1491.56 166.76Q1483.52 166.76 1477.52 163.76Q1471.52 160.76 1468.22 154.76Q1464.92 148.76 1464.92 139.76L1464.92 139.76L1464.92 103.16L1473.44 103.16L1473.44 138.80Q1473.44 148.88 1478.42 153.98Q1483.40 159.08 1492.40 159.08L1492.40 159.08Q1499.00 159.08 1503.86 156.38Q1508.72 153.68 1511.30 148.52Q1513.88 143.36 1513.88 136.16L1513.88 136.16L1513.88 103.16L1522.40 103.16L1522.40 166.16L1514.24 166.16L1514.24 148.88L1515.56 152Q1512.56 158.96 1506.26 162.86Q1499.96 166.76 1491.56 166.76ZM1554.68 166.16L1546.16 166.16L1546.16 103.16L1554.32 103.16L1554.32 120.44L1553.00 117.20Q1556.00 110.36 1562.60 106.46Q1569.20 102.56 1578.32 102.56L1578.32 102.56Q1586.00 102.56 1591.82 105.50Q1597.64 108.44 1600.94 114.44Q1604.24 120.44 1604.24 129.56L1604.24 129.56L1604.24 166.16L1595.72 166.16L1595.72 130.40Q1595.72 120.44 1590.74 115.34Q1585.76 110.24 1576.76 110.24L1576.76 110.24Q1570.04 110.24 1565.06 112.94Q1560.08 115.64 1557.38 120.74Q1554.68 125.84 1554.68 133.04L1554.68 133.04L1554.68 166.16Z"/>
      </svg>
    