
      <svg width="1153.2399999999998" height="251.2" viewBox="0 0 1153.2399999999998 251.2" xmlns="http://www.w3.org/2000/svg">
        <rect width="100%" height="100%" fill="#ffffff" />
        <path fill="#000000" d="M129.32 170.96L129.32 170.96Q129.20 171.68 127.94 171.38Q126.68 171.08 125.72 169.64L125.72 169.64Q124.76 167.36 124.76 165.44Q124.76 163.52 124.88 159.68L124.88 159.68Q125.60 155.48 126.86 148.70Q128.12 141.92 129.86 133.46Q131.60 125 133.64 115.76L133.64 115.76Q135.08 110.96 135.98 106.94Q136.88 102.92 137.36 100.40Q137.84 97.88 137.84 97.88L137.84 97.88Q137.84 97.52 137.18 98.18Q136.52 98.84 135.92 99.68Q135.32 100.52 135.44 101.00L135.44 101.00Q135.44 101.00 134.60 102.20Q133.76 103.40 132.44 105.44L132.44 105.44Q131.24 106.64 129.56 110.24Q127.88 113.84 125.84 116.96L125.84 116.96Q123.92 120.56 121.76 124.70Q119.60 128.84 117.92 131.60L117.92 131.60Q116.84 133.16 115.76 135.20Q114.68 137.24 114.44 137.84L114.44 137.84Q113.96 139.16 112.76 141.02Q111.56 142.88 110.12 144.68L110.12 144.68Q109.40 145.76 108.68 146.90Q107.96 148.04 107.54 148.82Q107.12 149.60 107.12 149.60L107.12 149.60Q107.12 149.96 105.98 151.76Q104.84 153.56 103.22 155.72Q101.60 157.88 100.16 159.44L100.16 159.44Q95.96 163.88 93.44 164.66Q90.92 165.44 87.80 162.56L87.80 162.56Q86.24 160.64 85.52 158.18Q84.80 155.72 84.92 152.06Q85.04 148.40 85.76 142.88L85.76 142.88Q86.60 138.68 87.32 134.42Q88.04 130.16 88.70 126.38Q89.36 122.60 89.90 119.96Q90.44 117.32 90.80 116.48L90.80 116.48Q91.04 114.08 90.68 113.84Q90.32 113.60 89.24 115.28L89.24 115.28Q88.76 116.12 86.72 119.42Q84.68 122.72 81.98 127.52Q79.28 132.32 76.64 137.96L76.64 137.96Q71.72 147.08 68.54 153.02Q65.36 158.96 63.50 162.44Q61.64 165.92 60.80 167.60Q59.96 169.28 59.60 169.88Q59.24 170.48 59 170.72L59 170.72Q57.92 170.72 56.78 169.82Q55.64 168.92 54.44 167.72L54.44 167.72Q54.08 166.88 54.14 166.04Q54.20 165.20 54.92 163.58Q55.64 161.96 57.08 158.60L57.08 158.60Q58.64 155.48 59.96 153.14Q61.28 150.80 62 150.32L62 150.32Q62.60 149.36 63.08 148.40Q63.56 147.44 63.68 146.12L63.68 146.12Q64.28 145.40 65.54 143.18Q66.80 140.96 68.12 138.32L68.12 138.32Q69.08 136.76 70.58 134.24Q72.08 131.72 73.76 128.66Q75.44 125.60 76.76 122.84L76.76 122.84Q82.28 113.36 86.12 106.82Q89.96 100.28 91.88 98.48L91.88 98.48Q92.48 97.88 93.14 96.80Q93.80 95.72 93.80 94.88L93.80 94.88Q93.80 92.36 94.82 90.26Q95.84 88.16 96.92 88.40L96.92 88.40Q98.12 88.40 99.08 88.64Q100.04 88.88 101.12 90.20L101.12 90.20Q102.08 91.64 102.80 93.08Q103.52 94.52 102.68 98.84L102.68 98.84Q102.68 100.52 102.32 102.62Q101.96 104.72 101.66 106.46Q101.36 108.20 101.24 109.16L101.24 109.16Q99.68 113.84 98.36 119.66Q97.04 125.48 95.96 131.42Q94.88 137.36 94.16 142.46Q93.44 147.56 93.26 150.86Q93.08 154.16 93.44 154.64L93.44 154.64Q94.28 155.12 94.88 154.76Q95.48 154.40 96.92 151.64L96.92 151.64Q97.76 150.20 99.26 148.10Q100.76 146 102.20 144.20L102.20 144.20Q103.16 142.52 105.20 139.16Q107.24 135.80 110.42 130.52Q113.60 125.24 118.10 117.62Q122.60 110 128.36 99.92L128.36 99.92Q131.12 95.72 133.58 91.70Q136.04 87.68 137.60 86.48L137.60 86.48Q139.28 84.92 141.08 85.70Q142.88 86.48 144.26 88.88Q145.64 91.28 145.76 94.88L145.76 94.88Q145.88 96.56 145.34 100.28Q144.80 104 143.72 108.74Q142.64 113.48 140.96 118.52L140.96 118.52Q140.60 120.56 139.82 123.62Q139.04 126.68 138.08 129.92Q137.12 133.16 136.16 136.04L136.16 136.04Q135.56 140 134.78 143.84Q134 147.68 134.24 149L134.24 149Q133.16 150.92 132.80 154.52Q132.44 158.12 132.44 161.96L132.44 161.96Q131.96 166.64 131.72 168.56Q131.48 170.48 130.88 170.36L130.88 170.36Q129.32 169.88 129.32 170.96ZM169.52 161L169.52 161Q167.00 163.16 163.70 163.52Q160.40 163.88 157.28 162.50Q154.16 161.12 152.12 158.24L152.12 158.24Q150.08 155.60 149.48 152.18Q148.88 148.76 149.36 143.24L149.36 143.24Q149.72 138.56 152.36 133.82Q155.00 129.08 158.78 125.36Q162.56 121.64 166.28 120.20L166.28 120.20Q168.08 119 169.34 119.06Q170.60 119.12 173.24 119.36L173.24 119.36Q176.00 119.72 177.38 120.44Q178.76 121.16 179.60 122.36L179.60 122.36Q181.40 124.16 182.00 125.90Q182.60 127.64 182.60 129.32L182.60 129.32Q182.12 131.96 179.06 135.74Q176.00 139.52 171.08 141.92L171.08 141.92Q168.44 142.76 165.32 142.64Q162.20 142.52 160.16 141.08L160.16 141.08Q157.88 140.12 157.16 141.38Q156.44 142.64 155.84 147.44L155.84 147.44Q155.36 152 156.56 154.10Q157.76 156.20 159.80 156.56L159.80 156.56Q162.20 157.04 163.58 157.22Q164.96 157.40 167.00 156.20L167.00 156.20Q168.92 155 169.40 154.82Q169.88 154.64 170.18 154.34Q170.48 154.04 171.68 152.84L171.68 152.84Q172.52 152 173.00 151.58Q173.48 151.16 174.08 151.16L174.08 151.16Q174.68 151.16 175.16 151.70Q175.64 152.24 176.12 152.48L176.12 152.48Q177.32 152.48 176.66 153.92Q176.00 155.36 174.08 157.34Q172.16 159.32 169.52 161ZM169.40 135.56L169.40 135.56Q170.72 134.96 172.16 133.82Q173.60 132.68 174.62 131.30Q175.64 129.92 175.64 128.96L175.64 128.96Q175.64 127.28 174.08 126.14Q172.52 125 169.40 125.84L169.40 125.84Q168.08 126.20 166.40 127.58Q164.72 128.96 163.22 130.64Q161.72 132.32 160.82 133.64Q159.92 134.96 160.16 135.20L160.16 135.20Q160.52 135.80 162.20 136.10Q163.88 136.40 165.98 136.28Q168.08 136.16 169.40 135.56ZM229.88 159.68L229.88 159.68Q227.48 159.68 225.92 158.66Q224.36 157.64 223.28 155.24L223.28 155.24Q222.80 153.56 222.50 151.46Q222.20 149.36 222.20 147.50Q222.20 145.64 222.56 145.04L222.56 145.04Q223.04 144.56 222.98 143.30Q222.92 142.04 222.92 140.60L222.92 140.60Q222.80 138.20 221.78 137.90Q220.76 137.60 218.84 138.68L218.84 138.68Q216.68 140 213.20 142.22Q209.72 144.44 205.94 147.08Q202.16 149.72 198.80 152.60L198.80 152.60Q196.16 155.48 195.62 156.98Q195.08 158.48 194.12 158.48L194.12 158.48Q193.16 158.96 192.50 158.54Q191.84 158.12 190.64 157.16L190.64 157.16Q189.80 156.20 188.96 155.30Q188.12 154.40 187.88 153.92L187.88 153.92Q187.88 153.32 188.24 151.40Q188.60 149.48 189.14 147.56Q189.68 145.64 189.92 145.04L189.92 145.04Q190.52 145.04 190.94 143.84Q191.36 142.64 192.32 141.20L192.32 141.20Q192.56 139.76 193.58 137.30Q194.60 134.84 195.44 132.92L195.44 132.92Q197.12 130.04 197.78 128.12Q198.44 126.20 198.68 123.32L198.68 123.32Q198.56 122.84 198.92 122.42Q199.28 122 199.76 122L199.76 122L199.76 122L199.76 122Q200.72 121.04 202.04 121.46Q203.36 121.88 204.44 123.32L204.44 123.32Q206.60 126.20 206.18 129.26Q205.76 132.32 202.28 137.96L202.28 137.96Q201.44 139.88 201.02 140.90Q200.60 141.92 200.60 142.52L200.60 142.52Q200.60 142.52 201.86 141.68Q203.12 140.84 204.74 139.70Q206.36 138.56 207.32 137.96L207.32 137.96Q207.92 137.36 210.08 135.80Q212.24 134.24 214.70 132.74Q217.16 131.24 218.36 131L218.36 131Q219.32 130.52 220.40 130.10Q221.48 129.68 221.96 129.68L221.96 129.68Q222.92 129.68 224.42 130.70Q225.92 131.72 227.24 133.10Q228.56 134.48 228.80 135.44L228.80 135.44Q228.80 135.92 228.86 136.40Q228.92 136.88 229.04 137.36L229.04 137.36Q229.52 138.92 229.58 141.56Q229.64 144.20 229.40 146.36Q229.16 148.52 228.56 148.88L228.56 148.88Q228.56 148.88 228.62 149.18Q228.68 149.48 229.16 149.48L229.16 149.48Q229.16 149.96 229.16 150.02Q229.16 150.08 229.16 150.08L229.16 150.08Q228.56 150.08 228.68 151.10Q228.80 152.12 229.46 153.32Q230.12 154.52 230.84 155.24L230.84 155.24Q232.28 156.68 232.04 157.94Q231.80 159.20 229.88 159.68ZM254.48 163.88L254.48 163.88Q251.00 164.48 248.12 163.46Q245.24 162.44 243.50 159.98Q241.76 157.52 241.76 153.68L241.76 153.68Q241.40 150.08 242.60 145.34Q243.80 140.60 246.14 135.80Q248.48 131 251.24 127.52L251.24 127.52Q253.64 124.64 256.04 122.24Q258.44 119.84 260.36 119L260.36 119Q262.04 118.28 263.54 118.10Q265.04 117.92 266 117.92L266 117.92Q267.92 118.40 270.14 119.66Q272.36 120.92 272.36 122.36L272.36 122.36Q272.36 122.36 272.66 122.66Q272.96 122.96 272.96 122.96L272.96 122.96Q273.68 122.96 274.22 124.52Q274.76 126.08 274.88 128.06Q275 130.04 274.28 131.36L274.28 131.36Q273.80 133.64 272.60 135.32Q271.40 137 270.44 137L270.44 137Q269.96 137 269.54 137.06Q269.12 137.12 269.12 137.72L269.12 137.72Q269.12 138.32 268.46 138.20Q267.80 138.08 267.08 137.42Q266.36 136.76 266 135.80L266 135.80Q266 135.20 266.48 133.76Q266.96 132.32 267.44 130.04L267.44 130.04Q268.16 126.68 267.32 125.66Q266.48 124.64 264.08 125.60L264.08 125.60Q261.08 127.28 258.38 130.28Q255.68 133.28 253.40 138.02Q251.12 142.76 249.32 149.84L249.32 149.84Q248.60 152.60 248.78 154.64Q248.96 156.68 249.32 156.80L249.32 156.80Q251.00 157.28 253.88 156.98Q256.76 156.68 258.08 155.96L258.08 155.96Q260 155 262.40 153.38Q264.80 151.76 266.60 150.44L266.60 150.44Q267.20 150.08 268.04 149.24Q268.88 148.40 269.84 147.92L269.84 147.92Q270.80 146.48 271.52 146.24Q272.24 146 273.68 146L273.68 146Q274.64 146.24 275.48 146.72Q276.32 147.20 276.62 147.68Q276.92 148.16 276.20 148.52L276.20 148.52Q275.72 148.52 275.66 148.82Q275.60 149.12 275.60 149.12L275.60 149.12Q275.84 149.60 274.58 151.10Q273.32 152.60 271.40 154.40Q269.48 156.20 267.74 157.46Q266 158.72 265.28 158.72L265.28 158.72Q264.08 158.72 264.08 159.44L264.08 159.44Q264.08 159.68 262.34 160.64Q260.60 161.60 258.38 162.56Q256.16 163.52 254.48 163.88ZM285.44 164.60L285.44 164.60Q284.48 164.24 283.40 163.10Q282.32 161.96 281.60 160.40Q280.88 158.84 280.88 157.52L280.88 157.52Q281.48 156.20 282.44 152.90Q283.40 149.60 284.84 145.28L284.84 145.28Q285.80 143.96 286.34 142.16Q286.88 140.36 287.36 138.92L287.36 138.92Q288.32 137 289.64 133.94Q290.96 130.88 292.22 127.70Q293.48 124.52 294.44 122.36L294.44 122.36Q296 119.12 297.14 116.42Q298.28 113.72 299.42 110.96Q300.56 108.20 301.88 104.96L301.88 104.96Q303.32 101.60 304.82 98.12Q306.32 94.64 307.46 91.82Q308.60 89.00 308.84 87.80L308.84 87.80Q308.84 86.84 309.26 86.36Q309.68 85.88 310.16 85.88L310.16 85.88Q310.64 85.40 311.12 85.34Q311.60 85.28 312.08 85.28L312.08 85.28Q312.56 85.28 313.94 87.08Q315.32 88.88 315.32 90.32L315.32 90.32Q315.32 92.24 313.46 97.52Q311.60 102.80 308.24 109.52L308.24 109.52Q304.16 118.40 301.64 124.10Q299.12 129.80 298.16 132.62Q297.20 135.44 297.44 135.80L297.44 135.80Q297.44 135.80 299.12 135.02Q300.80 134.24 302.72 132.80L302.72 132.80Q304.04 132.08 305.60 131Q307.16 129.92 308.60 128.90Q310.04 127.88 311 127.64L311 127.64Q312.44 126.68 314 125.78Q315.56 124.88 316.04 124.40L316.04 124.40Q318.08 123.44 319.10 123.80Q320.12 124.16 321.20 125.60L321.20 125.60Q322.52 127.16 321.68 128.30Q320.84 129.44 317.72 131.36L317.72 131.36Q315.20 132.92 311.66 135.08Q308.12 137.24 305.42 138.92Q302.72 140.60 302.36 140.96L302.36 140.96Q302.36 140.96 303.32 142.76Q304.28 144.56 305.24 146L305.24 146Q306.20 147.92 307.34 149.54Q308.48 151.16 308.48 151.76L308.48 151.76Q309.80 155.48 312.44 157.16Q315.08 158.84 317.96 157.52L317.96 157.52Q320.36 156.56 321.50 156.92Q322.64 157.28 323.12 158.72L323.12 158.72Q323.60 159.68 323.42 160.10Q323.24 160.52 321.80 161.96L321.80 161.96Q319.52 164.24 317.18 164.84Q314.84 165.44 312.92 164.48L312.92 164.48Q311.12 164.60 308.48 162.14Q305.84 159.68 300.92 153.32L300.92 153.32Q300.92 152.84 300.50 151.94Q300.08 151.04 299.60 150.20L299.60 150.20Q299.12 149.24 298.40 148.10Q297.68 146.96 297.68 146.96L297.68 146.96Q297.68 146.48 297.32 145.88Q296.96 145.28 296.36 144.44L296.36 144.44Q294.44 143.84 293.60 145.16Q292.76 146.48 291.80 147.92L291.80 147.92Q291.20 149.48 290.30 152.30Q289.40 155.12 288.86 157.76Q288.32 160.40 288.56 161.36L288.56 161.36Q288.56 163.28 287.96 163.94Q287.36 164.60 285.44 164.60ZM350.12 161L350.12 161Q347.60 163.16 344.30 163.52Q341 163.88 337.88 162.50Q334.76 161.12 332.72 158.24L332.72 158.24Q330.68 155.60 330.08 152.18Q329.48 148.76 329.96 143.24L329.96 143.24Q330.32 138.56 332.96 133.82Q335.60 129.08 339.38 125.36Q343.16 121.64 346.88 120.20L346.88 120.20Q348.68 119 349.94 119.06Q351.20 119.12 353.84 119.36L353.84 119.36Q356.60 119.72 357.98 120.44Q359.36 121.16 360.20 122.36L360.20 122.36Q362 124.16 362.60 125.90Q363.20 127.64 363.20 129.32L363.20 129.32Q362.72 131.96 359.66 135.74Q356.60 139.52 351.68 141.92L351.68 141.92Q349.04 142.76 345.92 142.64Q342.80 142.52 340.76 141.08L340.76 141.08Q338.48 140.12 337.76 141.38Q337.04 142.64 336.44 147.44L336.44 147.44Q335.96 152 337.16 154.10Q338.36 156.20 340.40 156.56L340.40 156.56Q342.80 157.04 344.18 157.22Q345.56 157.40 347.60 156.20L347.60 156.20Q349.52 155 350 154.82Q350.48 154.64 350.78 154.34Q351.08 154.04 352.28 152.84L352.28 152.84Q353.12 152 353.60 151.58Q354.08 151.16 354.68 151.16L354.68 151.16Q355.28 151.16 355.76 151.70Q356.24 152.24 356.72 152.48L356.72 152.48Q357.92 152.48 357.26 153.92Q356.60 155.36 354.68 157.34Q352.76 159.32 350.12 161ZM350 135.56L350 135.56Q351.32 134.96 352.76 133.82Q354.20 132.68 355.22 131.30Q356.24 129.92 356.24 128.96L356.24 128.96Q356.24 127.28 354.68 126.14Q353.12 125 350 125.84L350 125.84Q348.68 126.20 347 127.58Q345.32 128.96 343.82 130.64Q342.32 132.32 341.42 133.64Q340.52 134.96 340.76 135.20L340.76 135.20Q341.12 135.80 342.80 136.10Q344.48 136.40 346.58 136.28Q348.68 136.16 350 135.56ZM380.60 172.04L380.60 172.04Q375.44 168.68 373.64 166.22Q371.84 163.76 375.08 161.72L375.08 161.72Q375.80 161.24 377.42 162.50Q379.04 163.76 380.12 164.84L380.12 164.84Q382.52 167 386.06 167.54Q389.60 168.08 394.04 166.88L394.04 166.88Q399.08 165.32 402.86 162.50Q406.64 159.68 410 155.60L410 155.60Q412.52 152.36 413.48 148.58Q414.44 144.80 414.26 141.56Q414.08 138.32 412.88 137L412.88 137Q409.88 132.80 404.54 131.18Q399.20 129.56 392 131.48L392 131.48Q391.16 131.60 389.48 131.96Q387.80 132.32 386.48 132.62Q385.16 132.92 385.04 132.92L385.04 132.92Q384.20 133.16 383.72 133.46Q383.24 133.76 382.58 135.26Q381.92 136.76 380.60 140.54Q379.28 144.32 376.64 151.64L376.64 151.64Q374.12 158.96 372.62 162.02Q371.12 165.08 369.98 164.78Q368.84 164.48 367.16 162.20L367.16 162.20Q366.20 160.52 365.96 158.90Q365.72 157.28 366.92 155.12L366.92 155.12Q367.52 154.04 367.88 153.14Q368.24 152.24 368.84 149.96L368.84 149.96Q369.44 148.16 371.18 143.66Q372.92 139.16 375.32 133.10Q377.72 127.04 380.36 120.56Q383 114.08 385.46 108.32Q387.92 102.56 389.60 98.60L389.60 98.60Q391.28 94.88 391.64 93.20Q392 91.52 391.40 91.40L391.40 91.40Q391.40 90.80 391.04 90.26Q390.68 89.72 390.80 89.24L390.80 89.24Q390.80 88.76 392.42 87.92Q394.04 87.08 396.02 86.36Q398 85.64 399.08 85.88L399.08 85.88Q399.68 85.88 400.52 85.82Q401.36 85.76 401.36 85.28L401.36 85.28Q401.72 85.28 403.64 85.04Q405.56 84.80 407.84 85.04L407.84 85.04Q415.88 85.76 420.32 89.66Q424.76 93.56 424.64 100.28L424.64 100.28Q424.52 102.32 422.54 105.80Q420.56 109.28 417.74 112.76Q414.92 116.24 412.28 118.64L412.28 118.64Q410.72 119.96 408.98 121.34Q407.24 122.72 405.98 123.62Q404.72 124.52 404.72 124.52L404.72 124.52Q404.72 124.52 405.68 124.88Q406.64 125.24 407.72 125.60L407.72 125.60Q413.24 127.64 416.84 130.76Q420.44 133.88 421.76 139.40L421.76 139.40Q422.24 141.20 421.82 143.84Q421.40 146.48 420.68 149.06Q419.96 151.64 419.12 153.44L419.12 153.44Q418.28 154.28 417.80 155.18Q417.32 156.08 417.32 156.08L417.32 156.08Q417.32 156.32 416.36 157.94Q415.40 159.56 414.08 161.48Q412.76 163.40 411.56 164.84L411.56 164.84Q410.36 165.80 408.74 167.12Q407.12 168.44 405.14 169.64Q403.16 170.84 400.88 171.68L400.88 171.68Q397.52 173.12 393.62 173.66Q389.72 174.20 386.24 173.78Q382.76 173.36 380.60 172.04ZM386.48 125.84L386.48 125.84Q386.48 125.84 388.70 125.42Q390.92 125 393.56 124.46Q396.20 123.92 397.40 123.44L397.40 123.44Q398 123.08 399.14 122.48Q400.28 121.88 401.48 120.68L401.48 120.68Q403.16 119.12 405.74 116.18Q408.32 113.24 410.84 109.94Q413.36 106.64 414.68 104L414.68 104Q417.44 99.68 417.68 97.58Q417.92 95.48 416.36 93.92L416.36 93.92Q415.28 92.60 412.70 92.18Q410.12 91.76 407.24 91.94Q404.36 92.12 402.32 92.72L402.32 92.72Q400.76 93.20 399.92 93.86Q399.08 94.52 399.08 95.84L399.08 95.84Q399.08 96.92 398.42 97.94Q397.76 98.96 397.16 99.56L397.16 99.56Q397.04 100.40 396.56 101.06Q396.08 101.72 396.08 101.72L396.08 101.72Q396.08 102.20 394.40 105.68Q392.72 109.16 391.04 113.72L391.04 113.72Q388.88 118.88 387.68 122.06Q386.48 125.24 386.48 125.84ZM427.88 189.08L427.88 189.08Q425 189.92 421.58 189.38Q418.16 188.84 415.58 187.28Q413 185.72 412.64 183.80L412.64 183.80Q412.52 183.08 413.06 182.24Q413.60 181.40 414.38 181.10Q415.16 180.80 415.76 181.52L415.76 181.52Q416.72 182.12 419.24 183.02Q421.76 183.92 424.88 183.32L424.88 183.32Q427.64 182.72 430.34 180.08Q433.04 177.44 434.72 175.16L434.72 175.16Q435.68 173.72 437.96 170Q440.24 166.28 442.70 161.78Q445.16 157.28 446.84 153.44L446.84 153.44Q447.20 152.48 447.68 151.16Q448.16 149.84 448.88 149L448.88 149Q449.60 147.56 450.14 146.30Q450.68 145.04 450.80 144.56L450.80 144.56Q450.92 143.96 451.88 142.16Q452.84 140.36 453.68 138.56L453.68 138.56Q454.28 136.76 455.48 133.28Q456.68 129.80 457.88 127.64L457.88 127.64Q459.32 124.88 460.22 123.14Q461.12 121.40 462.20 121.04L462.20 121.04L462.20 121.04L462.20 121.04Q463.28 120.20 463.70 120.20Q464.12 120.20 465.44 120.92L465.44 120.92Q466.88 122.36 467.24 123.74Q467.60 125.12 466.94 127.10Q466.28 129.08 464.48 132.44L464.48 132.44Q463.52 135.32 462.38 137.66Q461.24 140 460.64 140.72L460.64 140.72Q460.04 142.16 459.26 143.90Q458.48 145.64 457.88 147.08L457.88 147.08Q455.72 151.88 454.16 154.88Q452.60 157.88 451.40 160.40Q450.20 162.92 448.88 166.28L448.88 166.28Q446.12 170.72 443.54 174.74Q440.96 178.76 438.08 182.24L438.08 182.24Q436.88 183.32 435.08 184.76Q433.28 186.20 431.42 187.40Q429.56 188.60 427.88 189.08ZM444.08 160.28L444.08 160.28Q442.28 160.04 440.54 158.12Q438.80 156.20 437.84 154.04Q436.88 151.88 437.12 150.92L437.12 150.92Q437.12 150.32 437.12 149.96Q437.12 149.60 437.12 149.60L437.12 149.60Q436.40 149.60 435.86 147.80Q435.32 146 435.08 143.12Q434.84 140.24 434.78 137Q434.72 133.76 434.96 130.88L434.96 130.88Q435.44 128.84 435.44 126.38Q435.44 123.92 435.56 122.48L435.56 122.48Q435.44 120.56 435.92 119.90Q436.40 119.24 436.88 118.88L436.88 118.88L436.88 118.88L436.88 118.88Q440.24 117.44 441.38 120.62Q442.52 123.80 441.92 132.44L441.92 132.44Q441.68 137.24 441.92 142.04Q442.16 146.84 443.30 150.44Q444.44 154.04 446.48 155.36L446.48 155.36Q447.32 155.84 447.32 156.68Q447.32 157.52 446.84 158.42Q446.36 159.32 445.58 159.86Q444.80 160.40 444.08 160.28ZM482 164.36L482 164.36Q480.68 164.12 479.30 162.98Q477.92 161.84 476.90 160.34Q475.88 158.84 475.52 157.64L475.52 157.64Q475.52 157.40 475.22 157.04Q474.92 156.68 474.92 156.68L474.92 156.68Q474.44 156.32 474.38 153.50Q474.32 150.68 474.68 147.20Q475.04 143.72 475.52 141.68L475.52 141.68Q476.12 139.76 477.32 136.46Q478.52 133.16 479.36 130.52L479.36 130.52L482.60 123.56L477.80 122.24Q476.96 122 476.42 121.28Q475.88 120.56 475.88 120.08L475.88 120.08Q475.88 119.12 476.96 117.74Q478.04 116.36 478.52 116.36L478.52 116.36Q479.12 116.48 480.74 116.48Q482.36 116.48 483.92 116.36Q485.48 116.24 485.84 116.12L485.84 116.12Q486.32 115.88 486.80 115.46Q487.28 115.04 487.52 114.20L487.52 114.20Q488.12 112.88 488.60 111.74Q489.08 110.60 489.92 109.16L489.92 109.16Q490.76 107.60 491.30 106.52Q491.84 105.44 493.04 103.52L493.04 103.52Q493.64 102.68 494.36 101.48Q495.08 100.28 496.16 99.44L496.16 99.44Q497.24 98.48 498.38 98.54Q499.52 98.60 501.32 100.16L501.32 100.16Q502.28 101.36 502.40 101.96Q502.52 102.56 501.44 104.24L501.44 104.24Q500.48 106.28 499.22 108.32Q497.96 110.36 496.88 112.40L496.88 112.40Q494.96 115.04 496.16 115.40Q497.36 115.76 502.88 114.92L502.88 114.92Q506.36 114.32 507.92 115.22Q509.48 116.12 509.72 118.16L509.72 118.16Q510.08 121.04 509.12 121.64Q508.16 122.24 503.60 122.24L503.60 122.24Q500.72 122.72 498.68 122.78Q496.64 122.84 495.68 122.84L495.68 122.84Q494.12 122.96 493.64 122.96Q493.16 122.96 492.20 123.20L492.20 123.20Q491.24 123.44 490.82 123.98Q490.40 124.52 489.92 125.48L489.92 125.48Q489.44 125.96 488.48 128Q487.52 130.04 486.08 132.44L486.08 132.44Q484.40 137.48 483.20 142.46Q482 147.44 481.28 152.12L481.28 152.12Q480.80 155.12 481.40 156.26Q482 157.40 484.52 157.64L484.52 157.64Q485.84 157.76 488.78 157.58Q491.72 157.40 493.40 156.92L493.40 156.92Q494.72 156.32 496.16 155.66Q497.60 155 498.80 154.28L498.80 154.28Q499.88 153.68 500.96 153.02Q502.04 152.36 502.04 152.36L502.04 152.36Q502.64 151.40 503.36 151.76Q504.08 152.12 504.56 153.56L504.56 153.56Q504.56 155 503.96 156.56Q503.36 158.12 499.52 160.28L499.52 160.28Q494.12 163.64 489.62 164.30Q485.12 164.96 482 164.36ZM533.36 161L533.36 161Q530.84 163.16 527.54 163.52Q524.24 163.88 521.12 162.50Q518 161.12 515.96 158.24L515.96 158.24Q513.92 155.60 513.32 152.18Q512.72 148.76 513.20 143.24L513.20 143.24Q513.56 138.56 516.20 133.82Q518.84 129.08 522.62 125.36Q526.40 121.64 530.12 120.20L530.12 120.20Q531.92 119 533.18 119.06Q534.44 119.12 537.08 119.36L537.08 119.36Q539.84 119.72 541.22 120.44Q542.60 121.16 543.44 122.36L543.44 122.36Q545.24 124.16 545.84 125.90Q546.44 127.64 546.44 129.32L546.44 129.32Q545.96 131.96 542.90 135.74Q539.84 139.52 534.92 141.92L534.92 141.92Q532.28 142.76 529.16 142.64Q526.04 142.52 524 141.08L524 141.08Q521.72 140.12 521 141.38Q520.28 142.64 519.68 147.44L519.68 147.44Q519.20 152 520.40 154.10Q521.60 156.20 523.64 156.56L523.64 156.56Q526.04 157.04 527.42 157.22Q528.80 157.40 530.84 156.20L530.84 156.20Q532.76 155 533.24 154.82Q533.72 154.64 534.02 154.34Q534.32 154.04 535.52 152.84L535.52 152.84Q536.36 152 536.84 151.58Q537.32 151.16 537.92 151.16L537.92 151.16Q538.52 151.16 539 151.70Q539.48 152.24 539.96 152.48L539.96 152.48Q541.16 152.48 540.50 153.92Q539.84 155.36 537.92 157.34Q536 159.32 533.36 161ZM533.24 135.56L533.24 135.56Q534.56 134.96 536 133.82Q537.44 132.68 538.46 131.30Q539.48 129.92 539.48 128.96L539.48 128.96Q539.48 127.28 537.92 126.14Q536.36 125 533.24 125.84L533.24 125.84Q531.92 126.20 530.24 127.58Q528.56 128.96 527.06 130.64Q525.56 132.32 524.66 133.64Q523.76 134.96 524 135.20L524 135.20Q524.36 135.80 526.04 136.10Q527.72 136.40 529.82 136.28Q531.92 136.16 533.24 135.56ZM566.72 133.76L566.72 133.76Q564.44 134.60 562.94 134.54Q561.44 134.48 559.64 133.16L559.64 133.16Q557.36 131 558.14 128.78Q558.92 126.56 562.04 124.40L562.04 124.40Q564.20 123.08 565.22 122.96Q566.24 122.84 568.40 123.80L568.40 123.80Q572 126.08 571.58 128.84Q571.16 131.60 566.72 133.76ZM558.32 158.96L558.32 158.96Q556.04 159.80 554.54 159.74Q553.04 159.68 551.24 158.36L551.24 158.36Q548.96 156.20 549.74 153.98Q550.52 151.76 553.64 149.60L553.64 149.60Q555.80 148.28 556.82 148.16Q557.84 148.04 560 149L560 149Q563.60 151.28 563.18 154.04Q562.76 156.80 558.32 158.96ZM616.64 172.04L616.64 172.04Q611.48 168.68 609.68 166.22Q607.88 163.76 611.12 161.72L611.12 161.72Q611.84 161.24 613.46 162.50Q615.08 163.76 616.16 164.84L616.16 164.84Q618.56 167 622.10 167.54Q625.64 168.08 630.08 166.88L630.08 166.88Q635.12 165.32 638.90 162.50Q642.68 159.68 646.04 155.60L646.04 155.60Q648.56 152.36 649.52 148.58Q650.48 144.80 650.30 141.56Q650.12 138.32 648.92 137L648.92 137Q645.92 132.80 640.58 131.18Q635.24 129.56 628.04 131.48L628.04 131.48Q627.20 131.60 625.52 131.96Q623.84 132.32 622.52 132.62Q621.20 132.92 621.08 132.92L621.08 132.92Q620.24 133.16 619.76 133.46Q619.28 133.76 618.62 135.26Q617.96 136.76 616.64 140.54Q615.32 144.32 612.68 151.64L612.68 151.64Q610.16 158.96 608.66 162.02Q607.16 165.08 606.02 164.78Q604.88 164.48 603.20 162.20L603.20 162.20Q602.24 160.52 602 158.90Q601.76 157.28 602.96 155.12L602.96 155.12Q603.56 154.04 603.92 153.14Q604.28 152.24 604.88 149.96L604.88 149.96Q605.48 148.16 607.22 143.66Q608.96 139.16 611.36 133.10Q613.76 127.04 616.40 120.56Q619.04 114.08 621.50 108.32Q623.96 102.56 625.64 98.60L625.64 98.60Q627.32 94.88 627.68 93.20Q628.04 91.52 627.44 91.40L627.44 91.40Q627.44 90.80 627.08 90.26Q626.72 89.72 626.84 89.24L626.84 89.24Q626.84 88.76 628.46 87.92Q630.08 87.08 632.06 86.36Q634.04 85.64 635.12 85.88L635.12 85.88Q635.72 85.88 636.56 85.82Q637.40 85.76 637.40 85.28L637.40 85.28Q637.76 85.28 639.68 85.04Q641.60 84.80 643.88 85.04L643.88 85.04Q651.92 85.76 656.36 89.66Q660.80 93.56 660.68 100.28L660.68 100.28Q660.56 102.32 658.58 105.80Q656.60 109.28 653.78 112.76Q650.96 116.24 648.32 118.64L648.32 118.64Q646.76 119.96 645.02 121.34Q643.28 122.72 642.02 123.62Q640.76 124.52 640.76 124.52L640.76 124.52Q640.76 124.52 641.72 124.88Q642.68 125.24 643.76 125.60L643.76 125.60Q649.28 127.64 652.88 130.76Q656.48 133.88 657.80 139.40L657.80 139.40Q658.28 141.20 657.86 143.84Q657.44 146.48 656.72 149.06Q656 151.64 655.16 153.44L655.16 153.44Q654.32 154.28 653.84 155.18Q653.36 156.08 653.36 156.08L653.36 156.08Q653.36 156.32 652.40 157.94Q651.44 159.56 650.12 161.48Q648.80 163.40 647.60 164.84L647.60 164.84Q646.40 165.80 644.78 167.12Q643.16 168.44 641.18 169.64Q639.20 170.84 636.92 171.68L636.92 171.68Q633.56 173.12 629.66 173.66Q625.76 174.20 622.28 173.78Q618.80 173.36 616.64 172.04ZM622.52 125.84L622.52 125.84Q622.52 125.84 624.74 125.42Q626.96 125 629.60 124.46Q632.24 123.92 633.44 123.44L633.44 123.44Q634.04 123.08 635.18 122.48Q636.32 121.88 637.52 120.68L637.52 120.68Q639.20 119.12 641.78 116.18Q644.36 113.24 646.88 109.94Q649.40 106.64 650.72 104L650.72 104Q653.48 99.68 653.72 97.58Q653.96 95.48 652.40 93.92L652.40 93.92Q651.32 92.60 648.74 92.18Q646.16 91.76 643.28 91.94Q640.40 92.12 638.36 92.72L638.36 92.72Q636.80 93.20 635.96 93.86Q635.12 94.52 635.12 95.84L635.12 95.84Q635.12 96.92 634.46 97.94Q633.80 98.96 633.20 99.56L633.20 99.56Q633.08 100.40 632.60 101.06Q632.12 101.72 632.12 101.72L632.12 101.72Q632.12 102.20 630.44 105.68Q628.76 109.16 627.08 113.72L627.08 113.72Q624.92 118.88 623.72 122.06Q622.52 125.24 622.52 125.84ZM663.92 189.08L663.92 189.08Q661.04 189.92 657.62 189.38Q654.20 188.84 651.62 187.28Q649.04 185.72 648.68 183.80L648.68 183.80Q648.56 183.08 649.10 182.24Q649.64 181.40 650.42 181.10Q651.20 180.80 651.80 181.52L651.80 181.52Q652.76 182.12 655.28 183.02Q657.80 183.92 660.92 183.32L660.92 183.32Q663.68 182.72 666.38 180.08Q669.08 177.44 670.76 175.16L670.76 175.16Q671.72 173.72 674.00 170Q676.28 166.28 678.74 161.78Q681.20 157.28 682.88 153.44L682.88 153.44Q683.24 152.48 683.72 151.16Q684.20 149.84 684.92 149L684.92 149Q685.64 147.56 686.18 146.30Q686.72 145.04 686.84 144.56L686.84 144.56Q686.96 143.96 687.92 142.16Q688.88 140.36 689.72 138.56L689.72 138.56Q690.32 136.76 691.52 133.28Q692.72 129.80 693.92 127.64L693.92 127.64Q695.36 124.88 696.26 123.14Q697.16 121.40 698.24 121.04L698.24 121.04L698.24 121.04L698.24 121.04Q699.32 120.20 699.74 120.20Q700.16 120.20 701.48 120.92L701.48 120.92Q702.92 122.36 703.28 123.74Q703.64 125.12 702.98 127.10Q702.32 129.08 700.52 132.44L700.52 132.44Q699.56 135.32 698.42 137.66Q697.28 140 696.68 140.72L696.68 140.72Q696.08 142.16 695.30 143.90Q694.52 145.64 693.92 147.08L693.92 147.08Q691.76 151.88 690.20 154.88Q688.64 157.88 687.44 160.40Q686.24 162.92 684.92 166.28L684.92 166.28Q682.16 170.72 679.58 174.74Q677.00 178.76 674.12 182.24L674.12 182.24Q672.92 183.32 671.12 184.76Q669.32 186.20 667.46 187.40Q665.60 188.60 663.92 189.08ZM680.12 160.28L680.12 160.28Q678.32 160.04 676.58 158.12Q674.84 156.20 673.88 154.04Q672.92 151.88 673.16 150.92L673.16 150.92Q673.16 150.32 673.16 149.96Q673.16 149.60 673.16 149.60L673.16 149.60Q672.44 149.60 671.90 147.80Q671.36 146 671.12 143.12Q670.88 140.24 670.82 137Q670.76 133.76 671.00 130.88L671.00 130.88Q671.48 128.84 671.48 126.38Q671.48 123.92 671.60 122.48L671.60 122.48Q671.48 120.56 671.96 119.90Q672.44 119.24 672.92 118.88L672.92 118.88L672.92 118.88L672.92 118.88Q676.28 117.44 677.42 120.62Q678.56 123.80 677.96 132.44L677.96 132.44Q677.72 137.24 677.96 142.04Q678.20 146.84 679.34 150.44Q680.48 154.04 682.52 155.36L682.52 155.36Q683.36 155.84 683.36 156.68Q683.36 157.52 682.88 158.42Q682.40 159.32 681.62 159.86Q680.84 160.40 680.12 160.28ZM718.04 164.36L718.04 164.36Q716.72 164.12 715.34 162.98Q713.96 161.84 712.94 160.34Q711.92 158.84 711.56 157.64L711.56 157.64Q711.56 157.40 711.26 157.04Q710.96 156.68 710.96 156.68L710.96 156.68Q710.48 156.32 710.42 153.50Q710.36 150.68 710.72 147.20Q711.08 143.72 711.56 141.68L711.56 141.68Q712.16 139.76 713.36 136.46Q714.56 133.16 715.40 130.52L715.40 130.52L718.64 123.56L713.84 122.24Q713 122 712.46 121.28Q711.92 120.56 711.92 120.08L711.92 120.08Q711.92 119.12 713 117.74Q714.08 116.36 714.56 116.36L714.56 116.36Q715.16 116.48 716.78 116.48Q718.40 116.48 719.96 116.36Q721.52 116.24 721.88 116.12L721.88 116.12Q722.36 115.88 722.84 115.46Q723.32 115.04 723.56 114.20L723.56 114.20Q724.16 112.88 724.64 111.74Q725.12 110.60 725.96 109.16L725.96 109.16Q726.80 107.60 727.34 106.52Q727.88 105.44 729.08 103.52L729.08 103.52Q729.68 102.68 730.40 101.48Q731.12 100.28 732.20 99.44L732.20 99.44Q733.28 98.48 734.42 98.54Q735.56 98.60 737.36 100.16L737.36 100.16Q738.32 101.36 738.44 101.96Q738.56 102.56 737.48 104.24L737.48 104.24Q736.52 106.28 735.26 108.32Q734 110.36 732.92 112.40L732.92 112.40Q731 115.04 732.20 115.40Q733.40 115.76 738.92 114.92L738.92 114.92Q742.40 114.32 743.96 115.22Q745.52 116.12 745.76 118.16L745.76 118.16Q746.12 121.04 745.16 121.64Q744.20 122.24 739.64 122.24L739.64 122.24Q736.76 122.72 734.72 122.78Q732.68 122.84 731.72 122.84L731.72 122.84Q730.16 122.96 729.68 122.96Q729.20 122.96 728.24 123.20L728.24 123.20Q727.28 123.44 726.86 123.98Q726.44 124.52 725.96 125.48L725.96 125.48Q725.48 125.96 724.52 128Q723.56 130.04 722.12 132.44L722.12 132.44Q720.44 137.48 719.24 142.46Q718.04 147.44 717.32 152.12L717.32 152.12Q716.84 155.12 717.44 156.26Q718.04 157.40 720.56 157.64L720.56 157.64Q721.88 157.76 724.82 157.58Q727.76 157.40 729.44 156.92L729.44 156.92Q730.76 156.32 732.20 155.66Q733.64 155 734.84 154.28L734.84 154.28Q735.92 153.68 737 153.02Q738.08 152.36 738.08 152.36L738.08 152.36Q738.68 151.40 739.40 151.76Q740.12 152.12 740.60 153.56L740.60 153.56Q740.60 155 740 156.56Q739.40 158.12 735.56 160.28L735.56 160.28Q730.16 163.64 725.66 164.30Q721.16 164.96 718.04 164.36ZM769.40 161L769.40 161Q766.88 163.16 763.58 163.52Q760.28 163.88 757.16 162.50Q754.04 161.12 752 158.24L752 158.24Q749.96 155.60 749.36 152.18Q748.76 148.76 749.24 143.24L749.24 143.24Q749.60 138.56 752.24 133.82Q754.88 129.08 758.66 125.36Q762.44 121.64 766.16 120.20L766.16 120.20Q767.96 119 769.22 119.06Q770.48 119.12 773.12 119.36L773.12 119.36Q775.88 119.72 777.26 120.44Q778.64 121.16 779.48 122.36L779.48 122.36Q781.28 124.16 781.88 125.90Q782.48 127.64 782.48 129.32L782.48 129.32Q782 131.96 778.94 135.74Q775.88 139.52 770.96 141.92L770.96 141.92Q768.32 142.76 765.20 142.64Q762.08 142.52 760.04 141.08L760.04 141.08Q757.76 140.12 757.04 141.38Q756.32 142.64 755.72 147.44L755.72 147.44Q755.24 152 756.44 154.10Q757.64 156.20 759.68 156.56L759.68 156.56Q762.08 157.04 763.46 157.22Q764.84 157.40 766.88 156.20L766.88 156.20Q768.80 155 769.28 154.82Q769.76 154.64 770.06 154.34Q770.36 154.04 771.56 152.84L771.56 152.84Q772.40 152 772.88 151.58Q773.36 151.16 773.96 151.16L773.96 151.16Q774.56 151.16 775.04 151.70Q775.52 152.24 776 152.48L776 152.48Q777.20 152.48 776.54 153.92Q775.88 155.36 773.96 157.34Q772.04 159.32 769.40 161ZM769.28 135.56L769.28 135.56Q770.60 134.96 772.04 133.82Q773.48 132.68 774.50 131.30Q775.52 129.92 775.52 128.96L775.52 128.96Q775.52 127.28 773.96 126.14Q772.40 125 769.28 125.84L769.28 125.84Q767.96 126.20 766.28 127.58Q764.60 128.96 763.10 130.64Q761.60 132.32 760.70 133.64Q759.80 134.96 760.04 135.20L760.04 135.20Q760.40 135.80 762.08 136.10Q763.76 136.40 765.86 136.28Q767.96 136.16 769.28 135.56ZM794.60 165.68L794.60 165.68Q792.32 164.72 790.28 163.10Q788.24 161.48 787.64 160.40L787.64 160.40Q787.64 159.32 788 158.90Q788.36 158.48 790.10 158.54Q791.84 158.60 795.80 159.08L795.80 159.08Q797.24 159.08 799.40 158.84Q801.56 158.60 803.42 158.12Q805.28 157.64 805.52 156.92L805.52 156.92Q806.12 156.92 805.76 156.50Q805.40 156.08 804.92 155.60L804.92 155.60Q804.44 155.60 803.84 155.18Q803.24 154.76 802.76 154.76L802.76 154.76Q802.76 154.16 801.62 153.38Q800.48 152.60 799.28 152.12L799.28 152.12Q796.64 149.96 794.72 148.22Q792.80 146.48 793.28 145.88L793.28 145.88Q793.28 145.40 793.28 145.34Q793.28 145.28 793.28 145.28L793.28 145.28Q792.44 145.28 791.42 142.88Q790.40 140.48 790.40 138.56L790.40 138.56Q790.40 137.12 791.24 134.90Q792.08 132.68 793.52 130.28Q794.96 127.88 796.52 126.32L796.52 126.32Q798.68 124.28 801.92 121.94Q805.16 119.60 808.34 117.74Q811.52 115.88 813.68 115.28L813.68 115.28Q815.84 114.44 817.70 114.44Q819.56 114.44 821 115.28L821 115.28Q822.20 115.88 823.22 117.02Q824.24 118.16 825.02 119.30Q825.80 120.44 826.04 121.28L826.04 121.28Q826.04 122.72 825.80 124.46Q825.56 126.20 825.14 127.52Q824.72 128.84 823.88 128.84L823.88 128.84Q823.88 128.84 823.58 128.90Q823.28 128.96 823.28 129.56L823.28 129.56Q823.28 130.76 821.48 132.32L821.48 132.32Q819.20 133.88 817.52 134.18Q815.84 134.48 815.48 132.92L815.48 132.92Q815.12 132.44 815 132.08Q814.88 131.72 814.40 131.72L814.40 131.72Q814.40 131.72 814.04 131.36Q813.68 131 813.68 130.16L813.68 130.16Q813.68 129.68 814.04 129.26Q814.40 128.84 814.40 128.84L814.40 128.84Q815 128.84 815.96 127.46Q816.92 126.08 817.70 124.46Q818.48 122.84 818.48 122.24L818.48 122.24Q818.48 121.52 818.30 121.40Q818.12 121.28 817.16 121.28L817.16 121.28Q815.48 122 813.08 123.20Q810.68 124.40 808.58 125.54Q806.48 126.68 805.52 127.64L805.52 127.64Q805.04 128.48 804.92 128.66Q804.80 128.84 804.32 128.84L804.32 128.84Q804.32 128.36 803.54 129.26Q802.76 130.16 801.62 131.72Q800.48 133.28 799.46 134.78Q798.44 136.28 797.96 137L797.96 137Q797.72 137.24 797.42 138.38Q797.12 139.52 797.12 140.48L797.12 140.48Q796.64 141.92 797.24 142.46Q797.84 143 799.88 144.68L799.88 144.68Q804.08 147.80 806.48 149.84Q808.88 151.88 810.08 153.20Q811.28 154.52 811.52 155.60L811.52 155.60Q813.68 159.20 812.84 161.12Q812 163.04 808.76 164.48L808.76 164.48Q807.56 165.08 804.80 165.44Q802.04 165.80 799.16 165.86Q796.28 165.92 794.60 165.68ZM865.52 163.40L865.52 163.40Q863.96 163.40 863.06 162.80Q862.16 162.20 860.84 161.12L860.84 161.12Q858.56 158.72 857.60 156.50Q856.64 154.28 857.00 152.24L857.00 152.24Q857.36 151.28 857.30 150.38Q857.24 149.48 857.24 149.48L857.24 149.48Q856.64 148.88 856.88 148.70Q857.12 148.52 857.36 148.04L857.36 148.04Q858.08 148.04 857.84 146.72L857.84 146.72Q857.60 145.76 858.80 142.52Q860.00 139.28 861.80 136.40L861.80 136.40Q862.52 135.20 863.96 133.22Q865.40 131.24 867.14 129.26Q868.88 127.28 870.32 126.08L870.32 126.08Q873.32 123.56 875.60 122.36Q877.88 121.16 880.52 120.56L880.52 120.56Q883.16 119.96 884.18 119.96Q885.20 119.96 887.00 121.88L887.00 121.88Q889.76 123.08 891.02 124.76Q892.28 126.44 892.64 129.68L892.64 129.68Q893.00 133.28 892.10 137.90Q891.20 142.52 886.40 149.36L886.40 149.36Q883.40 153.68 880.88 155.78Q878.36 157.88 874.88 159.92L874.88 159.92Q872.36 161.60 870.32 162.38Q868.28 163.16 865.52 163.40ZM877.04 150.68L877.04 150.68Q879.92 147.44 881.66 144.56Q883.40 141.68 884.96 137.24L884.96 137.24Q885.44 135.92 885.56 133.94Q885.68 131.96 885.50 130.22Q885.32 128.48 884.60 128.24L884.60 128.24Q883.16 127.40 881.12 127.70Q879.08 128 876.68 130.04L876.68 130.04Q872.96 133.16 870.20 137.78Q867.44 142.40 864.80 148.28L864.80 148.28Q863.00 152.60 864.02 155.18Q865.04 157.76 868.46 156.98Q871.88 156.20 877.04 150.68ZM902.36 177.92L902.36 177.92Q901.64 178.40 900.74 177.68Q899.84 176.96 898.16 175.04L898.16 175.04Q897.32 174.08 897.08 173Q896.84 171.92 897.20 168.92L897.20 168.92Q897.68 167.60 897.74 166.40Q897.80 165.20 897.80 164.72L897.80 164.72Q897.80 164 898.22 161.36Q898.64 158.72 899.12 155.78Q899.60 152.84 899.96 151.28L899.96 151.28Q899.96 151.16 900.08 150.68Q900.20 150.20 900.32 149.84L900.32 149.84Q900.56 148.76 900.98 146.96Q901.40 145.16 901.76 142.52L901.76 142.52Q902.72 139.52 903.38 136.58Q904.04 133.64 904.04 132.56L904.04 132.56Q904.04 130.40 905.72 129.44L905.72 129.44Q905.84 128.84 906.44 127.58Q907.04 126.32 907.52 125.48L907.52 125.48Q909.92 118.64 911.48 114.62Q913.04 110.60 914.72 107.60L914.72 107.60Q915.44 105.56 916.34 103.40Q917.24 101.24 918.20 100.04L918.20 100.04Q918.80 98.48 920.96 96.02Q923.12 93.56 925.52 91.22Q927.92 88.88 929.36 87.68L929.36 87.68Q932.00 86.36 933.56 85.88Q935.12 85.40 937.64 85.40L937.64 85.40Q939.92 85.40 940.70 85.94Q941.48 86.48 943.04 87.92L943.04 87.92Q944.72 89.72 944.96 90.32Q945.20 90.92 945.20 92.60L945.20 92.60Q944.96 94.16 943.94 96.62Q942.92 99.08 941.78 101.06Q940.64 103.04 939.92 103.16L939.92 103.16Q938.48 103.64 937.82 102.86Q937.16 102.08 937.16 100.28L937.16 100.28Q937.16 99.44 936.74 98.66Q936.32 97.88 936.32 97.88L936.32 97.88Q936.32 97.52 936.50 96.62Q936.68 95.72 937.16 94.88L937.16 94.88Q937.76 93.68 937.46 93.08Q937.16 92.48 935.84 92.84L935.84 92.84Q935.48 93.08 933.92 94.28Q932.36 95.48 930.62 96.98Q928.88 98.48 927.56 99.80Q926.24 101.12 926.24 101.48L926.24 101.48Q926.24 101.48 925.76 102.50Q925.28 103.52 923.96 105.08L923.96 105.08Q923.12 106.28 922.46 107.42Q921.80 108.56 921.80 108.80L921.80 108.80Q921.80 109.28 921.74 109.82Q921.68 110.36 921.08 110.36L921.08 110.36Q921.08 110.36 920.72 111.44Q920.36 112.52 919.40 114.20L919.40 114.20Q918.92 115.40 918.20 116.66Q917.48 117.92 917.00 118.40L917.00 118.40L917.12 118.40Q917.12 118.40 916.58 119.90Q916.04 121.40 915.44 123.02Q914.84 124.64 914.84 124.88L914.84 124.88Q914.84 125.36 916.58 125.36Q918.32 125.36 920.72 124.94Q923.12 124.52 925.04 124.04L925.04 124.04Q926.72 123.56 927.32 123.56Q927.92 123.56 929.72 124.04L929.72 124.04Q930.68 124.64 931.34 125.78Q932.00 126.92 932.30 127.94Q932.60 128.96 932.24 129.44L932.24 129.44Q932.12 129.92 929.60 130.76Q927.08 131.60 924.56 132.08L924.56 132.08Q922.40 132.56 919.28 133.16Q916.16 133.76 913.82 134.24Q911.48 134.72 911.48 135.08L911.48 135.08Q911.00 135.08 910.64 135.62Q910.28 136.16 910.28 136.52L910.28 136.52Q910.28 138.20 909.80 139.04L909.80 139.04Q909.56 139.76 908.96 141.92Q908.36 144.08 907.70 146.72Q907.04 149.36 906.62 151.52Q906.20 153.68 906.20 154.40L906.20 154.40Q905.48 155.24 905.36 156.50Q905.24 157.76 905.24 158.72L905.24 158.72Q904.76 159.68 904.64 160.46Q904.52 161.24 904.52 161.72L904.52 161.72Q904.52 161.84 904.52 162.20Q904.52 162.56 904.40 162.92L904.40 162.92Q904.28 164.12 904.10 166.10Q903.92 168.08 903.92 170L903.92 170L903.56 173.48Q903.44 175.04 903.20 176.18Q902.96 177.32 902.36 177.92ZM1012.88 127.28L1012.88 127.28Q1012.52 128.12 1010.12 128.60Q1007.72 129.08 1002.44 129.68L1002.44 129.68Q1000.88 129.80 997.82 129.92Q994.76 130.04 991.22 130.16Q987.68 130.28 984.80 130.22Q981.92 130.16 980.84 129.92L980.84 129.92Q980.84 129.92 980.30 130.52Q979.76 131.12 979.76 132.08L979.76 132.08Q978.92 133.52 977.66 136.52Q976.40 139.52 974.90 143.12Q973.40 146.72 972.14 150.32Q970.88 153.92 970.04 156.56Q969.20 159.20 969.20 160.16L969.20 160.16Q968.12 163.04 967.88 165.08Q967.64 167.12 967.04 167.48L967.04 167.48Q966.92 167.96 965.48 167.72Q964.04 167.48 963.08 166.40L963.08 166.40Q961.64 165.32 961.46 164.42Q961.28 163.52 962.12 160.88L962.12 160.88Q962.48 159.32 963.38 156.26Q964.28 153.20 965.42 149.48Q966.56 145.76 967.82 142.22Q969.08 138.68 970.28 136.40L970.28 136.40Q971.60 134.12 971.96 132.26Q972.32 130.40 972.92 128.84L972.92 128.84Q972.80 127.52 972.92 127.04Q973.04 126.56 973.88 125.60L973.88 125.60Q974.48 125.12 975.38 123.86Q976.28 122.60 977.48 119.96L977.48 119.96Q977.84 118.76 978.62 116.66Q979.40 114.56 980.12 112.34Q980.84 110.12 981.44 108.56Q982.04 107 982.04 106.88L982.04 106.88Q982.28 106.40 982.76 105.02Q983.24 103.64 983.48 102.80L983.48 102.80Q983.96 101.12 984.26 100.04Q984.56 98.96 984.08 98.96L984.08 98.96Q983.12 99.20 980.24 99.32L980.24 99.32Q978.80 99.56 978.14 99.62Q977.48 99.68 977.00 99.80L977.00 99.80Q975.80 99.92 974.84 99.56Q973.88 99.20 973.88 98.12L973.88 98.12Q974.12 96.20 975.26 94.94Q976.40 93.68 978.20 93.56L978.20 93.56Q979.04 93.32 980.06 93.14Q981.08 92.96 982.88 92.48L982.88 92.48Q985.16 92.00 986.42 91.70Q987.68 91.40 988.40 91.64L988.40 91.64Q989.00 91.28 989.48 90.86Q989.96 90.44 989.96 89.96L989.96 89.96Q989.96 89.36 990.50 89.06Q991.04 88.76 991.76 88.70Q992.48 88.64 993.26 88.88Q994.04 89.12 994.40 89.72L994.40 89.72Q994.64 90.08 995.48 90.32Q996.32 90.56 998.54 90.26Q1000.76 89.96 1004.84 89.12L1004.84 89.12Q1007.00 88.88 1010.30 88.64Q1013.60 88.40 1015.52 89.00L1015.52 89.00Q1017.56 88.64 1019.18 88.70Q1020.80 88.76 1021.40 88.28L1021.40 88.28Q1023.92 88.76 1025.06 88.94Q1026.20 89.12 1026.92 89.72L1026.92 89.72Q1027.40 90.20 1027.22 90.62Q1027.04 91.04 1027.04 91.04L1027.04 91.04Q1026.56 90.80 1027.16 91.10Q1027.76 91.40 1028.00 91.64L1028.00 91.64Q1028.84 92.00 1029.08 92.54Q1029.32 93.08 1029.32 93.56Q1029.32 94.04 1029.20 94.40L1029.20 94.40Q1029.08 95.48 1028.00 95.66Q1026.92 95.84 1022.60 95.72L1022.60 95.72Q1017.44 95.00 1012.46 95.18Q1007.48 95.36 1000.88 96.32L1000.88 96.32Q998.48 96.44 996.62 96.98Q994.76 97.52 994.52 97.52L994.52 97.52Q994.04 97.52 992.84 99.14Q991.64 100.76 990.56 103.88L990.56 103.88Q990.08 104.72 988.88 107.72Q987.68 110.72 986.30 114.20Q984.92 117.68 983.90 120.32Q982.88 122.96 982.64 123.20L982.64 123.20Q984.32 123.68 988.10 123.68Q991.88 123.68 996.50 123.38Q1001.12 123.08 1004.96 122.72L1004.96 122.72Q1006.76 122.36 1008.74 122.06Q1010.72 121.76 1011.32 122L1011.32 122Q1011.92 122.36 1012.40 123.38Q1012.88 124.40 1013.06 125.48Q1013.24 126.56 1012.88 127.28ZM1045.52 164.96L1045.52 164.96Q1044.32 163.76 1043.12 161.66Q1041.92 159.56 1041.20 156.80L1041.20 156.80Q1040.96 155.84 1041.02 154.16Q1041.08 152.48 1040.96 151.76L1040.96 151.76Q1040.60 152.60 1039.82 153.50Q1039.04 154.40 1038.32 155L1038.32 155Q1037.84 155.48 1036.16 156.86Q1034.48 158.24 1032.80 159.08L1032.80 159.08Q1028.84 161.60 1026.26 161.84Q1023.68 162.08 1021.40 159.20L1021.40 159.20Q1019.48 157.64 1018.70 155.72Q1017.92 153.80 1018.64 150.44L1018.64 150.44Q1018.88 146.24 1019.84 142.22Q1020.80 138.20 1023.80 131.48L1023.80 131.48Q1026.32 126.56 1027.64 124.22Q1028.96 121.88 1029.32 121.40L1029.32 121.40Q1031.12 120.80 1032.32 121.46Q1033.52 122.12 1033.76 123.80L1033.76 123.80Q1034.48 125 1033.58 127.88Q1032.68 130.76 1030.52 134.96L1030.52 134.96Q1028.84 139.04 1027.46 143.12Q1026.08 147.20 1025.84 150.08Q1025.60 152.96 1027.28 153.56L1027.28 153.56Q1028.36 154.16 1031.06 153.20Q1033.76 152.24 1037.18 148.40Q1040.60 144.56 1043.84 136.76L1043.84 136.76Q1044.80 134.36 1045.28 132.50Q1045.76 130.64 1045.88 128.36L1045.88 128.36Q1045.64 126.92 1046.06 125.78Q1046.48 124.64 1047.92 123.80L1047.92 123.80Q1048.40 123.20 1049.24 122.66Q1050.08 122.12 1050.32 122.72L1050.32 122.72L1052.24 122.60Q1052.72 122.48 1052.90 123.14Q1053.08 123.80 1053.68 124.28L1053.68 124.28Q1055.00 125.36 1054.40 128.96Q1053.80 132.56 1051.04 139.04L1051.04 139.04Q1048.76 143.96 1047.98 146.48Q1047.20 149 1047.08 151.40L1047.08 151.40Q1047.08 153.56 1047.92 155.48Q1048.76 157.40 1050.56 158.96L1050.56 158.96Q1051.88 159.80 1052.06 160.88Q1052.24 161.96 1052.12 163.40L1052.12 163.40Q1051.88 164.48 1050.74 165.14Q1049.60 165.80 1048.16 165.80Q1046.72 165.80 1045.52 164.96ZM1103.72 159.68L1103.72 159.68Q1101.32 159.68 1099.76 158.66Q1098.20 157.64 1097.12 155.24L1097.12 155.24Q1096.64 153.56 1096.34 151.46Q1096.04 149.36 1096.04 147.50Q1096.04 145.64 1096.40 145.04L1096.40 145.04Q1096.88 144.56 1096.82 143.30Q1096.76 142.04 1096.76 140.60L1096.76 140.60Q1096.64 138.20 1095.62 137.90Q1094.60 137.60 1092.68 138.68L1092.68 138.68Q1090.52 140 1087.04 142.22Q1083.56 144.44 1079.78 147.08Q1076.00 149.72 1072.64 152.60L1072.64 152.60Q1070.00 155.48 1069.46 156.98Q1068.92 158.48 1067.96 158.48L1067.96 158.48Q1067.00 158.96 1066.34 158.54Q1065.68 158.12 1064.48 157.16L1064.48 157.16Q1063.64 156.20 1062.80 155.30Q1061.96 154.40 1061.72 153.92L1061.72 153.92Q1061.72 153.32 1062.08 151.40Q1062.44 149.48 1062.98 147.56Q1063.52 145.64 1063.76 145.04L1063.76 145.04Q1064.36 145.04 1064.78 143.84Q1065.20 142.64 1066.16 141.20L1066.16 141.20Q1066.40 139.76 1067.42 137.30Q1068.44 134.84 1069.28 132.92L1069.28 132.92Q1070.96 130.04 1071.62 128.12Q1072.28 126.20 1072.52 123.32L1072.52 123.32Q1072.40 122.84 1072.76 122.42Q1073.12 122 1073.60 122L1073.60 122L1073.60 122L1073.60 122Q1074.56 121.04 1075.88 121.46Q1077.20 121.88 1078.28 123.32L1078.28 123.32Q1080.44 126.20 1080.02 129.26Q1079.60 132.32 1076.12 137.96L1076.12 137.96Q1075.28 139.88 1074.86 140.90Q1074.44 141.92 1074.44 142.52L1074.44 142.52Q1074.44 142.52 1075.70 141.68Q1076.96 140.84 1078.58 139.70Q1080.20 138.56 1081.16 137.96L1081.16 137.96Q1081.76 137.36 1083.92 135.80Q1086.08 134.24 1088.54 132.74Q1091.00 131.24 1092.20 131L1092.20 131Q1093.16 130.52 1094.24 130.10Q1095.32 129.68 1095.80 129.68L1095.80 129.68Q1096.76 129.68 1098.26 130.70Q1099.76 131.72 1101.08 133.10Q1102.40 134.48 1102.64 135.44L1102.64 135.44Q1102.64 135.92 1102.70 136.40Q1102.76 136.88 1102.88 137.36L1102.88 137.36Q1103.36 138.92 1103.42 141.56Q1103.48 144.20 1103.24 146.36Q1103.00 148.52 1102.40 148.88L1102.40 148.88Q1102.40 148.88 1102.46 149.18Q1102.52 149.48 1103.00 149.48L1103.00 149.48Q1103.00 149.96 1103.00 150.02Q1103.00 150.08 1103.00 150.08L1103.00 150.08Q1102.40 150.08 1102.52 151.10Q1102.64 152.12 1103.30 153.32Q1103.96 154.52 1104.68 155.24L1104.68 155.24Q1106.12 156.68 1105.88 157.94Q1105.64 159.20 1103.72 159.68Z"/>
      </svg>
    