
      <svg width="455.56" height="310.72" viewBox="0 0 455.56 310.72" xmlns="http://www.w3.org/2000/svg">
        <rect width="100%" height="100%" fill="#ffffff" />
        <path fill="#000000" d="M167.72 179.60Q169.28 179.60 170.18 181.04Q171.08 182.48 171.08 185L171.08 185Q171.08 189.68 168.80 192.44L168.80 192.44Q163.04 199.40 157.16 203.18Q151.28 206.96 143.24 206.96L143.24 206.96Q135.44 206.96 129.98 202.76Q124.52 198.56 119.60 188.36L119.60 188.36Q115.64 180.20 113.36 176.30Q111.08 172.40 108.86 170.72Q106.64 169.04 103.40 168.68L103.40 168.68Q102.92 171.20 100.64 184.52L100.64 184.52Q99.68 190.52 99.44 191.84L99.44 191.84Q98.24 199.16 94.64 203.06Q91.04 206.96 83.72 206.96L83.72 206.96Q75.68 206.96 69.50 202.22Q63.32 197.48 59.96 189.02Q56.60 180.56 56.60 169.76L56.60 169.76Q56.60 149.60 63.62 134.96Q70.64 120.32 83.30 112.58Q95.96 104.84 112.52 104.84L112.52 104.84Q124.04 104.84 131.84 108.32Q139.64 111.80 143.42 117.92Q147.20 124.04 147.20 131.72L147.20 131.72Q147.20 138.44 144.02 144.86Q140.84 151.28 134.48 156.20Q128.12 161.12 119 163.52L119 163.52Q124.76 165.08 127.88 168.56Q131 172.04 134.12 178.76L134.12 178.76Q137.48 185.96 140.78 189.32Q144.08 192.68 148.40 192.68L148.40 192.68Q152.24 192.68 155.72 190.10Q159.20 187.52 164.48 181.28L164.48 181.28Q165.92 179.60 167.72 179.60L167.72 179.60ZM83.60 186.56L86.84 168.56Q82.76 168.56 81.26 166.64Q79.76 164.72 79.76 162.32L79.76 162.32Q79.76 159.44 81.62 157.76Q83.48 156.08 85.88 156.08L85.88 156.08L88.88 156.08Q90.80 144.32 92.48 135.80L92.48 135.80Q94.04 128 102.56 128L102.56 128Q109.40 128 109.40 134.12L109.40 134.12Q109.40 135.44 109.28 136.16L109.28 136.16L105.68 156.08Q112.16 155.72 117.50 152.96Q122.84 150.20 126.02 145.28Q129.20 140.36 129.20 134.12L129.20 134.12Q129.20 126.56 124.04 122.24Q118.88 117.92 108.92 117.92L108.92 117.92Q97.16 117.92 88.34 123.74Q79.52 129.56 74.60 141.02Q69.68 152.48 69.68 168.92L69.68 168.92Q69.68 176.60 71.24 182.12Q72.80 187.64 75.08 190.40Q77.36 193.16 79.40 193.16L79.40 193.16Q80.96 193.16 81.98 191.60Q83 190.04 83.60 186.56L83.60 186.56ZM173.72 206.96Q166.28 206.96 161.84 201.56Q157.40 196.16 157.40 187.40L157.40 187.40Q157.40 177.80 161.84 169.22Q166.28 160.64 173.66 155.42Q181.04 150.20 189.32 150.20L189.32 150.20Q191.96 150.20 192.86 151.22Q193.76 152.24 194.36 154.88L194.36 154.88Q196.88 154.40 199.64 154.40L199.64 154.40Q205.52 154.40 205.52 158.60L205.52 158.60Q205.52 161.12 203.72 170.60L203.72 170.60Q200.96 184.40 200.96 189.80L200.96 189.80Q200.96 191.60 201.86 192.68Q202.76 193.76 204.20 193.76L204.20 193.76Q206.48 193.76 209.72 190.82Q212.96 187.88 218.48 181.28L218.48 181.28Q219.92 179.60 221.72 179.60L221.72 179.60Q223.28 179.60 224.18 181.04Q225.08 182.48 225.08 185L225.08 185Q225.08 189.80 222.80 192.44L222.80 192.44Q217.88 198.56 212.36 202.76Q206.84 206.96 201.68 206.96L201.68 206.96Q197.72 206.96 194.42 204.26Q191.12 201.56 189.44 196.88L189.44 196.88Q183.20 206.96 173.72 206.96L173.72 206.96ZM178.04 194.84Q180.68 194.84 183.08 191.72Q185.48 188.60 186.56 183.44L186.56 183.44L191 161.36Q185.96 161.48 181.70 165.14Q177.44 168.80 174.92 174.80Q172.40 180.80 172.40 187.52L172.40 187.52Q172.40 191.24 173.90 193.04Q175.40 194.84 178.04 194.84L178.04 194.84ZM223.88 206.96Q219.32 206.96 217.46 202.16Q215.60 197.36 215.60 186.80L215.60 186.80Q215.60 171.20 220.04 157.16L220.04 157.16Q221.12 153.68 223.58 152.06Q226.04 150.44 230.48 150.44L230.48 150.44Q232.88 150.44 233.84 151.04Q234.80 151.64 234.80 153.32L234.80 153.32Q234.80 155.24 233 161.96L233 161.96Q231.80 166.76 231.08 170.30Q230.36 173.84 229.88 179.12L229.88 179.12Q233.12 169.76 237.62 163.28Q242.12 156.80 246.86 153.62Q251.60 150.44 255.80 150.44L255.80 150.44Q260 150.44 261.74 152.36Q263.48 154.28 263.48 158.24L263.48 158.24Q263.48 162.08 261.20 172.16L261.20 172.16Q260.24 176.48 259.88 178.64L259.88 178.64Q265.88 163.88 273.20 157.16Q280.52 150.44 286.88 150.44L286.88 150.44Q294.68 150.44 294.68 158.24L294.68 158.24Q294.68 162.92 292.04 175.16L292.04 175.16Q289.76 185.60 289.76 188.96L289.76 188.96Q289.76 193.76 293.24 193.76L293.24 193.76Q295.64 193.76 298.94 190.82Q302.24 187.88 307.76 181.28L307.76 181.28Q309.20 179.60 311 179.60L311 179.60Q312.56 179.60 313.46 181.04Q314.36 182.48 314.36 185L314.36 185Q314.36 189.80 312.08 192.44L312.08 192.44Q306.92 198.80 300.98 202.88Q295.04 206.96 287.48 206.96L287.48 206.96Q281.36 206.96 278.24 203.42Q275.12 199.88 275.12 193.16L275.12 193.16Q275.12 189.80 276.80 181.16L276.80 181.16Q278.36 173.60 278.36 170.72L278.36 170.72Q278.36 168.80 277.04 168.80L277.04 168.80Q275.48 168.80 272.60 172.82Q269.72 176.84 266.84 183.44Q263.96 190.04 262.16 197.36L262.16 197.36Q260.84 203.12 259.10 205.04Q257.36 206.96 253.52 206.96L253.52 206.96Q249.56 206.96 247.58 203.18Q245.60 199.40 245.60 194L245.60 194Q245.60 189.44 246.80 180.80L246.80 180.80Q247.76 173.12 247.76 170.72L247.76 170.72Q247.76 168.80 246.44 168.80L246.44 168.80Q244.64 168.80 241.88 173.12Q239.12 177.44 236.54 184.16Q233.96 190.88 232.40 197.36L232.40 197.36Q231.08 203 229.34 204.98Q227.60 206.96 223.88 206.96L223.88 206.96ZM316.88 206.96Q311.48 206.96 308.06 201.98Q304.64 197 304.64 189.56L304.64 189.56Q304.64 180.56 305.84 173.06Q307.04 165.56 309.80 157.16L309.80 157.16Q311 153.56 313.16 152Q315.32 150.44 320 150.44L320 150.44Q322.64 150.44 323.66 151.28Q324.68 152.12 324.68 153.80L324.68 153.80Q324.68 154.76 323.36 160.28L323.36 160.28Q322.16 164.72 321.44 168.32L321.44 168.32Q319.04 180.92 319.04 185.12L319.04 185.12Q319.04 187.64 319.64 188.66Q320.24 189.68 321.56 189.68L321.56 189.68Q323.36 189.68 326.06 186.08Q328.76 182.48 331.82 175.16Q334.88 167.84 337.76 157.16L337.76 157.16Q338.72 153.56 340.70 152Q342.68 150.44 346.64 150.44L346.64 150.44Q349.40 150.44 350.48 151.10Q351.56 151.76 351.56 153.56L351.56 153.56Q351.56 156.56 348.56 170L348.56 170Q345.20 185.36 345.20 188.96L345.20 188.96Q345.20 191.24 346.16 192.50Q347.12 193.76 348.68 193.76L348.68 193.76Q351.08 193.76 354.38 190.82Q357.68 187.88 363.20 181.28L363.20 181.28Q364.64 179.60 366.44 179.60L366.44 179.60Q368 179.60 368.90 181.04Q369.80 182.48 369.80 185L369.80 185Q369.80 189.80 367.52 192.44L367.52 192.44Q362.36 198.80 356.42 202.88Q350.48 206.96 342.92 206.96L342.92 206.96Q337.16 206.96 334.46 202.52Q331.76 198.08 331.76 190.04L331.76 190.04Q329.72 198.20 325.64 202.58Q321.56 206.96 316.88 206.96L316.88 206.96ZM382.40 209.60Q376.16 209.60 372.86 206.72Q369.56 203.84 369.56 200.24L369.56 200.24Q369.56 197.12 371.84 194.84Q374.12 192.56 378.56 192.56L378.56 192.56Q380.12 192.56 382.22 192.86Q384.32 193.16 385.40 193.28L385.40 193.28Q385.28 190.16 384.02 187.40Q382.76 184.64 380.84 182.06Q378.92 179.48 377.24 177.56L377.24 177.56Q373.52 184.64 369.86 189.32Q366.20 194 361.88 198.20L361.88 198.20Q359.72 200.36 357.32 200.36L357.32 200.36Q355.40 200.36 354.20 198.98Q353 197.60 353 195.56L353 195.56Q353 193.16 354.68 191.12L354.68 191.12L356.24 189.20Q362.84 181.04 366.20 175.76L366.20 175.76Q368.24 172.28 371 166.46Q373.76 160.64 376.40 154.40L376.40 154.40Q378.68 149.12 385.88 149.12L385.88 149.12Q389.24 149.12 390.56 149.72Q391.88 150.32 391.88 151.64L391.88 151.64Q391.88 152.36 391.40 153.92Q390.92 155.48 390.08 157.04L390.08 157.04Q387.92 161.36 387.92 164.36L387.92 164.36Q387.92 166.16 389.18 168.32Q390.44 170.48 393.08 173.72L393.08 173.72Q396.92 178.76 398.90 182.30Q400.88 185.84 400.88 190.04L400.88 190.04Q400.88 191.24 400.64 193.40L400.64 193.40Q406.52 191.12 414.44 181.28L414.44 181.28Q415.88 179.60 417.68 179.60L417.68 179.60Q419.24 179.60 420.14 181.04Q421.04 182.48 421.04 185L421.04 185Q421.04 189.56 418.76 192.44L418.76 192.44Q412.76 199.88 407.30 202.58Q401.84 205.28 393.80 205.52L393.80 205.52Q389 209.60 382.40 209.60L382.40 209.60Z"/>
      </svg>
    