
      <svg xmlns="http://www.w3.org/2000/svg" width="800" height="300">
        <rect width="100%" height="100%" fill="#ffffff" stroke="red" stroke-width="5"/>
        <line x1="0" y1="0" x2="800" y2="300" stroke="blue" stroke-width="2"/>
        <line x1="0" y1="300" x2="800" y2="0" stroke="blue" stroke-width="2"/>
        <svg xmlns="http://www.w3.org/2000/svg" xmlns:xlink="http://www.w3.org/1999/xlink" width="600.3599999999999" height="146.28"><path fill="#2e7d32" d="M128.62 223.74L128.62 223.74Q120.82 223.74 113.86 221.52Q106.90 219.30 102.94 215.94L102.94 215.94L106.78 209.22Q110.62 212.10 116.62 214.20Q122.62 216.30 129.22 216.30L129.22 216.30Q138.22 216.30 142.18 213.48Q146.14 210.66 146.14 205.98L146.14 205.98Q146.14 202.50 143.92 200.52Q141.70 198.54 138.10 197.52Q134.50 196.50 130.06 195.78Q125.62 195.06 121.24 194.10Q116.86 193.14 113.26 191.28Q109.66 189.42 107.44 186.18Q105.22 182.94 105.22 177.54L105.22 177.54Q105.22 172.38 108.10 168.30Q110.98 164.22 116.56 161.88Q122.14 159.54 130.18 159.54L130.18 159.54Q136.30 159.54 142.42 161.16Q148.54 162.78 152.50 165.42L152.50 165.42L148.78 172.26Q144.58 169.38 139.78 168.12Q134.98 166.86 130.18 166.86L130.18 166.86Q121.66 166.86 117.64 169.80Q113.62 172.74 113.62 177.30L113.62 177.30Q113.62 180.90 115.84 182.94Q118.06 184.98 121.72 186.12Q125.38 187.26 129.76 187.98Q134.14 188.70 138.52 189.72Q142.90 190.74 146.56 192.48Q150.22 194.22 152.44 197.40Q154.66 200.58 154.66 205.74L154.66 205.74Q154.66 211.26 151.60 215.28Q148.54 219.30 142.72 221.52Q136.90 223.74 128.62 223.74ZM195.34 223.74L195.34 223.74Q186.34 223.74 179.20 219.66Q172.06 215.58 167.98 208.32Q163.90 201.06 163.90 191.58L163.90 191.58Q163.90 181.98 167.98 174.78Q172.06 167.58 179.20 163.56Q186.34 159.54 195.34 159.54L195.34 159.54Q203.62 159.54 210.16 163.26Q216.70 166.98 220.60 174.12Q224.50 181.26 224.50 191.58L224.50 191.58Q224.50 201.78 220.66 208.98Q216.82 216.18 210.28 219.96Q203.74 223.74 195.34 223.74ZM195.94 216.18L195.94 216.18Q202.66 216.18 208.00 213.12Q213.34 210.06 216.40 204.48Q219.46 198.90 219.46 191.58L219.46 191.58Q219.46 184.14 216.40 178.62Q213.34 173.10 208.00 170.04Q202.66 166.98 195.94 166.98L195.94 166.98Q189.34 166.98 184.06 170.04Q178.78 173.10 175.66 178.62Q172.54 184.14 172.54 191.58L172.54 191.58Q172.54 198.90 175.66 204.48Q178.78 210.06 184.06 213.12Q189.34 216.18 195.94 216.18ZM227.86 223.14L219.70 223.14L219.70 204.18L220.54 191.46L219.34 178.74L219.34 134.10L227.86 134.10L227.86 223.14ZM276.70 223.74L276.70 223.74Q267.70 223.74 260.56 219.66Q253.42 215.58 249.34 208.32Q245.26 201.06 245.26 191.58L245.26 191.58Q245.26 181.98 249.34 174.78Q253.42 167.58 260.56 163.56Q267.70 159.54 276.70 159.54L276.70 159.54Q284.98 159.54 291.52 163.26Q298.06 166.98 301.96 174.12Q305.86 181.26 305.86 191.58L305.86 191.58Q305.86 201.78 302.02 208.98Q298.18 216.18 291.64 219.96Q285.10 223.74 276.70 223.74ZM277.30 216.18L277.30 216.18Q284.02 216.18 289.36 213.12Q294.70 210.06 297.76 204.48Q300.82 198.90 300.82 191.58L300.82 191.58Q300.82 184.14 297.76 178.62Q294.70 173.10 289.36 170.04Q284.02 166.98 277.30 166.98L277.30 166.98Q270.70 166.98 265.42 170.04Q260.14 173.10 257.02 178.62Q253.90 184.14 253.90 191.58L253.90 191.58Q253.90 198.90 257.02 204.48Q260.14 210.06 265.42 213.12Q270.70 216.18 277.30 216.18ZM309.22 223.14L301.06 223.14L301.06 204.18L301.90 191.46L300.70 178.74L300.70 134.10L309.22 134.10L309.22 223.14ZM349.90 223.74L349.90 223.74Q342.10 223.74 335.14 221.52Q328.18 219.30 324.22 215.94L324.22 215.94L328.06 209.22Q331.90 212.10 337.90 214.20Q343.90 216.30 350.50 216.30L350.50 216.30Q359.50 216.30 363.46 213.48Q367.42 210.66 367.42 205.98L367.42 205.98Q367.42 202.50 365.20 200.52Q362.98 198.54 359.38 197.52Q355.78 196.50 351.34 195.78Q346.90 195.06 342.52 194.10Q338.14 193.14 334.54 191.28Q330.94 189.42 328.72 186.18Q326.50 182.94 326.50 177.54L326.50 177.54Q326.50 172.38 329.38 168.30Q332.26 164.22 337.84 161.88Q343.42 159.54 351.46 159.54L351.46 159.54Q357.58 159.54 363.70 161.16Q369.82 162.78 373.78 165.42L373.78 165.42L370.06 172.26Q365.86 169.38 361.06 168.12Q356.26 166.86 351.46 166.86L351.46 166.86Q342.94 166.86 338.92 169.80Q334.90 172.74 334.90 177.30L334.90 177.30Q334.90 180.90 337.12 182.94Q339.34 184.98 343.00 186.12Q346.66 187.26 351.04 187.98Q355.42 188.70 359.80 189.72Q364.18 190.74 367.84 192.48Q371.50 194.22 373.72 197.40Q375.94 200.58 375.94 205.74L375.94 205.74Q375.94 211.26 372.88 215.28Q369.82 219.30 364.00 221.52Q358.18 223.74 349.90 223.74ZM401.50 223.14L392.98 223.14L392.98 152.22Q392.98 143.82 397.90 138.66Q402.82 133.50 412.06 133.50L412.06 133.50Q415.66 133.50 419.02 134.46Q422.38 135.42 424.66 137.46L424.66 137.46L421.78 143.82Q419.98 142.26 417.58 141.48Q415.18 140.70 412.42 140.70L412.42 140.70Q407.02 140.70 404.14 143.70Q401.26 146.70 401.26 152.58L401.26 152.58L401.26 162.18L401.50 166.14L401.50 223.14ZM420.70 167.22L381.70 167.22L381.70 160.14L420.70 160.14L420.70 167.22ZM449.14 223.74L449.14 223.74Q441.34 223.74 434.38 221.52Q427.42 219.30 423.46 215.94L423.46 215.94L427.30 209.22Q431.14 212.10 437.14 214.20Q443.14 216.30 449.74 216.30L449.74 216.30Q458.74 216.30 462.70 213.48Q466.66 210.66 466.66 205.98L466.66 205.98Q466.66 202.50 464.44 200.52Q462.22 198.54 458.62 197.52Q455.02 196.50 450.58 195.78Q446.14 195.06 441.76 194.10Q437.38 193.14 433.78 191.28Q430.18 189.42 427.96 186.18Q425.74 182.94 425.74 177.54L425.74 177.54Q425.74 172.38 428.62 168.30Q431.50 164.22 437.08 161.88Q442.66 159.54 450.70 159.54L450.70 159.54Q456.82 159.54 462.94 161.16Q469.06 162.78 473.02 165.42L473.02 165.42L469.30 172.26Q465.10 169.38 460.30 168.12Q455.50 166.86 450.70 166.86L450.70 166.86Q442.18 166.86 438.16 169.80Q434.14 172.74 434.14 177.30L434.14 177.30Q434.14 180.90 436.36 182.94Q438.58 184.98 442.24 186.12Q445.90 187.26 450.28 187.98Q454.66 188.70 459.04 189.72Q463.42 190.74 467.08 192.48Q470.74 194.22 472.96 197.40Q475.18 200.58 475.18 205.74L475.18 205.74Q475.18 211.26 472.12 215.28Q469.06 219.30 463.24 221.52Q457.42 223.74 449.14 223.74ZM500.74 223.14L492.22 223.14L492.22 152.22Q492.22 143.82 497.14 138.66Q502.06 133.50 511.30 133.50L511.30 133.50Q514.90 133.50 518.26 134.46Q521.62 135.42 523.90 137.46L523.90 137.46L521.02 143.82Q519.22 142.26 516.82 141.48Q514.42 140.70 511.66 140.70L511.66 140.70Q506.26 140.70 503.38 143.70Q500.50 146.70 500.50 152.58L500.50 152.58L500.50 162.18L500.74 166.14L500.74 223.14ZM519.94 167.22L480.94 167.22L480.94 160.14L519.94 160.14L519.94 167.22ZM548.38 223.74L548.38 223.74Q540.58 223.74 533.62 221.52Q526.66 219.30 522.70 215.94L522.70 215.94L526.54 209.22Q530.38 212.10 536.38 214.20Q542.38 216.30 548.98 216.30L548.98 216.30Q557.98 216.30 561.94 213.48Q565.90 210.66 565.90 205.98L565.90 205.98Q565.90 202.50 563.68 200.52Q561.46 198.54 557.86 197.52Q554.26 196.50 549.82 195.78Q545.38 195.06 541 194.10Q536.62 193.14 533.02 191.28Q529.42 189.42 527.20 186.18Q524.98 182.94 524.98 177.54L524.98 177.54Q524.98 172.38 527.86 168.30Q530.74 164.22 536.32 161.88Q541.90 159.54 549.94 159.54L549.94 159.54Q556.06 159.54 562.18 161.16Q568.30 162.78 572.26 165.42L572.26 165.42L568.54 172.26Q564.34 169.38 559.54 168.12Q554.74 166.86 549.94 166.86L549.94 166.86Q541.42 166.86 537.40 169.80Q533.38 172.74 533.38 177.30L533.38 177.30Q533.38 180.90 535.60 182.94Q537.82 184.98 541.48 186.12Q545.14 187.26 549.52 187.98Q553.90 188.70 558.28 189.72Q562.66 190.74 566.32 192.48Q569.98 194.22 572.20 197.40Q574.42 200.58 574.42 205.74L574.42 205.74Q574.42 211.26 571.36 215.28Q568.30 219.30 562.48 221.52Q556.66 223.74 548.38 223.74ZM615.10 223.74L615.10 223.74Q606.10 223.74 598.96 219.66Q591.82 215.58 587.74 208.32Q583.66 201.06 583.66 191.58L583.66 191.58Q583.66 181.98 587.74 174.78Q591.82 167.58 598.96 163.56Q606.10 159.54 615.10 159.54L615.10 159.54Q623.38 159.54 629.92 163.26Q636.46 166.98 640.36 174.12Q644.26 181.26 644.26 191.58L644.26 191.58Q644.26 201.78 640.42 208.98Q636.58 216.18 630.04 219.96Q623.50 223.74 615.10 223.74ZM615.70 216.18L615.70 216.18Q622.42 216.18 627.76 213.12Q633.10 210.06 636.16 204.48Q639.22 198.90 639.22 191.58L639.22 191.58Q639.22 184.14 636.16 178.62Q633.10 173.10 627.76 170.04Q622.42 166.98 615.70 166.98L615.70 166.98Q609.10 166.98 603.82 170.04Q598.54 173.10 595.42 178.62Q592.30 184.14 592.30 191.58L592.30 191.58Q592.30 198.90 595.42 204.48Q598.54 210.06 603.82 213.12Q609.10 216.18 615.70 216.18ZM647.62 223.14L639.46 223.14L639.46 204.18L640.30 191.46L639.10 178.74L639.10 134.10L647.62 134.10L647.62 223.14ZM681.34 223.14L672.82 223.14L672.82 152.22Q672.82 143.82 677.74 138.66Q682.66 133.50 691.90 133.50L691.90 133.50Q695.50 133.50 698.86 134.46Q702.22 135.42 704.50 137.46L704.50 137.46L701.62 143.82Q699.82 142.26 697.42 141.48Q695.02 140.70 692.26 140.70L692.26 140.70Q686.86 140.70 683.98 143.70Q681.10 146.70 681.10 152.58L681.10 152.58L681.10 162.18L681.34 166.14L681.34 223.14ZM700.54 167.22L661.54 167.22L661.54 160.14L700.54 160.14L700.54 167.22Z"/></svg>
      </svg>
    