
      <svg width="472.96000000000004" height="251.2" viewBox="0 0 472.96000000000004 251.2" xmlns="http://www.w3.org/2000/svg">
        <rect width="100%" height="100%" fill="#544545" />
        <path fill="#080707" d="M75.80 170.48L75.80 170.48Q74.84 170.48 73.64 168.92Q72.44 167.36 72.56 165.92L72.56 165.92Q72.68 164 73.64 160.40Q74.60 156.80 75.80 153.08Q77 149.36 77.96 147.20L77.96 147.20Q78.44 145.28 78.86 143.78Q79.28 142.28 79.40 141.80L79.40 141.80Q79.76 141.32 80.54 139.28Q81.32 137.24 81.80 135.32L81.80 135.32Q82.04 134.36 82.82 131.66Q83.60 128.96 84.74 125.36Q85.88 121.76 87.02 118.28Q88.16 114.80 89 112.16Q89.84 109.52 90.08 108.68L90.08 108.68Q91.04 107.24 91.52 105.92Q92 104.60 92.12 104.12L92.12 104.12Q92.84 103.64 92.96 102.86Q93.08 102.08 93.08 101.60L93.08 101.60Q93.08 101.00 93.50 100.64Q93.92 100.28 93.92 99.80L93.92 99.80Q94.40 99.44 94.52 98.66Q94.64 97.88 95.24 97.28L95.24 97.28L95.84 95.24L102.92 95.12Q102.68 96.56 102.20 98.66Q101.72 100.76 99.92 104.24L99.92 104.24Q99.32 106.64 98.54 108.56Q97.76 110.48 97.88 111.08L97.88 111.08Q97.64 111.32 96.86 113.48Q96.08 115.64 95.06 118.76Q94.04 121.88 93.02 125Q92 128.12 91.22 130.46Q90.44 132.80 90.20 133.40L90.20 133.40Q89.24 135.32 88.04 139.04Q86.84 142.76 84.44 149.12L84.44 149.12Q83.48 151.04 82.10 154.88Q80.72 158.72 79.88 161.84L79.88 161.84Q78.56 166.52 78.02 168.38Q77.48 170.24 77.12 170.42Q76.76 170.60 75.80 170.48ZM76.76 98.96L76.76 98.96Q73.40 99.08 71.78 98.60Q70.16 98.12 70.64 96.20L70.64 96.20Q71 94.76 72.20 94.04Q73.40 93.32 75.68 92.96L75.68 92.96Q77 92.72 79.10 92.36Q81.20 92.00 83.12 91.64L83.12 91.64Q87.08 91.16 89.66 90.80Q92.24 90.44 95 90.20Q97.76 89.96 101.96 89.72L101.96 89.72Q105.44 89.48 107.90 89.30Q110.36 89.12 110.36 89.12L110.36 89.12Q110.72 89.12 112.88 89.36Q115.04 89.60 117.56 89.96Q120.08 90.32 121.28 90.80L121.28 90.80Q124.04 91.40 125.30 92.48Q126.56 93.56 127.04 95.60L127.04 95.60Q127.40 97.04 127.04 97.34Q126.68 97.64 125.72 98.12L125.72 98.12Q122.96 98.96 121.64 98.96Q120.32 98.96 118.64 98.36L118.64 98.36Q118.04 97.76 117.26 97.28Q116.48 96.80 114.62 96.50Q112.76 96.20 108.80 95.96L108.80 95.96Q105.44 96.32 102.92 96.32Q100.40 96.32 100.40 96.92L100.40 96.92L93.32 97.28L87.44 97.88Q86.24 98.00 84.08 98.18Q81.92 98.36 79.88 98.54Q77.84 98.72 76.76 98.96ZM127.28 161L127.28 161Q124.76 163.16 121.46 163.52Q118.16 163.88 115.04 162.50Q111.92 161.12 109.88 158.24L109.88 158.24Q107.84 155.60 107.24 152.18Q106.64 148.76 107.12 143.24L107.12 143.24Q107.48 138.56 110.12 133.82Q112.76 129.08 116.54 125.36Q120.32 121.64 124.04 120.20L124.04 120.20Q125.84 119 127.10 119.06Q128.36 119.12 131 119.36L131 119.36Q133.76 119.72 135.14 120.44Q136.52 121.16 137.36 122.36L137.36 122.36Q139.16 124.16 139.76 125.90Q140.36 127.64 140.36 129.32L140.36 129.32Q139.88 131.96 136.82 135.74Q133.76 139.52 128.84 141.92L128.84 141.92Q126.20 142.76 123.08 142.64Q119.96 142.52 117.92 141.08L117.92 141.08Q115.64 140.12 114.92 141.38Q114.20 142.64 113.60 147.44L113.60 147.44Q113.12 152 114.32 154.10Q115.52 156.20 117.56 156.56L117.56 156.56Q119.96 157.04 121.34 157.22Q122.72 157.40 124.76 156.20L124.76 156.20Q126.68 155 127.16 154.82Q127.64 154.64 127.94 154.34Q128.24 154.04 129.44 152.84L129.44 152.84Q130.28 152 130.76 151.58Q131.24 151.16 131.84 151.16L131.84 151.16Q132.44 151.16 132.92 151.70Q133.40 152.24 133.88 152.48L133.88 152.48Q135.08 152.48 134.42 153.92Q133.76 155.36 131.84 157.34Q129.92 159.32 127.28 161ZM127.16 135.56L127.16 135.56Q128.48 134.96 129.92 133.82Q131.36 132.68 132.38 131.30Q133.40 129.92 133.40 128.96L133.40 128.96Q133.40 127.28 131.84 126.14Q130.28 125 127.16 125.84L127.16 125.84Q125.84 126.20 124.16 127.58Q122.48 128.96 120.98 130.64Q119.48 132.32 118.58 133.64Q117.68 134.96 117.92 135.20L117.92 135.20Q118.28 135.80 119.96 136.10Q121.64 136.40 123.74 136.28Q125.84 136.16 127.16 135.56ZM158.24 163.88L158.24 163.88Q154.76 164.48 151.88 163.46Q149.00 162.44 147.26 159.98Q145.52 157.52 145.52 153.68L145.52 153.68Q145.16 150.08 146.36 145.34Q147.56 140.60 149.90 135.80Q152.24 131 155.00 127.52L155.00 127.52Q157.40 124.64 159.80 122.24Q162.20 119.84 164.12 119L164.12 119Q165.80 118.28 167.30 118.10Q168.80 117.92 169.76 117.92L169.76 117.92Q171.68 118.40 173.90 119.66Q176.12 120.92 176.12 122.36L176.12 122.36Q176.12 122.36 176.42 122.66Q176.72 122.96 176.72 122.96L176.72 122.96Q177.44 122.96 177.98 124.52Q178.52 126.08 178.64 128.06Q178.76 130.04 178.04 131.36L178.04 131.36Q177.56 133.64 176.36 135.32Q175.16 137 174.20 137L174.20 137Q173.72 137 173.30 137.06Q172.88 137.12 172.88 137.72L172.88 137.72Q172.88 138.32 172.22 138.20Q171.56 138.08 170.84 137.42Q170.12 136.76 169.76 135.80L169.76 135.80Q169.76 135.20 170.24 133.76Q170.72 132.32 171.20 130.04L171.20 130.04Q171.92 126.68 171.08 125.66Q170.24 124.64 167.84 125.60L167.84 125.60Q164.84 127.28 162.14 130.28Q159.44 133.28 157.16 138.02Q154.88 142.76 153.08 149.84L153.08 149.84Q152.36 152.60 152.54 154.64Q152.72 156.68 153.08 156.80L153.08 156.80Q154.76 157.28 157.64 156.98Q160.52 156.68 161.84 155.96L161.84 155.96Q163.76 155 166.16 153.38Q168.56 151.76 170.36 150.44L170.36 150.44Q170.96 150.08 171.80 149.24Q172.64 148.40 173.60 147.92L173.60 147.92Q174.56 146.48 175.28 146.24Q176.00 146 177.44 146L177.44 146Q178.40 146.24 179.24 146.72Q180.08 147.20 180.38 147.68Q180.68 148.16 179.96 148.52L179.96 148.52Q179.48 148.52 179.42 148.82Q179.36 149.12 179.36 149.12L179.36 149.12Q179.60 149.60 178.34 151.10Q177.08 152.60 175.16 154.40Q173.24 156.20 171.50 157.46Q169.76 158.72 169.04 158.72L169.04 158.72Q167.84 158.72 167.84 159.44L167.84 159.44Q167.84 159.68 166.10 160.64Q164.36 161.60 162.14 162.56Q159.92 163.52 158.24 163.88ZM192.08 158.72L192.08 158.72Q191.24 158.84 190.34 158.66Q189.44 158.48 188.60 157.88L188.60 157.88Q187.64 156.92 187.28 156.38Q186.92 155.84 187.10 154.64Q187.28 153.44 187.88 150.92L187.88 150.92Q188.48 149 189.32 145.58Q190.16 142.16 191.12 138.80L191.12 138.80Q191.48 136.88 192.14 134.84Q192.80 132.80 193.52 131.06Q194.24 129.32 194.60 128.36L194.60 128.36Q195.56 125 196.46 122.48Q197.36 119.96 198.68 116.66Q200.00 113.36 201.92 107.84L201.92 107.84Q204.56 100.64 205.94 96.86Q207.32 93.08 207.98 91.34Q208.64 89.60 208.88 88.64L208.88 88.64Q208.88 87.68 209.42 87.20Q209.96 86.72 210.80 86.72L210.80 86.72Q212.48 86.72 213.50 88.34Q214.52 89.96 214.76 92.18Q215.00 94.40 214.04 96.32L214.04 96.32Q212.12 100.64 209.96 106.58Q207.80 112.52 205.76 118.22Q203.72 123.92 201.92 127.88L201.92 127.88Q201.92 128.36 201.56 129.56Q201.20 130.76 200.72 131.72L200.72 131.72Q200.24 132.68 199.82 133.52Q199.40 134.36 199.40 134.36L199.40 134.36Q199.40 134.84 199.04 136.16Q198.68 137.48 198.08 139.40L198.08 139.40Q197.60 140.84 196.94 143.12Q196.28 145.40 196.04 146.96L196.04 146.96Q196.64 145.88 198.56 143.72Q200.48 141.56 202.16 140L202.16 140Q204.08 138.32 206.48 136.28Q208.88 134.24 210.32 133.28L210.32 133.28Q211.76 132.32 212.90 131.54Q214.04 130.76 214.04 130.76L214.04 130.76Q214.04 130.28 214.46 130.22Q214.88 130.16 215.36 130.16L215.36 130.16Q215.84 130.16 215.90 130.04Q215.96 129.92 215.96 129.44L215.96 129.44Q215.96 128.84 217.34 128.36Q218.72 127.88 220.58 127.58Q222.44 127.28 223.64 127.28L223.64 127.28Q225.08 127.28 225.92 127.88Q226.76 128.48 228.08 130.52L228.08 130.52Q229.52 132.44 229.94 135.14Q230.36 137.84 229.40 140.72L229.40 140.72Q229.40 141.68 229.10 143.42Q228.80 145.16 228.80 147.08L228.80 147.08L228.08 150.92L230 150.92Q230.96 150.92 231.80 151.22Q232.64 151.52 232.64 151.52L232.64 151.52Q233.12 152 233.60 152.42Q234.08 152.84 234.56 152.84L234.56 152.84Q236 152.84 235.64 153.98Q235.28 155.12 233.84 156.08L233.84 156.08Q230.96 158 228.62 158Q226.28 158 224.36 156.08L224.36 156.08Q222.44 154.04 221.96 151.52Q221.48 149 222.44 145.16L222.44 145.16Q222.92 139.88 222.98 137.42Q223.04 134.96 221.72 134.96L221.72 134.96Q220.52 134.96 217.52 136.58Q214.52 138.20 210.80 140.96Q207.08 143.72 203.48 147.08Q199.88 150.44 197.48 154.04L197.48 154.04Q196.04 155.84 194.72 157.22Q193.40 158.60 192.08 158.72ZM249.56 165.68L249.56 165.68Q247.28 164.72 245.24 163.10Q243.20 161.48 242.60 160.40L242.60 160.40Q242.60 159.32 242.96 158.90Q243.32 158.48 245.06 158.54Q246.80 158.60 250.76 159.08L250.76 159.08Q252.20 159.08 254.36 158.84Q256.52 158.60 258.38 158.12Q260.24 157.64 260.48 156.92L260.48 156.92Q261.08 156.92 260.72 156.50Q260.36 156.08 259.88 155.60L259.88 155.60Q259.40 155.60 258.80 155.18Q258.20 154.76 257.72 154.76L257.72 154.76Q257.72 154.16 256.58 153.38Q255.44 152.60 254.24 152.12L254.24 152.12Q251.60 149.96 249.68 148.22Q247.76 146.48 248.24 145.88L248.24 145.88Q248.24 145.40 248.24 145.34Q248.24 145.28 248.24 145.28L248.24 145.28Q247.40 145.28 246.38 142.88Q245.36 140.48 245.36 138.56L245.36 138.56Q245.36 137.12 246.20 134.90Q247.04 132.68 248.48 130.28Q249.92 127.88 251.48 126.32L251.48 126.32Q253.64 124.28 256.88 121.94Q260.12 119.60 263.30 117.74Q266.48 115.88 268.64 115.28L268.64 115.28Q270.80 114.44 272.66 114.44Q274.52 114.44 275.96 115.28L275.96 115.28Q277.16 115.88 278.18 117.02Q279.20 118.16 279.98 119.30Q280.76 120.44 281.00 121.28L281.00 121.28Q281.00 122.72 280.76 124.46Q280.52 126.20 280.10 127.52Q279.68 128.84 278.84 128.84L278.84 128.84Q278.84 128.84 278.54 128.90Q278.24 128.96 278.24 129.56L278.24 129.56Q278.24 130.76 276.44 132.32L276.44 132.32Q274.16 133.88 272.48 134.18Q270.80 134.48 270.44 132.92L270.44 132.92Q270.08 132.44 269.96 132.08Q269.84 131.72 269.36 131.72L269.36 131.72Q269.36 131.72 269.00 131.36Q268.64 131 268.64 130.16L268.64 130.16Q268.64 129.68 269.00 129.26Q269.36 128.84 269.36 128.84L269.36 128.84Q269.96 128.84 270.92 127.46Q271.88 126.08 272.66 124.46Q273.44 122.84 273.44 122.24L273.44 122.24Q273.44 121.52 273.26 121.40Q273.08 121.28 272.12 121.28L272.12 121.28Q270.44 122 268.04 123.20Q265.64 124.40 263.54 125.54Q261.44 126.68 260.48 127.64L260.48 127.64Q260.00 128.48 259.88 128.66Q259.76 128.84 259.28 128.84L259.28 128.84Q259.28 128.36 258.50 129.26Q257.72 130.16 256.58 131.72Q255.44 133.28 254.42 134.78Q253.40 136.28 252.92 137L252.92 137Q252.68 137.24 252.38 138.38Q252.08 139.52 252.08 140.48L252.08 140.48Q251.60 141.92 252.20 142.46Q252.80 143 254.84 144.68L254.84 144.68Q259.04 147.80 261.44 149.84Q263.84 151.88 265.04 153.20Q266.24 154.52 266.48 155.60L266.48 155.60Q268.64 159.20 267.80 161.12Q266.96 163.04 263.72 164.48L263.72 164.48Q262.52 165.08 259.76 165.44Q257.00 165.80 254.12 165.86Q251.24 165.92 249.56 165.68ZM278.48 192.08L278.48 192.08Q278 192.08 277.28 192.14Q276.56 192.20 275.96 191.12L275.96 191.12Q275.48 190.52 275.42 189.32Q275.36 188.12 275.96 185L275.96 185Q276.56 182.96 276.92 180.98Q277.28 179 277.28 178.04L277.28 178.04Q277.28 177.56 277.58 176.18Q277.88 174.80 277.88 174.20L277.88 174.20Q278.48 173.24 278.84 171.56Q279.20 169.88 279.20 168.56L279.20 168.56Q279.20 167.12 280.64 165.92L280.64 165.92Q280.64 164.96 281.06 163.52Q281.48 162.08 281.48 161.60L281.48 161.60Q281.84 159.92 283.10 155.66Q284.36 151.40 286.22 146Q288.08 140.60 289.88 135.44Q291.68 130.28 293.12 126.68L293.12 126.68Q294.56 123.32 295.10 120.86Q295.64 118.40 295.64 117.20L295.64 117.20Q295.64 116.72 295.88 116.42Q296.12 116.12 296.96 115.16L296.96 115.16Q298.16 113.96 299.06 114.44Q299.96 114.92 301.28 115.88L301.28 115.88Q302.24 117.44 302.66 118.52Q303.08 119.60 302.60 122.24L302.60 122.24Q302.60 124.04 302 125.36Q301.40 126.68 300.92 127.34Q300.44 128 300.68 127.88L300.68 127.88Q305.60 125.60 309.38 125.42Q313.16 125.24 315.74 126.74Q318.32 128.24 319.64 130.88Q320.96 133.52 320.96 137L320.96 137Q320.96 138.44 320.36 140.42Q319.76 142.40 318.86 144.02Q317.96 145.64 317.24 146.36L317.24 146.36Q316.76 146.36 316.28 147.14Q315.80 147.92 315.32 148.88L315.32 148.88Q314.36 150.08 312.26 151.58Q310.16 153.08 308.12 153.98Q306.08 154.88 305.12 154.52L305.12 154.52Q305.12 154.52 304.82 154.58Q304.52 154.64 304.52 155.24L304.52 155.24Q304.52 155.48 302.60 156.26Q300.68 157.04 298.16 157.70Q295.64 158.36 293.72 158.36L293.72 158.36Q291.20 158.36 290.12 157.40L290.12 157.40Q289.88 157.64 289.58 158.12Q289.28 158.60 289.28 158.96L289.28 158.96Q289.28 159.68 288.74 161.66Q288.20 163.64 287.48 165.44Q286.76 167.24 286.16 167.24L286.16 167.24Q286.16 167.24 285.92 167.60Q285.68 167.96 286.16 168.56L286.16 168.56Q286.16 168.56 286.10 169.94Q286.04 171.32 285.44 172.28L285.44 172.28Q285.44 173.24 285.08 175.16Q284.72 177.08 284.24 178.04L284.24 178.04Q284.24 179.48 283.82 180.86Q283.40 182.24 282.92 182.24L282.92 182.24Q282.44 182.36 282.32 183.74Q282.20 185.12 282.20 185.72L282.20 185.72Q282.08 188.72 281 190.40Q279.92 192.08 278.48 192.08ZM293 152L293 152Q293.96 152 296.96 151.16Q299.96 150.32 303.14 149.06Q306.32 147.80 307.88 146.48L307.88 146.48Q311 143.72 312.74 140.18Q314.48 136.64 312.44 133.40L312.44 133.40Q311.48 131.72 308.96 132.02Q306.44 132.32 303.44 134Q300.44 135.68 297.80 138.20L297.80 138.20Q296.36 139.76 295.16 142.04Q293.96 144.32 293.18 146.60Q292.40 148.88 292.28 150.44Q292.16 152 293 152ZM329.36 160.88L329.36 160.88Q328.88 159.92 328.16 159.38Q327.44 158.84 327.44 158.36L327.44 158.36Q327.44 157.88 327.38 157.34Q327.32 156.80 326.84 156.32L326.84 156.32Q326.24 155.60 326.96 153.02Q327.68 150.44 329.36 146.66Q331.04 142.88 333.32 138.68L333.32 138.68Q334.28 137.72 335.24 136.16Q336.20 134.60 336.68 134.12L336.68 134.12Q336.68 133.64 337.04 133.22Q337.40 132.80 337.88 132.80L337.88 132.80L337.88 132.08Q337.88 131.48 339.02 130.04Q340.16 128.60 341.84 126.86Q343.52 125.12 345.32 123.50Q347.12 121.88 348.32 121.16L348.32 121.16Q350.84 119.48 353.54 119.12Q356.24 118.76 358.16 120.32L358.16 120.32Q358.52 120.68 359.36 121.52Q360.20 122.36 361.34 123.38Q362.48 124.40 363.68 125.48L363.68 125.48L368.12 129.44L365.96 135.44Q364.40 140.24 365.18 143.84Q365.96 147.44 367.52 150.08L367.52 150.08Q368.12 151.40 369.98 152.60Q371.84 153.80 373.52 154.04L373.52 154.04Q374.48 154.16 375.32 154.76Q376.16 155.36 376.16 156.68L376.16 156.68Q376.16 157.88 375.68 158.60Q375.20 159.32 374.00 159.56L374.00 159.56Q370.04 160.04 366.62 157.64Q363.20 155.24 360.32 149.72L360.32 149.72Q359.84 149 359.06 147.02Q358.28 145.04 358.16 144.44L358.16 144.44Q357.68 145.04 356.36 146.66Q355.04 148.28 354.32 149L354.32 149Q345.80 157.64 339.62 160.58Q333.44 163.52 329.36 160.88ZM333.68 154.16L333.68 154.16Q333.68 155 336.26 154.10Q338.84 153.20 341.84 150.80L341.84 150.80Q345.92 147.32 350.06 143.12Q354.20 138.92 356.72 135.32L356.72 135.32L359.36 131Q358.16 128.24 356.78 127.22Q355.40 126.20 354.44 126.20L354.44 126.20Q352.88 126.20 349.82 129.08Q346.76 131.96 343.28 136.76Q339.80 141.56 336.68 147.32L336.68 147.32Q335.48 149.72 334.58 151.94Q333.68 154.16 333.68 154.16ZM423.44 159.68L423.44 159.68Q421.04 159.68 419.48 158.66Q417.92 157.64 416.84 155.24L416.84 155.24Q416.36 153.56 416.06 151.46Q415.76 149.36 415.76 147.50Q415.76 145.64 416.12 145.04L416.12 145.04Q416.60 144.56 416.54 143.30Q416.48 142.04 416.48 140.60L416.48 140.60Q416.36 138.20 415.34 137.90Q414.32 137.60 412.40 138.68L412.40 138.68Q410.24 140 406.76 142.22Q403.28 144.44 399.50 147.08Q395.72 149.72 392.36 152.60L392.36 152.60Q389.72 155.48 389.18 156.98Q388.64 158.48 387.68 158.48L387.68 158.48Q386.72 158.96 386.06 158.54Q385.40 158.12 384.20 157.16L384.20 157.16Q383.36 156.20 382.52 155.30Q381.68 154.40 381.44 153.92L381.44 153.92Q381.44 153.32 381.80 151.40Q382.16 149.48 382.70 147.56Q383.24 145.64 383.48 145.04L383.48 145.04Q384.08 145.04 384.50 143.84Q384.92 142.64 385.88 141.20L385.88 141.20Q386.12 139.76 387.14 137.30Q388.16 134.84 389.00 132.92L389.00 132.92Q390.68 130.04 391.34 128.12Q392.00 126.20 392.24 123.32L392.24 123.32Q392.12 122.84 392.48 122.42Q392.84 122 393.32 122L393.32 122L393.32 122L393.32 122Q394.28 121.04 395.60 121.46Q396.92 121.88 398.00 123.32L398.00 123.32Q400.16 126.20 399.74 129.26Q399.32 132.32 395.84 137.96L395.84 137.96Q395.00 139.88 394.58 140.90Q394.16 141.92 394.16 142.52L394.16 142.52Q394.16 142.52 395.42 141.68Q396.68 140.84 398.30 139.70Q399.92 138.56 400.88 137.96L400.88 137.96Q401.48 137.36 403.64 135.80Q405.80 134.24 408.26 132.74Q410.72 131.24 411.92 131L411.92 131Q412.88 130.52 413.96 130.10Q415.04 129.68 415.52 129.68L415.52 129.68Q416.48 129.68 417.98 130.70Q419.48 131.72 420.80 133.10Q422.12 134.48 422.36 135.44L422.36 135.44Q422.36 135.92 422.42 136.40Q422.48 136.88 422.60 137.36L422.60 137.36Q423.08 138.92 423.14 141.56Q423.20 144.20 422.96 146.36Q422.72 148.52 422.12 148.88L422.12 148.88Q422.12 148.88 422.18 149.18Q422.24 149.48 422.72 149.48L422.72 149.48Q422.72 149.96 422.72 150.02Q422.72 150.08 422.72 150.08L422.72 150.08Q422.12 150.08 422.24 151.10Q422.36 152.12 423.02 153.32Q423.68 154.52 424.40 155.24L424.40 155.24Q425.84 156.68 425.60 157.94Q425.36 159.20 423.44 159.68Z"/>
      </svg>
    