
      <svg width="681.88" height="246.28" viewBox="0 0 681.88 246.28" xmlns="http://www.w3.org/2000/svg">
        <rect width="100%" height="100%" fill="#544545" />
        <path fill="#080707" d="M88.88 166.16L80 166.16L80 89.84L50.48 89.84L50.48 82.16L118.40 82.16L118.40 89.84L88.88 89.84L88.88 166.16ZM157.52 166.76L157.52 166.76Q147.68 166.76 140.24 162.62Q132.80 158.48 128.60 151.22Q124.40 143.96 124.40 134.60L124.40 134.60Q124.40 125.24 128.42 118.04Q132.44 110.84 139.46 106.70Q146.48 102.56 155.24 102.56L155.24 102.56Q164.12 102.56 171.02 106.58Q177.92 110.60 181.88 117.86Q185.84 125.12 185.84 134.60L185.84 134.60Q185.84 135.20 185.78 135.86Q185.72 136.52 185.72 137.24L185.72 137.24L130.88 137.24L130.88 130.88L181.16 130.88L177.80 133.40Q177.80 126.56 174.86 121.22Q171.92 115.88 166.88 112.88Q161.84 109.88 155.24 109.88L155.24 109.88Q148.76 109.88 143.60 112.88Q138.44 115.88 135.56 121.28Q132.68 126.68 132.68 133.64L132.68 133.64L132.68 134.96Q132.68 142.16 135.86 147.62Q139.04 153.08 144.74 156.14Q150.44 159.20 157.76 159.20L157.76 159.20Q163.52 159.20 168.50 157.16Q173.48 155.12 177.08 150.92L177.08 150.92L181.88 156.44Q177.68 161.48 171.38 164.12Q165.08 166.76 157.52 166.76ZM229.40 166.76L229.40 166.76Q220.04 166.76 212.66 162.62Q205.28 158.48 201.08 151.22Q196.88 143.96 196.88 134.60L196.88 134.60Q196.88 125.12 201.08 117.92Q205.28 110.72 212.66 106.64Q220.04 102.56 229.40 102.56L229.40 102.56Q237.44 102.56 243.92 105.68Q250.40 108.80 254.12 115.04L254.12 115.04L247.76 119.36Q244.52 114.56 239.72 112.28Q234.92 110 229.28 110L229.28 110Q222.56 110 217.16 113.06Q211.76 116.12 208.64 121.64Q205.52 127.16 205.52 134.60L205.52 134.60Q205.52 142.04 208.64 147.56Q211.76 153.08 217.16 156.14Q222.56 159.20 229.28 159.20L229.28 159.20Q234.92 159.20 239.72 156.92Q244.52 154.64 247.76 149.96L247.76 149.96L254.12 154.28Q250.40 160.40 243.92 163.58Q237.44 166.76 229.40 166.76ZM279.32 166.16L270.80 166.16L270.80 77.12L279.32 77.12L279.32 120.44L277.64 117.20Q280.64 110.36 287.24 106.46Q293.84 102.56 302.96 102.56L302.96 102.56Q310.64 102.56 316.46 105.50Q322.28 108.44 325.58 114.44Q328.88 120.44 328.88 129.56L328.88 129.56L328.88 166.16L320.36 166.16L320.36 130.40Q320.36 120.44 315.38 115.34Q310.40 110.24 301.40 110.24L301.40 110.24Q294.68 110.24 289.70 112.94Q284.72 115.64 282.02 120.74Q279.32 125.84 279.32 133.04L279.32 133.04L279.32 166.16ZM368.84 166.76L368.84 166.76Q361.04 166.76 354.08 164.54Q347.12 162.32 343.16 158.96L343.16 158.96L347 152.24Q350.84 155.12 356.84 157.22Q362.84 159.32 369.44 159.32L369.44 159.32Q378.44 159.32 382.40 156.50Q386.36 153.68 386.36 149L386.36 149Q386.36 145.52 384.14 143.54Q381.92 141.56 378.32 140.54Q374.72 139.52 370.28 138.80Q365.84 138.08 361.46 137.12Q357.08 136.16 353.48 134.30Q349.88 132.44 347.66 129.20Q345.44 125.96 345.44 120.56L345.44 120.56Q345.44 115.40 348.32 111.32Q351.20 107.24 356.78 104.90Q362.36 102.56 370.40 102.56L370.40 102.56Q376.52 102.56 382.64 104.18Q388.76 105.80 392.72 108.44L392.72 108.44L389 115.28Q384.80 112.40 380 111.14Q375.20 109.88 370.40 109.88L370.40 109.88Q361.88 109.88 357.86 112.82Q353.84 115.76 353.84 120.32L353.84 120.32Q353.84 123.92 356.06 125.96Q358.28 128 361.94 129.14Q365.60 130.28 369.98 131Q374.36 131.72 378.74 132.74Q383.12 133.76 386.78 135.50Q390.44 137.24 392.66 140.42Q394.88 143.60 394.88 148.76L394.88 148.76Q394.88 154.28 391.82 158.30Q388.76 162.32 382.94 164.54Q377.12 166.76 368.84 166.76ZM443 166.76L443 166.76Q434.84 166.76 428.24 162.98Q421.64 159.20 417.74 152.06Q413.84 144.92 413.84 134.60L413.84 134.60Q413.84 124.28 417.68 117.14Q421.52 110 428.12 106.28Q434.72 102.56 443 102.56L443 102.56Q452 102.56 459.14 106.58Q466.28 110.60 470.36 117.86Q474.44 125.12 474.44 134.60L474.44 134.60Q474.44 144.20 470.36 151.40Q466.28 158.60 459.14 162.68Q452 166.76 443 166.76ZM419 189.44L410.48 189.44L410.48 103.16L418.64 103.16L418.64 122.12L417.80 134.72L419 147.44L419 189.44ZM442.40 159.20L442.40 159.20Q449.12 159.20 454.40 156.14Q459.68 153.08 462.80 147.50Q465.92 141.92 465.92 134.60L465.92 134.60Q465.92 127.28 462.80 121.76Q459.68 116.24 454.40 113.12Q449.12 110 442.40 110L442.40 110Q435.68 110 430.34 113.12Q425 116.24 421.94 121.76Q418.88 127.28 418.88 134.60L418.88 134.60Q418.88 141.92 421.94 147.50Q425 153.08 430.34 156.14Q435.68 159.20 442.40 159.20ZM539.48 166.16L531.32 166.16L531.32 152.24L530.96 149.96L530.96 126.68Q530.96 118.64 526.46 114.32Q521.96 110 513.08 110L513.08 110Q506.96 110 501.44 112.04Q495.92 114.08 492.08 117.44L492.08 117.44L488.24 111.08Q493.04 107 499.76 104.78Q506.48 102.56 513.92 102.56L513.92 102.56Q526.16 102.56 532.82 108.62Q539.48 114.68 539.48 127.04L539.48 127.04L539.48 166.16ZM509.60 166.76L509.60 166.76Q502.52 166.76 497.30 164.42Q492.08 162.08 489.32 157.94Q486.56 153.80 486.56 148.40L486.56 148.40Q486.56 143.48 488.90 139.46Q491.24 135.44 496.58 132.98Q501.92 130.52 510.92 130.52L510.92 130.52L532.64 130.52L532.64 136.88L511.16 136.88Q502.04 136.88 498.50 140.12Q494.96 143.36 494.96 148.16L494.96 148.16Q494.96 153.56 499.16 156.80Q503.36 160.04 510.92 160.04L510.92 160.04Q518.12 160.04 523.34 156.74Q528.56 153.44 530.96 147.20L530.96 147.20L532.88 153.08Q530.48 159.32 524.54 163.04Q518.60 166.76 509.60 166.76ZM571.16 166.16L562.64 166.16L562.64 103.16L570.80 103.16L570.80 120.44L569.48 117.20Q572.48 110.36 579.08 106.46Q585.68 102.56 594.80 102.56L594.80 102.56Q602.48 102.56 608.30 105.50Q614.12 108.44 617.42 114.44Q620.72 120.44 620.72 129.56L620.72 129.56L620.72 166.16L612.20 166.16L612.20 130.40Q612.20 120.44 607.22 115.34Q602.24 110.24 593.24 110.24L593.24 110.24Q586.52 110.24 581.54 112.94Q576.56 115.64 573.86 120.74Q571.16 125.84 571.16 133.04L571.16 133.04L571.16 166.16Z"/>
      </svg>
    