
      <svg xmlns="http://www.w3.org/2000/svg" width="800" height="300">
        <rect width="100%" height="100%" fill="#ffffff" stroke="red" stroke-width="5"/>
        <line x1="0" y1="0" x2="800" y2="300" stroke="blue" stroke-width="2"/>
        <line x1="0" y1="300" x2="800" y2="0" stroke="blue" stroke-width="2"/>
        <svg xmlns="http://www.w3.org/2000/svg" xmlns:xlink="http://www.w3.org/1999/xlink" width="604.8000000000001" height="146.28"><path fill="#2e7d32" d="M129.40 223.74L129.40 223.74Q120.52 223.74 115.72 218.94Q110.92 214.14 110.92 205.38L110.92 205.38L110.92 146.22L119.44 146.22L119.44 204.90Q119.44 210.42 122.26 213.42Q125.08 216.42 130.36 216.42L130.36 216.42Q136.00 216.42 139.72 213.18L139.72 213.18L142.72 219.30Q140.20 221.58 136.66 222.66Q133.12 223.74 129.40 223.74ZM138.64 167.22L99.64 167.22L99.64 160.14L138.64 160.14L138.64 167.22ZM178.12 223.74L178.12 223.74Q169.24 223.74 164.44 218.94Q159.64 214.14 159.64 205.38L159.64 205.38L159.64 146.22L168.16 146.22L168.16 204.90Q168.16 210.42 170.98 213.42Q173.80 216.42 179.08 216.42L179.08 216.42Q184.72 216.42 188.44 213.18L188.44 213.18L191.44 219.30Q188.92 221.58 185.38 222.66Q181.84 223.74 178.12 223.74ZM187.36 167.22L148.36 167.22L148.36 160.14L187.36 160.14L187.36 167.22ZM226.84 223.74L226.84 223.74Q217.96 223.74 213.16 218.94Q208.36 214.14 208.36 205.38L208.36 205.38L208.36 146.22L216.88 146.22L216.88 204.90Q216.88 210.42 219.70 213.42Q222.52 216.42 227.80 216.42L227.80 216.42Q233.44 216.42 237.16 213.18L237.16 213.18L240.16 219.30Q237.64 221.58 234.10 222.66Q230.56 223.74 226.84 223.74ZM236.08 167.22L197.08 167.22L197.08 160.14L236.08 160.14L236.08 167.22ZM264.16 223.14L255.64 223.14L255.64 160.14L263.80 160.14L263.80 177.30L262.96 174.30Q265.60 167.10 271.84 163.32Q278.08 159.54 287.32 159.54L287.32 159.54L287.32 167.82Q286.84 167.82 286.36 167.76Q285.88 167.70 285.40 167.70L285.40 167.70Q275.44 167.70 269.80 173.76Q264.16 179.82 264.16 190.98L264.16 190.98L264.16 223.14ZM330.52 223.74L330.52 223.74Q320.68 223.74 313.24 219.60Q305.80 215.46 301.60 208.20Q297.40 200.94 297.40 191.58L297.40 191.58Q297.40 182.22 301.42 175.02Q305.44 167.82 312.46 163.68Q319.48 159.54 328.24 159.54L328.24 159.54Q337.12 159.54 344.02 163.56Q350.92 167.58 354.88 174.84Q358.84 182.10 358.84 191.58L358.84 191.58Q358.84 192.18 358.78 192.84Q358.72 193.50 358.72 194.22L358.72 194.22L303.88 194.22L303.88 187.86L354.16 187.86L350.80 190.38Q350.80 183.54 347.86 178.20Q344.92 172.86 339.88 169.86Q334.84 166.86 328.24 166.86L328.24 166.86Q321.76 166.86 316.60 169.86Q311.44 172.86 308.56 178.26Q305.68 183.66 305.68 190.62L305.68 190.62L305.68 191.94Q305.68 199.14 308.86 204.60Q312.04 210.06 317.74 213.12Q323.44 216.18 330.76 216.18L330.76 216.18Q336.52 216.18 341.50 214.14Q346.48 212.10 350.08 207.90L350.08 207.90L354.88 213.42Q350.68 218.46 344.38 221.10Q338.08 223.74 330.52 223.74ZM384.76 223.14L376.24 223.14L376.24 160.14L384.40 160.14L384.40 177.30L383.56 174.30Q386.20 167.10 392.44 163.32Q398.68 159.54 407.92 159.54L407.92 159.54L407.92 167.82Q407.44 167.82 406.96 167.76Q406.48 167.70 406.00 167.70L406.00 167.70Q396.04 167.70 390.40 173.76Q384.76 179.82 384.76 190.98L384.76 190.98L384.76 223.14ZM451.12 223.74L451.12 223.74Q441.28 223.74 433.84 219.60Q426.40 215.46 422.20 208.20Q418.00 200.94 418.00 191.58L418.00 191.58Q418.00 182.22 422.02 175.02Q426.04 167.82 433.06 163.68Q440.08 159.54 448.84 159.54L448.84 159.54Q457.72 159.54 464.62 163.56Q471.52 167.58 475.48 174.84Q479.44 182.10 479.44 191.58L479.44 191.58Q479.44 192.18 479.38 192.84Q479.32 193.50 479.32 194.22L479.32 194.22L424.48 194.22L424.48 187.86L474.76 187.86L471.40 190.38Q471.40 183.54 468.46 178.20Q465.52 172.86 460.48 169.86Q455.44 166.86 448.84 166.86L448.84 166.86Q442.36 166.86 437.20 169.86Q432.04 172.86 429.16 178.26Q426.28 183.66 426.28 190.62L426.28 190.62L426.28 191.94Q426.28 199.14 429.46 204.60Q432.64 210.06 438.34 213.12Q444.04 216.18 451.36 216.18L451.36 216.18Q457.12 216.18 462.10 214.14Q467.08 212.10 470.68 207.90L470.68 207.90L475.48 213.42Q471.28 218.46 464.98 221.10Q458.68 223.74 451.12 223.74ZM523.60 223.74L523.60 223.74Q513.76 223.74 506.32 219.60Q498.88 215.46 494.68 208.20Q490.48 200.94 490.48 191.58L490.48 191.58Q490.48 182.22 494.50 175.02Q498.52 167.82 505.54 163.68Q512.56 159.54 521.32 159.54L521.32 159.54Q530.20 159.54 537.10 163.56Q544 167.58 547.96 174.84Q551.92 182.10 551.92 191.58L551.92 191.58Q551.92 192.18 551.86 192.84Q551.80 193.50 551.80 194.22L551.80 194.22L496.96 194.22L496.96 187.86L547.24 187.86L543.88 190.38Q543.88 183.54 540.94 178.20Q538 172.86 532.96 169.86Q527.92 166.86 521.32 166.86L521.32 166.86Q514.84 166.86 509.68 169.86Q504.52 172.86 501.64 178.26Q498.76 183.66 498.76 190.62L498.76 190.62L498.76 191.94Q498.76 199.14 501.94 204.60Q505.12 210.06 510.82 213.12Q516.52 216.18 523.84 216.18L523.84 216.18Q529.60 216.18 534.58 214.14Q539.56 212.10 543.16 207.90L543.16 207.90L547.96 213.42Q543.76 218.46 537.46 221.10Q531.16 223.74 523.60 223.74ZM577.84 223.14L569.32 223.14L569.32 160.14L577.48 160.14L577.48 177.30L576.64 174.30Q579.28 167.10 585.52 163.32Q591.76 159.54 601.00 159.54L601.00 159.54L601.00 167.82Q600.52 167.82 600.04 167.76Q599.56 167.70 599.08 167.70L599.08 167.70Q589.12 167.70 583.48 173.76Q577.84 179.82 577.84 190.98L577.84 190.98L577.84 223.14ZM637.36 223.74L637.36 223.74Q628.48 223.74 623.68 218.94Q618.88 214.14 618.88 205.38L618.88 205.38L618.88 146.22L627.40 146.22L627.40 204.90Q627.40 210.42 630.22 213.42Q633.04 216.42 638.32 216.42L638.32 216.42Q643.96 216.42 647.68 213.18L647.68 213.18L650.68 219.30Q648.16 221.58 644.62 222.66Q641.08 223.74 637.36 223.74ZM646.60 167.22L607.60 167.22L607.60 160.14L646.60 160.14L646.60 167.22ZM674.68 223.14L666.16 223.14L666.16 160.14L674.32 160.14L674.32 177.30L673.48 174.30Q676.12 167.10 682.36 163.32Q688.60 159.54 697.84 159.54L697.84 159.54L697.84 167.82Q697.36 167.82 696.88 167.76Q696.40 167.70 695.92 167.70L695.92 167.70Q685.96 167.70 680.32 173.76Q674.68 179.82 674.68 190.98L674.68 190.98L674.68 223.14Z"/></svg>
      </svg>
    