
      <svg width="1830.2799999999997" height="246.28" viewBox="0 0 1830.2799999999997 246.28" xmlns="http://www.w3.org/2000/svg">
        <rect width="100%" height="100%" fill="#ffffff" />
        <path fill="#000000" d="M96.32 166.16L87.56 166.16L50.36 82.16L59.96 82.16L94.76 161.24L89.48 161.24L124.52 82.16L133.52 82.16L96.32 166.16ZM154.16 166.16L145.64 166.16L145.64 103.16L154.16 103.16L154.16 166.16ZM149.96 89.24L149.96 89.24Q147.32 89.24 145.52 87.44Q143.72 85.64 143.72 83.12L143.72 83.12Q143.72 80.60 145.52 78.86Q147.32 77.12 149.96 77.12L149.96 77.12Q152.60 77.12 154.40 78.80Q156.20 80.48 156.20 83L156.20 83Q156.20 85.64 154.46 87.44Q152.72 89.24 149.96 89.24ZM197.84 166.76L197.84 166.76Q188.96 166.76 184.16 161.96Q179.36 157.16 179.36 148.40L179.36 148.40L179.36 89.24L187.88 89.24L187.88 147.92Q187.88 153.44 190.70 156.44Q193.52 159.44 198.80 159.44L198.80 159.44Q204.44 159.44 208.16 156.20L208.16 156.20L211.16 162.32Q208.64 164.60 205.10 165.68Q201.56 166.76 197.84 166.76ZM207.08 110.24L168.08 110.24L168.08 103.16L207.08 103.16L207.08 110.24ZM274.28 166.16L266.12 166.16L266.12 152.24L265.76 149.96L265.76 126.68Q265.76 118.64 261.26 114.32Q256.76 110 247.88 110L247.88 110Q241.76 110 236.24 112.04Q230.72 114.08 226.88 117.44L226.88 117.44L223.04 111.08Q227.84 107 234.56 104.78Q241.28 102.56 248.72 102.56L248.72 102.56Q260.96 102.56 267.62 108.62Q274.28 114.68 274.28 127.04L274.28 127.04L274.28 166.16ZM244.40 166.76L244.40 166.76Q237.32 166.76 232.10 164.42Q226.88 162.08 224.12 157.94Q221.36 153.80 221.36 148.40L221.36 148.40Q221.36 143.48 223.70 139.46Q226.04 135.44 231.38 132.98Q236.72 130.52 245.72 130.52L245.72 130.52L267.44 130.52L267.44 136.88L245.96 136.88Q236.84 136.88 233.30 140.12Q229.76 143.36 229.76 148.16L229.76 148.16Q229.76 153.56 233.96 156.80Q238.16 160.04 245.72 160.04L245.72 160.04Q252.92 160.04 258.14 156.74Q263.36 153.44 265.76 147.20L265.76 147.20L267.68 153.08Q265.28 159.32 259.34 163.04Q253.40 166.76 244.40 166.76ZM305.96 166.16L297.44 166.16L297.44 77.12L305.96 77.12L305.96 166.16ZM338.24 166.16L329.72 166.16L329.72 103.16L338.24 103.16L338.24 166.16ZM334.04 89.24L334.04 89.24Q331.40 89.24 329.60 87.44Q327.80 85.64 327.80 83.12L327.80 83.12Q327.80 80.60 329.60 78.86Q331.40 77.12 334.04 77.12L334.04 77.12Q336.68 77.12 338.48 78.80Q340.28 80.48 340.28 83L340.28 83Q340.28 85.64 338.54 87.44Q336.80 89.24 334.04 89.24ZM386.96 166.88L386.96 166.88Q377.60 166.88 369.02 163.82Q360.44 160.76 355.76 155.96L355.76 155.96L359.24 149.12Q363.68 153.44 371.18 156.38Q378.68 159.32 386.96 159.32L386.96 159.32Q394.88 159.32 399.86 157.34Q404.84 155.36 407.18 152Q409.52 148.64 409.52 144.56L409.52 144.56Q409.52 139.64 406.70 136.64Q403.88 133.64 399.32 131.90Q394.76 130.16 389.24 128.84Q383.72 127.52 378.20 126.02Q372.68 124.52 368.06 122Q363.44 119.48 360.62 115.34Q357.80 111.20 357.80 104.48L357.80 104.48Q357.80 98.24 361.10 93.02Q364.40 87.80 371.24 84.62Q378.08 81.44 388.76 81.44L388.76 81.44Q395.84 81.44 402.80 83.42Q409.76 85.40 414.80 88.88L414.80 88.88L411.80 95.96Q406.40 92.36 400.34 90.68Q394.28 89 388.64 89L388.64 89Q381.08 89 376.16 91.04Q371.24 93.08 368.90 96.50Q366.56 99.92 366.56 104.24L366.56 104.24Q366.56 109.16 369.38 112.16Q372.20 115.16 376.82 116.84Q381.44 118.52 386.96 119.84Q392.48 121.16 397.94 122.72Q403.40 124.28 408.02 126.74Q412.64 129.20 415.46 133.28Q418.28 137.36 418.28 143.96L418.28 143.96Q418.28 150.08 414.92 155.30Q411.56 160.52 404.66 163.70Q397.76 166.88 386.96 166.88ZM468.32 166.76L468.32 166.76Q460.16 166.76 453.56 162.98Q446.96 159.20 443.06 152.06Q439.16 144.92 439.16 134.60L439.16 134.60Q439.16 124.28 443 117.14Q446.84 110 453.44 106.28Q460.04 102.56 468.32 102.56L468.32 102.56Q477.32 102.56 484.46 106.58Q491.60 110.60 495.68 117.86Q499.76 125.12 499.76 134.60L499.76 134.60Q499.76 144.20 495.68 151.40Q491.60 158.60 484.46 162.68Q477.32 166.76 468.32 166.76ZM444.32 189.44L435.80 189.44L435.80 103.16L443.96 103.16L443.96 122.12L443.12 134.72L444.32 147.44L444.32 189.44ZM467.72 159.20L467.72 159.20Q474.44 159.20 479.72 156.14Q485 153.08 488.12 147.50Q491.24 141.92 491.24 134.60L491.24 134.60Q491.24 127.28 488.12 121.76Q485 116.24 479.72 113.12Q474.44 110 467.72 110L467.72 110Q461 110 455.66 113.12Q450.32 116.24 447.26 121.76Q444.20 127.28 444.20 134.60L444.20 134.60Q444.20 141.92 447.26 147.50Q450.32 153.08 455.66 156.14Q461 159.20 467.72 159.20ZM564.80 166.16L556.64 166.16L556.64 152.24L556.28 149.96L556.28 126.68Q556.28 118.64 551.78 114.32Q547.28 110 538.40 110L538.40 110Q532.28 110 526.76 112.04Q521.24 114.08 517.40 117.44L517.40 117.44L513.56 111.08Q518.36 107 525.08 104.78Q531.80 102.56 539.24 102.56L539.24 102.56Q551.48 102.56 558.14 108.62Q564.80 114.68 564.80 127.04L564.80 127.04L564.80 166.16ZM534.92 166.76L534.92 166.76Q527.84 166.76 522.62 164.42Q517.40 162.08 514.64 157.94Q511.88 153.80 511.88 148.40L511.88 148.40Q511.88 143.48 514.22 139.46Q516.56 135.44 521.90 132.98Q527.24 130.52 536.24 130.52L536.24 130.52L557.96 130.52L557.96 136.88L536.48 136.88Q527.36 136.88 523.82 140.12Q520.28 143.36 520.28 148.16L520.28 148.16Q520.28 153.56 524.48 156.80Q528.68 160.04 536.24 160.04L536.24 160.04Q543.44 160.04 548.66 156.74Q553.88 153.44 556.28 147.20L556.28 147.20L558.20 153.08Q555.80 159.32 549.86 163.04Q543.92 166.76 534.92 166.76ZM588.80 115.64L588.80 115.64Q586.16 115.64 584.30 113.72Q582.44 111.80 582.44 109.04L582.44 109.04Q582.44 106.16 584.30 104.36Q586.16 102.56 588.80 102.56L588.80 102.56Q591.44 102.56 593.30 104.36Q595.16 106.16 595.16 109.04L595.16 109.04Q595.16 111.80 593.30 113.72Q591.44 115.64 588.80 115.64ZM588.80 166.76L588.80 166.76Q586.16 166.76 584.30 164.84Q582.44 162.92 582.44 160.16L582.44 160.16Q582.44 157.28 584.30 155.48Q586.16 153.68 588.80 153.68L588.80 153.68Q591.44 153.68 593.30 155.48Q595.16 157.28 595.16 160.16L595.16 160.16Q595.16 162.92 593.30 164.84Q591.44 166.76 588.80 166.76ZM671.84 166.16L662.96 166.16L662.96 89.84L633.44 89.84L633.44 82.16L701.36 82.16L701.36 89.84L671.84 89.84L671.84 166.16ZM722.24 166.16L713.72 166.16L713.72 77.12L722.24 77.12L722.24 120.44L720.56 117.20Q723.56 110.36 730.16 106.46Q736.76 102.56 745.88 102.56L745.88 102.56Q753.56 102.56 759.38 105.50Q765.20 108.44 768.50 114.44Q771.80 120.44 771.80 129.56L771.80 129.56L771.80 166.16L763.28 166.16L763.28 130.40Q763.28 120.44 758.30 115.34Q753.32 110.24 744.32 110.24L744.32 110.24Q737.60 110.24 732.62 112.94Q727.64 115.64 724.94 120.74Q722.24 125.84 722.24 133.04L722.24 133.04L722.24 166.16ZM821.60 166.76L821.60 166.76Q811.76 166.76 804.32 162.62Q796.88 158.48 792.68 151.22Q788.48 143.96 788.48 134.60L788.48 134.60Q788.48 125.24 792.50 118.04Q796.52 110.84 803.54 106.70Q810.56 102.56 819.32 102.56L819.32 102.56Q828.20 102.56 835.10 106.58Q842 110.60 845.96 117.86Q849.92 125.12 849.92 134.60L849.92 134.60Q849.92 135.20 849.86 135.86Q849.80 136.52 849.80 137.24L849.80 137.24L794.96 137.24L794.96 130.88L845.24 130.88L841.88 133.40Q841.88 126.56 838.94 121.22Q836 115.88 830.96 112.88Q825.92 109.88 819.32 109.88L819.32 109.88Q812.84 109.88 807.68 112.88Q802.52 115.88 799.64 121.28Q796.76 126.68 796.76 133.64L796.76 133.64L796.76 134.96Q796.76 142.16 799.94 147.62Q803.12 153.08 808.82 156.14Q814.52 159.20 821.84 159.20L821.84 159.20Q827.60 159.20 832.58 157.16Q837.56 155.12 841.16 150.92L841.16 150.92L845.96 156.44Q841.76 161.48 835.46 164.12Q829.16 166.76 821.60 166.76ZM928.88 166.16L919.64 166.16L891.32 82.16L900.44 82.16L926.96 161.24L922.40 161.24L949.76 82.16L957.92 82.16L984.92 161.24L980.60 161.24L1007.36 82.16L1015.88 82.16L987.56 166.16L978.20 166.16L952.40 91.16L954.80 91.16L928.88 166.16ZM1058.84 166.76L1058.84 166.76Q1049 166.76 1041.56 162.62Q1034.12 158.48 1029.92 151.22Q1025.72 143.96 1025.72 134.60L1025.72 134.60Q1025.72 125.24 1029.74 118.04Q1033.76 110.84 1040.78 106.70Q1047.80 102.56 1056.56 102.56L1056.56 102.56Q1065.44 102.56 1072.34 106.58Q1079.24 110.60 1083.20 117.86Q1087.16 125.12 1087.16 134.60L1087.16 134.60Q1087.16 135.20 1087.10 135.86Q1087.04 136.52 1087.04 137.24L1087.04 137.24L1032.20 137.24L1032.20 130.88L1082.48 130.88L1079.12 133.40Q1079.12 126.56 1076.18 121.22Q1073.24 115.88 1068.20 112.88Q1063.16 109.88 1056.56 109.88L1056.56 109.88Q1050.08 109.88 1044.92 112.88Q1039.76 115.88 1036.88 121.28Q1034 126.68 1034 133.64L1034 133.64L1034 134.96Q1034 142.16 1037.18 147.62Q1040.36 153.08 1046.06 156.14Q1051.76 159.20 1059.08 159.20L1059.08 159.20Q1064.84 159.20 1069.82 157.16Q1074.80 155.12 1078.40 150.92L1078.40 150.92L1083.20 156.44Q1079 161.48 1072.70 164.12Q1066.40 166.76 1058.84 166.76ZM1113.08 166.16L1104.56 166.16L1104.56 77.12L1113.08 77.12L1113.08 166.16ZM1145.36 166.16L1136.84 166.16L1136.84 77.12L1145.36 77.12L1145.36 166.16ZM1177.64 166.16L1169.12 166.16L1169.12 103.16L1177.28 103.16L1177.28 120.44L1175.96 117.20Q1178.96 110.36 1185.56 106.46Q1192.16 102.56 1201.28 102.56L1201.28 102.56Q1208.96 102.56 1214.78 105.50Q1220.60 108.44 1223.90 114.44Q1227.20 120.44 1227.20 129.56L1227.20 129.56L1227.20 166.16L1218.68 166.16L1218.68 130.40Q1218.68 120.44 1213.70 115.34Q1208.72 110.24 1199.72 110.24L1199.72 110.24Q1193 110.24 1188.02 112.94Q1183.04 115.64 1180.34 120.74Q1177.64 125.84 1177.64 133.04L1177.64 133.04L1177.64 166.16ZM1277 166.76L1277 166.76Q1267.16 166.76 1259.72 162.62Q1252.28 158.48 1248.08 151.22Q1243.88 143.96 1243.88 134.60L1243.88 134.60Q1243.88 125.24 1247.90 118.04Q1251.92 110.84 1258.94 106.70Q1265.96 102.56 1274.72 102.56L1274.72 102.56Q1283.60 102.56 1290.50 106.58Q1297.40 110.60 1301.36 117.86Q1305.32 125.12 1305.32 134.60L1305.32 134.60Q1305.32 135.20 1305.26 135.86Q1305.20 136.52 1305.20 137.24L1305.20 137.24L1250.36 137.24L1250.36 130.88L1300.64 130.88L1297.28 133.40Q1297.28 126.56 1294.34 121.22Q1291.40 115.88 1286.36 112.88Q1281.32 109.88 1274.72 109.88L1274.72 109.88Q1268.24 109.88 1263.08 112.88Q1257.92 115.88 1255.04 121.28Q1252.16 126.68 1252.16 133.64L1252.16 133.64L1252.16 134.96Q1252.16 142.16 1255.34 147.62Q1258.52 153.08 1264.22 156.14Q1269.92 159.20 1277.24 159.20L1277.24 159.20Q1283 159.20 1287.98 157.16Q1292.96 155.12 1296.56 150.92L1296.56 150.92L1301.36 156.44Q1297.16 161.48 1290.86 164.12Q1284.56 166.76 1277 166.76ZM1339.64 166.76L1339.64 166.76Q1331.84 166.76 1324.88 164.54Q1317.92 162.32 1313.96 158.96L1313.96 158.96L1317.80 152.24Q1321.64 155.12 1327.64 157.22Q1333.64 159.32 1340.24 159.32L1340.24 159.32Q1349.24 159.32 1353.20 156.50Q1357.16 153.68 1357.16 149L1357.16 149Q1357.16 145.52 1354.94 143.54Q1352.72 141.56 1349.12 140.54Q1345.52 139.52 1341.08 138.80Q1336.64 138.08 1332.26 137.12Q1327.88 136.16 1324.28 134.30Q1320.68 132.44 1318.46 129.20Q1316.24 125.96 1316.24 120.56L1316.24 120.56Q1316.24 115.40 1319.12 111.32Q1322 107.24 1327.58 104.90Q1333.16 102.56 1341.20 102.56L1341.20 102.56Q1347.32 102.56 1353.44 104.18Q1359.56 105.80 1363.52 108.44L1363.52 108.44L1359.80 115.28Q1355.60 112.40 1350.80 111.14Q1346 109.88 1341.20 109.88L1341.20 109.88Q1332.68 109.88 1328.66 112.82Q1324.64 115.76 1324.64 120.32L1324.64 120.32Q1324.64 123.92 1326.86 125.96Q1329.08 128 1332.74 129.14Q1336.40 130.28 1340.78 131Q1345.16 131.72 1349.54 132.74Q1353.92 133.76 1357.58 135.50Q1361.24 137.24 1363.46 140.42Q1365.68 143.60 1365.68 148.76L1365.68 148.76Q1365.68 154.28 1362.62 158.30Q1359.56 162.32 1353.74 164.54Q1347.92 166.76 1339.64 166.76ZM1398.20 166.76L1398.20 166.76Q1390.40 166.76 1383.44 164.54Q1376.48 162.32 1372.52 158.96L1372.52 158.96L1376.36 152.24Q1380.20 155.12 1386.20 157.22Q1392.20 159.32 1398.80 159.32L1398.80 159.32Q1407.80 159.32 1411.76 156.50Q1415.72 153.68 1415.72 149L1415.72 149Q1415.72 145.52 1413.50 143.54Q1411.28 141.56 1407.68 140.54Q1404.08 139.52 1399.64 138.80Q1395.20 138.08 1390.82 137.12Q1386.44 136.16 1382.84 134.30Q1379.24 132.44 1377.02 129.20Q1374.80 125.96 1374.80 120.56L1374.80 120.56Q1374.80 115.40 1377.68 111.32Q1380.56 107.24 1386.14 104.90Q1391.72 102.56 1399.76 102.56L1399.76 102.56Q1405.88 102.56 1412.00 104.18Q1418.12 105.80 1422.08 108.44L1422.08 108.44L1418.36 115.28Q1414.16 112.40 1409.36 111.14Q1404.56 109.88 1399.76 109.88L1399.76 109.88Q1391.24 109.88 1387.22 112.82Q1383.20 115.76 1383.20 120.32L1383.20 120.32Q1383.20 123.92 1385.42 125.96Q1387.64 128 1391.30 129.14Q1394.96 130.28 1399.34 131Q1403.72 131.72 1408.10 132.74Q1412.48 133.76 1416.14 135.50Q1419.80 137.24 1422.02 140.42Q1424.24 143.60 1424.24 148.76L1424.24 148.76Q1424.24 154.28 1421.18 158.30Q1418.12 162.32 1412.30 164.54Q1406.48 166.76 1398.20 166.76ZM1509.80 166.88L1509.80 166.88Q1500.32 166.88 1492.22 163.70Q1484.12 160.52 1478.18 154.70Q1472.24 148.88 1468.94 141.14Q1465.64 133.40 1465.64 124.16L1465.64 124.16Q1465.64 114.92 1468.94 107.18Q1472.24 99.44 1478.18 93.62Q1484.12 87.80 1492.16 84.62Q1500.20 81.44 1509.80 81.44L1509.80 81.44Q1519.28 81.44 1527.32 84.62Q1535.36 87.80 1541.30 93.56Q1547.24 99.32 1550.54 107.12Q1553.84 114.92 1553.84 124.16L1553.84 124.16Q1553.84 133.40 1550.54 141.20Q1547.24 149 1541.30 154.76Q1535.36 160.52 1527.32 163.70Q1519.28 166.88 1509.80 166.88ZM1509.80 158.96L1509.80 158.96Q1517.36 158.96 1523.78 156.38Q1530.20 153.80 1534.94 149.06Q1539.68 144.32 1542.32 138.02Q1544.96 131.72 1544.96 124.16L1544.96 124.16Q1544.96 116.60 1542.32 110.30Q1539.68 104 1534.94 99.26Q1530.20 94.52 1523.78 91.94Q1517.36 89.36 1509.80 89.36L1509.80 89.36Q1502.24 89.36 1495.76 91.94Q1489.28 94.52 1484.54 99.26Q1479.80 104 1477.10 110.30Q1474.40 116.60 1474.40 124.16L1474.40 124.16Q1474.40 131.60 1477.10 137.96Q1479.80 144.32 1484.54 149.06Q1489.28 153.80 1495.76 156.38Q1502.24 158.96 1509.80 158.96ZM1619.60 166.16L1611.44 166.16L1611.44 152.24L1611.08 149.96L1611.08 126.68Q1611.08 118.64 1606.58 114.32Q1602.08 110 1593.20 110L1593.20 110Q1587.08 110 1581.56 112.04Q1576.04 114.08 1572.20 117.44L1572.20 117.44L1568.36 111.08Q1573.16 107 1579.88 104.78Q1586.60 102.56 1594.04 102.56L1594.04 102.56Q1606.28 102.56 1612.94 108.62Q1619.60 114.68 1619.60 127.04L1619.60 127.04L1619.60 166.16ZM1589.72 166.76L1589.72 166.76Q1582.64 166.76 1577.42 164.42Q1572.20 162.08 1569.44 157.94Q1566.68 153.80 1566.68 148.40L1566.68 148.40Q1566.68 143.48 1569.02 139.46Q1571.36 135.44 1576.70 132.98Q1582.04 130.52 1591.04 130.52L1591.04 130.52L1612.76 130.52L1612.76 136.88L1591.28 136.88Q1582.16 136.88 1578.62 140.12Q1575.08 143.36 1575.08 148.16L1575.08 148.16Q1575.08 153.56 1579.28 156.80Q1583.48 160.04 1591.04 160.04L1591.04 160.04Q1598.24 160.04 1603.46 156.74Q1608.68 153.44 1611.08 147.20L1611.08 147.20L1613 153.08Q1610.60 159.32 1604.66 163.04Q1598.72 166.76 1589.72 166.76ZM1659.68 166.76L1659.68 166.76Q1651.88 166.76 1644.92 164.54Q1637.96 162.32 1634.00 158.96L1634.00 158.96L1637.84 152.24Q1641.68 155.12 1647.68 157.22Q1653.68 159.32 1660.28 159.32L1660.28 159.32Q1669.28 159.32 1673.24 156.50Q1677.20 153.68 1677.20 149L1677.20 149Q1677.20 145.52 1674.98 143.54Q1672.76 141.56 1669.16 140.54Q1665.56 139.52 1661.12 138.80Q1656.68 138.08 1652.30 137.12Q1647.92 136.16 1644.32 134.30Q1640.72 132.44 1638.50 129.20Q1636.28 125.96 1636.28 120.56L1636.28 120.56Q1636.28 115.40 1639.16 111.32Q1642.04 107.24 1647.62 104.90Q1653.20 102.56 1661.24 102.56L1661.24 102.56Q1667.36 102.56 1673.48 104.18Q1679.60 105.80 1683.56 108.44L1683.56 108.44L1679.84 115.28Q1675.64 112.40 1670.84 111.14Q1666.04 109.88 1661.24 109.88L1661.24 109.88Q1652.72 109.88 1648.70 112.82Q1644.68 115.76 1644.68 120.32L1644.68 120.32Q1644.68 123.92 1646.90 125.96Q1649.12 128 1652.78 129.14Q1656.44 130.28 1660.82 131Q1665.20 131.72 1669.58 132.74Q1673.96 133.76 1677.62 135.50Q1681.28 137.24 1683.50 140.42Q1685.72 143.60 1685.72 148.76L1685.72 148.76Q1685.72 154.28 1682.66 158.30Q1679.60 162.32 1673.78 164.54Q1667.96 166.76 1659.68 166.76ZM1709.84 166.16L1701.32 166.16L1701.32 103.16L1709.84 103.16L1709.84 166.16ZM1705.64 89.24L1705.64 89.24Q1703.00 89.24 1701.20 87.44Q1699.40 85.64 1699.40 83.12L1699.40 83.12Q1699.40 80.60 1701.20 78.86Q1703.00 77.12 1705.64 77.12L1705.64 77.12Q1708.28 77.12 1710.08 78.80Q1711.88 80.48 1711.88 83L1711.88 83Q1711.88 85.64 1710.14 87.44Q1708.40 89.24 1705.64 89.24ZM1750.52 166.76L1750.52 166.76Q1742.72 166.76 1735.76 164.54Q1728.80 162.32 1724.84 158.96L1724.84 158.96L1728.68 152.24Q1732.52 155.12 1738.52 157.22Q1744.52 159.32 1751.12 159.32L1751.12 159.32Q1760.12 159.32 1764.08 156.50Q1768.04 153.68 1768.04 149L1768.04 149Q1768.04 145.52 1765.82 143.54Q1763.60 141.56 1760.00 140.54Q1756.40 139.52 1751.96 138.80Q1747.52 138.08 1743.14 137.12Q1738.76 136.16 1735.16 134.30Q1731.56 132.44 1729.34 129.20Q1727.12 125.96 1727.12 120.56L1727.12 120.56Q1727.12 115.40 1730.00 111.32Q1732.88 107.24 1738.46 104.90Q1744.04 102.56 1752.08 102.56L1752.08 102.56Q1758.20 102.56 1764.32 104.18Q1770.44 105.80 1774.40 108.44L1774.40 108.44L1770.68 115.28Q1766.48 112.40 1761.68 111.14Q1756.88 109.88 1752.08 109.88L1752.08 109.88Q1743.56 109.88 1739.54 112.82Q1735.52 115.76 1735.52 120.32L1735.52 120.32Q1735.52 123.92 1737.74 125.96Q1739.96 128 1743.62 129.14Q1747.28 130.28 1751.66 131Q1756.04 131.72 1760.42 132.74Q1764.80 133.76 1768.46 135.50Q1772.12 137.24 1774.34 140.42Q1776.56 143.60 1776.56 148.76L1776.56 148.76Q1776.56 154.28 1773.50 158.30Q1770.44 162.32 1764.62 164.54Q1758.80 166.76 1750.52 166.76Z"/>
      </svg>
    