
      <svg width="1295.8000000000002" height="251.2" viewBox="0 0 1295.8000000000002 251.2" xmlns="http://www.w3.org/2000/svg">
        <rect width="100%" height="100%" fill="#ea0b0b" />
        <path fill="#000000" d="M81.20 172.16L81.20 172.16Q80.60 171.92 80.36 171.44Q80.12 170.96 79.88 169.52L79.88 169.52Q79.88 168.20 79.16 167.60Q78.44 167 76.40 166.52L76.40 166.52Q75.08 165.20 74.48 163.52Q73.88 161.84 73.58 158Q73.28 154.16 72.80 146.48L72.80 146.48Q73.04 142.28 73.22 139.40Q73.40 136.52 73.64 134Q73.88 131.48 74.18 128.60Q74.48 125.72 75.08 121.40L75.08 121.40Q74.84 118.64 75.38 115.40Q75.92 112.16 75.56 110.24L75.56 110.24Q76.40 107.60 76.64 104.18Q76.88 100.76 77.72 98.12L77.72 98.12Q77.96 96.08 78.26 94.28Q78.56 92.48 78.56 91.28L78.56 91.28Q78.32 88.88 78.80 86.84Q79.28 84.80 80.72 84.20L80.72 84.20Q81.44 83.96 82.76 83.84Q84.08 83.72 84.68 84.20L84.68 84.20Q85.64 84.68 86 85.76Q86.36 86.84 86.24 88.16L86.24 88.16Q86.48 89.48 86.30 92.72Q86.12 95.96 85.64 99.86Q85.16 103.76 84.32 107.48L84.32 107.48Q83.36 112.40 82.82 117.50Q82.28 122.60 82.04 127.52L82.04 127.52Q81.56 137.36 81.08 143.84Q80.60 150.32 80.96 153.20L80.96 153.20Q80.96 153.56 81.20 155.12Q81.44 156.68 81.80 158.06Q82.16 159.44 82.52 159.44L82.52 159.44Q83.48 159.32 84.38 157.76Q85.28 156.20 86.06 154.10Q86.84 152 87.56 150.44L87.56 150.44Q89.12 147.44 90.74 143.90Q92.36 140.36 93.56 137.12L93.56 137.12Q95.72 132.08 97.88 128.48Q100.04 124.88 101.96 120.44L101.96 120.44Q102.68 118.52 104.54 114.86Q106.40 111.20 108.08 108.08L108.08 108.08Q110.12 104.96 111.98 102.08Q113.84 99.20 116.36 94.40L116.36 94.40Q119.84 88.64 121.76 86.48Q123.68 84.32 125.60 84.32L125.60 84.32Q126.92 84.08 127.22 84.26Q127.52 84.44 128.36 85.64L128.36 85.64Q129.32 86.96 129.38 88.34Q129.44 89.72 128.18 92.12Q126.92 94.52 123.80 98.96L123.80 98.96Q121.40 102.56 118.46 107.36Q115.52 112.16 113.06 116.42Q110.60 120.68 109.52 122.72L109.52 122.72Q108.92 124.04 108.44 125.48Q107.96 126.92 107 128.12L107 128.12Q105.80 129.32 103.76 133.28Q101.72 137.24 99.80 141.08L99.80 141.08Q97.64 146.12 96.38 148.94Q95.12 151.76 94.34 153.56Q93.56 155.36 92.84 157.04Q92.12 158.72 91.04 161.24L91.04 161.24Q90.44 163.28 89.42 165.50Q88.40 167.72 88.28 168.44L88.28 168.44Q87.44 169.76 86.06 170.78Q84.68 171.80 83.36 172.16Q82.04 172.52 81.20 172.16ZM122.12 161.36L122.12 161.36Q121.16 160.40 120.74 158.96Q120.32 157.52 120.44 156.08Q120.56 154.64 121.04 153.68L121.04 153.68Q121.04 152.72 121.34 152.18Q121.64 151.64 121.52 151.16L121.52 151.16Q121.40 150.68 121.76 149.48Q122.12 148.28 122.48 147.20L122.48 147.20Q123.32 145.28 124.28 142.58Q125.24 139.88 126.08 137.24Q126.92 134.60 127.52 132.68Q128.12 130.76 128.24 130.28L128.24 130.28Q128.24 128.84 130.16 128.72L130.16 128.72Q131.60 128.24 132.32 128.66Q133.04 129.08 134.24 131L134.24 131Q135.20 131.96 134.96 133.88Q134.72 135.80 133.40 138.68L133.40 138.68Q132.92 139.64 132.26 141.44Q131.60 143.24 131.36 144.68L131.36 144.68Q130.88 145.64 130.22 147.38Q129.56 149.12 129.08 150.68L129.08 150.68Q128.84 151.28 128.60 152.42Q128.36 153.56 128 154.82Q127.64 156.08 127.04 157.04L127.04 157.04Q125.96 161.96 125.06 162.80Q124.16 163.64 122.12 161.36ZM133.76 112.64L133.76 112.64Q133.16 112.04 132.68 110.90Q132.20 109.76 132.08 108.74Q131.96 107.72 132.32 107.72L132.32 107.72Q133.28 107.60 134.60 105.68Q135.92 103.76 135.68 102.32L135.68 102.32Q135.68 101.84 136.04 101.42Q136.40 101.00 136.88 100.88L136.88 100.88Q138.32 99.92 139.70 100.58Q141.08 101.24 142.28 103.16L142.28 103.16Q143.36 105.44 142.88 106.94Q142.40 108.44 140.24 111.08L140.24 111.08Q138.44 113.48 136.94 113.72Q135.44 113.96 133.76 112.64ZM152.72 164.36L152.72 164.36Q151.40 164.12 150.02 162.98Q148.64 161.84 147.62 160.34Q146.60 158.84 146.24 157.64L146.24 157.64Q146.24 157.40 145.94 157.04Q145.64 156.68 145.64 156.68L145.64 156.68Q145.16 156.32 145.10 153.50Q145.04 150.68 145.40 147.20Q145.76 143.72 146.24 141.68L146.24 141.68Q146.84 139.76 148.04 136.46Q149.24 133.16 150.08 130.52L150.08 130.52L153.32 123.56L148.52 122.24Q147.68 122 147.14 121.28Q146.60 120.56 146.60 120.08L146.60 120.08Q146.60 119.12 147.68 117.74Q148.76 116.36 149.24 116.36L149.24 116.36Q149.84 116.48 151.46 116.48Q153.08 116.48 154.64 116.36Q156.20 116.24 156.56 116.12L156.56 116.12Q157.04 115.88 157.52 115.46Q158 115.04 158.24 114.20L158.24 114.20Q158.84 112.88 159.32 111.74Q159.80 110.60 160.64 109.16L160.64 109.16Q161.48 107.60 162.02 106.52Q162.56 105.44 163.76 103.52L163.76 103.52Q164.36 102.68 165.08 101.48Q165.80 100.28 166.88 99.44L166.88 99.44Q167.96 98.48 169.10 98.54Q170.24 98.60 172.04 100.16L172.04 100.16Q173 101.36 173.12 101.96Q173.24 102.56 172.16 104.24L172.16 104.24Q171.20 106.28 169.94 108.32Q168.68 110.36 167.60 112.40L167.60 112.40Q165.68 115.04 166.88 115.40Q168.08 115.76 173.60 114.92L173.60 114.92Q177.08 114.32 178.64 115.22Q180.20 116.12 180.44 118.16L180.44 118.16Q180.80 121.04 179.84 121.64Q178.88 122.24 174.32 122.24L174.32 122.24Q171.44 122.72 169.40 122.78Q167.36 122.84 166.40 122.84L166.40 122.84Q164.84 122.96 164.36 122.96Q163.88 122.96 162.92 123.20L162.92 123.20Q161.96 123.44 161.54 123.98Q161.12 124.52 160.64 125.48L160.64 125.48Q160.16 125.96 159.20 128Q158.24 130.04 156.80 132.44L156.80 132.44Q155.12 137.48 153.92 142.46Q152.72 147.44 152 152.12L152 152.12Q151.52 155.12 152.12 156.26Q152.72 157.40 155.24 157.64L155.24 157.64Q156.56 157.76 159.50 157.58Q162.44 157.40 164.12 156.92L164.12 156.92Q165.44 156.32 166.88 155.66Q168.32 155 169.52 154.28L169.52 154.28Q170.60 153.68 171.68 153.02Q172.76 152.36 172.76 152.36L172.76 152.36Q173.36 151.40 174.08 151.76Q174.80 152.12 175.28 153.56L175.28 153.56Q175.28 155 174.68 156.56Q174.08 158.12 170.24 160.28L170.24 160.28Q164.84 163.64 160.34 164.30Q155.84 164.96 152.72 164.36ZM183.80 160.88L183.80 160.88Q183.32 159.92 182.60 159.38Q181.88 158.84 181.88 158.36L181.88 158.36Q181.88 157.88 181.82 157.34Q181.76 156.80 181.28 156.32L181.28 156.32Q180.68 155.60 181.40 153.02Q182.12 150.44 183.80 146.66Q185.48 142.88 187.76 138.68L187.76 138.68Q188.72 137.72 189.68 136.16Q190.64 134.60 191.12 134.12L191.12 134.12Q191.12 133.64 191.48 133.22Q191.84 132.80 192.32 132.80L192.32 132.80L192.32 132.08Q192.32 131.48 193.46 130.04Q194.60 128.60 196.28 126.86Q197.96 125.12 199.76 123.50Q201.56 121.88 202.76 121.16L202.76 121.16Q205.28 119.48 207.98 119.12Q210.68 118.76 212.60 120.32L212.60 120.32Q212.96 120.68 213.80 121.52Q214.64 122.36 215.78 123.38Q216.92 124.40 218.12 125.48L218.12 125.48L222.56 129.44L220.40 135.44Q218.84 140.24 219.62 143.84Q220.40 147.44 221.96 150.08L221.96 150.08Q222.56 151.40 224.42 152.60Q226.28 153.80 227.96 154.04L227.96 154.04Q228.92 154.16 229.76 154.76Q230.60 155.36 230.60 156.68L230.60 156.68Q230.60 157.88 230.12 158.60Q229.64 159.32 228.44 159.56L228.44 159.56Q224.48 160.04 221.06 157.64Q217.64 155.24 214.76 149.72L214.76 149.72Q214.28 149 213.50 147.02Q212.72 145.04 212.60 144.44L212.60 144.44Q212.12 145.04 210.80 146.66Q209.48 148.28 208.76 149L208.76 149Q200.24 157.64 194.06 160.58Q187.88 163.52 183.80 160.88ZM188.12 154.16L188.12 154.16Q188.12 155 190.70 154.10Q193.28 153.20 196.28 150.80L196.28 150.80Q200.36 147.32 204.50 143.12Q208.64 138.92 211.16 135.32L211.16 135.32L213.80 131Q212.60 128.24 211.22 127.22Q209.84 126.20 208.88 126.20L208.88 126.20Q207.32 126.20 204.26 129.08Q201.20 131.96 197.72 136.76Q194.24 141.56 191.12 147.32L191.12 147.32Q189.92 149.72 189.02 151.94Q188.12 154.16 188.12 154.16ZM239 165.20L239 165.20Q236.72 165.80 235.34 164.24Q233.96 162.68 233.72 159.44Q233.48 156.20 234.44 151.76L234.44 151.76Q235.04 150.32 235.40 148.94Q235.76 147.56 235.76 146.72L235.76 146.72Q236 145.52 236.72 143.18Q237.44 140.84 238.28 138.32Q239.12 135.80 239.90 133.82Q240.68 131.84 240.92 131.36L240.92 131.36Q241.40 131.36 241.76 130.52Q242.12 129.68 242.12 128.84L242.12 128.84Q242.12 127.88 242.54 126.68Q242.96 125.48 243.44 125L243.44 125Q243.44 124.40 243.74 123.62Q244.04 122.84 244.04 122.36L244.04 122.36Q244.04 121.88 244.34 121.40Q244.64 120.92 244.64 120.44L244.64 120.44Q245.48 118.88 246.86 115.46Q248.24 112.04 249.86 107.84Q251.48 103.64 252.92 99.56Q254.36 95.48 255.26 92.66Q256.16 89.84 256.16 89.24L256.16 89.24Q256.16 88.28 256.64 87.80Q257.12 87.32 258.08 87.32L258.08 87.32Q258.44 86.96 258.98 86.84Q259.52 86.72 260 86.72L260 86.72Q260 86.72 260.48 87.20Q260.96 87.68 261.92 88.64L261.92 88.64Q262.88 89.48 263.06 90.56Q263.24 91.64 263.24 93.08L263.24 93.08Q263.24 94.64 262.88 95.84Q262.52 97.04 261.44 99.32Q260.36 101.60 258.08 106.40L258.08 106.40Q257.12 108.80 256.04 110.90Q254.96 113 254.96 113.48L254.96 113.48Q254.96 113.96 254.54 114.92Q254.12 115.88 253.64 117.32L253.64 117.32Q253.16 118.28 252.32 120.14Q251.48 122 250.58 124.10Q249.68 126.20 249.08 127.70Q248.48 129.20 248.48 129.44L248.48 129.44Q248.48 129.92 248.42 130.40Q248.36 130.88 247.88 131.36L247.88 131.36Q247.40 131.36 247.34 132.02Q247.28 132.68 247.28 132.68L247.28 132.68Q247.28 133.88 245.36 139.04L245.36 139.04Q243.44 145.64 241.82 151.16Q240.20 156.68 240.20 160.04L240.20 160.04Q240.20 162.92 240.08 163.82Q239.96 164.72 239 165.20ZM257 161.36L257 161.36Q256.04 160.40 255.62 158.96Q255.20 157.52 255.32 156.08Q255.44 154.64 255.92 153.68L255.92 153.68Q255.92 152.72 256.22 152.18Q256.52 151.64 256.40 151.16L256.40 151.16Q256.28 150.68 256.64 149.48Q257 148.28 257.36 147.20L257.36 147.20Q258.20 145.28 259.16 142.58Q260.12 139.88 260.96 137.24Q261.80 134.60 262.40 132.68Q263 130.76 263.12 130.28L263.12 130.28Q263.12 128.84 265.04 128.72L265.04 128.72Q266.48 128.24 267.20 128.66Q267.92 129.08 269.12 131L269.12 131Q270.08 131.96 269.84 133.88Q269.60 135.80 268.28 138.68L268.28 138.68Q267.80 139.64 267.14 141.44Q266.48 143.24 266.24 144.68L266.24 144.68Q265.76 145.64 265.10 147.38Q264.44 149.12 263.96 150.68L263.96 150.68Q263.72 151.28 263.48 152.42Q263.24 153.56 262.88 154.82Q262.52 156.08 261.92 157.04L261.92 157.04Q260.84 161.96 259.94 162.80Q259.04 163.64 257 161.36ZM268.64 112.64L268.64 112.64Q268.04 112.04 267.56 110.90Q267.08 109.76 266.96 108.74Q266.84 107.72 267.20 107.72L267.20 107.72Q268.16 107.60 269.48 105.68Q270.80 103.76 270.56 102.32L270.56 102.32Q270.56 101.84 270.92 101.42Q271.28 101.00 271.76 100.88L271.76 100.88Q273.20 99.92 274.58 100.58Q275.96 101.24 277.16 103.16L277.16 103.16Q278.24 105.44 277.76 106.94Q277.28 108.44 275.12 111.08L275.12 111.08Q273.32 113.48 271.82 113.72Q270.32 113.96 268.64 112.64ZM296.60 171.20L296.60 171.20Q294.44 170.60 293.12 170.18Q291.80 169.76 291.80 169.76L291.80 169.76Q292.04 169.16 291.62 168.68Q291.20 168.20 289.88 168.08L289.88 168.08Q288.08 167 286.58 165.38Q285.08 163.76 284.12 162.20Q283.16 160.64 282.68 159.56L282.68 159.56Q281.84 157.76 281.90 157.34Q281.96 156.92 283.28 156.32L283.28 156.32Q284.60 155.36 285.26 155.72Q285.92 156.08 286.88 158.12L286.88 158.12Q288.44 160.88 292.22 162.32Q296 163.76 300.74 163.58Q305.48 163.40 309.80 161.48L309.80 161.48Q314.24 159.68 315.38 157.70Q316.52 155.72 314.48 152.60L314.48 152.60Q314.12 151.64 313.64 151.04Q313.16 150.44 312.14 149.48Q311.12 148.52 308.84 146.36L308.84 146.36Q307.04 145.52 305.54 144.80Q304.04 144.08 302.36 143.24L302.36 143.24Q300.44 142.28 297.74 140.42Q295.04 138.56 292.64 136.28Q290.24 134 289.16 132.08L289.16 132.08Q287.24 130.28 286.28 127.10Q285.32 123.92 285.56 120.32Q285.80 116.72 287.36 113.84L287.36 113.84Q288.08 112.16 289.82 109.70Q291.56 107.24 293.72 104.72Q295.88 102.20 297.92 100.16Q299.96 98.12 301.28 97.28L301.28 97.28Q302.24 96.32 303.32 95.30Q304.40 94.28 304.40 94.28L304.40 94.28Q304.52 93.68 304.82 93.68Q305.12 93.68 305.12 93.68L305.12 93.68Q305.72 93.32 307.76 92.48Q309.80 91.64 312.20 89.36L312.20 89.36Q320.24 85.52 325.28 83.72Q330.32 81.92 333.56 81.92L333.56 81.92L333.56 81.92L333.56 81.92Q336.56 82.04 339.02 83.30Q341.48 84.56 343.10 86.60Q344.72 88.64 345.08 91.52L345.08 91.52Q345.92 94.40 344.60 98.18Q343.28 101.96 340.70 105.26Q338.12 108.56 335.12 110.24L335.12 110.24Q331.76 111.68 330.62 111.50Q329.48 111.32 329.60 109.04L329.60 109.04Q329.60 108.08 330.26 106.76Q330.92 105.44 333.92 102.08L333.92 102.08Q337.76 96.44 338.60 93.08Q339.44 89.72 337.04 89.36L337.04 89.36Q336.32 89.12 334.46 89.36Q332.60 89.60 330.38 90.02Q328.16 90.44 326.60 90.86Q325.04 91.28 325.04 91.52L325.04 91.52Q325.04 91.52 325.04 91.88Q325.04 92.24 324.56 92.12L324.56 92.12Q324.32 92.12 322.52 93.08Q320.72 94.04 318.20 95.60Q315.68 97.16 313.16 98.72Q310.64 100.28 308.90 101.42Q307.16 102.56 307.04 102.80L307.04 102.80Q306.80 104.12 304.28 105.20L304.28 105.20Q301.88 106.64 299.90 109.40Q297.92 112.16 295.52 116.24L295.52 116.24Q293.48 119 292.64 122.18Q291.80 125.36 292.64 127.28L292.64 127.28Q293.24 129.20 296.36 132.20Q299.48 135.20 304.16 137.96L304.16 137.96Q308.24 140.24 311.48 142.46Q314.72 144.68 316.82 146.72Q318.92 148.76 319.64 150.32L319.64 150.32Q321.08 152.36 321.74 154.46Q322.40 156.56 322.46 158.48Q322.52 160.40 322.04 161.96L322.04 161.96Q321.20 163.88 319.10 165.92Q317 167.96 315.56 167.84L315.56 167.84Q314.24 168.20 313.58 168.68Q312.92 169.16 312.08 169.52L312.08 169.52Q311.24 170 308.54 170.48Q305.84 170.96 302.60 171.14Q299.36 171.32 296.60 171.20ZM331.76 192.08L331.76 192.08Q331.28 192.08 330.56 192.14Q329.84 192.20 329.24 191.12L329.24 191.12Q328.76 190.52 328.70 189.32Q328.64 188.12 329.24 185L329.24 185Q329.84 182.96 330.20 180.98Q330.56 179 330.56 178.04L330.56 178.04Q330.56 177.56 330.86 176.18Q331.16 174.80 331.16 174.20L331.16 174.20Q331.76 173.24 332.12 171.56Q332.48 169.88 332.48 168.56L332.48 168.56Q332.48 167.12 333.92 165.92L333.92 165.92Q333.92 164.96 334.34 163.52Q334.76 162.08 334.76 161.60L334.76 161.60Q335.12 159.92 336.38 155.66Q337.64 151.40 339.50 146Q341.36 140.60 343.16 135.44Q344.96 130.28 346.40 126.68L346.40 126.68Q347.84 123.32 348.38 120.86Q348.92 118.40 348.92 117.20L348.92 117.20Q348.92 116.72 349.16 116.42Q349.40 116.12 350.24 115.16L350.24 115.16Q351.44 113.96 352.34 114.44Q353.24 114.92 354.56 115.88L354.56 115.88Q355.52 117.44 355.94 118.52Q356.36 119.60 355.88 122.24L355.88 122.24Q355.88 124.04 355.28 125.36Q354.68 126.68 354.20 127.34Q353.72 128 353.96 127.88L353.96 127.88Q358.88 125.60 362.66 125.42Q366.44 125.24 369.02 126.74Q371.60 128.24 372.92 130.88Q374.24 133.52 374.24 137L374.24 137Q374.24 138.44 373.64 140.42Q373.04 142.40 372.14 144.02Q371.24 145.64 370.52 146.36L370.52 146.36Q370.04 146.36 369.56 147.14Q369.08 147.92 368.60 148.88L368.60 148.88Q367.64 150.08 365.54 151.58Q363.44 153.08 361.40 153.98Q359.36 154.88 358.40 154.52L358.40 154.52Q358.40 154.52 358.10 154.58Q357.80 154.64 357.80 155.24L357.80 155.24Q357.80 155.48 355.88 156.26Q353.96 157.04 351.44 157.70Q348.92 158.36 347 158.36L347 158.36Q344.48 158.36 343.40 157.40L343.40 157.40Q343.16 157.64 342.86 158.12Q342.56 158.60 342.56 158.96L342.56 158.96Q342.56 159.68 342.02 161.66Q341.48 163.64 340.76 165.44Q340.04 167.24 339.44 167.24L339.44 167.24Q339.44 167.24 339.20 167.60Q338.96 167.96 339.44 168.56L339.44 168.56Q339.44 168.56 339.38 169.94Q339.32 171.32 338.72 172.28L338.72 172.28Q338.72 173.24 338.36 175.16Q338 177.08 337.52 178.04L337.52 178.04Q337.52 179.48 337.10 180.86Q336.68 182.24 336.20 182.24L336.20 182.24Q335.72 182.36 335.60 183.74Q335.48 185.12 335.48 185.72L335.48 185.72Q335.36 188.72 334.28 190.40Q333.20 192.08 331.76 192.08ZM346.28 152L346.28 152Q347.24 152 350.24 151.16Q353.24 150.32 356.42 149.06Q359.60 147.80 361.16 146.48L361.16 146.48Q364.28 143.72 366.02 140.18Q367.76 136.64 365.72 133.40L365.72 133.40Q364.76 131.72 362.24 132.02Q359.72 132.32 356.72 134Q353.72 135.68 351.08 138.20L351.08 138.20Q349.64 139.76 348.44 142.04Q347.24 144.32 346.46 146.60Q345.68 148.88 345.56 150.44Q345.44 152 346.28 152ZM382.64 160.88L382.64 160.88Q382.16 159.92 381.44 159.38Q380.72 158.84 380.72 158.36L380.72 158.36Q380.72 157.88 380.66 157.34Q380.60 156.80 380.12 156.32L380.12 156.32Q379.52 155.60 380.24 153.02Q380.96 150.44 382.64 146.66Q384.32 142.88 386.60 138.68L386.60 138.68Q387.56 137.72 388.52 136.16Q389.48 134.60 389.96 134.12L389.96 134.12Q389.96 133.64 390.32 133.22Q390.68 132.80 391.16 132.80L391.16 132.80L391.16 132.08Q391.16 131.48 392.30 130.04Q393.44 128.60 395.12 126.86Q396.80 125.12 398.60 123.50Q400.40 121.88 401.60 121.16L401.60 121.16Q404.12 119.48 406.82 119.12Q409.52 118.76 411.44 120.32L411.44 120.32Q411.80 120.68 412.64 121.52Q413.48 122.36 414.62 123.38Q415.76 124.40 416.96 125.48L416.96 125.48L421.40 129.44L419.24 135.44Q417.68 140.24 418.46 143.84Q419.24 147.44 420.80 150.08L420.80 150.08Q421.40 151.40 423.26 152.60Q425.12 153.80 426.80 154.04L426.80 154.04Q427.76 154.16 428.60 154.76Q429.44 155.36 429.44 156.68L429.44 156.68Q429.44 157.88 428.96 158.60Q428.48 159.32 427.28 159.56L427.28 159.56Q423.32 160.04 419.90 157.64Q416.48 155.24 413.60 149.72L413.60 149.72Q413.12 149 412.34 147.02Q411.56 145.04 411.44 144.44L411.44 144.44Q410.96 145.04 409.64 146.66Q408.32 148.28 407.60 149L407.60 149Q399.08 157.64 392.90 160.58Q386.72 163.52 382.64 160.88ZM386.96 154.16L386.96 154.16Q386.96 155 389.54 154.10Q392.12 153.20 395.12 150.80L395.12 150.80Q399.20 147.32 403.34 143.12Q407.48 138.92 410 135.32L410 135.32L412.64 131Q411.44 128.24 410.06 127.22Q408.68 126.20 407.72 126.20L407.72 126.20Q406.16 126.20 403.10 129.08Q400.04 131.96 396.56 136.76Q393.08 141.56 389.96 147.32L389.96 147.32Q388.76 149.72 387.86 151.94Q386.96 154.16 386.96 154.16ZM449.72 133.76L449.72 133.76Q447.44 134.60 445.94 134.54Q444.44 134.48 442.64 133.16L442.64 133.16Q440.36 131 441.14 128.78Q441.92 126.56 445.04 124.40L445.04 124.40Q447.20 123.08 448.22 122.96Q449.24 122.84 451.40 123.80L451.40 123.80Q455 126.08 454.58 128.84Q454.16 131.60 449.72 133.76ZM441.32 158.96L441.32 158.96Q439.04 159.80 437.54 159.74Q436.04 159.68 434.24 158.36L434.24 158.36Q431.96 156.20 432.74 153.98Q433.52 151.76 436.64 149.60L436.64 149.60Q438.80 148.28 439.82 148.16Q440.84 148.04 443 149L443 149Q446.60 151.28 446.18 154.04Q445.76 156.80 441.32 158.96ZM500.84 170.48L500.84 170.48Q499.88 170.48 498.68 168.92Q497.48 167.36 497.60 165.92L497.60 165.92Q497.72 164 498.68 160.40Q499.64 156.80 500.84 153.08Q502.04 149.36 503 147.20L503 147.20Q503.48 145.28 503.90 143.78Q504.32 142.28 504.44 141.80L504.44 141.80Q504.80 141.32 505.58 139.28Q506.36 137.24 506.84 135.32L506.84 135.32Q507.08 134.36 507.86 131.66Q508.64 128.96 509.78 125.36Q510.92 121.76 512.06 118.28Q513.20 114.80 514.04 112.16Q514.88 109.52 515.12 108.68L515.12 108.68Q516.08 107.24 516.56 105.92Q517.04 104.60 517.16 104.12L517.16 104.12Q517.88 103.64 518 102.86Q518.12 102.08 518.12 101.60L518.12 101.60Q518.12 101.00 518.54 100.64Q518.96 100.28 518.96 99.80L518.96 99.80Q519.44 99.44 519.56 98.66Q519.68 97.88 520.28 97.28L520.28 97.28L520.88 95.24L527.96 95.12Q527.72 96.56 527.24 98.66Q526.76 100.76 524.96 104.24L524.96 104.24Q524.36 106.64 523.58 108.56Q522.80 110.48 522.92 111.08L522.92 111.08Q522.68 111.32 521.90 113.48Q521.12 115.64 520.10 118.76Q519.08 121.88 518.06 125Q517.04 128.12 516.26 130.46Q515.48 132.80 515.24 133.40L515.24 133.40Q514.28 135.32 513.08 139.04Q511.88 142.76 509.48 149.12L509.48 149.12Q508.52 151.04 507.14 154.88Q505.76 158.72 504.92 161.84L504.92 161.84Q503.60 166.52 503.06 168.38Q502.52 170.24 502.16 170.42Q501.80 170.60 500.84 170.48ZM501.80 98.96L501.80 98.96Q498.44 99.08 496.82 98.60Q495.20 98.12 495.68 96.20L495.68 96.20Q496.04 94.76 497.24 94.04Q498.44 93.32 500.72 92.96L500.72 92.96Q502.04 92.72 504.14 92.36Q506.24 92.00 508.16 91.64L508.16 91.64Q512.12 91.16 514.70 90.80Q517.28 90.44 520.04 90.20Q522.80 89.96 527 89.72L527 89.72Q530.48 89.48 532.94 89.30Q535.40 89.12 535.40 89.12L535.40 89.12Q535.76 89.12 537.92 89.36Q540.08 89.60 542.60 89.96Q545.12 90.32 546.32 90.80L546.32 90.80Q549.08 91.40 550.34 92.48Q551.60 93.56 552.08 95.60L552.08 95.60Q552.44 97.04 552.08 97.34Q551.72 97.64 550.76 98.12L550.76 98.12Q548 98.96 546.68 98.96Q545.36 98.96 543.68 98.36L543.68 98.36Q543.08 97.76 542.30 97.28Q541.52 96.80 539.66 96.50Q537.80 96.20 533.84 95.96L533.84 95.96Q530.48 96.32 527.96 96.32Q525.44 96.32 525.44 96.92L525.44 96.92L518.36 97.28L512.48 97.88Q511.28 98.00 509.12 98.18Q506.96 98.36 504.92 98.54Q502.88 98.72 501.80 98.96ZM548.72 158.72L548.72 158.72Q547.88 158.84 546.98 158.66Q546.08 158.48 545.24 157.88L545.24 157.88Q544.28 156.92 543.92 156.38Q543.56 155.84 543.74 154.64Q543.92 153.44 544.52 150.92L544.52 150.92Q545.12 149 545.96 145.58Q546.80 142.16 547.76 138.80L547.76 138.80Q548.12 136.88 548.78 134.84Q549.44 132.80 550.16 131.06Q550.88 129.32 551.24 128.36L551.24 128.36Q552.20 125 553.10 122.48Q554 119.96 555.32 116.66Q556.64 113.36 558.56 107.84L558.56 107.84Q561.20 100.64 562.58 96.86Q563.96 93.08 564.62 91.34Q565.28 89.60 565.52 88.64L565.52 88.64Q565.52 87.68 566.06 87.20Q566.60 86.72 567.44 86.72L567.44 86.72Q569.12 86.72 570.14 88.34Q571.16 89.96 571.40 92.18Q571.64 94.40 570.68 96.32L570.68 96.32Q568.76 100.64 566.60 106.58Q564.44 112.52 562.40 118.22Q560.36 123.92 558.56 127.88L558.56 127.88Q558.56 128.36 558.20 129.56Q557.84 130.76 557.36 131.72L557.36 131.72Q556.88 132.68 556.46 133.52Q556.04 134.36 556.04 134.36L556.04 134.36Q556.04 134.84 555.68 136.16Q555.32 137.48 554.72 139.40L554.72 139.40Q554.24 140.84 553.58 143.12Q552.92 145.40 552.68 146.96L552.68 146.96Q553.28 145.88 555.20 143.72Q557.12 141.56 558.80 140L558.80 140Q560.72 138.32 563.12 136.28Q565.52 134.24 566.96 133.28L566.96 133.28Q568.40 132.32 569.54 131.54Q570.68 130.76 570.68 130.76L570.68 130.76Q570.68 130.28 571.10 130.22Q571.52 130.16 572 130.16L572 130.16Q572.48 130.16 572.54 130.04Q572.60 129.92 572.60 129.44L572.60 129.44Q572.60 128.84 573.98 128.36Q575.36 127.88 577.22 127.58Q579.08 127.28 580.28 127.28L580.28 127.28Q581.72 127.28 582.56 127.88Q583.40 128.48 584.72 130.52L584.72 130.52Q586.16 132.44 586.58 135.14Q587 137.84 586.04 140.72L586.04 140.72Q586.04 141.68 585.74 143.42Q585.44 145.16 585.44 147.08L585.44 147.08L584.72 150.92L586.64 150.92Q587.60 150.92 588.44 151.22Q589.28 151.52 589.28 151.52L589.28 151.52Q589.76 152 590.24 152.42Q590.72 152.84 591.20 152.84L591.20 152.84Q592.64 152.84 592.28 153.98Q591.92 155.12 590.48 156.08L590.48 156.08Q587.60 158 585.26 158Q582.92 158 581 156.08L581 156.08Q579.08 154.04 578.60 151.52Q578.12 149 579.08 145.16L579.08 145.16Q579.56 139.88 579.62 137.42Q579.68 134.96 578.36 134.96L578.36 134.96Q577.16 134.96 574.16 136.58Q571.16 138.20 567.44 140.96Q563.72 143.72 560.12 147.08Q556.52 150.44 554.12 154.04L554.12 154.04Q552.68 155.84 551.36 157.22Q550.04 158.60 548.72 158.72ZM621.20 161L621.20 161Q618.68 163.16 615.38 163.52Q612.08 163.88 608.96 162.50Q605.84 161.12 603.80 158.24L603.80 158.24Q601.76 155.60 601.16 152.18Q600.56 148.76 601.04 143.24L601.04 143.24Q601.40 138.56 604.04 133.82Q606.68 129.08 610.46 125.36Q614.24 121.64 617.96 120.20L617.96 120.20Q619.76 119 621.02 119.06Q622.28 119.12 624.92 119.36L624.92 119.36Q627.68 119.72 629.06 120.44Q630.44 121.16 631.28 122.36L631.28 122.36Q633.08 124.16 633.68 125.90Q634.28 127.64 634.28 129.32L634.28 129.32Q633.80 131.96 630.74 135.74Q627.68 139.52 622.76 141.92L622.76 141.92Q620.12 142.76 617.00 142.64Q613.88 142.52 611.84 141.08L611.84 141.08Q609.56 140.12 608.84 141.38Q608.12 142.64 607.52 147.44L607.52 147.44Q607.04 152 608.24 154.10Q609.44 156.20 611.48 156.56L611.48 156.56Q613.88 157.04 615.26 157.22Q616.64 157.40 618.68 156.20L618.68 156.20Q620.60 155 621.08 154.82Q621.56 154.64 621.86 154.34Q622.16 154.04 623.36 152.84L623.36 152.84Q624.20 152 624.68 151.58Q625.16 151.16 625.76 151.16L625.76 151.16Q626.36 151.16 626.84 151.70Q627.32 152.24 627.80 152.48L627.80 152.48Q629.00 152.48 628.34 153.92Q627.68 155.36 625.76 157.34Q623.84 159.32 621.20 161ZM621.08 135.56L621.08 135.56Q622.40 134.96 623.84 133.82Q625.28 132.68 626.30 131.30Q627.32 129.92 627.32 128.96L627.32 128.96Q627.32 127.28 625.76 126.14Q624.20 125 621.08 125.84L621.08 125.84Q619.76 126.20 618.08 127.58Q616.40 128.96 614.90 130.64Q613.40 132.32 612.50 133.64Q611.60 134.96 611.84 135.20L611.84 135.20Q612.20 135.80 613.88 136.10Q615.56 136.40 617.66 136.28Q619.76 136.16 621.08 135.56ZM715.88 171.56L715.88 171.56Q714.32 171.68 713.06 170.90Q711.80 170.12 711.32 168.92L711.32 168.92Q710.84 168.32 709.88 166.88Q708.92 165.44 708.68 164L708.68 164Q708.32 160.16 708.26 156.56Q708.20 152.96 708.56 146.48L708.56 146.48Q708.92 141.20 709.94 136.22Q710.96 131.24 711.98 127.28Q713.00 123.32 713.60 120.98Q714.20 118.64 713.84 118.64L713.84 118.64Q713.36 118.64 712.40 120.38Q711.44 122.12 710.24 124.64Q709.04 127.16 707.84 129.62Q706.64 132.08 705.80 133.64L705.80 133.64Q704.12 137.36 701.90 141.50Q699.68 145.64 697.40 149.48Q695.12 153.32 693.44 156.20L693.44 156.20Q692.36 157.40 690.92 159.62Q689.48 161.84 687.80 164.24Q686.12 166.64 684.32 168.20L684.32 168.20Q681.68 170.72 679.10 170.96Q676.52 171.20 674.72 169.64L674.72 169.64Q674.36 169.16 673.94 168.50Q673.52 167.84 673.28 166.76Q673.04 165.68 673.40 164.24L673.40 164.24Q673.28 162.56 673.46 159.02Q673.64 155.48 674.12 151.22Q674.60 146.96 675.14 143Q675.68 139.04 676.16 136.40L676.16 136.40Q677.24 128.72 679.10 120.68Q680.96 112.64 682.52 104.48L682.52 104.48Q683.48 102.08 684.26 99.02Q685.04 95.96 685.88 93.32L685.88 93.32Q686.00 90.68 687.08 89.78Q688.16 88.88 689.54 89.18Q690.92 89.48 691.76 90.68L691.76 90.68Q692.96 91.88 693.62 94.40Q694.28 96.92 692.60 100.76L692.60 100.76Q690.20 106.64 687.98 115.10Q685.76 123.56 683.96 135.56L683.96 135.56Q683.48 138.44 682.88 142.40Q682.28 146.36 681.80 150.08Q681.32 153.80 681.14 156.32Q680.96 158.84 681.20 158.96L681.20 158.96Q682.16 159.20 683.84 157.46Q685.52 155.72 686.84 152.84L686.84 152.84Q691.76 144.68 696.62 135.74Q701.48 126.80 705.92 118.04L705.92 118.04Q707.96 114.56 710.06 110.42Q712.16 106.28 714.08 102.80L714.08 102.80Q716.12 99.20 717.80 96.26Q719.48 93.32 720.68 91.40Q721.88 89.48 722.60 89.24L722.60 89.24Q724.52 89.36 725.90 90.14Q727.28 90.92 728.24 93.32L728.24 93.32Q728.48 93.92 728.12 95.36Q727.76 96.80 727.28 97.88L727.28 97.88Q727.16 98.72 726.26 101.36Q725.36 104 724.64 107.24L724.64 107.24Q723.44 110.48 722.54 113.66Q721.64 116.84 721.28 118.88L721.28 118.88Q720.32 124.04 718.88 130.22Q717.44 136.40 716.42 142.46Q715.40 148.52 715.28 153.32L715.28 153.32Q715.16 156.68 715.34 158.60Q715.52 160.52 716.00 161.60L716.00 161.60Q716.24 162.56 717.50 162.80Q718.76 163.04 719.60 161.96L719.60 161.96Q722.00 158.96 723.74 156.50Q725.48 154.04 727.04 151.46Q728.60 148.88 730.28 145.64L730.28 145.64Q733.28 140.12 736.46 133.34Q739.64 126.56 742.58 119.84Q745.52 113.12 747.68 108.08L747.68 108.08Q749.96 101.60 751.34 97.76Q752.72 93.92 753.80 92.00Q754.88 90.08 756.08 89.36L756.08 89.36Q756.68 88.88 757.76 88.88Q758.84 88.88 759.92 89.84L759.92 89.84Q760.40 90.32 760.82 91.34Q761.24 92.36 761.12 93.80L761.12 93.80Q760.52 95.72 759.02 99.92Q757.52 104.12 755.60 109.16Q753.68 114.20 751.88 118.76Q750.08 123.32 748.76 126.08L748.76 126.08Q747.44 128.60 746.24 130.40Q745.04 132.20 745.04 133.16L745.04 133.16Q745.04 133.64 743.84 136.10Q742.64 138.56 740.78 142.04Q738.92 145.52 736.76 149.24Q734.60 152.96 732.68 156.08Q730.76 159.20 729.44 160.88L729.44 160.88Q726.44 164.60 723.62 167Q720.80 169.40 718.76 170.48Q716.72 171.56 715.88 171.56ZM776.84 161L776.84 161Q774.32 163.16 771.02 163.52Q767.72 163.88 764.60 162.50Q761.48 161.12 759.44 158.24L759.44 158.24Q757.40 155.60 756.80 152.18Q756.20 148.76 756.68 143.24L756.68 143.24Q757.04 138.56 759.68 133.82Q762.32 129.08 766.10 125.36Q769.88 121.64 773.60 120.20L773.60 120.20Q775.40 119 776.66 119.06Q777.92 119.12 780.56 119.36L780.56 119.36Q783.32 119.72 784.70 120.44Q786.08 121.16 786.92 122.36L786.92 122.36Q788.72 124.16 789.32 125.90Q789.92 127.64 789.92 129.32L789.92 129.32Q789.44 131.96 786.38 135.74Q783.32 139.52 778.40 141.92L778.40 141.92Q775.76 142.76 772.64 142.64Q769.52 142.52 767.48 141.08L767.48 141.08Q765.20 140.12 764.48 141.38Q763.76 142.64 763.16 147.44L763.16 147.44Q762.68 152 763.88 154.10Q765.08 156.20 767.12 156.56L767.12 156.56Q769.52 157.04 770.90 157.22Q772.28 157.40 774.32 156.20L774.32 156.20Q776.24 155 776.72 154.82Q777.20 154.64 777.50 154.34Q777.80 154.04 779.00 152.84L779.00 152.84Q779.84 152 780.32 151.58Q780.80 151.16 781.40 151.16L781.40 151.16Q782.00 151.16 782.48 151.70Q782.96 152.24 783.44 152.48L783.44 152.48Q784.64 152.48 783.98 153.92Q783.32 155.36 781.40 157.34Q779.48 159.32 776.84 161ZM776.72 135.56L776.72 135.56Q778.04 134.96 779.48 133.82Q780.92 132.68 781.94 131.30Q782.96 129.92 782.96 128.96L782.96 128.96Q782.96 127.28 781.40 126.14Q779.84 125 776.72 125.84L776.72 125.84Q775.40 126.20 773.72 127.58Q772.04 128.96 770.54 130.64Q769.04 132.32 768.14 133.64Q767.24 134.96 767.48 135.20L767.48 135.20Q767.84 135.80 769.52 136.10Q771.20 136.40 773.30 136.28Q775.40 136.16 776.72 135.56ZM799.52 165.20L799.52 165.20Q797.24 165.80 795.86 164.24Q794.48 162.68 794.24 159.44Q794 156.20 794.96 151.76L794.96 151.76Q795.56 150.32 795.92 148.94Q796.28 147.56 796.28 146.72L796.28 146.72Q796.52 145.52 797.24 143.18Q797.96 140.84 798.80 138.32Q799.64 135.80 800.42 133.82Q801.20 131.84 801.44 131.36L801.44 131.36Q801.92 131.36 802.28 130.52Q802.64 129.68 802.64 128.84L802.64 128.84Q802.64 127.88 803.06 126.68Q803.48 125.48 803.96 125L803.96 125Q803.96 124.40 804.26 123.62Q804.56 122.84 804.56 122.36L804.56 122.36Q804.56 121.88 804.86 121.40Q805.16 120.92 805.16 120.44L805.16 120.44Q806 118.88 807.38 115.46Q808.76 112.04 810.38 107.84Q812 103.64 813.44 99.56Q814.88 95.48 815.78 92.66Q816.68 89.84 816.68 89.24L816.68 89.24Q816.68 88.28 817.16 87.80Q817.64 87.32 818.60 87.32L818.60 87.32Q818.96 86.96 819.50 86.84Q820.04 86.72 820.52 86.72L820.52 86.72Q820.52 86.72 821 87.20Q821.48 87.68 822.44 88.64L822.44 88.64Q823.40 89.48 823.58 90.56Q823.76 91.64 823.76 93.08L823.76 93.08Q823.76 94.64 823.40 95.84Q823.04 97.04 821.96 99.32Q820.88 101.60 818.60 106.40L818.60 106.40Q817.64 108.80 816.56 110.90Q815.48 113 815.48 113.48L815.48 113.48Q815.48 113.96 815.06 114.92Q814.64 115.88 814.16 117.32L814.16 117.32Q813.68 118.28 812.84 120.14Q812 122 811.10 124.10Q810.20 126.20 809.60 127.70Q809 129.20 809 129.44L809 129.44Q809 129.92 808.94 130.40Q808.88 130.88 808.40 131.36L808.40 131.36Q807.92 131.36 807.86 132.02Q807.80 132.68 807.80 132.68L807.80 132.68Q807.80 133.88 805.88 139.04L805.88 139.04Q803.96 145.64 802.34 151.16Q800.72 156.68 800.72 160.04L800.72 160.04Q800.72 162.92 800.60 163.82Q800.48 164.72 799.52 165.20ZM821 165.20L821 165.20Q818.72 165.80 817.34 164.24Q815.96 162.68 815.72 159.44Q815.48 156.20 816.44 151.76L816.44 151.76Q817.04 150.32 817.40 148.94Q817.76 147.56 817.76 146.72L817.76 146.72Q818 145.52 818.72 143.18Q819.44 140.84 820.28 138.32Q821.12 135.80 821.90 133.82Q822.68 131.84 822.92 131.36L822.92 131.36Q823.40 131.36 823.76 130.52Q824.12 129.68 824.12 128.84L824.12 128.84Q824.12 127.88 824.54 126.68Q824.96 125.48 825.44 125L825.44 125Q825.44 124.40 825.74 123.62Q826.04 122.84 826.04 122.36L826.04 122.36Q826.04 121.88 826.34 121.40Q826.64 120.92 826.64 120.44L826.64 120.44Q827.48 118.88 828.86 115.46Q830.24 112.04 831.86 107.84Q833.48 103.64 834.92 99.56Q836.36 95.48 837.26 92.66Q838.16 89.84 838.16 89.24L838.16 89.24Q838.16 88.28 838.64 87.80Q839.12 87.32 840.08 87.32L840.08 87.32Q840.44 86.96 840.98 86.84Q841.52 86.72 842 86.72L842 86.72Q842 86.72 842.48 87.20Q842.96 87.68 843.92 88.64L843.92 88.64Q844.88 89.48 845.06 90.56Q845.24 91.64 845.24 93.08L845.24 93.08Q845.24 94.64 844.88 95.84Q844.52 97.04 843.44 99.32Q842.36 101.60 840.08 106.40L840.08 106.40Q839.12 108.80 838.04 110.90Q836.96 113 836.96 113.48L836.96 113.48Q836.96 113.96 836.54 114.92Q836.12 115.88 835.64 117.32L835.64 117.32Q835.16 118.28 834.32 120.14Q833.48 122 832.58 124.10Q831.68 126.20 831.08 127.70Q830.48 129.20 830.48 129.44L830.48 129.44Q830.48 129.92 830.42 130.40Q830.36 130.88 829.88 131.36L829.88 131.36Q829.40 131.36 829.34 132.02Q829.28 132.68 829.28 132.68L829.28 132.68Q829.28 133.88 827.36 139.04L827.36 139.04Q825.44 145.64 823.82 151.16Q822.20 156.68 822.20 160.04L822.20 160.04Q822.20 162.92 822.08 163.82Q821.96 164.72 821 165.20ZM880.16 159.68L880.16 159.68Q877.76 159.68 876.20 158.66Q874.64 157.64 873.56 155.24L873.56 155.24Q873.08 153.56 872.78 151.46Q872.48 149.36 872.48 147.50Q872.48 145.64 872.84 145.04L872.84 145.04Q873.32 144.56 873.26 143.30Q873.20 142.04 873.20 140.60L873.20 140.60Q873.08 138.20 872.06 137.90Q871.04 137.60 869.12 138.68L869.12 138.68Q866.96 140 863.48 142.22Q860 144.44 856.22 147.08Q852.44 149.72 849.08 152.60L849.08 152.60Q846.44 155.48 845.90 156.98Q845.36 158.48 844.40 158.48L844.40 158.48Q843.44 158.96 842.78 158.54Q842.12 158.12 840.92 157.16L840.92 157.16Q840.08 156.20 839.24 155.30Q838.40 154.40 838.16 153.92L838.16 153.92Q838.16 153.32 838.52 151.40Q838.88 149.48 839.42 147.56Q839.96 145.64 840.20 145.04L840.20 145.04Q840.80 145.04 841.22 143.84Q841.64 142.64 842.60 141.20L842.60 141.20Q842.84 139.76 843.86 137.30Q844.88 134.84 845.72 132.92L845.72 132.92Q847.40 130.04 848.06 128.12Q848.72 126.20 848.96 123.32L848.96 123.32Q848.84 122.84 849.20 122.42Q849.56 122 850.04 122L850.04 122L850.04 122L850.04 122Q851 121.04 852.32 121.46Q853.64 121.88 854.72 123.32L854.72 123.32Q856.88 126.20 856.46 129.26Q856.04 132.32 852.56 137.96L852.56 137.96Q851.72 139.88 851.30 140.90Q850.88 141.92 850.88 142.52L850.88 142.52Q850.88 142.52 852.14 141.68Q853.40 140.84 855.02 139.70Q856.64 138.56 857.60 137.96L857.60 137.96Q858.20 137.36 860.36 135.80Q862.52 134.24 864.98 132.74Q867.44 131.24 868.64 131L868.64 131Q869.60 130.52 870.68 130.10Q871.76 129.68 872.24 129.68L872.24 129.68Q873.20 129.68 874.70 130.70Q876.20 131.72 877.52 133.10Q878.84 134.48 879.08 135.44L879.08 135.44Q879.08 135.92 879.14 136.40Q879.20 136.88 879.32 137.36L879.32 137.36Q879.80 138.92 879.86 141.56Q879.92 144.20 879.68 146.36Q879.44 148.52 878.84 148.88L878.84 148.88Q878.84 148.88 878.90 149.18Q878.96 149.48 879.44 149.48L879.44 149.48Q879.44 149.96 879.44 150.02Q879.44 150.08 879.44 150.08L879.44 150.08Q878.84 150.08 878.96 151.10Q879.08 152.12 879.74 153.32Q880.40 154.52 881.12 155.24L881.12 155.24Q882.56 156.68 882.32 157.94Q882.08 159.20 880.16 159.68ZM912.80 161L912.80 161Q910.28 163.16 906.98 163.52Q903.68 163.88 900.56 162.50Q897.44 161.12 895.40 158.24L895.40 158.24Q893.36 155.60 892.76 152.18Q892.16 148.76 892.64 143.24L892.64 143.24Q893 138.56 895.64 133.82Q898.28 129.08 902.06 125.36Q905.84 121.64 909.56 120.20L909.56 120.20Q911.36 119 912.62 119.06Q913.88 119.12 916.52 119.36L916.52 119.36Q919.28 119.72 920.66 120.44Q922.04 121.16 922.88 122.36L922.88 122.36Q924.68 124.16 925.28 125.90Q925.88 127.64 925.88 129.32L925.88 129.32Q925.40 131.96 922.34 135.74Q919.28 139.52 914.36 141.92L914.36 141.92Q911.72 142.76 908.60 142.64Q905.48 142.52 903.44 141.08L903.44 141.08Q901.16 140.12 900.44 141.38Q899.72 142.64 899.12 147.44L899.12 147.44Q898.64 152 899.84 154.10Q901.04 156.20 903.08 156.56L903.08 156.56Q905.48 157.04 906.86 157.22Q908.24 157.40 910.28 156.20L910.28 156.20Q912.20 155 912.68 154.82Q913.16 154.64 913.46 154.34Q913.76 154.04 914.96 152.84L914.96 152.84Q915.80 152 916.28 151.58Q916.76 151.16 917.36 151.16L917.36 151.16Q917.96 151.16 918.44 151.70Q918.92 152.24 919.40 152.48L919.40 152.48Q920.60 152.48 919.94 153.92Q919.28 155.36 917.36 157.34Q915.44 159.32 912.80 161ZM912.68 135.56L912.68 135.56Q914 134.96 915.44 133.82Q916.88 132.68 917.90 131.30Q918.92 129.92 918.92 128.96L918.92 128.96Q918.92 127.28 917.36 126.14Q915.80 125 912.68 125.84L912.68 125.84Q911.36 126.20 909.68 127.58Q908 128.96 906.50 130.64Q905 132.32 904.10 133.64Q903.20 134.96 903.44 135.20L903.44 135.20Q903.80 135.80 905.48 136.10Q907.16 136.40 909.26 136.28Q911.36 136.16 912.68 135.56ZM938 165.68L938 165.68Q935.72 164.72 933.68 163.10Q931.64 161.48 931.04 160.40L931.04 160.40Q931.04 159.32 931.40 158.90Q931.76 158.48 933.50 158.54Q935.24 158.60 939.20 159.08L939.20 159.08Q940.64 159.08 942.80 158.84Q944.96 158.60 946.82 158.12Q948.68 157.64 948.92 156.92L948.92 156.92Q949.52 156.92 949.16 156.50Q948.80 156.08 948.32 155.60L948.32 155.60Q947.84 155.60 947.24 155.18Q946.64 154.76 946.16 154.76L946.16 154.76Q946.16 154.16 945.02 153.38Q943.88 152.60 942.68 152.12L942.68 152.12Q940.04 149.96 938.12 148.22Q936.20 146.48 936.68 145.88L936.68 145.88Q936.68 145.40 936.68 145.34Q936.68 145.28 936.68 145.28L936.68 145.28Q935.84 145.28 934.82 142.88Q933.80 140.48 933.80 138.56L933.80 138.56Q933.80 137.12 934.64 134.90Q935.48 132.68 936.92 130.28Q938.36 127.88 939.92 126.32L939.92 126.32Q942.08 124.28 945.32 121.94Q948.56 119.60 951.74 117.74Q954.92 115.88 957.08 115.28L957.08 115.28Q959.24 114.44 961.10 114.44Q962.96 114.44 964.40 115.28L964.40 115.28Q965.60 115.88 966.62 117.02Q967.64 118.16 968.42 119.30Q969.20 120.44 969.44 121.28L969.44 121.28Q969.44 122.72 969.20 124.46Q968.96 126.20 968.54 127.52Q968.12 128.84 967.28 128.84L967.28 128.84Q967.28 128.84 966.98 128.90Q966.68 128.96 966.68 129.56L966.68 129.56Q966.68 130.76 964.88 132.32L964.88 132.32Q962.60 133.88 960.92 134.18Q959.24 134.48 958.88 132.92L958.88 132.92Q958.52 132.44 958.40 132.08Q958.28 131.72 957.80 131.72L957.80 131.72Q957.80 131.72 957.44 131.36Q957.08 131 957.08 130.16L957.08 130.16Q957.08 129.68 957.44 129.26Q957.80 128.84 957.80 128.84L957.80 128.84Q958.40 128.84 959.36 127.46Q960.32 126.08 961.10 124.46Q961.88 122.84 961.88 122.24L961.88 122.24Q961.88 121.52 961.70 121.40Q961.52 121.28 960.56 121.28L960.56 121.28Q958.88 122 956.48 123.20Q954.08 124.40 951.98 125.54Q949.88 126.68 948.92 127.64L948.92 127.64Q948.44 128.48 948.32 128.66Q948.20 128.84 947.72 128.84L947.72 128.84Q947.72 128.36 946.94 129.26Q946.16 130.16 945.02 131.72Q943.88 133.28 942.86 134.78Q941.84 136.28 941.36 137L941.36 137Q941.12 137.24 940.82 138.38Q940.52 139.52 940.52 140.48L940.52 140.48Q940.04 141.92 940.64 142.46Q941.24 143 943.28 144.68L943.28 144.68Q947.48 147.80 949.88 149.84Q952.28 151.88 953.48 153.20Q954.68 154.52 954.92 155.60L954.92 155.60Q957.08 159.20 956.24 161.12Q955.40 163.04 952.16 164.48L952.16 164.48Q950.96 165.08 948.20 165.44Q945.44 165.80 942.56 165.86Q939.68 165.92 938 165.68ZM978.92 165.68L978.92 165.68Q976.64 164.72 974.60 163.10Q972.56 161.48 971.96 160.40L971.96 160.40Q971.96 159.32 972.32 158.90Q972.68 158.48 974.42 158.54Q976.16 158.60 980.12 159.08L980.12 159.08Q981.56 159.08 983.72 158.84Q985.88 158.60 987.74 158.12Q989.60 157.64 989.84 156.92L989.84 156.92Q990.44 156.92 990.08 156.50Q989.72 156.08 989.24 155.60L989.24 155.60Q988.76 155.60 988.16 155.18Q987.56 154.76 987.08 154.76L987.08 154.76Q987.08 154.16 985.94 153.38Q984.80 152.60 983.60 152.12L983.60 152.12Q980.96 149.96 979.04 148.22Q977.12 146.48 977.60 145.88L977.60 145.88Q977.60 145.40 977.60 145.34Q977.60 145.28 977.60 145.28L977.60 145.28Q976.76 145.28 975.74 142.88Q974.72 140.48 974.72 138.56L974.72 138.56Q974.72 137.12 975.56 134.90Q976.40 132.68 977.84 130.28Q979.28 127.88 980.84 126.32L980.84 126.32Q983.00 124.28 986.24 121.94Q989.48 119.60 992.66 117.74Q995.84 115.88 998.00 115.28L998.00 115.28Q1000.16 114.44 1002.02 114.44Q1003.88 114.44 1005.32 115.28L1005.32 115.28Q1006.52 115.88 1007.54 117.02Q1008.56 118.16 1009.34 119.30Q1010.12 120.44 1010.36 121.28L1010.36 121.28Q1010.36 122.72 1010.12 124.46Q1009.88 126.20 1009.46 127.52Q1009.04 128.84 1008.20 128.84L1008.20 128.84Q1008.20 128.84 1007.90 128.90Q1007.60 128.96 1007.60 129.56L1007.60 129.56Q1007.60 130.76 1005.80 132.32L1005.80 132.32Q1003.52 133.88 1001.84 134.18Q1000.16 134.48 999.80 132.92L999.80 132.92Q999.44 132.44 999.32 132.08Q999.20 131.72 998.72 131.72L998.72 131.72Q998.72 131.72 998.36 131.36Q998.00 131 998.00 130.16L998.00 130.16Q998.00 129.68 998.36 129.26Q998.72 128.84 998.72 128.84L998.72 128.84Q999.32 128.84 1000.28 127.46Q1001.24 126.08 1002.02 124.46Q1002.80 122.84 1002.80 122.24L1002.80 122.24Q1002.80 121.52 1002.62 121.40Q1002.44 121.28 1001.48 121.28L1001.48 121.28Q999.80 122 997.40 123.20Q995.00 124.40 992.90 125.54Q990.80 126.68 989.84 127.64L989.84 127.64Q989.36 128.48 989.24 128.66Q989.12 128.84 988.64 128.84L988.64 128.84Q988.64 128.36 987.86 129.26Q987.08 130.16 985.94 131.72Q984.80 133.28 983.78 134.78Q982.76 136.28 982.28 137L982.28 137Q982.04 137.24 981.74 138.38Q981.44 139.52 981.44 140.48L981.44 140.48Q980.96 141.92 981.56 142.46Q982.16 143 984.20 144.68L984.20 144.68Q988.40 147.80 990.80 149.84Q993.20 151.88 994.40 153.20Q995.60 154.52 995.84 155.60L995.84 155.60Q998.00 159.20 997.16 161.12Q996.32 163.04 993.08 164.48L993.08 164.48Q991.88 165.08 989.12 165.44Q986.36 165.80 983.48 165.86Q980.60 165.92 978.92 165.68ZM1050.56 167.60L1050.56 167.60Q1046.12 164.24 1044.92 162.38Q1043.72 160.52 1043.48 157.88L1043.48 157.88Q1043.24 155.72 1043.54 152Q1043.84 148.28 1044.32 144.68Q1044.80 141.08 1045.16 139.28L1045.16 139.28Q1045.76 138.68 1045.70 137.66Q1045.64 136.64 1045.64 136.64L1045.64 136.64Q1045.52 136.04 1046.48 133.46Q1047.44 130.88 1048.28 126.80L1048.28 126.80Q1050.68 119.60 1052.90 114.74Q1055.12 109.88 1057.28 106.40Q1059.44 102.92 1061.60 100.04L1061.60 100.04Q1066.52 95.00 1069.52 92.42Q1072.52 89.84 1076.24 88.16L1076.24 88.16Q1078.64 86.72 1080.68 85.88Q1082.72 85.04 1084.04 85.64L1084.04 85.64Q1090.76 87.08 1094.12 91.10Q1097.48 95.12 1099.04 103.52L1099.04 103.52Q1099.88 108.80 1100.06 113.06Q1100.24 117.32 1099.40 121.46Q1098.56 125.60 1096.34 130.52Q1094.12 135.44 1090.16 142.04L1090.16 142.04Q1085.96 150.32 1080.74 156.44Q1075.52 162.56 1070.06 166.10Q1064.60 169.64 1059.50 170.12Q1054.40 170.60 1050.56 167.60ZM1058.24 164.12L1058.24 164.12Q1061 163.76 1063.52 162.44Q1066.04 161.12 1068.80 158.54Q1071.56 155.96 1075.04 152L1075.04 152Q1078.16 148.40 1080.14 145.94Q1082.12 143.48 1083.50 140.96Q1084.88 138.44 1086.14 134.84Q1087.40 131.24 1089.08 125.48L1089.08 125.48Q1090.04 121.88 1090.52 119.48Q1091 117.08 1091.12 114.98Q1091.24 112.88 1091.18 110.12Q1091.12 107.36 1091.12 103.04L1091.12 103.04Q1091 101.00 1090.28 98.78Q1089.56 96.56 1088.60 95.48L1088.60 95.48Q1087.40 94.16 1085.24 93.62Q1083.08 93.08 1080.44 94.28L1080.44 94.28Q1079 94.88 1076.72 96.98Q1074.44 99.08 1071.92 101.84Q1069.40 104.60 1067.18 107.48Q1064.96 110.36 1063.58 112.58Q1062.20 114.80 1062.20 115.64L1062.20 115.64Q1062.20 115.64 1062.14 116.24Q1062.08 116.84 1061.60 117.44L1061.60 117.44Q1060.04 119.12 1058.18 123.44Q1056.32 127.76 1054.64 133.22Q1052.96 138.68 1051.82 144.02Q1050.68 149.36 1050.44 153.32L1050.44 153.32Q1050.20 156.56 1050.20 157.76Q1050.20 158.96 1050.68 159.62Q1051.16 160.28 1052.24 162.08L1052.24 162.08Q1052.96 163.28 1054.70 163.88Q1056.44 164.48 1058.24 164.12ZM1101.92 160.88L1101.92 160.88Q1101.44 159.92 1100.72 159.38Q1100 158.84 1100 158.36L1100 158.36Q1100 157.88 1099.94 157.34Q1099.88 156.80 1099.40 156.32L1099.40 156.32Q1098.80 155.60 1099.52 153.02Q1100.24 150.44 1101.92 146.66Q1103.60 142.88 1105.88 138.68L1105.88 138.68Q1106.84 137.72 1107.80 136.16Q1108.76 134.60 1109.24 134.12L1109.24 134.12Q1109.24 133.64 1109.60 133.22Q1109.96 132.80 1110.44 132.80L1110.44 132.80L1110.44 132.08Q1110.44 131.48 1111.58 130.04Q1112.72 128.60 1114.40 126.86Q1116.08 125.12 1117.88 123.50Q1119.68 121.88 1120.88 121.16L1120.88 121.16Q1123.40 119.48 1126.10 119.12Q1128.80 118.76 1130.72 120.32L1130.72 120.32Q1131.08 120.68 1131.92 121.52Q1132.76 122.36 1133.90 123.38Q1135.04 124.40 1136.24 125.48L1136.24 125.48L1140.68 129.44L1138.52 135.44Q1136.96 140.24 1137.74 143.84Q1138.52 147.44 1140.08 150.08L1140.08 150.08Q1140.68 151.40 1142.54 152.60Q1144.40 153.80 1146.08 154.04L1146.08 154.04Q1147.04 154.16 1147.88 154.76Q1148.72 155.36 1148.72 156.68L1148.72 156.68Q1148.72 157.88 1148.24 158.60Q1147.76 159.32 1146.56 159.56L1146.56 159.56Q1142.60 160.04 1139.18 157.64Q1135.76 155.24 1132.88 149.72L1132.88 149.72Q1132.40 149 1131.62 147.02Q1130.84 145.04 1130.72 144.44L1130.72 144.44Q1130.24 145.04 1128.92 146.66Q1127.60 148.28 1126.88 149L1126.88 149Q1118.36 157.64 1112.18 160.58Q1106 163.52 1101.92 160.88ZM1106.24 154.16L1106.24 154.16Q1106.24 155 1108.82 154.10Q1111.40 153.20 1114.40 150.80L1114.40 150.80Q1118.48 147.32 1122.62 143.12Q1126.76 138.92 1129.28 135.32L1129.28 135.32L1131.92 131Q1130.72 128.24 1129.34 127.22Q1127.96 126.20 1127 126.20L1127 126.20Q1125.44 126.20 1122.38 129.08Q1119.32 131.96 1115.84 136.76Q1112.36 141.56 1109.24 147.32L1109.24 147.32Q1108.04 149.72 1107.14 151.94Q1106.24 154.16 1106.24 154.16ZM1160.84 165.68L1160.84 165.68Q1158.56 164.72 1156.52 163.10Q1154.48 161.48 1153.88 160.40L1153.88 160.40Q1153.88 159.32 1154.24 158.90Q1154.60 158.48 1156.34 158.54Q1158.08 158.60 1162.04 159.08L1162.04 159.08Q1163.48 159.08 1165.64 158.84Q1167.80 158.60 1169.66 158.12Q1171.52 157.64 1171.76 156.92L1171.76 156.92Q1172.36 156.92 1172 156.50Q1171.64 156.08 1171.16 155.60L1171.16 155.60Q1170.68 155.60 1170.08 155.18Q1169.48 154.76 1169 154.76L1169 154.76Q1169 154.16 1167.86 153.38Q1166.72 152.60 1165.52 152.12L1165.52 152.12Q1162.88 149.96 1160.96 148.22Q1159.04 146.48 1159.52 145.88L1159.52 145.88Q1159.52 145.40 1159.52 145.34Q1159.52 145.28 1159.52 145.28L1159.52 145.28Q1158.68 145.28 1157.66 142.88Q1156.64 140.48 1156.64 138.56L1156.64 138.56Q1156.64 137.12 1157.48 134.90Q1158.32 132.68 1159.76 130.28Q1161.20 127.88 1162.76 126.32L1162.76 126.32Q1164.92 124.28 1168.16 121.94Q1171.40 119.60 1174.58 117.74Q1177.76 115.88 1179.92 115.28L1179.92 115.28Q1182.08 114.44 1183.94 114.44Q1185.80 114.44 1187.24 115.28L1187.24 115.28Q1188.44 115.88 1189.46 117.02Q1190.48 118.16 1191.26 119.30Q1192.04 120.44 1192.28 121.28L1192.28 121.28Q1192.28 122.72 1192.04 124.46Q1191.80 126.20 1191.38 127.52Q1190.96 128.84 1190.12 128.84L1190.12 128.84Q1190.12 128.84 1189.82 128.90Q1189.52 128.96 1189.52 129.56L1189.52 129.56Q1189.52 130.76 1187.72 132.32L1187.72 132.32Q1185.44 133.88 1183.76 134.18Q1182.08 134.48 1181.72 132.92L1181.72 132.92Q1181.36 132.44 1181.24 132.08Q1181.12 131.72 1180.64 131.72L1180.64 131.72Q1180.64 131.72 1180.28 131.36Q1179.92 131 1179.92 130.16L1179.92 130.16Q1179.92 129.68 1180.28 129.26Q1180.64 128.84 1180.64 128.84L1180.64 128.84Q1181.24 128.84 1182.20 127.46Q1183.16 126.08 1183.94 124.46Q1184.72 122.84 1184.72 122.24L1184.72 122.24Q1184.72 121.52 1184.54 121.40Q1184.36 121.28 1183.40 121.28L1183.40 121.28Q1181.72 122 1179.32 123.20Q1176.92 124.40 1174.82 125.54Q1172.72 126.68 1171.76 127.64L1171.76 127.64Q1171.28 128.48 1171.16 128.66Q1171.04 128.84 1170.56 128.84L1170.56 128.84Q1170.56 128.36 1169.78 129.26Q1169 130.16 1167.86 131.72Q1166.72 133.28 1165.70 134.78Q1164.68 136.28 1164.20 137L1164.20 137Q1163.96 137.24 1163.66 138.38Q1163.36 139.52 1163.36 140.48L1163.36 140.48Q1162.88 141.92 1163.48 142.46Q1164.08 143 1166.12 144.68L1166.12 144.68Q1170.32 147.80 1172.72 149.84Q1175.12 151.88 1176.32 153.20Q1177.52 154.52 1177.76 155.60L1177.76 155.60Q1179.92 159.20 1179.08 161.12Q1178.24 163.04 1175 164.48L1175 164.48Q1173.80 165.08 1171.04 165.44Q1168.28 165.80 1165.40 165.86Q1162.52 165.92 1160.84 165.68ZM1195.76 161.36L1195.76 161.36Q1194.80 160.40 1194.38 158.96Q1193.96 157.52 1194.08 156.08Q1194.20 154.64 1194.68 153.68L1194.68 153.68Q1194.68 152.72 1194.98 152.18Q1195.28 151.64 1195.16 151.16L1195.16 151.16Q1195.04 150.68 1195.40 149.48Q1195.76 148.28 1196.12 147.20L1196.12 147.20Q1196.96 145.28 1197.92 142.58Q1198.88 139.88 1199.72 137.24Q1200.56 134.60 1201.16 132.68Q1201.76 130.76 1201.88 130.28L1201.88 130.28Q1201.88 128.84 1203.80 128.72L1203.80 128.72Q1205.24 128.24 1205.96 128.66Q1206.68 129.08 1207.88 131L1207.88 131Q1208.84 131.96 1208.60 133.88Q1208.36 135.80 1207.04 138.68L1207.04 138.68Q1206.56 139.64 1205.90 141.44Q1205.24 143.24 1205 144.68L1205 144.68Q1204.52 145.64 1203.86 147.38Q1203.20 149.12 1202.72 150.68L1202.72 150.68Q1202.48 151.28 1202.24 152.42Q1202 153.56 1201.64 154.82Q1201.28 156.08 1200.68 157.04L1200.68 157.04Q1199.60 161.96 1198.70 162.80Q1197.80 163.64 1195.76 161.36ZM1207.40 112.64L1207.40 112.64Q1206.80 112.04 1206.32 110.90Q1205.84 109.76 1205.72 108.74Q1205.60 107.72 1205.96 107.72L1205.96 107.72Q1206.92 107.60 1208.24 105.68Q1209.56 103.76 1209.32 102.32L1209.32 102.32Q1209.32 101.84 1209.68 101.42Q1210.04 101.00 1210.52 100.88L1210.52 100.88Q1211.96 99.92 1213.34 100.58Q1214.72 101.24 1215.92 103.16L1215.92 103.16Q1217 105.44 1216.52 106.94Q1216.04 108.44 1213.88 111.08L1213.88 111.08Q1212.08 113.48 1210.58 113.72Q1209.08 113.96 1207.40 112.64ZM1224.20 165.68L1224.20 165.68Q1221.92 164.72 1219.88 163.10Q1217.84 161.48 1217.24 160.40L1217.24 160.40Q1217.24 159.32 1217.60 158.90Q1217.96 158.48 1219.70 158.54Q1221.44 158.60 1225.40 159.08L1225.40 159.08Q1226.84 159.08 1229 158.84Q1231.16 158.60 1233.02 158.12Q1234.88 157.64 1235.12 156.92L1235.12 156.92Q1235.72 156.92 1235.36 156.50Q1235 156.08 1234.52 155.60L1234.52 155.60Q1234.04 155.60 1233.44 155.18Q1232.84 154.76 1232.36 154.76L1232.36 154.76Q1232.36 154.16 1231.22 153.38Q1230.08 152.60 1228.88 152.12L1228.88 152.12Q1226.24 149.96 1224.32 148.22Q1222.40 146.48 1222.88 145.88L1222.88 145.88Q1222.88 145.40 1222.88 145.34Q1222.88 145.28 1222.88 145.28L1222.88 145.28Q1222.04 145.28 1221.02 142.88Q1220 140.48 1220 138.56L1220 138.56Q1220 137.12 1220.84 134.90Q1221.68 132.68 1223.12 130.28Q1224.56 127.88 1226.12 126.32L1226.12 126.32Q1228.28 124.28 1231.52 121.94Q1234.76 119.60 1237.94 117.74Q1241.12 115.88 1243.28 115.28L1243.28 115.28Q1245.44 114.44 1247.30 114.44Q1249.16 114.44 1250.60 115.28L1250.60 115.28Q1251.80 115.88 1252.82 117.02Q1253.84 118.16 1254.62 119.30Q1255.40 120.44 1255.64 121.28L1255.64 121.28Q1255.64 122.72 1255.40 124.46Q1255.16 126.20 1254.74 127.52Q1254.32 128.84 1253.48 128.84L1253.48 128.84Q1253.48 128.84 1253.18 128.90Q1252.88 128.96 1252.88 129.56L1252.88 129.56Q1252.88 130.76 1251.08 132.32L1251.08 132.32Q1248.80 133.88 1247.12 134.18Q1245.44 134.48 1245.08 132.92L1245.08 132.92Q1244.72 132.44 1244.60 132.08Q1244.48 131.72 1244 131.72L1244 131.72Q1244 131.72 1243.64 131.36Q1243.28 131 1243.28 130.16L1243.28 130.16Q1243.28 129.68 1243.64 129.26Q1244 128.84 1244 128.84L1244 128.84Q1244.60 128.84 1245.56 127.46Q1246.52 126.08 1247.30 124.46Q1248.08 122.84 1248.08 122.24L1248.08 122.24Q1248.08 121.52 1247.90 121.40Q1247.72 121.28 1246.76 121.28L1246.76 121.28Q1245.08 122 1242.68 123.20Q1240.28 124.40 1238.18 125.54Q1236.08 126.68 1235.12 127.64L1235.12 127.64Q1234.64 128.48 1234.52 128.66Q1234.40 128.84 1233.92 128.84L1233.92 128.84Q1233.92 128.36 1233.14 129.26Q1232.36 130.16 1231.22 131.72Q1230.08 133.28 1229.06 134.78Q1228.04 136.28 1227.56 137L1227.56 137Q1227.32 137.24 1227.02 138.38Q1226.72 139.52 1226.72 140.48L1226.72 140.48Q1226.24 141.92 1226.84 142.46Q1227.44 143 1229.48 144.68L1229.48 144.68Q1233.68 147.80 1236.08 149.84Q1238.48 151.88 1239.68 153.20Q1240.88 154.52 1241.12 155.60L1241.12 155.60Q1243.28 159.20 1242.44 161.12Q1241.60 163.04 1238.36 164.48L1238.36 164.48Q1237.16 165.08 1234.40 165.44Q1231.64 165.80 1228.76 165.86Q1225.88 165.92 1224.20 165.68Z"/>
      </svg>
    