
      <svg width="800" height="400" xmlns="http://www.w3.org/2000/svg">
        <rect width="100%" height="100%" fill="#c6c3c3"/>
        <svg xmlns="http://www.w3.org/2000/svg" xmlns:xlink="http://www.w3.org/1999/xlink" width="223.27200000000005" height="126.43200000000002"><path fill="#f40606" d="M345.53 335.14Q345.75 335.07 346.25 335.07L346.25 335.07Q347.33 335.07 347.91 335.79Q348.48 336.51 348.48 337.74L348.48 337.74Q348.48 339.97 347.62 341.23Q346.76 342.49 345.03 343.06L345.03 343.06Q341.72 344.14 337.97 344.14L337.97 344.14Q334.80 344.14 332.00 343.28L332.00 343.28Q329.91 346.66 327.39 350.26L327.39 350.26Q324.51 354.37 322.46 355.88Q320.40 357.39 317.81 357.39L317.81 357.39Q314.93 357.39 313.46 355.16Q311.98 352.93 311.62 347.82L311.62 347.82L311.26 342.56Q309.03 348.61 307.26 351.78Q305.50 354.94 303.74 356.17Q301.97 357.39 299.60 357.39L299.60 357.39Q296.64 357.39 294.95 355.09Q293.26 352.78 292.83 347.82L292.83 347.82Q291.96 337.74 291.96 330.18L291.96 330.18L291.96 327.66Q292.04 325.28 293.26 324.34Q294.48 323.41 296.93 323.41L296.93 323.41Q298.80 323.41 299.70 324.24Q300.60 325.06 300.60 327.01L300.60 327.01Q300.60 335.29 301.61 348.54L301.61 348.54Q306.51 338.24 310.61 327.08L310.61 327.08Q311.40 324.92 312.52 324.16Q313.64 323.41 315.22 323.41L315.22 323.41Q317.16 323.41 317.92 324.20Q318.68 324.99 318.68 327.01L318.68 327.01Q318.68 335.29 319.68 348.54L319.68 348.54Q324.00 342.13 326.16 338.31L326.16 338.31Q325.08 336.22 325.08 333.34L325.08 333.34Q325.08 330.90 326.16 328.59Q327.24 326.29 329.12 324.85Q330.99 323.41 333.36 323.41L333.36 323.41Q335.45 323.41 336.75 324.88Q338.04 326.36 338.04 329.17L338.04 329.17Q338.04 332.41 336.32 336.58L336.32 336.58Q339.05 336.44 343.59 335.50L343.59 335.50L345.53 335.14ZM374.33 340.98Q375.27 340.98 375.81 341.84Q376.35 342.70 376.35 344.22L376.35 344.22Q376.35 347.10 374.98 348.68L374.98 348.68Q372.32 351.92 367.46 354.66Q362.60 357.39 357.05 357.39L357.05 357.39Q349.49 357.39 345.32 353.29Q341.14 349.18 341.14 342.06L341.14 342.06Q341.14 337.09 343.23 332.80Q345.32 328.52 349.02 326.00Q352.73 323.48 357.41 323.48L357.41 323.48Q361.59 323.48 364.11 325.96Q366.63 328.45 366.63 332.70L366.63 332.70Q366.63 337.66 363.06 341.23Q359.50 344.79 351.00 346.88L351.00 346.88Q352.80 350.19 357.84 350.19L357.84 350.19Q361.08 350.19 365.22 347.92Q369.36 345.66 372.39 341.98L372.39 341.98Q373.25 340.98 374.33 340.98L374.33 340.98ZM356.19 330.54Q353.52 330.54 351.69 333.63Q349.85 336.73 349.85 341.12L349.85 341.12L349.85 341.26Q354.10 340.26 356.55 338.24Q359.00 336.22 359.00 333.56L359.00 333.56Q359.00 332.19 358.24 331.36Q357.48 330.54 356.19 330.54L356.19 330.54ZM375.63 357.39Q372.89 357.39 371.78 354.51Q370.66 351.63 370.66 345.30L370.66 345.30Q370.66 335.94 373.32 327.51L373.32 327.51Q373.97 325.42 375.45 324.45Q376.92 323.48 379.59 323.48L379.59 323.48Q381.03 323.48 381.60 323.84Q382.18 324.20 382.18 325.21L382.18 325.21Q382.18 326.36 381.10 330.39L381.10 330.39Q380.38 333.27 379.95 335.43Q379.52 337.59 379.23 340.76L379.23 340.76Q381.60 334.57 384.56 330.68Q387.51 326.79 390.35 325.14Q393.20 323.48 395.57 323.48L395.57 323.48Q400.25 323.48 400.25 328.16L400.25 328.16Q400.25 329.10 399.60 332.70L399.60 332.70Q399.03 335.58 399.03 336.30L399.03 336.30Q399.03 338.82 400.83 338.82L400.83 338.82Q402.84 338.82 406.01 335.65L406.01 335.65Q406.95 334.71 407.96 334.71L407.96 334.71Q408.89 334.71 409.43 335.54Q409.97 336.37 409.97 337.74L409.97 337.74Q409.97 340.40 408.53 341.91L408.53 341.91Q406.52 344.00 403.82 345.48Q401.12 346.95 398.09 346.95L398.09 346.95Q394.28 346.95 392.30 345.01Q390.32 343.06 390.32 339.75L390.32 339.75Q390.32 338.67 390.53 337.59L390.53 337.59Q390.68 336.15 390.68 335.65L390.68 335.65Q390.68 334.50 389.88 334.50L389.88 334.50Q388.80 334.50 387.04 336.91Q385.28 339.32 383.55 343.28Q381.82 347.24 380.74 351.63L380.74 351.63Q379.95 355.02 378.90 356.20Q377.86 357.39 375.63 357.39L375.63 357.39ZM435.39 340.98Q436.32 340.98 436.86 341.84Q437.40 342.70 437.40 344.22L437.40 344.22Q437.40 347.10 436.04 348.68L436.04 348.68Q433.37 351.92 428.51 354.66Q423.65 357.39 418.11 357.39L418.11 357.39Q410.55 357.39 406.37 353.29Q402.20 349.18 402.20 342.06L402.20 342.06Q402.20 337.09 404.28 332.80Q406.37 328.52 410.08 326.00Q413.79 323.48 418.47 323.48L418.47 323.48Q422.64 323.48 425.16 325.96Q427.68 328.45 427.68 332.70L427.68 332.70Q427.68 337.66 424.12 341.23Q420.56 344.79 412.06 346.88L412.06 346.88Q413.86 350.19 418.90 350.19L418.90 350.19Q422.14 350.19 426.28 347.92Q430.42 345.66 433.44 341.98L433.44 341.98Q434.31 340.98 435.39 340.98L435.39 340.98ZM417.24 330.54Q414.58 330.54 412.74 333.63Q410.91 336.73 410.91 341.12L410.91 341.12L410.91 341.26Q415.16 340.26 417.60 338.24Q420.05 336.22 420.05 333.56L420.05 333.56Q420.05 332.19 419.30 331.36Q418.54 330.54 417.24 330.54L417.24 330.54ZM485.64 335.14Q485.86 335.07 486.36 335.07L486.36 335.07Q487.44 335.07 488.02 335.79Q488.60 336.51 488.60 337.74L488.60 337.74Q488.60 339.97 487.73 341.23Q486.87 342.49 485.14 343.06L485.14 343.06Q481.83 344.14 478.08 344.14L478.08 344.14Q474.92 344.14 472.11 343.28L472.11 343.28Q470.02 346.66 467.50 350.26L467.50 350.26Q464.62 354.37 462.57 355.88Q460.52 357.39 457.92 357.39L457.92 357.39Q455.04 357.39 453.57 355.16Q452.09 352.93 451.73 347.82L451.73 347.82L451.37 342.56Q449.14 348.61 447.38 351.78Q445.61 354.94 443.85 356.17Q442.08 357.39 439.71 357.39L439.71 357.39Q436.76 357.39 435.06 355.09Q433.37 352.78 432.94 347.82L432.94 347.82Q432.08 337.74 432.08 330.18L432.08 330.18L432.08 327.66Q432.15 325.28 433.37 324.34Q434.60 323.41 437.04 323.41L437.04 323.41Q438.92 323.41 439.82 324.24Q440.72 325.06 440.72 327.01L440.72 327.01Q440.72 335.29 441.72 348.54L441.72 348.54Q446.62 338.24 450.72 327.08L450.72 327.08Q451.52 324.92 452.63 324.16Q453.75 323.41 455.33 323.41L455.33 323.41Q457.28 323.41 458.03 324.20Q458.79 324.99 458.79 327.01L458.79 327.01Q458.79 335.29 459.80 348.54L459.80 348.54Q464.12 342.13 466.28 338.31L466.28 338.31Q465.20 336.22 465.20 333.34L465.20 333.34Q465.20 330.90 466.28 328.59Q467.36 326.29 469.23 324.85Q471.10 323.41 473.48 323.41L473.48 323.41Q475.56 323.41 476.86 324.88Q478.16 326.36 478.16 329.17L478.16 329.17Q478.16 332.41 476.43 336.58L476.43 336.58Q479.16 336.44 483.70 335.50L483.70 335.50L485.64 335.14ZM487.44 357.39Q484.71 357.39 483.59 354.51Q482.48 351.63 482.48 345.30L482.48 345.30Q482.48 335.94 485.14 327.51L485.14 327.51Q485.79 325.42 487.26 324.45Q488.74 323.48 491.40 323.48L491.40 323.48Q492.84 323.48 493.42 323.84Q494.00 324.20 494.00 325.21L494.00 325.21Q494.00 326.36 492.92 330.39L492.92 330.39Q492.20 333.27 491.76 335.43Q491.33 337.59 491.04 340.76L491.04 340.76Q493.42 334.57 496.37 330.68Q499.32 326.79 502.17 325.14Q505.01 323.48 507.39 323.48L507.39 323.48Q512.07 323.48 512.07 328.16L512.07 328.16Q512.07 329.10 511.42 332.70L511.42 332.70Q510.84 335.58 510.84 336.30L510.84 336.30Q510.84 338.82 512.64 338.82L512.64 338.82Q514.66 338.82 517.83 335.65L517.83 335.65Q518.76 334.71 519.77 334.71L519.77 334.71Q520.71 334.71 521.25 335.54Q521.79 336.37 521.79 337.74L521.79 337.74Q521.79 340.40 520.35 341.91L520.35 341.91Q518.33 344.00 515.63 345.48Q512.93 346.95 509.91 346.95L509.91 346.95Q506.09 346.95 504.11 345.01Q502.13 343.06 502.13 339.75L502.13 339.75Q502.13 338.67 502.35 337.59L502.35 337.59Q502.49 336.15 502.49 335.65L502.49 335.65Q502.49 334.50 501.70 334.50L501.70 334.50Q500.62 334.50 498.86 336.91Q497.09 339.32 495.36 343.28Q493.64 347.24 492.56 351.63L492.56 351.63Q491.76 355.02 490.72 356.20Q489.68 357.39 487.44 357.39L487.44 357.39Z"/></svg>
      </svg>
    