
      <svg width="800" height="400" xmlns="http://www.w3.org/2000/svg">
        <rect width="100%" height="100%" fill="#ffffff"/>
        <svg xmlns="http://www.w3.org/2000/svg" xmlns:xlink="http://www.w3.org/1999/xlink" width="271.29600000000005" height="87.76800000000001"><path fill="#000000" d="M284.01 313.58L279.18 313.58L264.93 275.78L269.82 275.78L282.78 310.84L280.55 310.84L293.87 275.78L298.26 275.78L311.44 310.84L309.21 310.84L322.38 275.78L327.06 275.78L312.74 313.58L307.91 313.58L295.24 280.60L296.75 280.60L284.01 313.58ZM350.82 313.94L350.82 313.94Q344.92 313.94 340.46 311.46Q335.99 308.97 333.47 304.62Q330.95 300.26 330.95 294.64L330.95 294.64Q330.95 289.03 333.36 284.71Q335.78 280.39 339.99 277.90Q344.20 275.42 349.46 275.42L349.46 275.42Q354.78 275.42 358.92 277.83Q363.06 280.24 365.44 284.60Q367.82 288.96 367.82 294.64L367.82 294.64Q367.82 295.00 367.78 295.40Q367.74 295.80 367.74 296.23L367.74 296.23L334.84 296.23L334.84 292.41L365.01 292.41L362.99 293.92Q362.99 289.82 361.23 286.62Q359.46 283.41 356.44 281.61Q353.42 279.81 349.46 279.81L349.46 279.81Q345.57 279.81 342.47 281.61Q339.38 283.41 337.65 286.65Q335.92 289.89 335.92 294.07L335.92 294.07L335.92 294.86Q335.92 299.18 337.83 302.46Q339.74 305.73 343.16 307.57Q346.58 309.40 350.97 309.40L350.97 309.40Q354.42 309.40 357.41 308.18Q360.40 306.96 362.56 304.44L362.56 304.44L365.44 307.75Q362.92 310.77 359.14 312.36Q355.36 313.94 350.82 313.94ZM383.37 313.58L378.26 313.58L378.26 275.78L383.15 275.78L383.15 286.08L382.65 284.28Q384.23 279.96 387.98 277.69Q391.72 275.42 397.26 275.42L397.26 275.42L397.26 280.39Q396.98 280.39 396.69 280.35Q396.40 280.32 396.11 280.32L396.11 280.32Q390.14 280.32 386.75 283.95Q383.37 287.59 383.37 294.28L383.37 294.28L383.37 313.58ZM423.18 313.94L423.18 313.94Q417.28 313.94 412.82 311.46Q408.35 308.97 405.83 304.62Q403.31 300.26 403.31 294.64L403.31 294.64Q403.31 289.03 405.72 284.71Q408.14 280.39 412.35 277.90Q416.56 275.42 421.82 275.42L421.82 275.42Q427.14 275.42 431.28 277.83Q435.42 280.24 437.80 284.60Q440.18 288.96 440.18 294.64L440.18 294.64Q440.18 295.00 440.14 295.40Q440.10 295.80 440.10 296.23L440.10 296.23L407.20 296.23L407.20 292.41L437.37 292.41L435.35 293.92Q435.35 289.82 433.59 286.62Q431.82 283.41 428.80 281.61Q425.78 279.81 421.82 279.81L421.82 279.81Q417.93 279.81 414.83 281.61Q411.74 283.41 410.01 286.65Q408.28 289.89 408.28 294.07L408.28 294.07L408.28 294.86Q408.28 299.18 410.19 302.46Q412.10 305.73 415.52 307.57Q418.94 309.40 423.33 309.40L423.33 309.40Q426.78 309.40 429.77 308.18Q432.76 306.96 434.92 304.44L434.92 304.44L437.80 307.75Q435.28 310.77 431.50 312.36Q427.72 313.94 423.18 313.94ZM463.14 313.58L458.32 313.58L444.06 275.78L448.96 275.78L461.92 310.84L459.69 310.84L473.01 275.78L477.40 275.78L490.58 310.84L488.34 310.84L501.52 275.78L506.20 275.78L491.87 313.58L487.05 313.58L474.38 280.60L475.89 280.60L463.14 313.58ZM519.02 313.58L513.90 313.58L513.90 275.78L518.80 275.78L518.80 286.08L518.30 284.28Q519.88 279.96 523.62 277.69Q527.37 275.42 532.91 275.42L532.91 275.42L532.91 280.39Q532.62 280.39 532.34 280.35Q532.05 280.32 531.76 280.32L531.76 280.32Q525.78 280.32 522.40 283.95Q519.02 287.59 519.02 294.28L519.02 294.28L519.02 313.58Z"/></svg>
      </svg>
    