
      <svg xmlns="http://www.w3.org/2000/svg" width="800" height="300">
        <rect width="100%" height="100%" fill="#ffffff" stroke="red" stroke-width="5"/>
        <line x1="0" y1="0" x2="800" y2="300" stroke="blue" stroke-width="2"/>
        <line x1="0" y1="300" x2="800" y2="0" stroke="blue" stroke-width="2"/>
        <svg xmlns="http://www.w3.org/2000/svg" xmlns:xlink="http://www.w3.org/1999/xlink" width="494.76" height="151.2"><path fill="#5d4037" d="M173.86 220.20L173.86 220.20Q172.06 220.20 170.56 217.98Q169.06 215.76 168.40 212.22Q167.74 208.68 167.98 204.84L167.98 204.84Q167.98 201 168.40 198.66Q168.82 196.32 169.30 194.04L169.30 194.04Q169.66 193.32 169.72 192.84Q169.78 192.36 169.96 191.28Q170.14 190.20 170.74 187.68L170.74 187.68Q171.22 185.64 171.70 184.32Q172.18 183 172.66 182.52L172.66 182.52Q173.26 181.80 174.22 181.62Q175.18 181.44 176.14 181.80Q177.10 182.16 177.70 183.12L177.70 183.12Q178.42 183.72 178.48 185.82Q178.54 187.92 178.18 190.14Q177.82 192.36 177.10 193.32L177.10 193.32Q176.86 193.92 176.56 196.44Q176.26 198.96 175.96 201.72Q175.66 204.48 175.30 206.16L175.30 206.16Q174.94 208.32 175.72 209.64Q176.50 210.96 178.72 209.70Q180.94 208.44 184.66 203.04L184.66 203.04Q187.18 199.44 188.50 197.16Q189.82 194.88 190.60 192.90Q191.38 190.92 192.22 188.64L192.22 188.64Q192.82 186.72 193.36 185.46Q193.90 184.20 194.38 183.84L194.38 183.84Q195.22 183.24 196.36 183.36Q197.50 183.48 198.94 184.44L198.94 184.44Q200.38 185.88 200.38 187.86Q200.38 189.84 198.94 192.72L198.94 192.72Q197.98 194.64 197.08 197.64Q196.18 200.64 195.64 203.70Q195.10 206.76 195.10 208.68L195.10 208.68Q195.10 211.08 195.76 211.50Q196.42 211.92 197.38 211.92L197.38 211.92Q198.82 211.92 200.86 210.84Q202.90 209.76 205.42 207.12L205.42 207.12Q206.50 206.04 208.06 203.94Q209.62 201.84 211.12 199.50Q212.62 197.16 213.64 195.36Q214.66 193.56 214.66 193.08L214.66 193.08Q214.66 192.36 215.74 191.04L215.74 191.04Q216.46 190.08 216.88 189.54Q217.30 189 218.50 188.40L218.50 188.40Q219.46 187.92 220.18 188.22Q220.90 188.52 221.74 189.48L221.74 189.48Q222.34 189.96 222.40 190.92Q222.46 191.88 222.46 193.32L222.46 193.32Q222.10 194.64 221.32 196.74Q220.54 198.84 219.64 200.70Q218.74 202.56 218.14 203.28L218.14 203.28Q217.66 203.76 216.46 205.02Q215.26 206.28 214.30 207.72L214.30 207.72Q211.30 211.32 209.98 212.40Q208.66 213.48 207.70 214.44L207.70 214.44Q205.18 216.96 202.42 218.22Q199.66 219.48 197.20 219.48Q194.74 219.48 193.06 218.28L193.06 218.28Q189.34 216.36 189.34 211.80L189.34 211.80Q189.34 210.84 189.04 210.06Q188.74 209.28 188.74 209.28L188.74 209.28Q188.26 209.28 187.48 209.52Q186.70 209.76 185.86 211.20L185.86 211.20Q184.78 213.24 182.44 215.34Q180.10 217.44 177.70 218.82Q175.30 220.20 173.86 220.20ZM247.78 221.40L247.78 221.40Q245.26 223.56 241.96 223.92Q238.66 224.28 235.54 222.90Q232.42 221.52 230.38 218.64L230.38 218.64Q228.34 216 227.74 212.58Q227.14 209.16 227.62 203.64L227.62 203.64Q227.98 198.96 230.62 194.22Q233.26 189.48 237.04 185.76Q240.82 182.04 244.54 180.60L244.54 180.60Q246.34 179.40 247.60 179.46Q248.86 179.52 251.50 179.76L251.50 179.76Q254.26 180.12 255.64 180.84Q257.02 181.56 257.86 182.76L257.86 182.76Q259.66 184.56 260.26 186.30Q260.86 188.04 260.86 189.72L260.86 189.72Q260.38 192.36 257.32 196.14Q254.26 199.92 249.34 202.32L249.34 202.32Q246.70 203.16 243.58 203.04Q240.46 202.92 238.42 201.48L238.42 201.48Q236.14 200.52 235.42 201.78Q234.70 203.04 234.10 207.84L234.10 207.84Q233.62 212.40 234.82 214.50Q236.02 216.60 238.06 216.96L238.06 216.96Q240.46 217.44 241.84 217.62Q243.22 217.80 245.26 216.60L245.26 216.60Q247.18 215.40 247.66 215.22Q248.14 215.04 248.44 214.74Q248.74 214.44 249.94 213.24L249.94 213.24Q250.78 212.40 251.26 211.98Q251.74 211.56 252.34 211.56L252.34 211.56Q252.94 211.56 253.42 212.10Q253.90 212.64 254.38 212.88L254.38 212.88Q255.58 212.88 254.92 214.32Q254.26 215.76 252.34 217.74Q250.42 219.72 247.78 221.40ZM247.66 195.96L247.66 195.96Q248.98 195.36 250.42 194.22Q251.86 193.08 252.88 191.70Q253.90 190.32 253.90 189.36L253.90 189.36Q253.90 187.68 252.34 186.54Q250.78 185.40 247.66 186.24L247.66 186.24Q246.34 186.60 244.66 187.98Q242.98 189.36 241.48 191.04Q239.98 192.72 239.08 194.04Q238.18 195.36 238.42 195.60L238.42 195.60Q238.78 196.20 240.46 196.50Q242.14 196.80 244.24 196.68Q246.34 196.56 247.66 195.96ZM267.94 221.40L267.94 221.40Q266.86 220.56 266.44 219.72Q266.02 218.88 266.38 216.48L266.38 216.48Q266.74 213.12 267.34 210.54Q267.94 207.96 268.78 204.60L268.78 204.60Q269.02 203.16 270.16 199.68Q271.30 196.20 272.98 192.12Q274.66 188.04 276.34 184.38Q278.02 180.72 279.22 178.92L279.22 178.92Q280.18 178.20 281.56 178.32Q282.94 178.44 283.90 179.40L283.90 179.40Q285.22 180.48 284.32 183.18Q283.42 185.88 280.66 191.64L280.66 191.64Q279.22 194.88 278.50 196.50Q277.78 198.12 277.90 198.42Q278.02 198.72 278.98 198.12L278.98 198.12Q279.70 196.80 281.62 195.06Q283.54 193.32 285.70 191.64Q287.86 189.96 289.78 188.64Q291.70 187.32 292.42 186.96L292.42 186.96Q293.38 186.36 294.64 185.94Q295.90 185.52 296.38 185.28L296.38 185.28Q299.14 183.96 302.02 184.32Q304.90 184.68 305.62 186.48L305.62 186.48Q305.74 187.44 306.40 187.92Q307.06 188.40 307.06 188.40L307.06 188.40Q307.54 188.40 307.60 188.76Q307.66 189.12 307.66 189.12L307.66 189.12Q307.66 189.96 306.40 190.14Q305.14 190.32 303.22 190.44L303.22 190.44Q301.66 190.56 300.46 191.04Q299.26 191.52 297.58 192.24L297.58 192.24Q293.02 194.88 288.88 197.40Q284.74 199.92 280.90 204.12L280.90 204.12Q280.06 205.08 279.22 206.40Q278.38 207.72 277.42 209.28L277.42 209.28Q276.82 209.88 276.22 211.92Q275.62 213.96 275.20 215.82Q274.78 217.68 274.78 218.04L274.78 218.04Q274.78 218.04 274.42 219.18Q274.06 220.32 273.22 221.40L273.22 221.40Q271.78 223.32 270.82 223.32Q269.86 223.32 267.94 221.40ZM318.10 220.20L318.10 220.20Q316.30 220.20 314.80 217.98Q313.30 215.76 312.64 212.22Q311.98 208.68 312.22 204.84L312.22 204.84Q312.22 201 312.64 198.66Q313.06 196.32 313.54 194.04L313.54 194.04Q313.90 193.32 313.96 192.84Q314.02 192.36 314.20 191.28Q314.38 190.20 314.98 187.68L314.98 187.68Q315.46 185.64 315.94 184.32Q316.42 183 316.90 182.52L316.90 182.52Q317.50 181.80 318.46 181.62Q319.42 181.44 320.38 181.80Q321.34 182.16 321.94 183.12L321.94 183.12Q322.66 183.72 322.72 185.82Q322.78 187.92 322.42 190.14Q322.06 192.36 321.34 193.32L321.34 193.32Q321.10 193.92 320.80 196.44Q320.50 198.96 320.20 201.72Q319.90 204.48 319.54 206.16L319.54 206.16Q319.18 208.32 319.96 209.64Q320.74 210.96 322.96 209.70Q325.18 208.44 328.90 203.04L328.90 203.04Q331.42 199.44 332.74 197.16Q334.06 194.88 334.84 192.90Q335.62 190.92 336.46 188.64L336.46 188.64Q337.06 186.72 337.60 185.46Q338.14 184.20 338.62 183.84L338.62 183.84Q339.46 183.24 340.60 183.36Q341.74 183.48 343.18 184.44L343.18 184.44Q344.62 185.88 344.62 187.86Q344.62 189.84 343.18 192.72L343.18 192.72Q342.22 194.64 341.32 197.64Q340.42 200.64 339.88 203.70Q339.34 206.76 339.34 208.68L339.34 208.68Q339.34 211.08 340 211.50Q340.66 211.92 341.62 211.92L341.62 211.92Q343.06 211.92 345.10 210.84Q347.14 209.76 349.66 207.12L349.66 207.12Q350.74 206.04 352.30 203.94Q353.86 201.84 355.36 199.50Q356.86 197.16 357.88 195.36Q358.90 193.56 358.90 193.08L358.90 193.08Q358.90 192.36 359.98 191.04L359.98 191.04Q360.70 190.08 361.12 189.54Q361.54 189 362.74 188.40L362.74 188.40Q363.70 187.92 364.42 188.22Q365.14 188.52 365.98 189.48L365.98 189.48Q366.58 189.96 366.64 190.92Q366.70 191.88 366.70 193.32L366.70 193.32Q366.34 194.64 365.56 196.74Q364.78 198.84 363.88 200.70Q362.98 202.56 362.38 203.28L362.38 203.28Q361.90 203.76 360.70 205.02Q359.50 206.28 358.54 207.72L358.54 207.72Q355.54 211.32 354.22 212.40Q352.90 213.48 351.94 214.44L351.94 214.44Q349.42 216.96 346.66 218.22Q343.90 219.48 341.44 219.48Q338.98 219.48 337.30 218.28L337.30 218.28Q333.58 216.36 333.58 211.80L333.58 211.80Q333.58 210.84 333.28 210.06Q332.98 209.28 332.98 209.28L332.98 209.28Q332.50 209.28 331.72 209.52Q330.94 209.76 330.10 211.20L330.10 211.20Q329.02 213.24 326.68 215.34Q324.34 217.44 321.94 218.82Q319.54 220.20 318.10 220.20ZM392.02 221.40L392.02 221.40Q389.50 223.56 386.20 223.92Q382.90 224.28 379.78 222.90Q376.66 221.52 374.62 218.64L374.62 218.64Q372.58 216 371.98 212.58Q371.38 209.16 371.86 203.64L371.86 203.64Q372.22 198.96 374.86 194.22Q377.50 189.48 381.28 185.76Q385.06 182.04 388.78 180.60L388.78 180.60Q390.58 179.40 391.84 179.46Q393.10 179.52 395.74 179.76L395.74 179.76Q398.50 180.12 399.88 180.84Q401.26 181.56 402.10 182.76L402.10 182.76Q403.90 184.56 404.50 186.30Q405.10 188.04 405.10 189.72L405.10 189.72Q404.62 192.36 401.56 196.14Q398.50 199.92 393.58 202.32L393.58 202.32Q390.94 203.16 387.82 203.04Q384.70 202.92 382.66 201.48L382.66 201.48Q380.38 200.52 379.66 201.78Q378.94 203.04 378.34 207.84L378.34 207.84Q377.86 212.40 379.06 214.50Q380.26 216.60 382.30 216.96L382.30 216.96Q384.70 217.44 386.08 217.62Q387.46 217.80 389.50 216.60L389.50 216.60Q391.42 215.40 391.90 215.22Q392.38 215.04 392.68 214.74Q392.98 214.44 394.18 213.24L394.18 213.24Q395.02 212.40 395.50 211.98Q395.98 211.56 396.58 211.56L396.58 211.56Q397.18 211.56 397.66 212.10Q398.14 212.64 398.62 212.88L398.62 212.88Q399.82 212.88 399.16 214.32Q398.50 215.76 396.58 217.74Q394.66 219.72 392.02 221.40ZM391.90 195.96L391.90 195.96Q393.22 195.36 394.66 194.22Q396.10 193.08 397.12 191.70Q398.14 190.32 398.14 189.36L398.14 189.36Q398.14 187.68 396.58 186.54Q395.02 185.40 391.90 186.24L391.90 186.24Q390.58 186.60 388.90 187.98Q387.22 189.36 385.72 191.04Q384.22 192.72 383.32 194.04Q382.42 195.36 382.66 195.60L382.66 195.60Q383.02 196.20 384.70 196.50Q386.38 196.80 388.48 196.68Q390.58 196.56 391.90 195.96ZM412.18 221.40L412.18 221.40Q411.10 220.56 410.68 219.72Q410.26 218.88 410.62 216.48L410.62 216.48Q410.98 213.12 411.58 210.54Q412.18 207.96 413.02 204.60L413.02 204.60Q413.26 203.16 414.40 199.68Q415.54 196.20 417.22 192.12Q418.90 188.04 420.58 184.38Q422.26 180.72 423.46 178.92L423.46 178.92Q424.42 178.20 425.80 178.32Q427.18 178.44 428.14 179.40L428.14 179.40Q429.46 180.48 428.56 183.18Q427.66 185.88 424.90 191.64L424.90 191.64Q423.46 194.88 422.74 196.50Q422.02 198.12 422.14 198.42Q422.26 198.72 423.22 198.12L423.22 198.12Q423.94 196.80 425.86 195.06Q427.78 193.32 429.94 191.64Q432.10 189.96 434.02 188.64Q435.94 187.32 436.66 186.96L436.66 186.96Q437.62 186.36 438.88 185.94Q440.14 185.52 440.62 185.28L440.62 185.28Q443.38 183.96 446.26 184.32Q449.14 184.68 449.86 186.48L449.86 186.48Q449.98 187.44 450.64 187.92Q451.30 188.40 451.30 188.40L451.30 188.40Q451.78 188.40 451.84 188.76Q451.90 189.12 451.90 189.12L451.90 189.12Q451.90 189.96 450.64 190.14Q449.38 190.32 447.46 190.44L447.46 190.44Q445.90 190.56 444.70 191.04Q443.50 191.52 441.82 192.24L441.82 192.24Q437.26 194.88 433.12 197.40Q428.98 199.92 425.14 204.12L425.14 204.12Q424.30 205.08 423.46 206.40Q422.62 207.72 421.66 209.28L421.66 209.28Q421.06 209.88 420.46 211.92Q419.86 213.96 419.44 215.82Q419.02 217.68 419.02 218.04L419.02 218.04Q419.02 218.04 418.66 219.18Q418.30 220.32 417.46 221.40L417.46 221.40Q416.02 223.32 415.06 223.32Q414.10 223.32 412.18 221.40ZM462.34 220.20L462.34 220.20Q460.54 220.20 459.04 217.98Q457.54 215.76 456.88 212.22Q456.22 208.68 456.46 204.84L456.46 204.84Q456.46 201 456.88 198.66Q457.30 196.32 457.78 194.04L457.78 194.04Q458.14 193.32 458.20 192.84Q458.26 192.36 458.44 191.28Q458.62 190.20 459.22 187.68L459.22 187.68Q459.70 185.64 460.18 184.32Q460.66 183 461.14 182.52L461.14 182.52Q461.74 181.80 462.70 181.62Q463.66 181.44 464.62 181.80Q465.58 182.16 466.18 183.12L466.18 183.12Q466.90 183.72 466.96 185.82Q467.02 187.92 466.66 190.14Q466.30 192.36 465.58 193.32L465.58 193.32Q465.34 193.92 465.04 196.44Q464.74 198.96 464.44 201.72Q464.14 204.48 463.78 206.16L463.78 206.16Q463.42 208.32 464.20 209.64Q464.98 210.96 467.20 209.70Q469.42 208.44 473.14 203.04L473.14 203.04Q475.66 199.44 476.98 197.16Q478.30 194.88 479.08 192.90Q479.86 190.92 480.70 188.64L480.70 188.64Q481.30 186.72 481.84 185.46Q482.38 184.20 482.86 183.84L482.86 183.84Q483.70 183.24 484.84 183.36Q485.98 183.48 487.42 184.44L487.42 184.44Q488.86 185.88 488.86 187.86Q488.86 189.84 487.42 192.72L487.42 192.72Q486.46 194.64 485.56 197.64Q484.66 200.64 484.12 203.70Q483.58 206.76 483.58 208.68L483.58 208.68Q483.58 211.08 484.24 211.50Q484.90 211.92 485.86 211.92L485.86 211.92Q487.30 211.92 489.34 210.84Q491.38 209.76 493.90 207.12L493.90 207.12Q494.98 206.04 496.54 203.94Q498.10 201.84 499.60 199.50Q501.10 197.16 502.12 195.36Q503.14 193.56 503.14 193.08L503.14 193.08Q503.14 192.36 504.22 191.04L504.22 191.04Q504.94 190.08 505.36 189.54Q505.78 189 506.98 188.40L506.98 188.40Q507.94 187.92 508.66 188.22Q509.38 188.52 510.22 189.48L510.22 189.48Q510.82 189.96 510.88 190.92Q510.94 191.88 510.94 193.32L510.94 193.32Q510.58 194.64 509.80 196.74Q509.02 198.84 508.12 200.70Q507.22 202.56 506.62 203.28L506.62 203.28Q506.14 203.76 504.94 205.02Q503.74 206.28 502.78 207.72L502.78 207.72Q499.78 211.32 498.46 212.40Q497.14 213.48 496.18 214.44L496.18 214.44Q493.66 216.96 490.90 218.22Q488.14 219.48 485.68 219.48Q483.22 219.48 481.54 218.28L481.54 218.28Q477.82 216.36 477.82 211.80L477.82 211.80Q477.82 210.84 477.52 210.06Q477.22 209.28 477.22 209.28L477.22 209.28Q476.74 209.28 475.96 209.52Q475.18 209.76 474.34 211.20L474.34 211.20Q473.26 213.24 470.92 215.34Q468.58 217.44 466.18 218.82Q463.78 220.20 462.34 220.20ZM536.26 221.40L536.26 221.40Q533.74 223.56 530.44 223.92Q527.14 224.28 524.02 222.90Q520.90 221.52 518.86 218.64L518.86 218.64Q516.82 216 516.22 212.58Q515.62 209.16 516.10 203.64L516.10 203.64Q516.46 198.96 519.10 194.22Q521.74 189.48 525.52 185.76Q529.30 182.04 533.02 180.60L533.02 180.60Q534.82 179.40 536.08 179.46Q537.34 179.52 539.98 179.76L539.98 179.76Q542.74 180.12 544.12 180.84Q545.50 181.56 546.34 182.76L546.34 182.76Q548.14 184.56 548.74 186.30Q549.34 188.04 549.34 189.72L549.34 189.72Q548.86 192.36 545.80 196.14Q542.74 199.92 537.82 202.32L537.82 202.32Q535.18 203.16 532.06 203.04Q528.94 202.92 526.90 201.48L526.90 201.48Q524.62 200.52 523.90 201.78Q523.18 203.04 522.58 207.84L522.58 207.84Q522.10 212.40 523.30 214.50Q524.50 216.60 526.54 216.96L526.54 216.96Q528.94 217.44 530.32 217.62Q531.70 217.80 533.74 216.60L533.74 216.60Q535.66 215.40 536.14 215.22Q536.62 215.04 536.92 214.74Q537.22 214.44 538.42 213.24L538.42 213.24Q539.26 212.40 539.74 211.98Q540.22 211.56 540.82 211.56L540.82 211.56Q541.42 211.56 541.90 212.10Q542.38 212.64 542.86 212.88L542.86 212.88Q544.06 212.88 543.40 214.32Q542.74 215.76 540.82 217.74Q538.90 219.72 536.26 221.40ZM536.14 195.96L536.14 195.96Q537.46 195.36 538.90 194.22Q540.34 193.08 541.36 191.70Q542.38 190.32 542.38 189.36L542.38 189.36Q542.38 187.68 540.82 186.54Q539.26 185.40 536.14 186.24L536.14 186.24Q534.82 186.60 533.14 187.98Q531.46 189.36 529.96 191.04Q528.46 192.72 527.56 194.04Q526.66 195.36 526.90 195.60L526.90 195.60Q527.26 196.20 528.94 196.50Q530.62 196.80 532.72 196.68Q534.82 196.56 536.14 195.96ZM556.42 221.40L556.42 221.40Q555.34 220.56 554.92 219.72Q554.50 218.88 554.86 216.48L554.86 216.48Q555.22 213.12 555.82 210.54Q556.42 207.96 557.26 204.60L557.26 204.60Q557.50 203.16 558.64 199.68Q559.78 196.20 561.46 192.12Q563.14 188.04 564.82 184.38Q566.50 180.72 567.70 178.92L567.70 178.92Q568.66 178.20 570.04 178.32Q571.42 178.44 572.38 179.40L572.38 179.40Q573.70 180.48 572.80 183.18Q571.90 185.88 569.14 191.64L569.14 191.64Q567.70 194.88 566.98 196.50Q566.26 198.12 566.38 198.42Q566.50 198.72 567.46 198.12L567.46 198.12Q568.18 196.80 570.10 195.06Q572.02 193.32 574.18 191.64Q576.34 189.96 578.26 188.64Q580.18 187.32 580.90 186.96L580.90 186.96Q581.86 186.36 583.12 185.94Q584.38 185.52 584.86 185.28L584.86 185.28Q587.62 183.96 590.50 184.32Q593.38 184.68 594.10 186.48L594.10 186.48Q594.22 187.44 594.88 187.92Q595.54 188.40 595.54 188.40L595.54 188.40Q596.02 188.40 596.08 188.76Q596.14 189.12 596.14 189.12L596.14 189.12Q596.14 189.96 594.88 190.14Q593.62 190.32 591.70 190.44L591.70 190.44Q590.14 190.56 588.94 191.04Q587.74 191.52 586.06 192.24L586.06 192.24Q581.50 194.88 577.36 197.40Q573.22 199.92 569.38 204.12L569.38 204.12Q568.54 205.08 567.70 206.40Q566.86 207.72 565.90 209.28L565.90 209.28Q565.30 209.88 564.70 211.92Q564.10 213.96 563.68 215.82Q563.26 217.68 563.26 218.04L563.26 218.04Q563.26 218.04 562.90 219.18Q562.54 220.32 561.70 221.40L561.70 221.40Q560.26 223.32 559.30 223.32Q558.34 223.32 556.42 221.40ZM606.58 220.20L606.58 220.20Q604.78 220.20 603.28 217.98Q601.78 215.76 601.12 212.22Q600.46 208.68 600.70 204.84L600.70 204.84Q600.70 201 601.12 198.66Q601.54 196.32 602.02 194.04L602.02 194.04Q602.38 193.32 602.44 192.84Q602.50 192.36 602.68 191.28Q602.86 190.20 603.46 187.68L603.46 187.68Q603.94 185.64 604.42 184.32Q604.90 183 605.38 182.52L605.38 182.52Q605.98 181.80 606.94 181.62Q607.90 181.44 608.86 181.80Q609.82 182.16 610.42 183.12L610.42 183.12Q611.14 183.72 611.20 185.82Q611.26 187.92 610.90 190.14Q610.54 192.36 609.82 193.32L609.82 193.32Q609.58 193.92 609.28 196.44Q608.98 198.96 608.68 201.72Q608.38 204.48 608.02 206.16L608.02 206.16Q607.66 208.32 608.44 209.64Q609.22 210.96 611.44 209.70Q613.66 208.44 617.38 203.04L617.38 203.04Q619.90 199.44 621.22 197.16Q622.54 194.88 623.32 192.90Q624.10 190.92 624.94 188.64L624.94 188.64Q625.54 186.72 626.08 185.46Q626.62 184.20 627.10 183.84L627.10 183.84Q627.94 183.24 629.08 183.36Q630.22 183.48 631.66 184.44L631.66 184.44Q633.10 185.88 633.10 187.86Q633.10 189.84 631.66 192.72L631.66 192.72Q630.70 194.64 629.80 197.64Q628.90 200.64 628.36 203.70Q627.82 206.76 627.82 208.68L627.82 208.68Q627.82 211.08 628.48 211.50Q629.14 211.92 630.10 211.92L630.10 211.92Q631.54 211.92 633.58 210.84Q635.62 209.76 638.14 207.12L638.14 207.12Q639.22 206.04 640.78 203.94Q642.34 201.84 643.84 199.50Q645.34 197.16 646.36 195.36Q647.38 193.56 647.38 193.08L647.38 193.08Q647.38 192.36 648.46 191.04L648.46 191.04Q649.18 190.08 649.60 189.54Q650.02 189 651.22 188.40L651.22 188.40Q652.18 187.92 652.90 188.22Q653.62 188.52 654.46 189.48L654.46 189.48Q655.06 189.96 655.12 190.92Q655.18 191.88 655.18 193.32L655.18 193.32Q654.82 194.64 654.04 196.74Q653.26 198.84 652.36 200.70Q651.46 202.56 650.86 203.28L650.86 203.28Q650.38 203.76 649.18 205.02Q647.98 206.28 647.02 207.72L647.02 207.72Q644.02 211.32 642.70 212.40Q641.38 213.48 640.42 214.44L640.42 214.44Q637.90 216.96 635.14 218.22Q632.38 219.48 629.92 219.48Q627.46 219.48 625.78 218.28L625.78 218.28Q622.06 216.36 622.06 211.80L622.06 211.80Q622.06 210.84 621.76 210.06Q621.46 209.28 621.46 209.28L621.46 209.28Q620.98 209.28 620.20 209.52Q619.42 209.76 618.58 211.20L618.58 211.20Q617.50 213.24 615.16 215.34Q612.82 217.44 610.42 218.82Q608.02 220.20 606.58 220.20Z"/></svg>
      </svg>
    