
      <svg xmlns="http://www.w3.org/2000/svg" width="800" height="300">
        <rect width="100%" height="100%" fill="#ffffff" stroke="red" stroke-width="5"/>
        <line x1="0" y1="0" x2="800" y2="300" stroke="blue" stroke-width="2"/>
        <line x1="0" y1="300" x2="800" y2="0" stroke="blue" stroke-width="2"/>
        <svg xmlns="http://www.w3.org/2000/svg" xmlns:xlink="http://www.w3.org/1999/xlink" width="432.71999999999997" height="151.2"><path fill="#5d4037" d="M204.88 220.20L204.88 220.20Q203.08 220.20 201.58 217.98Q200.08 215.76 199.42 212.22Q198.76 208.68 199 204.84L199 204.84Q199 201 199.42 198.66Q199.84 196.32 200.32 194.04L200.32 194.04Q200.68 193.32 200.74 192.84Q200.80 192.36 200.98 191.28Q201.16 190.20 201.76 187.68L201.76 187.68Q202.24 185.64 202.72 184.32Q203.20 183 203.68 182.52L203.68 182.52Q204.28 181.80 205.24 181.62Q206.20 181.44 207.16 181.80Q208.12 182.16 208.72 183.12L208.72 183.12Q209.44 183.72 209.50 185.82Q209.56 187.92 209.20 190.14Q208.84 192.36 208.12 193.32L208.12 193.32Q207.88 193.92 207.58 196.44Q207.28 198.96 206.98 201.72Q206.68 204.48 206.32 206.16L206.32 206.16Q205.96 208.32 206.74 209.64Q207.52 210.96 209.74 209.70Q211.96 208.44 215.68 203.04L215.68 203.04Q218.20 199.44 219.52 197.16Q220.84 194.88 221.62 192.90Q222.40 190.92 223.24 188.64L223.24 188.64Q223.84 186.72 224.38 185.46Q224.92 184.20 225.40 183.84L225.40 183.84Q226.24 183.24 227.38 183.36Q228.52 183.48 229.96 184.44L229.96 184.44Q231.40 185.88 231.40 187.86Q231.40 189.84 229.96 192.72L229.96 192.72Q229 194.64 228.10 197.64Q227.20 200.64 226.66 203.70Q226.12 206.76 226.12 208.68L226.12 208.68Q226.12 211.08 226.78 211.50Q227.44 211.92 228.40 211.92L228.40 211.92Q229.84 211.92 231.88 210.84Q233.92 209.76 236.44 207.12L236.44 207.12Q237.52 206.04 239.08 203.94Q240.64 201.84 242.14 199.50Q243.64 197.16 244.66 195.36Q245.68 193.56 245.68 193.08L245.68 193.08Q245.68 192.36 246.76 191.04L246.76 191.04Q247.48 190.08 247.90 189.54Q248.32 189 249.52 188.40L249.52 188.40Q250.48 187.92 251.20 188.22Q251.92 188.52 252.76 189.48L252.76 189.48Q253.36 189.96 253.42 190.92Q253.48 191.88 253.48 193.32L253.48 193.32Q253.12 194.64 252.34 196.74Q251.56 198.84 250.66 200.70Q249.76 202.56 249.16 203.28L249.16 203.28Q248.68 203.76 247.48 205.02Q246.28 206.28 245.32 207.72L245.32 207.72Q242.32 211.32 241 212.40Q239.68 213.48 238.72 214.44L238.72 214.44Q236.20 216.96 233.44 218.22Q230.68 219.48 228.22 219.48Q225.76 219.48 224.08 218.28L224.08 218.28Q220.36 216.36 220.36 211.80L220.36 211.80Q220.36 210.84 220.06 210.06Q219.76 209.28 219.76 209.28L219.76 209.28Q219.28 209.28 218.50 209.52Q217.72 209.76 216.88 211.20L216.88 211.20Q215.80 213.24 213.46 215.34Q211.12 217.44 208.72 218.82Q206.32 220.20 204.88 220.20ZM278.80 221.40L278.80 221.40Q276.28 223.56 272.98 223.92Q269.68 224.28 266.56 222.90Q263.44 221.52 261.40 218.64L261.40 218.64Q259.36 216 258.76 212.58Q258.16 209.16 258.64 203.64L258.64 203.64Q259 198.96 261.64 194.22Q264.28 189.48 268.06 185.76Q271.84 182.04 275.56 180.60L275.56 180.60Q277.36 179.40 278.62 179.46Q279.88 179.52 282.52 179.76L282.52 179.76Q285.28 180.12 286.66 180.84Q288.04 181.56 288.88 182.76L288.88 182.76Q290.68 184.56 291.28 186.30Q291.88 188.04 291.88 189.72L291.88 189.72Q291.40 192.36 288.34 196.14Q285.28 199.92 280.36 202.32L280.36 202.32Q277.72 203.16 274.60 203.04Q271.48 202.92 269.44 201.48L269.44 201.48Q267.16 200.52 266.44 201.78Q265.72 203.04 265.12 207.84L265.12 207.84Q264.64 212.40 265.84 214.50Q267.04 216.60 269.08 216.96L269.08 216.96Q271.48 217.44 272.86 217.62Q274.24 217.80 276.28 216.60L276.28 216.60Q278.20 215.40 278.68 215.22Q279.16 215.04 279.46 214.74Q279.76 214.44 280.96 213.24L280.96 213.24Q281.80 212.40 282.28 211.98Q282.76 211.56 283.36 211.56L283.36 211.56Q283.96 211.56 284.44 212.10Q284.92 212.64 285.40 212.88L285.40 212.88Q286.60 212.88 285.94 214.32Q285.28 215.76 283.36 217.74Q281.44 219.72 278.80 221.40ZM278.68 195.96L278.68 195.96Q280 195.36 281.44 194.22Q282.88 193.08 283.90 191.70Q284.92 190.32 284.92 189.36L284.92 189.36Q284.92 187.68 283.36 186.54Q281.80 185.40 278.68 186.24L278.68 186.24Q277.36 186.60 275.68 187.98Q274 189.36 272.50 191.04Q271 192.72 270.10 194.04Q269.20 195.36 269.44 195.60L269.44 195.60Q269.80 196.20 271.48 196.50Q273.16 196.80 275.26 196.68Q277.36 196.56 278.68 195.96ZM298.96 221.40L298.96 221.40Q297.88 220.56 297.46 219.72Q297.04 218.88 297.40 216.48L297.40 216.48Q297.76 213.12 298.36 210.54Q298.96 207.96 299.80 204.60L299.80 204.60Q300.04 203.16 301.18 199.68Q302.32 196.20 304 192.12Q305.68 188.04 307.36 184.38Q309.04 180.72 310.24 178.92L310.24 178.92Q311.20 178.20 312.58 178.32Q313.96 178.44 314.92 179.40L314.92 179.40Q316.24 180.48 315.34 183.18Q314.44 185.88 311.68 191.64L311.68 191.64Q310.24 194.88 309.52 196.50Q308.80 198.12 308.92 198.42Q309.04 198.72 310 198.12L310 198.12Q310.72 196.80 312.64 195.06Q314.56 193.32 316.72 191.64Q318.88 189.96 320.80 188.64Q322.72 187.32 323.44 186.96L323.44 186.96Q324.40 186.36 325.66 185.94Q326.92 185.52 327.40 185.28L327.40 185.28Q330.16 183.96 333.04 184.32Q335.92 184.68 336.64 186.48L336.64 186.48Q336.76 187.44 337.42 187.92Q338.08 188.40 338.08 188.40L338.08 188.40Q338.56 188.40 338.62 188.76Q338.68 189.12 338.68 189.12L338.68 189.12Q338.68 189.96 337.42 190.14Q336.16 190.32 334.24 190.44L334.24 190.44Q332.68 190.56 331.48 191.04Q330.28 191.52 328.60 192.24L328.60 192.24Q324.04 194.88 319.90 197.40Q315.76 199.92 311.92 204.12L311.92 204.12Q311.08 205.08 310.24 206.40Q309.40 207.72 308.44 209.28L308.44 209.28Q307.84 209.88 307.24 211.92Q306.64 213.96 306.22 215.82Q305.80 217.68 305.80 218.04L305.80 218.04Q305.80 218.04 305.44 219.18Q305.08 220.32 304.24 221.40L304.24 221.40Q302.80 223.32 301.84 223.32Q300.88 223.32 298.96 221.40ZM349.12 220.20L349.12 220.20Q347.32 220.20 345.82 217.98Q344.32 215.76 343.66 212.22Q343 208.68 343.24 204.84L343.24 204.84Q343.24 201 343.66 198.66Q344.08 196.32 344.56 194.04L344.56 194.04Q344.92 193.32 344.98 192.84Q345.04 192.36 345.22 191.28Q345.40 190.20 346 187.68L346 187.68Q346.48 185.64 346.96 184.32Q347.44 183 347.92 182.52L347.92 182.52Q348.52 181.80 349.48 181.62Q350.44 181.44 351.40 181.80Q352.36 182.16 352.96 183.12L352.96 183.12Q353.68 183.72 353.74 185.82Q353.80 187.92 353.44 190.14Q353.08 192.36 352.36 193.32L352.36 193.32Q352.12 193.92 351.82 196.44Q351.52 198.96 351.22 201.72Q350.92 204.48 350.56 206.16L350.56 206.16Q350.20 208.32 350.98 209.64Q351.76 210.96 353.98 209.70Q356.20 208.44 359.92 203.04L359.92 203.04Q362.44 199.44 363.76 197.16Q365.08 194.88 365.86 192.90Q366.64 190.92 367.48 188.64L367.48 188.64Q368.08 186.72 368.62 185.46Q369.16 184.20 369.64 183.84L369.64 183.84Q370.48 183.24 371.62 183.36Q372.76 183.48 374.20 184.44L374.20 184.44Q375.64 185.88 375.64 187.86Q375.64 189.84 374.20 192.72L374.20 192.72Q373.24 194.64 372.34 197.64Q371.44 200.64 370.90 203.70Q370.36 206.76 370.36 208.68L370.36 208.68Q370.36 211.08 371.02 211.50Q371.68 211.92 372.64 211.92L372.64 211.92Q374.08 211.92 376.12 210.84Q378.16 209.76 380.68 207.12L380.68 207.12Q381.76 206.04 383.32 203.94Q384.88 201.84 386.38 199.50Q387.88 197.16 388.90 195.36Q389.92 193.56 389.92 193.08L389.92 193.08Q389.92 192.36 391 191.04L391 191.04Q391.72 190.08 392.14 189.54Q392.56 189 393.76 188.40L393.76 188.40Q394.72 187.92 395.44 188.22Q396.16 188.52 397 189.48L397 189.48Q397.60 189.96 397.66 190.92Q397.72 191.88 397.72 193.32L397.72 193.32Q397.36 194.64 396.58 196.74Q395.80 198.84 394.90 200.70Q394 202.56 393.40 203.28L393.40 203.28Q392.92 203.76 391.72 205.02Q390.52 206.28 389.56 207.72L389.56 207.72Q386.56 211.32 385.24 212.40Q383.92 213.48 382.96 214.44L382.96 214.44Q380.44 216.96 377.68 218.22Q374.92 219.48 372.46 219.48Q370 219.48 368.32 218.28L368.32 218.28Q364.60 216.36 364.60 211.80L364.60 211.80Q364.60 210.84 364.30 210.06Q364 209.28 364 209.28L364 209.28Q363.52 209.28 362.74 209.52Q361.96 209.76 361.12 211.20L361.12 211.20Q360.04 213.24 357.70 215.34Q355.36 217.44 352.96 218.82Q350.56 220.20 349.12 220.20ZM423.04 221.40L423.04 221.40Q420.52 223.56 417.22 223.92Q413.92 224.28 410.80 222.90Q407.68 221.52 405.64 218.64L405.64 218.64Q403.60 216 403 212.58Q402.40 209.16 402.88 203.64L402.88 203.64Q403.24 198.96 405.88 194.22Q408.52 189.48 412.30 185.76Q416.08 182.04 419.80 180.60L419.80 180.60Q421.60 179.40 422.86 179.46Q424.12 179.52 426.76 179.76L426.76 179.76Q429.52 180.12 430.90 180.84Q432.28 181.56 433.12 182.76L433.12 182.76Q434.92 184.56 435.52 186.30Q436.12 188.04 436.12 189.72L436.12 189.72Q435.64 192.36 432.58 196.14Q429.52 199.92 424.60 202.32L424.60 202.32Q421.96 203.16 418.84 203.04Q415.72 202.92 413.68 201.48L413.68 201.48Q411.40 200.52 410.68 201.78Q409.96 203.04 409.36 207.84L409.36 207.84Q408.88 212.40 410.08 214.50Q411.28 216.60 413.32 216.96L413.32 216.96Q415.72 217.44 417.10 217.62Q418.48 217.80 420.52 216.60L420.52 216.60Q422.44 215.40 422.92 215.22Q423.40 215.04 423.70 214.74Q424 214.44 425.20 213.24L425.20 213.24Q426.04 212.40 426.52 211.98Q427 211.56 427.60 211.56L427.60 211.56Q428.20 211.56 428.68 212.10Q429.16 212.64 429.64 212.88L429.64 212.88Q430.84 212.88 430.18 214.32Q429.52 215.76 427.60 217.74Q425.68 219.72 423.04 221.40ZM422.92 195.96L422.92 195.96Q424.24 195.36 425.68 194.22Q427.12 193.08 428.14 191.70Q429.16 190.32 429.16 189.36L429.16 189.36Q429.16 187.68 427.60 186.54Q426.04 185.40 422.92 186.24L422.92 186.24Q421.60 186.60 419.92 187.98Q418.24 189.36 416.74 191.04Q415.24 192.72 414.34 194.04Q413.44 195.36 413.68 195.60L413.68 195.60Q414.04 196.20 415.72 196.50Q417.40 196.80 419.50 196.68Q421.60 196.56 422.92 195.96ZM443.20 221.40L443.20 221.40Q442.12 220.56 441.70 219.72Q441.28 218.88 441.64 216.48L441.64 216.48Q442 213.12 442.60 210.54Q443.20 207.96 444.04 204.60L444.04 204.60Q444.28 203.16 445.42 199.68Q446.56 196.20 448.24 192.12Q449.92 188.04 451.60 184.38Q453.28 180.72 454.48 178.92L454.48 178.92Q455.44 178.20 456.82 178.32Q458.20 178.44 459.16 179.40L459.16 179.40Q460.48 180.48 459.58 183.18Q458.68 185.88 455.92 191.64L455.92 191.64Q454.48 194.88 453.76 196.50Q453.04 198.12 453.16 198.42Q453.28 198.72 454.24 198.12L454.24 198.12Q454.96 196.80 456.88 195.06Q458.80 193.32 460.96 191.64Q463.12 189.96 465.04 188.64Q466.96 187.32 467.68 186.96L467.68 186.96Q468.64 186.36 469.90 185.94Q471.16 185.52 471.64 185.28L471.64 185.28Q474.40 183.96 477.28 184.32Q480.16 184.68 480.88 186.48L480.88 186.48Q481 187.44 481.66 187.92Q482.32 188.40 482.32 188.40L482.32 188.40Q482.80 188.40 482.86 188.76Q482.92 189.12 482.92 189.12L482.92 189.12Q482.92 189.96 481.66 190.14Q480.40 190.32 478.48 190.44L478.48 190.44Q476.92 190.56 475.72 191.04Q474.52 191.52 472.84 192.24L472.84 192.24Q468.28 194.88 464.14 197.40Q460 199.92 456.16 204.12L456.16 204.12Q455.32 205.08 454.48 206.40Q453.64 207.72 452.68 209.28L452.68 209.28Q452.08 209.88 451.48 211.92Q450.88 213.96 450.46 215.82Q450.04 217.68 450.04 218.04L450.04 218.04Q450.04 218.04 449.68 219.18Q449.32 220.32 448.48 221.40L448.48 221.40Q447.04 223.32 446.08 223.32Q445.12 223.32 443.20 221.40ZM493.36 220.20L493.36 220.20Q491.56 220.20 490.06 217.98Q488.56 215.76 487.90 212.22Q487.24 208.68 487.48 204.84L487.48 204.84Q487.48 201 487.90 198.66Q488.32 196.32 488.80 194.04L488.80 194.04Q489.16 193.32 489.22 192.84Q489.28 192.36 489.46 191.28Q489.64 190.20 490.24 187.68L490.24 187.68Q490.72 185.64 491.20 184.32Q491.68 183 492.16 182.52L492.16 182.52Q492.76 181.80 493.72 181.62Q494.68 181.44 495.64 181.80Q496.60 182.16 497.20 183.12L497.20 183.12Q497.92 183.72 497.98 185.82Q498.04 187.92 497.68 190.14Q497.32 192.36 496.60 193.32L496.60 193.32Q496.36 193.92 496.06 196.44Q495.76 198.96 495.46 201.72Q495.16 204.48 494.80 206.16L494.80 206.16Q494.44 208.32 495.22 209.64Q496 210.96 498.22 209.70Q500.44 208.44 504.16 203.04L504.16 203.04Q506.68 199.44 508 197.16Q509.32 194.88 510.10 192.90Q510.88 190.92 511.72 188.64L511.72 188.64Q512.32 186.72 512.86 185.46Q513.40 184.20 513.88 183.84L513.88 183.84Q514.72 183.24 515.86 183.36Q517 183.48 518.44 184.44L518.44 184.44Q519.88 185.88 519.88 187.86Q519.88 189.84 518.44 192.72L518.44 192.72Q517.48 194.64 516.58 197.64Q515.68 200.64 515.14 203.70Q514.60 206.76 514.60 208.68L514.60 208.68Q514.60 211.08 515.26 211.50Q515.92 211.92 516.88 211.92L516.88 211.92Q518.32 211.92 520.36 210.84Q522.40 209.76 524.92 207.12L524.92 207.12Q526 206.04 527.56 203.94Q529.12 201.84 530.62 199.50Q532.12 197.16 533.14 195.36Q534.16 193.56 534.16 193.08L534.16 193.08Q534.16 192.36 535.24 191.04L535.24 191.04Q535.96 190.08 536.38 189.54Q536.80 189 538 188.40L538 188.40Q538.96 187.92 539.68 188.22Q540.40 188.52 541.24 189.48L541.24 189.48Q541.84 189.96 541.90 190.92Q541.96 191.88 541.96 193.32L541.96 193.32Q541.60 194.64 540.82 196.74Q540.04 198.84 539.14 200.70Q538.24 202.56 537.64 203.28L537.64 203.28Q537.16 203.76 535.96 205.02Q534.76 206.28 533.80 207.72L533.80 207.72Q530.80 211.32 529.48 212.40Q528.16 213.48 527.20 214.44L527.20 214.44Q524.68 216.96 521.92 218.22Q519.16 219.48 516.70 219.48Q514.24 219.48 512.56 218.28L512.56 218.28Q508.84 216.36 508.84 211.80L508.84 211.80Q508.84 210.84 508.54 210.06Q508.24 209.28 508.24 209.28L508.24 209.28Q507.76 209.28 506.98 209.52Q506.20 209.76 505.36 211.20L505.36 211.20Q504.28 213.24 501.94 215.34Q499.60 217.44 497.20 218.82Q494.80 220.20 493.36 220.20ZM567.28 221.40L567.28 221.40Q564.76 223.56 561.46 223.92Q558.16 224.28 555.04 222.90Q551.92 221.52 549.88 218.64L549.88 218.64Q547.84 216 547.24 212.58Q546.64 209.16 547.12 203.64L547.12 203.64Q547.48 198.96 550.12 194.22Q552.76 189.48 556.54 185.76Q560.32 182.04 564.04 180.60L564.04 180.60Q565.84 179.40 567.10 179.46Q568.36 179.52 571 179.76L571 179.76Q573.76 180.12 575.14 180.84Q576.52 181.56 577.36 182.76L577.36 182.76Q579.16 184.56 579.76 186.30Q580.36 188.04 580.36 189.72L580.36 189.72Q579.88 192.36 576.82 196.14Q573.76 199.92 568.84 202.32L568.84 202.32Q566.20 203.16 563.08 203.04Q559.96 202.92 557.92 201.48L557.92 201.48Q555.64 200.52 554.92 201.78Q554.20 203.04 553.60 207.84L553.60 207.84Q553.12 212.40 554.32 214.50Q555.52 216.60 557.56 216.96L557.56 216.96Q559.96 217.44 561.34 217.62Q562.72 217.80 564.76 216.60L564.76 216.60Q566.68 215.40 567.16 215.22Q567.64 215.04 567.94 214.74Q568.24 214.44 569.44 213.24L569.44 213.24Q570.28 212.40 570.76 211.98Q571.24 211.56 571.84 211.56L571.84 211.56Q572.44 211.56 572.92 212.10Q573.40 212.64 573.88 212.88L573.88 212.88Q575.08 212.88 574.42 214.32Q573.76 215.76 571.84 217.74Q569.92 219.72 567.28 221.40ZM567.16 195.96L567.16 195.96Q568.48 195.36 569.92 194.22Q571.36 193.08 572.38 191.70Q573.40 190.32 573.40 189.36L573.40 189.36Q573.40 187.68 571.84 186.54Q570.28 185.40 567.16 186.24L567.16 186.24Q565.84 186.60 564.16 187.98Q562.48 189.36 560.98 191.04Q559.48 192.72 558.58 194.04Q557.68 195.36 557.92 195.60L557.92 195.60Q558.28 196.20 559.96 196.50Q561.64 196.80 563.74 196.68Q565.84 196.56 567.16 195.96ZM587.44 221.40L587.44 221.40Q586.36 220.56 585.94 219.72Q585.52 218.88 585.88 216.48L585.88 216.48Q586.24 213.12 586.84 210.54Q587.44 207.96 588.28 204.60L588.28 204.60Q588.52 203.16 589.66 199.68Q590.80 196.20 592.48 192.12Q594.16 188.04 595.84 184.38Q597.52 180.72 598.72 178.92L598.72 178.92Q599.68 178.20 601.06 178.32Q602.44 178.44 603.40 179.40L603.40 179.40Q604.72 180.48 603.82 183.18Q602.92 185.88 600.16 191.64L600.16 191.64Q598.72 194.88 598 196.50Q597.28 198.12 597.40 198.42Q597.52 198.72 598.48 198.12L598.48 198.12Q599.20 196.80 601.12 195.06Q603.04 193.32 605.20 191.64Q607.36 189.96 609.28 188.64Q611.20 187.32 611.92 186.96L611.92 186.96Q612.88 186.36 614.14 185.94Q615.40 185.52 615.88 185.28L615.88 185.28Q618.64 183.96 621.52 184.32Q624.40 184.68 625.12 186.48L625.12 186.48Q625.24 187.44 625.90 187.92Q626.56 188.40 626.56 188.40L626.56 188.40Q627.04 188.40 627.10 188.76Q627.16 189.12 627.16 189.12L627.16 189.12Q627.16 189.96 625.90 190.14Q624.64 190.32 622.72 190.44L622.72 190.44Q621.16 190.56 619.96 191.04Q618.76 191.52 617.08 192.24L617.08 192.24Q612.52 194.88 608.38 197.40Q604.24 199.92 600.40 204.12L600.40 204.12Q599.56 205.08 598.72 206.40Q597.88 207.72 596.92 209.28L596.92 209.28Q596.32 209.88 595.72 211.92Q595.12 213.96 594.70 215.82Q594.28 217.68 594.28 218.04L594.28 218.04Q594.28 218.04 593.92 219.18Q593.56 220.32 592.72 221.40L592.72 221.40Q591.28 223.32 590.32 223.32Q589.36 223.32 587.44 221.40Z"/></svg>
      </svg>
    