
      <svg xmlns="http://www.w3.org/2000/svg" width="800" height="300">
        <rect width="100%" height="100%" fill="#ffffff" stroke="red" stroke-width="5"/>
        <line x1="0" y1="0" x2="800" y2="300" stroke="blue" stroke-width="2"/>
        <line x1="0" y1="300" x2="800" y2="0" stroke="blue" stroke-width="2"/>
        <svg xmlns="http://www.w3.org/2000/svg" xmlns:xlink="http://www.w3.org/1999/xlink" width="1034.16" height="146.28"><path fill="#2e7d32" d="M-84.32 223.14L-92.36 223.14L-116.12 160.14L-107.96 160.14L-86.36 218.58L-90.08 218.58L-67.88 160.14L-60.56 160.14L-38.60 218.58L-42.32 218.58L-20.36 160.14L-12.56 160.14L-36.44 223.14L-44.48 223.14L-65.60 168.18L-63.08 168.18L-84.32 223.14ZM27.04 223.74L27.04 223.74Q17.20 223.74 9.76 219.60Q2.32 215.46-1.88 208.20Q-6.08 200.94-6.08 191.58L-6.08 191.58Q-6.08 182.22-2.06 175.02Q1.96 167.82 8.98 163.68Q16.00 159.54 24.76 159.54L24.76 159.54Q33.64 159.54 40.54 163.56Q47.44 167.58 51.40 174.84Q55.36 182.10 55.36 191.58L55.36 191.58Q55.36 192.18 55.30 192.84Q55.24 193.50 55.24 194.22L55.24 194.22L0.40 194.22L0.40 187.86L50.68 187.86L47.32 190.38Q47.32 183.54 44.38 178.20Q41.44 172.86 36.40 169.86Q31.36 166.86 24.76 166.86L24.76 166.86Q18.28 166.86 13.12 169.86Q7.96 172.86 5.08 178.26Q2.20 183.66 2.20 190.62L2.20 190.62L2.20 191.94Q2.20 199.14 5.38 204.60Q8.56 210.06 14.26 213.12Q19.96 216.18 27.28 216.18L27.28 216.18Q33.04 216.18 38.02 214.14Q43.00 212.10 46.60 207.90L46.60 207.90L51.40 213.42Q47.20 218.46 40.90 221.10Q34.60 223.74 27.04 223.74ZM81.28 223.14L72.76 223.14L72.76 160.14L80.92 160.14L80.92 177.30L80.08 174.30Q82.72 167.10 88.96 163.32Q95.20 159.54 104.44 159.54L104.44 159.54L104.44 167.82Q103.96 167.82 103.48 167.76Q103.00 167.70 102.52 167.70L102.52 167.70Q92.56 167.70 86.92 173.76Q81.28 179.82 81.28 190.98L81.28 190.98L81.28 223.14ZM141.76 223.14L133.72 223.14L109.96 160.14L118.12 160.14L139.72 218.58L136.00 218.58L158.20 160.14L165.52 160.14L187.48 218.58L183.76 218.58L205.72 160.14L213.52 160.14L189.64 223.14L181.60 223.14L160.48 168.18L163.00 168.18L141.76 223.14ZM253.12 223.74L253.12 223.74Q243.28 223.74 235.84 219.60Q228.40 215.46 224.20 208.20Q220.00 200.94 220.00 191.58L220.00 191.58Q220.00 182.22 224.02 175.02Q228.04 167.82 235.06 163.68Q242.08 159.54 250.84 159.54L250.84 159.54Q259.72 159.54 266.62 163.56Q273.52 167.58 277.48 174.84Q281.44 182.10 281.44 191.58L281.44 191.58Q281.44 192.18 281.38 192.84Q281.32 193.50 281.32 194.22L281.32 194.22L226.48 194.22L226.48 187.86L276.76 187.86L273.40 190.38Q273.40 183.54 270.46 178.20Q267.52 172.86 262.48 169.86Q257.44 166.86 250.84 166.86L250.84 166.86Q244.36 166.86 239.20 169.86Q234.04 172.86 231.16 178.26Q228.28 183.66 228.28 190.62L228.28 190.62L228.28 191.94Q228.28 199.14 231.46 204.60Q234.64 210.06 240.34 213.12Q246.04 216.18 253.36 216.18L253.36 216.18Q259.12 216.18 264.10 214.14Q269.08 212.10 272.68 207.90L272.68 207.90L277.48 213.42Q273.28 218.46 266.98 221.10Q260.68 223.74 253.12 223.74ZM307.36 223.14L298.84 223.14L298.84 160.14L307.00 160.14L307.00 177.30L306.16 174.30Q308.80 167.10 315.04 163.32Q321.28 159.54 330.52 159.54L330.52 159.54L330.52 167.82Q330.04 167.82 329.56 167.76Q329.08 167.70 328.60 167.70L328.60 167.70Q318.64 167.70 313.00 173.76Q307.36 179.82 307.36 190.98L307.36 190.98L307.36 223.14ZM367.84 223.14L359.80 223.14L336.04 160.14L344.20 160.14L365.80 218.58L362.08 218.58L384.28 160.14L391.60 160.14L413.56 218.58L409.84 218.58L431.80 160.14L439.60 160.14L415.72 223.14L407.68 223.14L386.56 168.18L389.08 168.18L367.84 223.14ZM479.20 223.74L479.20 223.74Q469.36 223.74 461.92 219.60Q454.48 215.46 450.28 208.20Q446.08 200.94 446.08 191.58L446.08 191.58Q446.08 182.22 450.10 175.02Q454.12 167.82 461.14 163.68Q468.16 159.54 476.92 159.54L476.92 159.54Q485.80 159.54 492.70 163.56Q499.60 167.58 503.56 174.84Q507.52 182.10 507.52 191.58L507.52 191.58Q507.52 192.18 507.46 192.84Q507.40 193.50 507.40 194.22L507.40 194.22L452.56 194.22L452.56 187.86L502.84 187.86L499.48 190.38Q499.48 183.54 496.54 178.20Q493.60 172.86 488.56 169.86Q483.52 166.86 476.92 166.86L476.92 166.86Q470.44 166.86 465.28 169.86Q460.12 172.86 457.24 178.26Q454.36 183.66 454.36 190.62L454.36 190.62L454.36 191.94Q454.36 199.14 457.54 204.60Q460.72 210.06 466.42 213.12Q472.12 216.18 479.44 216.18L479.44 216.18Q485.20 216.18 490.18 214.14Q495.16 212.10 498.76 207.90L498.76 207.90L503.56 213.42Q499.36 218.46 493.06 221.10Q486.76 223.74 479.20 223.74ZM551.68 223.74L551.68 223.74Q541.84 223.74 534.40 219.60Q526.96 215.46 522.76 208.20Q518.56 200.94 518.56 191.58L518.56 191.58Q518.56 182.22 522.58 175.02Q526.60 167.82 533.62 163.68Q540.64 159.54 549.40 159.54L549.40 159.54Q558.28 159.54 565.18 163.56Q572.08 167.58 576.04 174.84Q580 182.10 580 191.58L580 191.58Q580 192.18 579.94 192.84Q579.88 193.50 579.88 194.22L579.88 194.22L525.04 194.22L525.04 187.86L575.32 187.86L571.96 190.38Q571.96 183.54 569.02 178.20Q566.08 172.86 561.04 169.86Q556 166.86 549.40 166.86L549.40 166.86Q542.92 166.86 537.76 169.86Q532.60 172.86 529.72 178.26Q526.84 183.66 526.84 190.62L526.84 190.62L526.84 191.94Q526.84 199.14 530.02 204.60Q533.20 210.06 538.90 213.12Q544.60 216.18 551.92 216.18L551.92 216.18Q557.68 216.18 562.66 214.14Q567.64 212.10 571.24 207.90L571.24 207.90L576.04 213.42Q571.84 218.46 565.54 221.10Q559.24 223.74 551.68 223.74ZM618.28 223.14L610.24 223.14L586.48 160.14L594.64 160.14L616.24 218.58L612.52 218.58L634.72 160.14L642.04 160.14L664 218.58L660.28 218.58L682.24 160.14L690.04 160.14L666.16 223.14L658.12 223.14L637 168.18L639.52 168.18L618.28 223.14ZM723.76 223.14L715.72 223.14L691.96 160.14L700.12 160.14L721.72 218.58L718 218.58L740.20 160.14L747.52 160.14L769.48 218.58L765.76 218.58L787.72 160.14L795.52 160.14L771.64 223.14L763.60 223.14L742.48 168.18L745 168.18L723.76 223.14ZM835.12 223.74L835.12 223.74Q825.28 223.74 817.84 219.60Q810.40 215.46 806.20 208.20Q802 200.94 802 191.58L802 191.58Q802 182.22 806.02 175.02Q810.04 167.82 817.06 163.68Q824.08 159.54 832.84 159.54L832.84 159.54Q841.72 159.54 848.62 163.56Q855.52 167.58 859.48 174.84Q863.44 182.10 863.44 191.58L863.44 191.58Q863.44 192.18 863.38 192.84Q863.32 193.50 863.32 194.22L863.32 194.22L808.48 194.22L808.48 187.86L858.76 187.86L855.40 190.38Q855.40 183.54 852.46 178.20Q849.52 172.86 844.48 169.86Q839.44 166.86 832.84 166.86L832.84 166.86Q826.36 166.86 821.20 169.86Q816.04 172.86 813.16 178.26Q810.28 183.66 810.28 190.62L810.28 190.62L810.28 191.94Q810.28 199.14 813.46 204.60Q816.64 210.06 822.34 213.12Q828.04 216.18 835.36 216.18L835.36 216.18Q841.12 216.18 846.10 214.14Q851.08 212.10 854.68 207.90L854.68 207.90L859.48 213.42Q855.28 218.46 848.98 221.10Q842.68 223.74 835.12 223.74ZM889.36 223.14L880.84 223.14L880.84 160.14L889 160.14L889 177.30L888.16 174.30Q890.80 167.10 897.04 163.32Q903.28 159.54 912.52 159.54L912.52 159.54L912.52 167.82Q912.04 167.82 911.56 167.76Q911.08 167.70 910.60 167.70L910.60 167.70Q900.64 167.70 895 173.76Q889.36 179.82 889.36 190.98L889.36 190.98L889.36 223.14Z"/></svg>
      </svg>
    