
      <svg xmlns="http://www.w3.org/2000/svg" width="800" height="300">
        <rect width="100%" height="100%" fill="#ffffff" stroke="red" stroke-width="5"/>
        <line x1="0" y1="0" x2="800" y2="300" stroke="blue" stroke-width="2"/>
        <line x1="0" y1="300" x2="800" y2="0" stroke="blue" stroke-width="2"/>
        <svg xmlns="http://www.w3.org/2000/svg" xmlns:xlink="http://www.w3.org/1999/xlink" width="678.24" height="146.28"><path fill="#2e7d32" d="M93.64 223.14L85.60 223.14L61.84 160.14L70 160.14L91.60 218.58L87.88 218.58L110.08 160.14L117.40 160.14L139.36 218.58L135.64 218.58L157.60 160.14L165.40 160.14L141.52 223.14L133.48 223.14L112.36 168.18L114.88 168.18L93.64 223.14ZM205 223.74L205 223.74Q195.16 223.74 187.72 219.60Q180.28 215.46 176.08 208.20Q171.88 200.94 171.88 191.58L171.88 191.58Q171.88 182.22 175.90 175.02Q179.92 167.82 186.94 163.68Q193.96 159.54 202.72 159.54L202.72 159.54Q211.60 159.54 218.50 163.56Q225.40 167.58 229.36 174.84Q233.32 182.10 233.32 191.58L233.32 191.58Q233.32 192.18 233.26 192.84Q233.20 193.50 233.20 194.22L233.20 194.22L178.36 194.22L178.36 187.86L228.64 187.86L225.28 190.38Q225.28 183.54 222.34 178.20Q219.40 172.86 214.36 169.86Q209.32 166.86 202.72 166.86L202.72 166.86Q196.24 166.86 191.08 169.86Q185.92 172.86 183.04 178.26Q180.16 183.66 180.16 190.62L180.16 190.62L180.16 191.94Q180.16 199.14 183.34 204.60Q186.52 210.06 192.22 213.12Q197.92 216.18 205.24 216.18L205.24 216.18Q211 216.18 215.98 214.14Q220.96 212.10 224.56 207.90L224.56 207.90L229.36 213.42Q225.16 218.46 218.86 221.10Q212.56 223.74 205 223.74ZM259.24 223.14L250.72 223.14L250.72 160.14L258.88 160.14L258.88 177.30L258.04 174.30Q260.68 167.10 266.92 163.32Q273.16 159.54 282.40 159.54L282.40 159.54L282.40 167.82Q281.92 167.82 281.44 167.76Q280.96 167.70 280.48 167.70L280.48 167.70Q270.52 167.70 264.88 173.76Q259.24 179.82 259.24 190.98L259.24 190.98L259.24 223.14ZM319.72 223.14L311.68 223.14L287.92 160.14L296.08 160.14L317.68 218.58L313.96 218.58L336.16 160.14L343.48 160.14L365.44 218.58L361.72 218.58L383.68 160.14L391.48 160.14L367.60 223.14L359.56 223.14L338.44 168.18L340.96 168.18L319.72 223.14ZM431.08 223.74L431.08 223.74Q421.24 223.74 413.80 219.60Q406.36 215.46 402.16 208.20Q397.96 200.94 397.96 191.58L397.96 191.58Q397.96 182.22 401.98 175.02Q406.00 167.82 413.02 163.68Q420.04 159.54 428.80 159.54L428.80 159.54Q437.68 159.54 444.58 163.56Q451.48 167.58 455.44 174.84Q459.40 182.10 459.40 191.58L459.40 191.58Q459.40 192.18 459.34 192.84Q459.28 193.50 459.28 194.22L459.28 194.22L404.44 194.22L404.44 187.86L454.72 187.86L451.36 190.38Q451.36 183.54 448.42 178.20Q445.48 172.86 440.44 169.86Q435.40 166.86 428.80 166.86L428.80 166.86Q422.32 166.86 417.16 169.86Q412.00 172.86 409.12 178.26Q406.24 183.66 406.24 190.62L406.24 190.62L406.24 191.94Q406.24 199.14 409.42 204.60Q412.60 210.06 418.30 213.12Q424.00 216.18 431.32 216.18L431.32 216.18Q437.08 216.18 442.06 214.14Q447.04 212.10 450.64 207.90L450.64 207.90L455.44 213.42Q451.24 218.46 444.94 221.10Q438.64 223.74 431.08 223.74ZM485.32 223.14L476.80 223.14L476.80 160.14L484.96 160.14L484.96 177.30L484.12 174.30Q486.76 167.10 493.00 163.32Q499.24 159.54 508.48 159.54L508.48 159.54L508.48 167.82Q508.00 167.82 507.52 167.76Q507.04 167.70 506.56 167.70L506.56 167.70Q496.60 167.70 490.96 173.76Q485.32 179.82 485.32 190.98L485.32 190.98L485.32 223.14ZM551.68 223.74L551.68 223.74Q541.84 223.74 534.40 219.60Q526.96 215.46 522.76 208.20Q518.56 200.94 518.56 191.58L518.56 191.58Q518.56 182.22 522.58 175.02Q526.60 167.82 533.62 163.68Q540.64 159.54 549.40 159.54L549.40 159.54Q558.28 159.54 565.18 163.56Q572.08 167.58 576.04 174.84Q580 182.10 580 191.58L580 191.58Q580 192.18 579.94 192.84Q579.88 193.50 579.88 194.22L579.88 194.22L525.04 194.22L525.04 187.86L575.32 187.86L571.96 190.38Q571.96 183.54 569.02 178.20Q566.08 172.86 561.04 169.86Q556 166.86 549.40 166.86L549.40 166.86Q542.92 166.86 537.76 169.86Q532.60 172.86 529.72 178.26Q526.84 183.66 526.84 190.62L526.84 190.62L526.84 191.94Q526.84 199.14 530.02 204.60Q533.20 210.06 538.90 213.12Q544.60 216.18 551.92 216.18L551.92 216.18Q557.68 216.18 562.66 214.14Q567.64 212.10 571.24 207.90L571.24 207.90L576.04 213.42Q571.84 218.46 565.54 221.10Q559.24 223.74 551.68 223.74ZM618.28 223.14L610.24 223.14L586.48 160.14L594.64 160.14L616.24 218.58L612.52 218.58L634.72 160.14L642.04 160.14L664 218.58L660.28 218.58L682.24 160.14L690.04 160.14L666.16 223.14L658.12 223.14L637 168.18L639.52 168.18L618.28 223.14ZM711.40 223.14L702.88 223.14L702.88 160.14L711.04 160.14L711.04 177.30L710.20 174.30Q712.84 167.10 719.08 163.32Q725.32 159.54 734.56 159.54L734.56 159.54L734.56 167.82Q734.08 167.82 733.60 167.76Q733.12 167.70 732.64 167.70L732.64 167.70Q722.68 167.70 717.04 173.76Q711.40 179.82 711.40 190.98L711.40 190.98L711.40 223.14Z"/></svg>
      </svg>
    