
        <svg xmlns="http://www.w3.org/2000/svg" width="800" height="300">
          <rect width="100%" height="100%" fill="#ffffff" stroke="red" stroke-width="5"/>
          <line x1="0" y1="0" x2="800" y2="300" stroke="blue" stroke-width="2"/>
          <line x1="0" y1="300" x2="800" y2="0" stroke="blue" stroke-width="2"/>
          <svg xmlns="http://www.w3.org/2000/svg" xmlns:xlink="http://www.w3.org/1999/xlink" width="706.3199999999999" height="168"><path fill="#212121" d="M132.88 247.44L143.68 247.44L123.16 313.20L111.88 313.20L96.04 261L80.20 313.20L68.92 313.20L48.28 247.44L59.44 247.44L74.56 302.64L90.88 247.44L102.04 247.44L118.00 302.76L132.88 247.44ZM231.28 247.44L242.08 247.44L221.56 313.20L210.28 313.20L194.44 261L178.60 313.20L167.32 313.20L146.68 247.44L157.84 247.44L172.96 302.64L189.28 247.44L200.44 247.44L216.40 302.76L231.28 247.44ZM312.88 277.80Q312.88 280.92 312.52 284.40L312.52 284.40L259.96 284.40Q260.56 294.12 266.62 299.58Q272.68 305.04 281.32 305.04L281.32 305.04Q288.40 305.04 293.14 301.74Q297.88 298.44 299.80 292.92L299.80 292.92L311.56 292.92Q308.92 302.40 301 308.34Q293.08 314.28 281.32 314.28L281.32 314.28Q271.96 314.28 264.58 310.08Q257.20 305.88 253 298.14Q248.80 290.40 248.80 280.20L248.80 280.20Q248.80 270 252.88 262.32Q256.96 254.64 264.34 250.50Q271.72 246.36 281.32 246.36L281.32 246.36Q290.68 246.36 297.88 250.44Q305.08 254.52 308.98 261.66Q312.88 268.80 312.88 277.80L312.88 277.80ZM301.60 275.52Q301.60 269.28 298.84 264.78Q296.08 260.28 291.34 257.94Q286.60 255.60 280.84 255.60L280.84 255.60Q272.56 255.60 266.74 260.88Q260.92 266.16 260.08 275.52L260.08 275.52L301.60 275.52ZM338.20 258.12Q341.08 252.48 346.42 249.36Q351.76 246.24 359.44 246.24L359.44 246.24L359.44 257.52L356.56 257.52Q338.20 257.52 338.20 277.44L338.20 277.44L338.20 313.20L327.28 313.20L327.28 247.44L338.20 247.44L338.20 258.12ZM432.04 277.80Q432.04 280.92 431.68 284.40L431.68 284.40L379.12 284.40Q379.72 294.12 385.78 299.58Q391.84 305.04 400.48 305.04L400.48 305.04Q407.56 305.04 412.30 301.74Q417.04 298.44 418.96 292.92L418.96 292.92L430.72 292.92Q428.08 302.40 420.16 308.34Q412.24 314.28 400.48 314.28L400.48 314.28Q391.12 314.28 383.74 310.08Q376.36 305.88 372.16 298.14Q367.96 290.40 367.96 280.20L367.96 280.20Q367.96 270 372.04 262.32Q376.12 254.64 383.50 250.50Q390.88 246.36 400.48 246.36L400.48 246.36Q409.84 246.36 417.04 250.44Q424.24 254.52 428.14 261.66Q432.04 268.80 432.04 277.80L432.04 277.80ZM420.76 275.52Q420.76 269.28 418.00 264.78Q415.24 260.28 410.50 257.94Q405.76 255.60 400.00 255.60L400.00 255.60Q391.72 255.60 385.90 260.88Q380.08 266.16 379.24 275.52L379.24 275.52L420.76 275.52ZM523.24 247.44L534.04 247.44L513.52 313.20L502.24 313.20L486.40 261L470.56 313.20L459.28 313.20L438.64 247.44L449.80 247.44L464.92 302.64L481.24 247.44L492.40 247.44L508.36 302.76L523.24 247.44ZM555.76 258.12Q558.64 252.48 563.98 249.36Q569.32 246.24 577.00 246.24L577.00 246.24L577.00 257.52L574.12 257.52Q555.76 257.52 555.76 277.44L555.76 277.44L555.76 313.20L544.84 313.20L544.84 247.44L555.76 247.44L555.76 258.12ZM649.60 277.80Q649.60 280.92 649.24 284.40L649.24 284.40L596.68 284.40Q597.28 294.12 603.34 299.58Q609.40 305.04 618.04 305.04L618.04 305.04Q625.12 305.04 629.86 301.74Q634.60 298.44 636.52 292.92L636.52 292.92L648.28 292.92Q645.64 302.40 637.72 308.34Q629.80 314.28 618.04 314.28L618.04 314.28Q608.68 314.28 601.30 310.08Q593.92 305.88 589.72 298.14Q585.52 290.40 585.52 280.20L585.52 280.20Q585.52 270 589.60 262.32Q593.68 254.64 601.06 250.50Q608.44 246.36 618.04 246.36L618.04 246.36Q627.40 246.36 634.60 250.44Q641.80 254.52 645.70 261.66Q649.60 268.80 649.60 277.80L649.60 277.80ZM638.32 275.52Q638.32 269.28 635.56 264.78Q632.80 260.28 628.06 257.94Q623.32 255.60 617.56 255.60L617.56 255.60Q609.28 255.60 603.46 260.88Q597.64 266.16 596.80 275.52L596.80 275.52L638.32 275.52ZM740.80 247.44L751.60 247.44L731.08 313.20L719.80 313.20L703.96 261L688.12 313.20L676.84 313.20L656.20 247.44L667.36 247.44L682.48 302.64L698.80 247.44L709.96 247.44L725.92 302.76L740.80 247.44Z"/></svg>
        </svg>
      