
      <svg width="787.48" height="246.28" viewBox="0 0 787.48 246.28" xmlns="http://www.w3.org/2000/svg">
        <rect width="100%" height="100%" fill="#ffffff" />
        <path fill="#000000" d="M82.76 166.16L74.72 166.16L50.96 103.16L59.12 103.16L80.72 161.60L77 161.60L99.20 103.16L106.52 103.16L128.48 161.60L124.76 161.60L146.72 103.16L154.52 103.16L130.64 166.16L122.60 166.16L101.48 111.20L104 111.20L82.76 166.16ZM188.24 166.16L180.20 166.16L156.44 103.16L164.60 103.16L186.20 161.60L182.48 161.60L204.68 103.16L212 103.16L233.96 161.60L230.24 161.60L252.20 103.16L260 103.16L236.12 166.16L228.08 166.16L206.96 111.20L209.48 111.20L188.24 166.16ZM299.60 166.76L299.60 166.76Q289.76 166.76 282.32 162.62Q274.88 158.48 270.68 151.22Q266.48 143.96 266.48 134.60L266.48 134.60Q266.48 125.24 270.50 118.04Q274.52 110.84 281.54 106.70Q288.56 102.56 297.32 102.56L297.32 102.56Q306.20 102.56 313.10 106.58Q320 110.60 323.96 117.86Q327.92 125.12 327.92 134.60L327.92 134.60Q327.92 135.20 327.86 135.86Q327.80 136.52 327.80 137.24L327.80 137.24L272.96 137.24L272.96 130.88L323.24 130.88L319.88 133.40Q319.88 126.56 316.94 121.22Q314 115.88 308.96 112.88Q303.92 109.88 297.32 109.88L297.32 109.88Q290.84 109.88 285.68 112.88Q280.52 115.88 277.64 121.28Q274.76 126.68 274.76 133.64L274.76 133.64L274.76 134.96Q274.76 142.16 277.94 147.62Q281.12 153.08 286.82 156.14Q292.52 159.20 299.84 159.20L299.84 159.20Q305.60 159.20 310.58 157.16Q315.56 155.12 319.16 150.92L319.16 150.92L323.96 156.44Q319.76 161.48 313.46 164.12Q307.16 166.76 299.60 166.76ZM366.20 166.16L358.16 166.16L334.40 103.16L342.56 103.16L364.16 161.60L360.44 161.60L382.64 103.16L389.96 103.16L411.92 161.60L408.20 161.60L430.16 103.16L437.96 103.16L414.08 166.16L406.04 166.16L384.92 111.20L387.44 111.20L366.20 166.16ZM477.56 166.76L477.56 166.76Q467.72 166.76 460.28 162.62Q452.84 158.48 448.64 151.22Q444.44 143.96 444.44 134.60L444.44 134.60Q444.44 125.24 448.46 118.04Q452.48 110.84 459.50 106.70Q466.52 102.56 475.28 102.56L475.28 102.56Q484.16 102.56 491.06 106.58Q497.96 110.60 501.92 117.86Q505.88 125.12 505.88 134.60L505.88 134.60Q505.88 135.20 505.82 135.86Q505.76 136.52 505.76 137.24L505.76 137.24L450.92 137.24L450.92 130.88L501.20 130.88L497.84 133.40Q497.84 126.56 494.90 121.22Q491.96 115.88 486.92 112.88Q481.88 109.88 475.28 109.88L475.28 109.88Q468.80 109.88 463.64 112.88Q458.48 115.88 455.60 121.28Q452.72 126.68 452.72 133.64L452.72 133.64L452.72 134.96Q452.72 142.16 455.90 147.62Q459.08 153.08 464.78 156.14Q470.48 159.20 477.80 159.20L477.80 159.20Q483.56 159.20 488.54 157.16Q493.52 155.12 497.12 150.92L497.12 150.92L501.92 156.44Q497.72 161.48 491.42 164.12Q485.12 166.76 477.56 166.76ZM531.80 166.16L523.28 166.16L523.28 103.16L531.44 103.16L531.44 120.32L530.60 117.32Q533.24 110.12 539.48 106.34Q545.72 102.56 554.96 102.56L554.96 102.56L554.96 110.84Q554.48 110.84 554 110.78Q553.52 110.72 553.04 110.72L553.04 110.72Q543.08 110.72 537.44 116.78Q531.80 122.84 531.80 134L531.80 134L531.80 166.16ZM592.28 166.16L584.24 166.16L560.48 103.16L568.64 103.16L590.24 161.60L586.52 161.60L608.72 103.16L616.04 103.16L638 161.60L634.28 161.60L656.24 103.16L664.04 103.16L640.16 166.16L632.12 166.16L611 111.20L613.52 111.20L592.28 166.16ZM703.64 166.76L703.64 166.76Q693.80 166.76 686.36 162.62Q678.92 158.48 674.72 151.22Q670.52 143.96 670.52 134.60L670.52 134.60Q670.52 125.24 674.54 118.04Q678.56 110.84 685.58 106.70Q692.60 102.56 701.36 102.56L701.36 102.56Q710.24 102.56 717.14 106.58Q724.04 110.60 728 117.86Q731.96 125.12 731.96 134.60L731.96 134.60Q731.96 135.20 731.90 135.86Q731.84 136.52 731.84 137.24L731.84 137.24L677 137.24L677 130.88L727.28 130.88L723.92 133.40Q723.92 126.56 720.98 121.22Q718.04 115.88 713 112.88Q707.96 109.88 701.36 109.88L701.36 109.88Q694.88 109.88 689.72 112.88Q684.56 115.88 681.68 121.28Q678.80 126.68 678.80 133.64L678.80 133.64L678.80 134.96Q678.80 142.16 681.98 147.62Q685.16 153.08 690.86 156.14Q696.56 159.20 703.88 159.20L703.88 159.20Q709.64 159.20 714.62 157.16Q719.60 155.12 723.20 150.92L723.20 150.92L728 156.44Q723.80 161.48 717.50 164.12Q711.20 166.76 703.64 166.76Z"/>
      </svg>
    