
      <svg width="5390.319999999999" height="246.28" viewBox="0 0 5390.319999999999 246.28" xmlns="http://www.w3.org/2000/svg">
        <rect width="100%" height="100%" fill="#ffffff" />
        <path fill="#000000" d="M87.56 189.44L83 189.44Q74.96 189.44 70.82 185.42Q66.68 181.40 66.68 173.48L66.68 173.48L66.68 143Q66.68 139.76 65.30 138.32Q63.92 136.88 61.28 136.88L61.28 136.88L57.20 136.88L57.20 129.68L61.28 129.68Q63.92 129.68 65.30 128.24Q66.68 126.80 66.68 123.56L66.68 123.56L66.68 93.08Q66.68 85.04 70.82 81.08Q74.96 77.12 83 77.12L83 77.12L87.56 77.12L87.56 84.20L84.32 84.20Q79.76 84.20 77.48 86.72Q75.20 89.24 75.20 93.80L75.20 93.80L75.20 123.44Q75.20 127.04 74.36 129.08Q73.52 131.12 71.78 132.20Q70.04 133.28 67.28 133.88L67.28 133.88L67.28 132.68Q70.04 133.16 71.78 134.30Q73.52 135.44 74.36 137.48Q75.20 139.52 75.20 143.12L75.20 143.12L75.20 172.76Q75.20 177.32 77.48 179.84Q79.76 182.36 84.32 182.36L84.32 182.36L87.56 182.36L87.56 189.44ZM105.32 113.84L98.96 113.84L98.36 82.16L105.92 82.16L105.32 113.84ZM125.84 113.84L119.48 113.84L118.88 82.16L126.44 82.16L125.84 113.84ZM155.24 166.16L146.72 166.16L146.72 103.16L154.88 103.16L154.88 120.20L153.56 117.20Q156.44 110.36 162.86 106.46Q169.28 102.56 178.04 102.56L178.04 102.56Q187.28 102.56 193.76 107.18Q200.24 111.80 202.16 121.04L202.16 121.04L198.80 119.72Q201.56 112.04 208.58 107.30Q215.60 102.56 225.44 102.56L225.44 102.56Q233.12 102.56 238.82 105.50Q244.52 108.44 247.70 114.44Q250.88 120.44 250.88 129.56L250.88 129.56L250.88 166.16L242.36 166.16L242.36 130.40Q242.36 120.44 237.62 115.34Q232.88 110.24 224.24 110.24L224.24 110.24Q217.76 110.24 213.02 112.94Q208.28 115.64 205.70 120.74Q203.12 125.84 203.12 133.04L203.12 133.04L203.12 166.16L194.60 166.16L194.60 130.40Q194.60 120.44 189.80 115.34Q185 110.24 176.36 110.24L176.36 110.24Q170 110.24 165.20 112.94Q160.40 115.64 157.82 120.74Q155.24 125.84 155.24 133.04L155.24 133.04L155.24 166.16ZM299.72 166.76L299.72 166.76Q290.60 166.76 283.34 162.62Q276.08 158.48 271.88 151.22Q267.68 143.96 267.68 134.60L267.68 134.60Q267.68 125.12 271.88 117.92Q276.08 110.72 283.28 106.64Q290.48 102.56 299.72 102.56L299.72 102.56Q309.08 102.56 316.34 106.64Q323.60 110.72 327.74 117.92Q331.88 125.12 331.88 134.60L331.88 134.60Q331.88 143.96 327.74 151.22Q323.60 158.48 316.28 162.62Q308.96 166.76 299.72 166.76ZM299.72 159.20L299.72 159.20Q306.56 159.20 311.84 156.14Q317.12 153.08 320.18 147.50Q323.24 141.92 323.24 134.60L323.24 134.60Q323.24 127.16 320.18 121.64Q317.12 116.12 311.84 113.06Q306.56 110 299.84 110L299.84 110Q293.12 110 287.84 113.06Q282.56 116.12 279.44 121.64Q276.32 127.16 276.32 134.60L276.32 134.60Q276.32 141.92 279.44 147.50Q282.56 153.08 287.84 156.14Q293.12 159.20 299.72 159.20ZM374.36 166.76L374.36 166.76Q365.36 166.76 358.22 162.68Q351.08 158.60 347 151.34Q342.92 144.08 342.92 134.60L342.92 134.60Q342.92 125 347 117.80Q351.08 110.60 358.22 106.58Q365.36 102.56 374.36 102.56L374.36 102.56Q382.64 102.56 389.18 106.28Q395.72 110 399.62 117.14Q403.52 124.28 403.52 134.60L403.52 134.60Q403.52 144.80 399.68 152Q395.84 159.20 389.30 162.98Q382.76 166.76 374.36 166.76ZM374.96 159.20L374.96 159.20Q381.68 159.20 387.02 156.14Q392.36 153.08 395.42 147.50Q398.48 141.92 398.48 134.60L398.48 134.60Q398.48 127.16 395.42 121.64Q392.36 116.12 387.02 113.06Q381.68 110 374.96 110L374.96 110Q368.36 110 363.08 113.06Q357.80 116.12 354.68 121.64Q351.56 127.16 351.56 134.60L351.56 134.60Q351.56 141.92 354.68 147.50Q357.80 153.08 363.08 156.14Q368.36 159.20 374.96 159.20ZM406.88 166.16L398.72 166.16L398.72 147.20L399.56 134.48L398.36 121.76L398.36 77.12L406.88 77.12L406.88 166.16ZM457.40 166.76L457.40 166.76Q447.56 166.76 440.12 162.62Q432.68 158.48 428.48 151.22Q424.28 143.96 424.28 134.60L424.28 134.60Q424.28 125.24 428.30 118.04Q432.32 110.84 439.34 106.70Q446.36 102.56 455.12 102.56L455.12 102.56Q464 102.56 470.90 106.58Q477.80 110.60 481.76 117.86Q485.72 125.12 485.72 134.60L485.72 134.60Q485.72 135.20 485.66 135.86Q485.60 136.52 485.60 137.24L485.60 137.24L430.76 137.24L430.76 130.88L481.04 130.88L477.68 133.40Q477.68 126.56 474.74 121.22Q471.80 115.88 466.76 112.88Q461.72 109.88 455.12 109.88L455.12 109.88Q448.64 109.88 443.48 112.88Q438.32 115.88 435.44 121.28Q432.56 126.68 432.56 133.64L432.56 133.64L432.56 134.96Q432.56 142.16 435.74 147.62Q438.92 153.08 444.62 156.14Q450.32 159.20 457.64 159.20L457.64 159.20Q463.40 159.20 468.38 157.16Q473.36 155.12 476.96 150.92L476.96 150.92L481.76 156.44Q477.56 161.48 471.26 164.12Q464.96 166.76 457.40 166.76ZM511.64 166.16L503.12 166.16L503.12 77.12L511.64 77.12L511.64 166.16ZM538.76 113.84L532.40 113.84L531.80 82.16L539.36 82.16L538.76 113.84ZM559.28 113.84L552.92 113.84L552.32 82.16L559.88 82.16L559.28 113.84ZM581 115.64L581 115.64Q578.36 115.64 576.50 113.72Q574.64 111.80 574.64 109.04L574.64 109.04Q574.64 106.16 576.50 104.36Q578.36 102.56 581 102.56L581 102.56Q583.64 102.56 585.50 104.36Q587.36 106.16 587.36 109.04L587.36 109.04Q587.36 111.80 585.50 113.72Q583.64 115.64 581 115.64ZM581 166.76L581 166.76Q578.36 166.76 576.50 164.84Q574.64 162.92 574.64 160.16L574.64 160.16Q574.64 157.28 576.50 155.48Q578.36 153.68 581 153.68L581 153.68Q583.64 153.68 585.50 155.48Q587.36 157.28 587.36 160.16L587.36 160.16Q587.36 162.92 585.50 164.84Q583.64 166.76 581 166.76ZM608.96 113.84L602.60 113.84L602 82.16L609.56 82.16L608.96 113.84ZM629.48 113.84L623.12 113.84L622.52 82.16L630.08 82.16L629.48 113.84ZM658.88 166.16L650.36 166.16L650.36 103.16L658.52 103.16L658.52 120.20L657.20 117.20Q660.08 110.36 666.50 106.46Q672.92 102.56 681.68 102.56L681.68 102.56Q690.92 102.56 697.40 107.18Q703.88 111.80 705.80 121.04L705.80 121.04L702.44 119.72Q705.20 112.04 712.22 107.30Q719.24 102.56 729.08 102.56L729.08 102.56Q736.76 102.56 742.46 105.50Q748.16 108.44 751.34 114.44Q754.52 120.44 754.52 129.56L754.52 129.56L754.52 166.16L746 166.16L746 130.40Q746 120.44 741.26 115.34Q736.52 110.24 727.88 110.24L727.88 110.24Q721.40 110.24 716.66 112.94Q711.92 115.64 709.34 120.74Q706.76 125.84 706.76 133.04L706.76 133.04L706.76 166.16L698.24 166.16L698.24 130.40Q698.24 120.44 693.44 115.34Q688.64 110.24 680 110.24L680 110.24Q673.64 110.24 668.84 112.94Q664.04 115.64 661.46 120.74Q658.88 125.84 658.88 133.04L658.88 133.04L658.88 166.16ZM786.20 166.16L777.68 166.16L777.68 103.16L786.20 103.16L786.20 166.16ZM782 89.24L782 89.24Q779.36 89.24 777.56 87.44Q775.76 85.64 775.76 83.12L775.76 83.12Q775.76 80.60 777.56 78.86Q779.36 77.12 782 77.12L782 77.12Q784.64 77.12 786.44 78.80Q788.24 80.48 788.24 83L788.24 83Q788.24 85.64 786.50 87.44Q784.76 89.24 782 89.24ZM826.88 166.76L826.88 166.76Q819.08 166.76 812.12 164.54Q805.16 162.32 801.20 158.96L801.20 158.96L805.04 152.24Q808.88 155.12 814.88 157.22Q820.88 159.32 827.48 159.32L827.48 159.32Q836.48 159.32 840.44 156.50Q844.40 153.68 844.40 149L844.40 149Q844.40 145.52 842.18 143.54Q839.96 141.56 836.36 140.54Q832.76 139.52 828.32 138.80Q823.88 138.08 819.50 137.12Q815.12 136.16 811.52 134.30Q807.92 132.44 805.70 129.20Q803.48 125.96 803.48 120.56L803.48 120.56Q803.48 115.40 806.36 111.32Q809.24 107.24 814.82 104.90Q820.40 102.56 828.44 102.56L828.44 102.56Q834.56 102.56 840.68 104.18Q846.80 105.80 850.76 108.44L850.76 108.44L847.04 115.28Q842.84 112.40 838.04 111.14Q833.24 109.88 828.44 109.88L828.44 109.88Q819.92 109.88 815.90 112.82Q811.88 115.76 811.88 120.32L811.88 120.32Q811.88 123.92 814.10 125.96Q816.32 128 819.98 129.14Q823.64 130.28 828.02 131Q832.40 131.72 836.78 132.74Q841.16 133.76 844.82 135.50Q848.48 137.24 850.70 140.42Q852.92 143.60 852.92 148.76L852.92 148.76Q852.92 154.28 849.86 158.30Q846.80 162.32 840.98 164.54Q835.16 166.76 826.88 166.76ZM888.44 166.76L888.44 166.76Q879.56 166.76 874.76 161.96Q869.96 157.16 869.96 148.40L869.96 148.40L869.96 89.24L878.48 89.24L878.48 147.92Q878.48 153.44 881.30 156.44Q884.12 159.44 889.40 159.44L889.40 159.44Q895.04 159.44 898.76 156.20L898.76 156.20L901.76 162.32Q899.24 164.60 895.70 165.68Q892.16 166.76 888.44 166.76ZM897.68 110.24L858.68 110.24L858.68 103.16L897.68 103.16L897.68 110.24ZM925.76 166.16L917.24 166.16L917.24 103.16L925.40 103.16L925.40 120.32L924.56 117.32Q927.20 110.12 933.44 106.34Q939.68 102.56 948.92 102.56L948.92 102.56L948.92 110.84Q948.44 110.84 947.96 110.78Q947.48 110.72 947.00 110.72L947.00 110.72Q937.04 110.72 931.40 116.78Q925.76 122.84 925.76 134L925.76 134L925.76 166.16ZM1013.00 166.16L1004.84 166.16L1004.84 152.24L1004.48 149.96L1004.48 126.68Q1004.48 118.64 999.98 114.32Q995.48 110 986.60 110L986.60 110Q980.48 110 974.96 112.04Q969.44 114.08 965.60 117.44L965.60 117.44L961.76 111.08Q966.56 107 973.28 104.78Q980.00 102.56 987.44 102.56L987.44 102.56Q999.68 102.56 1006.34 108.62Q1013.00 114.68 1013.00 127.04L1013.00 127.04L1013.00 166.16ZM983.12 166.76L983.12 166.76Q976.04 166.76 970.82 164.42Q965.60 162.08 962.84 157.94Q960.08 153.80 960.08 148.40L960.08 148.40Q960.08 143.48 962.42 139.46Q964.76 135.44 970.10 132.98Q975.44 130.52 984.44 130.52L984.44 130.52L1006.16 130.52L1006.16 136.88L984.68 136.88Q975.56 136.88 972.02 140.12Q968.48 143.36 968.48 148.16L968.48 148.16Q968.48 153.56 972.68 156.80Q976.88 160.04 984.44 160.04L984.44 160.04Q991.64 160.04 996.86 156.74Q1002.08 153.44 1004.48 147.20L1004.48 147.20L1006.40 153.08Q1004.00 159.32 998.06 163.04Q992.12 166.76 983.12 166.76ZM1044.68 166.16L1036.16 166.16L1036.16 77.12L1044.68 77.12L1044.68 166.16ZM1071.80 113.84L1065.44 113.84L1064.84 82.16L1072.40 82.16L1071.80 113.84ZM1092.32 113.84L1085.96 113.84L1085.36 82.16L1092.92 82.16L1092.32 113.84ZM1113.80 183.68L1108.04 183.68L1113.32 161.48L1114.28 166.64Q1111.52 166.64 1109.66 164.84Q1107.80 163.04 1107.80 160.16L1107.80 160.16Q1107.80 157.28 1109.66 155.48Q1111.52 153.68 1114.16 153.68L1114.16 153.68Q1116.92 153.68 1118.66 155.60Q1120.40 157.52 1120.40 160.16L1120.40 160.16Q1120.40 161.12 1120.28 162.08Q1120.16 163.04 1119.80 164.24Q1119.44 165.44 1118.84 167.12L1118.84 167.12L1113.80 183.68ZM1142 113.84L1135.64 113.84L1135.04 82.16L1142.60 82.16L1142 113.84ZM1162.52 113.84L1156.16 113.84L1155.56 82.16L1163.12 82.16L1162.52 113.84ZM1209.56 166.76L1209.56 166.76Q1200.20 166.76 1192.82 162.62Q1185.44 158.48 1181.24 151.22Q1177.04 143.96 1177.04 134.60L1177.04 134.60Q1177.04 125.12 1181.24 117.92Q1185.44 110.72 1192.82 106.64Q1200.20 102.56 1209.56 102.56L1209.56 102.56Q1217.60 102.56 1224.08 105.68Q1230.56 108.80 1234.28 115.04L1234.28 115.04L1227.92 119.36Q1224.68 114.56 1219.88 112.28Q1215.08 110 1209.44 110L1209.44 110Q1202.72 110 1197.32 113.06Q1191.92 116.12 1188.80 121.64Q1185.68 127.16 1185.68 134.60L1185.68 134.60Q1185.68 142.04 1188.80 147.56Q1191.92 153.08 1197.32 156.14Q1202.72 159.20 1209.44 159.20L1209.44 159.20Q1215.08 159.20 1219.88 156.92Q1224.68 154.64 1227.92 149.96L1227.92 149.96L1234.28 154.28Q1230.56 160.40 1224.08 163.58Q1217.60 166.76 1209.56 166.76ZM1259.48 166.16L1250.96 166.16L1250.96 103.16L1259.12 103.16L1259.12 120.32L1258.28 117.32Q1260.92 110.12 1267.16 106.34Q1273.40 102.56 1282.64 102.56L1282.64 102.56L1282.64 110.84Q1282.16 110.84 1281.68 110.78Q1281.20 110.72 1280.72 110.72L1280.72 110.72Q1270.76 110.72 1265.12 116.78Q1259.48 122.84 1259.48 134L1259.48 134L1259.48 166.16ZM1325.84 166.76L1325.84 166.76Q1316.00 166.76 1308.56 162.62Q1301.12 158.48 1296.92 151.22Q1292.72 143.96 1292.72 134.60L1292.72 134.60Q1292.72 125.24 1296.74 118.04Q1300.76 110.84 1307.78 106.70Q1314.80 102.56 1323.56 102.56L1323.56 102.56Q1332.44 102.56 1339.34 106.58Q1346.24 110.60 1350.20 117.86Q1354.16 125.12 1354.16 134.60L1354.16 134.60Q1354.16 135.20 1354.10 135.86Q1354.04 136.52 1354.04 137.24L1354.04 137.24L1299.20 137.24L1299.20 130.88L1349.48 130.88L1346.12 133.40Q1346.12 126.56 1343.18 121.22Q1340.24 115.88 1335.20 112.88Q1330.16 109.88 1323.56 109.88L1323.56 109.88Q1317.08 109.88 1311.92 112.88Q1306.76 115.88 1303.88 121.28Q1301.00 126.68 1301.00 133.64L1301.00 133.64L1301.00 134.96Q1301.00 142.16 1304.18 147.62Q1307.36 153.08 1313.06 156.14Q1318.76 159.20 1326.08 159.20L1326.08 159.20Q1331.84 159.20 1336.82 157.16Q1341.80 155.12 1345.40 150.92L1345.40 150.92L1350.20 156.44Q1346.00 161.48 1339.70 164.12Q1333.40 166.76 1325.84 166.76ZM1419.20 166.16L1411.04 166.16L1411.04 152.24L1410.68 149.96L1410.68 126.68Q1410.68 118.64 1406.18 114.32Q1401.68 110 1392.80 110L1392.80 110Q1386.68 110 1381.16 112.04Q1375.64 114.08 1371.80 117.44L1371.80 117.44L1367.96 111.08Q1372.76 107 1379.48 104.78Q1386.20 102.56 1393.64 102.56L1393.64 102.56Q1405.88 102.56 1412.54 108.62Q1419.20 114.68 1419.20 127.04L1419.20 127.04L1419.20 166.16ZM1389.32 166.76L1389.32 166.76Q1382.24 166.76 1377.02 164.42Q1371.80 162.08 1369.04 157.94Q1366.28 153.80 1366.28 148.40L1366.28 148.40Q1366.28 143.48 1368.62 139.46Q1370.96 135.44 1376.30 132.98Q1381.64 130.52 1390.64 130.52L1390.64 130.52L1412.36 130.52L1412.36 136.88L1390.88 136.88Q1381.76 136.88 1378.22 140.12Q1374.68 143.36 1374.68 148.16L1374.68 148.16Q1374.68 153.56 1378.88 156.80Q1383.08 160.04 1390.64 160.04L1390.64 160.04Q1397.84 160.04 1403.06 156.74Q1408.28 153.44 1410.68 147.20L1410.68 147.20L1412.60 153.08Q1410.20 159.32 1404.26 163.04Q1398.32 166.76 1389.32 166.76ZM1462.28 166.76L1462.28 166.76Q1453.40 166.76 1448.60 161.96Q1443.80 157.16 1443.80 148.40L1443.80 148.40L1443.80 89.24L1452.32 89.24L1452.32 147.92Q1452.32 153.44 1455.14 156.44Q1457.96 159.44 1463.24 159.44L1463.24 159.44Q1468.88 159.44 1472.60 156.20L1472.60 156.20L1475.60 162.32Q1473.08 164.60 1469.54 165.68Q1466.00 166.76 1462.28 166.76ZM1471.52 110.24L1432.52 110.24L1432.52 103.16L1471.52 103.16L1471.52 110.24ZM1517.84 166.76L1517.84 166.76Q1508.00 166.76 1500.56 162.62Q1493.12 158.48 1488.92 151.22Q1484.72 143.96 1484.72 134.60L1484.72 134.60Q1484.72 125.24 1488.74 118.04Q1492.76 110.84 1499.78 106.70Q1506.80 102.56 1515.56 102.56L1515.56 102.56Q1524.44 102.56 1531.34 106.58Q1538.24 110.60 1542.20 117.86Q1546.16 125.12 1546.16 134.60L1546.16 134.60Q1546.16 135.20 1546.10 135.86Q1546.04 136.52 1546.04 137.24L1546.04 137.24L1491.20 137.24L1491.20 130.88L1541.48 130.88L1538.12 133.40Q1538.12 126.56 1535.18 121.22Q1532.24 115.88 1527.20 112.88Q1522.16 109.88 1515.56 109.88L1515.56 109.88Q1509.08 109.88 1503.92 112.88Q1498.76 115.88 1495.88 121.28Q1493.00 126.68 1493.00 133.64L1493.00 133.64L1493.00 134.96Q1493.00 142.16 1496.18 147.62Q1499.36 153.08 1505.06 156.14Q1510.76 159.20 1518.08 159.20L1518.08 159.20Q1523.84 159.20 1528.82 157.16Q1533.80 155.12 1537.40 150.92L1537.40 150.92L1542.20 156.44Q1538.00 161.48 1531.70 164.12Q1525.40 166.76 1517.84 166.76ZM1588.64 166.76L1588.64 166.76Q1579.64 166.76 1572.50 162.68Q1565.36 158.60 1561.28 151.34Q1557.20 144.08 1557.20 134.60L1557.20 134.60Q1557.20 125 1561.28 117.80Q1565.36 110.60 1572.50 106.58Q1579.64 102.56 1588.64 102.56L1588.64 102.56Q1596.92 102.56 1603.46 106.28Q1610.00 110 1613.90 117.14Q1617.80 124.28 1617.80 134.60L1617.80 134.60Q1617.80 144.80 1613.96 152Q1610.12 159.20 1603.58 162.98Q1597.04 166.76 1588.64 166.76ZM1589.24 159.20L1589.24 159.20Q1595.96 159.20 1601.30 156.14Q1606.64 153.08 1609.70 147.50Q1612.76 141.92 1612.76 134.60L1612.76 134.60Q1612.76 127.16 1609.70 121.64Q1606.64 116.12 1601.30 113.06Q1595.96 110 1589.24 110L1589.24 110Q1582.64 110 1577.36 113.06Q1572.08 116.12 1568.96 121.64Q1565.84 127.16 1565.84 134.60L1565.84 134.60Q1565.84 141.92 1568.96 147.50Q1572.08 153.08 1577.36 156.14Q1582.64 159.20 1589.24 159.20ZM1621.16 166.16L1613.00 166.16L1613.00 147.20L1613.84 134.48L1612.64 121.76L1612.64 77.12L1621.16 77.12L1621.16 166.16ZM1693.04 171.92L1633.04 171.92L1633.04 166.16L1693.04 166.16L1693.04 171.92ZM1752.56 166.16L1744.40 166.16L1744.40 152.24L1744.04 149.96L1744.04 126.68Q1744.04 118.64 1739.54 114.32Q1735.04 110 1726.16 110L1726.16 110Q1720.04 110 1714.52 112.04Q1709.00 114.08 1705.16 117.44L1705.16 117.44L1701.32 111.08Q1706.12 107 1712.84 104.78Q1719.56 102.56 1727.00 102.56L1727.00 102.56Q1739.24 102.56 1745.90 108.62Q1752.56 114.68 1752.56 127.04L1752.56 127.04L1752.56 166.16ZM1722.68 166.76L1722.68 166.76Q1715.60 166.76 1710.38 164.42Q1705.16 162.08 1702.40 157.94Q1699.64 153.80 1699.64 148.40L1699.64 148.40Q1699.64 143.48 1701.98 139.46Q1704.32 135.44 1709.66 132.98Q1715.00 130.52 1724.00 130.52L1724.00 130.52L1745.72 130.52L1745.72 136.88L1724.24 136.88Q1715.12 136.88 1711.58 140.12Q1708.04 143.36 1708.04 148.16L1708.04 148.16Q1708.04 153.56 1712.24 156.80Q1716.44 160.04 1724.00 160.04L1724.00 160.04Q1731.20 160.04 1736.42 156.74Q1741.64 153.44 1744.04 147.20L1744.04 147.20L1745.96 153.08Q1743.56 159.32 1737.62 163.04Q1731.68 166.76 1722.68 166.76ZM1795.64 166.76L1795.64 166.76Q1786.76 166.76 1781.96 161.96Q1777.16 157.16 1777.16 148.40L1777.16 148.40L1777.16 89.24L1785.68 89.24L1785.68 147.92Q1785.68 153.44 1788.50 156.44Q1791.32 159.44 1796.60 159.44L1796.60 159.44Q1802.24 159.44 1805.96 156.20L1805.96 156.20L1808.96 162.32Q1806.44 164.60 1802.90 165.68Q1799.36 166.76 1795.64 166.76ZM1804.88 110.24L1765.88 110.24L1765.88 103.16L1804.88 103.16L1804.88 110.24ZM1827.80 113.84L1821.44 113.84L1820.84 82.16L1828.40 82.16L1827.80 113.84ZM1848.32 113.84L1841.96 113.84L1841.36 82.16L1848.92 82.16L1848.32 113.84ZM1870.04 115.64L1870.04 115.64Q1867.40 115.64 1865.54 113.72Q1863.68 111.80 1863.68 109.04L1863.68 109.04Q1863.68 106.16 1865.54 104.36Q1867.40 102.56 1870.04 102.56L1870.04 102.56Q1872.68 102.56 1874.54 104.36Q1876.40 106.16 1876.40 109.04L1876.40 109.04Q1876.40 111.80 1874.54 113.72Q1872.68 115.64 1870.04 115.64ZM1870.04 166.76L1870.04 166.76Q1867.40 166.76 1865.54 164.84Q1863.68 162.92 1863.68 160.16L1863.68 160.16Q1863.68 157.28 1865.54 155.48Q1867.40 153.68 1870.04 153.68L1870.04 153.68Q1872.68 153.68 1874.54 155.48Q1876.40 157.28 1876.40 160.16L1876.40 160.16Q1876.40 162.92 1874.54 164.84Q1872.68 166.76 1870.04 166.76ZM1898.00 113.84L1891.64 113.84L1891.04 82.16L1898.60 82.16L1898.00 113.84ZM1918.52 113.84L1912.16 113.84L1911.56 82.16L1919.12 82.16L1918.52 113.84ZM1991.12 166.16L1932.20 166.16L1932.20 160.04L1967.12 125.84Q1971.92 121.16 1974.32 117.62Q1976.72 114.08 1977.56 110.96Q1978.40 107.84 1978.40 105.08L1978.40 105.08Q1978.40 97.76 1973.42 93.56Q1968.44 89.36 1958.72 89.36L1958.72 89.36Q1951.28 89.36 1945.58 91.64Q1939.88 93.92 1935.80 98.72L1935.80 98.72L1929.68 93.44Q1934.60 87.68 1942.28 84.56Q1949.96 81.44 1959.44 81.44L1959.44 81.44Q1967.96 81.44 1974.20 84.14Q1980.44 86.84 1983.86 92Q1987.28 97.16 1987.28 104.12L1987.28 104.12Q1987.28 108.20 1986.14 112.16Q1985.00 116.12 1982.06 120.50Q1979.12 124.88 1973.48 130.40L1973.48 130.40L1941.44 161.84L1939.04 158.48L1991.12 158.48L1991.12 166.16ZM2035.40 166.88L2035.40 166.88Q2025.68 166.88 2018.12 161.78Q2010.56 156.68 2006.24 147.14Q2001.92 137.60 2001.92 124.16L2001.92 124.16Q2001.92 110.72 2006.24 101.18Q2010.56 91.64 2018.12 86.54Q2025.68 81.44 2035.40 81.44L2035.40 81.44Q2045.12 81.44 2052.68 86.54Q2060.24 91.64 2064.62 101.18Q2069 110.72 2069 124.16L2069 124.16Q2069 137.60 2064.62 147.14Q2060.24 156.68 2052.68 161.78Q2045.12 166.88 2035.40 166.88ZM2035.40 158.96L2035.40 158.96Q2042.84 158.96 2048.36 154.94Q2053.88 150.92 2057 143.18Q2060.12 135.44 2060.12 124.16L2060.12 124.16Q2060.12 112.88 2057 105.14Q2053.88 97.40 2048.36 93.38Q2042.84 89.36 2035.40 89.36L2035.40 89.36Q2028.20 89.36 2022.56 93.38Q2016.92 97.40 2013.80 105.14Q2010.68 112.88 2010.68 124.16L2010.68 124.16Q2010.68 135.44 2013.80 143.18Q2016.92 150.92 2022.56 154.94Q2028.20 158.96 2035.40 158.96ZM2138.72 166.16L2079.80 166.16L2079.80 160.04L2114.72 125.84Q2119.52 121.16 2121.92 117.62Q2124.32 114.08 2125.16 110.96Q2126 107.84 2126 105.08L2126 105.08Q2126 97.76 2121.02 93.56Q2116.04 89.36 2106.32 89.36L2106.32 89.36Q2098.88 89.36 2093.18 91.64Q2087.48 93.92 2083.40 98.72L2083.40 98.72L2077.28 93.44Q2082.20 87.68 2089.88 84.56Q2097.56 81.44 2107.04 81.44L2107.04 81.44Q2115.56 81.44 2121.80 84.14Q2128.04 86.84 2131.46 92Q2134.88 97.16 2134.88 104.12L2134.88 104.12Q2134.88 108.20 2133.74 112.16Q2132.60 116.12 2129.66 120.50Q2126.72 124.88 2121.08 130.40L2121.08 130.40L2089.04 161.84L2086.64 158.48L2138.72 158.48L2138.72 166.16ZM2176.04 166.88L2176.04 166.88Q2167.04 166.88 2158.88 163.94Q2150.72 161 2145.92 156.08L2145.92 156.08L2150.12 149.24Q2154.08 153.44 2160.98 156.20Q2167.88 158.96 2175.92 158.96L2175.92 158.96Q2186.60 158.96 2192.18 154.22Q2197.76 149.48 2197.76 141.80L2197.76 141.80Q2197.76 136.40 2195.18 132.50Q2192.60 128.60 2186.48 126.44Q2180.36 124.28 2169.68 124.28L2169.68 124.28L2151.80 124.28L2156.12 82.16L2202.08 82.16L2202.08 89.84L2159.60 89.84L2164.04 85.64L2160.32 120.92L2155.88 116.60L2171.60 116.60Q2184.32 116.60 2192.00 119.72Q2199.68 122.84 2203.10 128.42Q2206.52 134 2206.52 141.44L2206.52 141.44Q2206.52 148.52 2203.16 154.34Q2199.80 160.16 2193.08 163.52Q2186.36 166.88 2176.04 166.88ZM2249.84 137.36L2218.40 137.36L2218.40 129.92L2249.84 129.92L2249.84 137.36ZM2296.76 166.88L2296.76 166.88Q2287.04 166.88 2279.48 161.78Q2271.92 156.68 2267.60 147.14Q2263.28 137.60 2263.28 124.16L2263.28 124.16Q2263.28 110.72 2267.60 101.18Q2271.92 91.64 2279.48 86.54Q2287.04 81.44 2296.76 81.44L2296.76 81.44Q2306.48 81.44 2314.04 86.54Q2321.60 91.64 2325.98 101.18Q2330.36 110.72 2330.36 124.16L2330.36 124.16Q2330.36 137.60 2325.98 147.14Q2321.60 156.68 2314.04 161.78Q2306.48 166.88 2296.76 166.88ZM2296.76 158.96L2296.76 158.96Q2304.20 158.96 2309.72 154.94Q2315.24 150.92 2318.36 143.18Q2321.48 135.44 2321.48 124.16L2321.48 124.16Q2321.48 112.88 2318.36 105.14Q2315.24 97.40 2309.72 93.38Q2304.20 89.36 2296.76 89.36L2296.76 89.36Q2289.56 89.36 2283.92 93.38Q2278.28 97.40 2275.16 105.14Q2272.04 112.88 2272.04 124.16L2272.04 124.16Q2272.04 135.44 2275.16 143.18Q2278.28 150.92 2283.92 154.94Q2289.56 158.96 2296.76 158.96ZM2374.64 166.88L2374.64 166.88Q2364.56 166.88 2357.30 164Q2350.04 161.12 2346.14 155.66Q2342.24 150.20 2342.24 142.76L2342.24 142.76Q2342.24 135.56 2346.02 130.46Q2349.80 125.36 2357.06 122.60Q2364.32 119.84 2374.64 119.84L2374.64 119.84Q2384.84 119.84 2392.16 122.60Q2399.48 125.36 2403.38 130.46Q2407.28 135.56 2407.28 142.76L2407.28 142.76Q2407.28 150.20 2403.32 155.66Q2399.36 161.12 2392.04 164Q2384.72 166.88 2374.64 166.88ZM2374.64 159.56L2374.64 159.56Q2385.80 159.56 2392.10 155Q2398.40 150.44 2398.40 142.64L2398.40 142.64Q2398.40 134.84 2392.10 130.34Q2385.80 125.84 2374.64 125.84L2374.64 125.84Q2363.48 125.84 2357.24 130.34Q2351 134.84 2351 142.64L2351 142.64Q2351 150.44 2357.24 155Q2363.48 159.56 2374.64 159.56ZM2374.64 119L2374.64 119Q2384.48 119 2390 114.92Q2395.52 110.84 2395.52 104L2395.52 104Q2395.52 96.80 2389.82 92.78Q2384.12 88.76 2374.64 88.76L2374.64 88.76Q2365.16 88.76 2359.52 92.78Q2353.88 96.80 2353.88 103.88L2353.88 103.88Q2353.88 110.84 2359.34 114.92Q2364.80 119 2374.64 119ZM2374.64 124.76L2374.64 124.76Q2365.28 124.76 2358.74 122.24Q2352.20 119.72 2348.72 114.98Q2345.24 110.24 2345.24 103.64L2345.24 103.64Q2345.24 96.68 2348.90 91.70Q2352.56 86.72 2359.16 84.08Q2365.76 81.44 2374.64 81.44L2374.64 81.44Q2383.52 81.44 2390.18 84.08Q2396.84 86.72 2400.56 91.70Q2404.28 96.68 2404.28 103.64L2404.28 103.64Q2404.28 110.24 2400.80 114.98Q2397.32 119.72 2390.66 122.24Q2384 124.76 2374.64 124.76ZM2451.68 137.36L2420.24 137.36L2420.24 129.92L2451.68 129.92L2451.68 137.36ZM2498.60 166.88L2498.60 166.88Q2488.88 166.88 2481.32 161.78Q2473.76 156.68 2469.44 147.14Q2465.12 137.60 2465.12 124.16L2465.12 124.16Q2465.12 110.72 2469.44 101.18Q2473.76 91.64 2481.32 86.54Q2488.88 81.44 2498.60 81.44L2498.60 81.44Q2508.32 81.44 2515.88 86.54Q2523.44 91.64 2527.82 101.18Q2532.20 110.72 2532.20 124.16L2532.20 124.16Q2532.20 137.60 2527.82 147.14Q2523.44 156.68 2515.88 161.78Q2508.32 166.88 2498.60 166.88ZM2498.60 158.96L2498.60 158.96Q2506.04 158.96 2511.56 154.94Q2517.08 150.92 2520.20 143.18Q2523.32 135.44 2523.32 124.16L2523.32 124.16Q2523.32 112.88 2520.20 105.14Q2517.08 97.40 2511.56 93.38Q2506.04 89.36 2498.60 89.36L2498.60 89.36Q2491.40 89.36 2485.76 93.38Q2480.12 97.40 2477 105.14Q2473.88 112.88 2473.88 124.16L2473.88 124.16Q2473.88 135.44 2477 143.18Q2480.12 150.92 2485.76 154.94Q2491.40 158.96 2498.60 158.96ZM2567.84 166.16L2559.20 166.16L2559.20 85.76L2563.04 89.84L2539.40 89.84L2539.40 82.16L2567.84 82.16L2567.84 166.16ZM2620.52 166.16L2611.64 166.16L2611.64 89.84L2582.12 89.84L2582.12 82.16L2650.04 82.16L2650.04 89.84L2620.52 89.84L2620.52 166.16ZM2680.04 166.16L2671.40 166.16L2671.40 85.76L2675.24 89.84L2651.60 89.84L2651.60 82.16L2680.04 82.16L2680.04 166.16ZM2722.28 166.88L2722.28 166.88Q2716.64 166.88 2711.54 165.80Q2706.44 164.72 2702.36 162.32L2702.36 162.32L2705.84 155.36Q2709.08 157.52 2713.34 158.42Q2717.60 159.32 2722.16 159.32L2722.16 159.32Q2735.72 159.32 2743.82 150.68Q2751.92 142.04 2751.92 124.88L2751.92 124.88Q2751.92 122.12 2751.62 118.28Q2751.32 114.44 2750.24 110.60L2750.24 110.60L2753.24 112.88Q2752.04 119.12 2748.14 123.50Q2744.24 127.88 2738.54 130.16Q2732.84 132.44 2725.88 132.44L2725.88 132.44Q2717.60 132.44 2711.18 129.32Q2704.76 126.20 2701.16 120.56Q2697.56 114.92 2697.56 107.24L2697.56 107.24Q2697.56 99.32 2701.28 93.56Q2705.00 87.80 2711.54 84.62Q2718.08 81.44 2726.24 81.44L2726.24 81.44Q2737.40 81.44 2745.08 86.42Q2752.76 91.40 2756.72 100.76Q2760.68 110.12 2760.68 123.44L2760.68 123.44Q2760.68 137.60 2755.82 147.32Q2750.96 157.04 2742.32 161.96Q2733.68 166.88 2722.28 166.88ZM2727.20 125.12L2727.20 125.12Q2733.68 125.12 2738.54 122.72Q2743.40 120.32 2746.10 116.12Q2748.80 111.92 2748.80 106.76L2748.80 106.76Q2748.80 102.08 2746.28 98Q2743.76 93.92 2738.84 91.34Q2733.92 88.76 2726.60 88.76L2726.60 88.76Q2720.60 88.76 2715.98 90.98Q2711.36 93.20 2708.72 97.28Q2706.08 101.36 2706.08 107L2706.08 107Q2706.08 115.28 2711.78 120.20Q2717.48 125.12 2727.20 125.12ZM2779.64 115.64L2779.64 115.64Q2777.00 115.64 2775.14 113.72Q2773.28 111.80 2773.28 109.04L2773.28 109.04Q2773.28 106.16 2775.14 104.36Q2777.00 102.56 2779.64 102.56L2779.64 102.56Q2782.28 102.56 2784.14 104.36Q2786.00 106.16 2786.00 109.04L2786.00 109.04Q2786.00 111.80 2784.14 113.72Q2782.28 115.64 2779.64 115.64ZM2779.64 166.76L2779.64 166.76Q2777.00 166.76 2775.14 164.84Q2773.28 162.92 2773.28 160.16L2773.28 160.16Q2773.28 157.28 2775.14 155.48Q2777.00 153.68 2779.64 153.68L2779.64 153.68Q2782.28 153.68 2784.14 155.48Q2786.00 157.28 2786.00 160.16L2786.00 160.16Q2786.00 162.92 2784.14 164.84Q2782.28 166.76 2779.64 166.76ZM2823.68 166.88L2823.68 166.88Q2814.56 166.88 2806.46 163.94Q2798.36 161 2793.44 156.08L2793.44 156.08L2797.64 149.24Q2801.72 153.44 2808.62 156.20Q2815.52 158.96 2823.68 158.96L2823.68 158.96Q2834.12 158.96 2839.70 154.40Q2845.28 149.84 2845.28 142.16L2845.28 142.16Q2845.28 134.48 2839.82 129.92Q2834.36 125.36 2822.60 125.36L2822.60 125.36L2816.60 125.36L2816.60 119L2842.52 86.48L2843.72 89.84L2796.92 89.84L2796.92 82.16L2850.92 82.16L2850.92 88.28L2825.00 120.80L2820.80 118.04L2824.04 118.04Q2839.16 118.04 2846.66 124.76Q2854.16 131.48 2854.16 142.04L2854.16 142.04Q2854.16 149.12 2850.80 154.76Q2847.44 160.40 2840.66 163.64Q2833.88 166.88 2823.68 166.88ZM2888.48 166.88L2888.48 166.88Q2882.84 166.88 2877.74 165.80Q2872.64 164.72 2868.56 162.32L2868.56 162.32L2872.04 155.36Q2875.28 157.52 2879.54 158.42Q2883.80 159.32 2888.36 159.32L2888.36 159.32Q2901.92 159.32 2910.02 150.68Q2918.12 142.04 2918.12 124.88L2918.12 124.88Q2918.12 122.12 2917.82 118.28Q2917.52 114.44 2916.44 110.60L2916.44 110.60L2919.44 112.88Q2918.24 119.12 2914.34 123.50Q2910.44 127.88 2904.74 130.16Q2899.04 132.44 2892.08 132.44L2892.08 132.44Q2883.80 132.44 2877.38 129.32Q2870.96 126.20 2867.36 120.56Q2863.76 114.92 2863.76 107.24L2863.76 107.24Q2863.76 99.32 2867.48 93.56Q2871.20 87.80 2877.74 84.62Q2884.28 81.44 2892.44 81.44L2892.44 81.44Q2903.60 81.44 2911.28 86.42Q2918.96 91.40 2922.92 100.76Q2926.88 110.12 2926.88 123.44L2926.88 123.44Q2926.88 137.60 2922.02 147.32Q2917.16 157.04 2908.52 161.96Q2899.88 166.88 2888.48 166.88ZM2893.40 125.12L2893.40 125.12Q2899.88 125.12 2904.74 122.72Q2909.60 120.32 2912.30 116.12Q2915.00 111.92 2915.00 106.76L2915.00 106.76Q2915.00 102.08 2912.48 98Q2909.96 93.92 2905.04 91.34Q2900.12 88.76 2892.80 88.76L2892.80 88.76Q2886.80 88.76 2882.18 90.98Q2877.56 93.20 2874.92 97.28Q2872.28 101.36 2872.28 107L2872.28 107Q2872.28 115.28 2877.98 120.20Q2883.68 125.12 2893.40 125.12ZM2945.84 115.64L2945.84 115.64Q2943.20 115.64 2941.34 113.72Q2939.48 111.80 2939.48 109.04L2939.48 109.04Q2939.48 106.16 2941.34 104.36Q2943.20 102.56 2945.84 102.56L2945.84 102.56Q2948.48 102.56 2950.34 104.36Q2952.20 106.16 2952.20 109.04L2952.20 109.04Q2952.20 111.80 2950.34 113.72Q2948.48 115.64 2945.84 115.64ZM2945.84 166.76L2945.84 166.76Q2943.20 166.76 2941.34 164.84Q2939.48 162.92 2939.48 160.16L2939.48 160.16Q2939.48 157.28 2941.34 155.48Q2943.20 153.68 2945.84 153.68L2945.84 153.68Q2948.48 153.68 2950.34 155.48Q2952.20 157.28 2952.20 160.16L2952.20 160.16Q2952.20 162.92 2950.34 164.84Q2948.48 166.76 2945.84 166.76ZM2989.88 166.88L2989.88 166.88Q2980.76 166.88 2972.66 163.94Q2964.56 161 2959.64 156.08L2959.64 156.08L2963.84 149.24Q2967.92 153.44 2974.82 156.20Q2981.72 158.96 2989.88 158.96L2989.88 158.96Q3000.32 158.96 3005.90 154.40Q3011.48 149.84 3011.48 142.16L3011.48 142.16Q3011.48 134.48 3006.02 129.92Q3000.56 125.36 2988.80 125.36L2988.80 125.36L2982.80 125.36L2982.80 119L3008.72 86.48L3009.92 89.84L2963.12 89.84L2963.12 82.16L3017.12 82.16L3017.12 88.28L2991.20 120.80L2987.00 118.04L2990.24 118.04Q3005.36 118.04 3012.86 124.76Q3020.36 131.48 3020.36 142.04L3020.36 142.04Q3020.36 149.12 3017.00 154.76Q3013.64 160.40 3006.86 163.64Q3000.08 166.88 2989.88 166.88ZM3059.00 166.88L3059.00 166.88Q3050.00 166.88 3041.84 163.94Q3033.68 161 3028.88 156.08L3028.88 156.08L3033.08 149.24Q3037.04 153.44 3043.94 156.20Q3050.84 158.96 3058.88 158.96L3058.88 158.96Q3069.56 158.96 3075.14 154.22Q3080.72 149.48 3080.72 141.80L3080.72 141.80Q3080.72 136.40 3078.14 132.50Q3075.56 128.60 3069.44 126.44Q3063.32 124.28 3052.64 124.28L3052.64 124.28L3034.76 124.28L3039.08 82.16L3085.04 82.16L3085.04 89.84L3042.56 89.84L3047.00 85.64L3043.28 120.92L3038.84 116.60L3054.56 116.60Q3067.28 116.60 3074.96 119.72Q3082.64 122.84 3086.06 128.42Q3089.48 134 3089.48 141.44L3089.48 141.44Q3089.48 148.52 3086.12 154.34Q3082.76 160.16 3076.04 163.52Q3069.32 166.88 3059.00 166.88ZM3106.88 166.76L3106.88 166.76Q3104.24 166.76 3102.38 164.84Q3100.52 162.92 3100.52 160.16L3100.52 160.16Q3100.52 157.28 3102.38 155.48Q3104.24 153.68 3106.88 153.68L3106.88 153.68Q3109.52 153.68 3111.38 155.48Q3113.24 157.28 3113.24 160.16L3113.24 160.16Q3113.24 162.92 3111.38 164.84Q3109.52 166.76 3106.88 166.76ZM3197.24 144.08L3124.40 144.08L3124.40 137.84L3168.92 82.16L3178.52 82.16L3134.36 137.84L3129.68 136.40L3197.24 136.40L3197.24 144.08ZM3180.44 166.16L3171.80 166.16L3171.80 144.08L3172.04 136.40L3172.04 116.96L3180.44 116.96L3180.44 166.16ZM3228.44 166.16L3219.80 166.16L3219.80 85.76L3223.64 89.84L3200.00 89.84L3200.00 82.16L3228.44 82.16L3228.44 166.16ZM3272.60 166.16L3263.24 166.16L3299.48 86L3302.12 89.84L3250.16 89.84L3254.60 85.64L3254.60 105.56L3246.08 105.56L3246.08 82.16L3307.76 82.16L3307.76 88.28L3272.60 166.16ZM3345.68 166.88L3345.68 166.88Q3336.68 166.88 3328.52 163.94Q3320.36 161 3315.56 156.08L3315.56 156.08L3319.76 149.24Q3323.72 153.44 3330.62 156.20Q3337.52 158.96 3345.56 158.96L3345.56 158.96Q3356.24 158.96 3361.82 154.22Q3367.40 149.48 3367.40 141.80L3367.40 141.80Q3367.40 136.40 3364.82 132.50Q3362.24 128.60 3356.12 126.44Q3350.00 124.28 3339.32 124.28L3339.32 124.28L3321.44 124.28L3325.76 82.16L3371.72 82.16L3371.72 89.84L3329.24 89.84L3333.68 85.64L3329.96 120.92L3325.52 116.60L3341.24 116.60Q3353.96 116.60 3361.64 119.72Q3369.32 122.84 3372.74 128.42Q3376.16 134 3376.16 141.44L3376.16 141.44Q3376.16 148.52 3372.80 154.34Q3369.44 160.16 3362.72 163.52Q3356.00 166.88 3345.68 166.88ZM3419.00 166.88L3419.00 166.88Q3408.92 166.88 3401.66 164Q3394.40 161.12 3390.50 155.66Q3386.60 150.20 3386.60 142.76L3386.60 142.76Q3386.60 135.56 3390.38 130.46Q3394.16 125.36 3401.42 122.60Q3408.68 119.84 3419.00 119.84L3419.00 119.84Q3429.20 119.84 3436.52 122.60Q3443.84 125.36 3447.74 130.46Q3451.64 135.56 3451.64 142.76L3451.64 142.76Q3451.64 150.20 3447.68 155.66Q3443.72 161.12 3436.40 164Q3429.08 166.88 3419.00 166.88ZM3419.00 159.56L3419.00 159.56Q3430.16 159.56 3436.46 155Q3442.76 150.44 3442.76 142.64L3442.76 142.64Q3442.76 134.84 3436.46 130.34Q3430.16 125.84 3419.00 125.84L3419.00 125.84Q3407.84 125.84 3401.60 130.34Q3395.36 134.84 3395.36 142.64L3395.36 142.64Q3395.36 150.44 3401.60 155Q3407.84 159.56 3419.00 159.56ZM3419.00 119L3419.00 119Q3428.84 119 3434.36 114.92Q3439.88 110.84 3439.88 104L3439.88 104Q3439.88 96.80 3434.18 92.78Q3428.48 88.76 3419.00 88.76L3419.00 88.76Q3409.52 88.76 3403.88 92.78Q3398.24 96.80 3398.24 103.88L3398.24 103.88Q3398.24 110.84 3403.70 114.92Q3409.16 119 3419.00 119ZM3419.00 124.76L3419.00 124.76Q3409.64 124.76 3403.10 122.24Q3396.56 119.72 3393.08 114.98Q3389.60 110.24 3389.60 103.64L3389.60 103.64Q3389.60 96.68 3393.26 91.70Q3396.92 86.72 3403.52 84.08Q3410.12 81.44 3419.00 81.44L3419.00 81.44Q3427.88 81.44 3434.54 84.08Q3441.20 86.72 3444.92 91.70Q3448.64 96.68 3448.64 103.64L3448.64 103.64Q3448.64 110.24 3445.16 114.98Q3441.68 119.72 3435.02 122.24Q3428.36 124.76 3419.00 124.76ZM3487.76 166.16L3478.40 166.16L3514.64 86L3517.28 89.84L3465.32 89.84L3469.76 85.64L3469.76 105.56L3461.24 105.56L3461.24 82.16L3522.92 82.16L3522.92 88.28L3487.76 166.16ZM3602.36 166.16L3533.48 166.16L3533.48 160.04L3591.80 86.48L3592.76 89.84L3534.32 89.84L3534.32 82.16L3600.92 82.16L3600.92 88.28L3542.72 161.84L3541.64 158.48L3602.36 158.48L3602.36 166.16ZM3621.44 113.84L3615.08 113.84L3614.48 82.16L3622.04 82.16L3621.44 113.84ZM3641.96 113.84L3635.60 113.84L3635.00 82.16L3642.56 82.16L3641.96 113.84ZM3663.44 183.68L3657.68 183.68L3662.96 161.48L3663.92 166.64Q3661.16 166.64 3659.30 164.84Q3657.44 163.04 3657.44 160.16L3657.44 160.16Q3657.44 157.28 3659.30 155.48Q3661.16 153.68 3663.80 153.68L3663.80 153.68Q3666.56 153.68 3668.30 155.60Q3670.04 157.52 3670.04 160.16L3670.04 160.16Q3670.04 161.12 3669.92 162.08Q3669.80 163.04 3669.44 164.24Q3669.08 165.44 3668.48 167.12L3668.48 167.12L3663.44 183.68ZM3691.64 113.84L3685.28 113.84L3684.68 82.16L3692.24 82.16L3691.64 113.84ZM3712.16 113.84L3705.80 113.84L3705.20 82.16L3712.76 82.16L3712.16 113.84ZM3741.56 166.16L3733.04 166.16L3733.04 103.16L3741.20 103.16L3741.20 120.32L3740.36 117.32Q3743.00 110.12 3749.24 106.34Q3755.48 102.56 3764.72 102.56L3764.72 102.56L3764.72 110.84Q3764.24 110.84 3763.76 110.78Q3763.28 110.72 3762.80 110.72L3762.80 110.72Q3752.84 110.72 3747.20 116.78Q3741.56 122.84 3741.56 134L3741.56 134L3741.56 166.16ZM3807.92 166.76L3807.92 166.76Q3798.08 166.76 3790.64 162.62Q3783.20 158.48 3779.00 151.22Q3774.80 143.96 3774.80 134.60L3774.80 134.60Q3774.80 125.24 3778.82 118.04Q3782.84 110.84 3789.86 106.70Q3796.88 102.56 3805.64 102.56L3805.64 102.56Q3814.52 102.56 3821.42 106.58Q3828.32 110.60 3832.28 117.86Q3836.24 125.12 3836.24 134.60L3836.24 134.60Q3836.24 135.20 3836.18 135.86Q3836.12 136.52 3836.12 137.24L3836.12 137.24L3781.28 137.24L3781.28 130.88L3831.56 130.88L3828.20 133.40Q3828.20 126.56 3825.26 121.22Q3822.32 115.88 3817.28 112.88Q3812.24 109.88 3805.64 109.88L3805.64 109.88Q3799.16 109.88 3794.00 112.88Q3788.84 115.88 3785.96 121.28Q3783.08 126.68 3783.08 133.64L3783.08 133.64L3783.08 134.96Q3783.08 142.16 3786.26 147.62Q3789.44 153.08 3795.14 156.14Q3800.84 159.20 3808.16 159.20L3808.16 159.20Q3813.92 159.20 3818.90 157.16Q3823.88 155.12 3827.48 150.92L3827.48 150.92L3832.28 156.44Q3828.08 161.48 3821.78 164.12Q3815.48 166.76 3807.92 166.76ZM3870.56 166.76L3870.56 166.76Q3862.76 166.76 3855.80 164.54Q3848.84 162.32 3844.88 158.96L3844.88 158.96L3848.72 152.24Q3852.56 155.12 3858.56 157.22Q3864.56 159.32 3871.16 159.32L3871.16 159.32Q3880.16 159.32 3884.12 156.50Q3888.08 153.68 3888.08 149L3888.08 149Q3888.08 145.52 3885.86 143.54Q3883.64 141.56 3880.04 140.54Q3876.44 139.52 3872.00 138.80Q3867.56 138.08 3863.18 137.12Q3858.80 136.16 3855.20 134.30Q3851.60 132.44 3849.38 129.20Q3847.16 125.96 3847.16 120.56L3847.16 120.56Q3847.16 115.40 3850.04 111.32Q3852.92 107.24 3858.50 104.90Q3864.08 102.56 3872.12 102.56L3872.12 102.56Q3878.24 102.56 3884.36 104.18Q3890.48 105.80 3894.44 108.44L3894.44 108.44L3890.72 115.28Q3886.52 112.40 3881.72 111.14Q3876.92 109.88 3872.12 109.88L3872.12 109.88Q3863.60 109.88 3859.58 112.82Q3855.56 115.76 3855.56 120.32L3855.56 120.32Q3855.56 123.92 3857.78 125.96Q3860.00 128 3863.66 129.14Q3867.32 130.28 3871.70 131Q3876.08 131.72 3880.46 132.74Q3884.84 133.76 3888.50 135.50Q3892.16 137.24 3894.38 140.42Q3896.60 143.60 3896.60 148.76L3896.60 148.76Q3896.60 154.28 3893.54 158.30Q3890.48 162.32 3884.66 164.54Q3878.84 166.76 3870.56 166.76ZM3944.72 166.76L3944.72 166.76Q3936.56 166.76 3929.96 162.98Q3923.36 159.20 3919.46 152.06Q3915.56 144.92 3915.56 134.60L3915.56 134.60Q3915.56 124.28 3919.40 117.14Q3923.24 110 3929.84 106.28Q3936.44 102.56 3944.72 102.56L3944.72 102.56Q3953.72 102.56 3960.86 106.58Q3968.00 110.60 3972.08 117.86Q3976.16 125.12 3976.16 134.60L3976.16 134.60Q3976.16 144.20 3972.08 151.40Q3968.00 158.60 3960.86 162.68Q3953.72 166.76 3944.72 166.76ZM3920.72 189.44L3912.20 189.44L3912.20 103.16L3920.36 103.16L3920.36 122.12L3919.52 134.72L3920.72 147.44L3920.72 189.44ZM3944.12 159.20L3944.12 159.20Q3950.84 159.20 3956.12 156.14Q3961.40 153.08 3964.52 147.50Q3967.64 141.92 3967.64 134.60L3967.64 134.60Q3967.64 127.28 3964.52 121.76Q3961.40 116.24 3956.12 113.12Q3950.84 110 3944.12 110L3944.12 110Q3937.40 110 3932.06 113.12Q3926.72 116.24 3923.66 121.76Q3920.60 127.28 3920.60 134.60L3920.60 134.60Q3920.60 141.92 3923.66 147.50Q3926.72 153.08 3932.06 156.14Q3937.40 159.20 3944.12 159.20ZM4019.24 166.76L4019.24 166.76Q4010.12 166.76 4002.86 162.62Q3995.60 158.48 3991.40 151.22Q3987.20 143.96 3987.20 134.60L3987.20 134.60Q3987.20 125.12 3991.40 117.92Q3995.60 110.72 4002.80 106.64Q4010.00 102.56 4019.24 102.56L4019.24 102.56Q4028.60 102.56 4035.86 106.64Q4043.12 110.72 4047.26 117.92Q4051.40 125.12 4051.40 134.60L4051.40 134.60Q4051.40 143.96 4047.26 151.22Q4043.12 158.48 4035.80 162.62Q4028.48 166.76 4019.24 166.76ZM4019.24 159.20L4019.24 159.20Q4026.08 159.20 4031.36 156.14Q4036.64 153.08 4039.70 147.50Q4042.76 141.92 4042.76 134.60L4042.76 134.60Q4042.76 127.16 4039.70 121.64Q4036.64 116.12 4031.36 113.06Q4026.08 110 4019.36 110L4019.36 110Q4012.64 110 4007.36 113.06Q4002.08 116.12 3998.96 121.64Q3995.84 127.16 3995.84 134.60L3995.84 134.60Q3995.84 141.92 3998.96 147.50Q4002.08 153.08 4007.36 156.14Q4012.64 159.20 4019.24 159.20ZM4077.32 166.16L4068.80 166.16L4068.80 103.16L4076.96 103.16L4076.96 120.44L4075.64 117.20Q4078.64 110.36 4085.24 106.46Q4091.84 102.56 4100.96 102.56L4100.96 102.56Q4108.64 102.56 4114.46 105.50Q4120.28 108.44 4123.58 114.44Q4126.88 120.44 4126.88 129.56L4126.88 129.56L4126.88 166.16L4118.36 166.16L4118.36 130.40Q4118.36 120.44 4113.38 115.34Q4108.40 110.24 4099.40 110.24L4099.40 110.24Q4092.68 110.24 4087.70 112.94Q4082.72 115.64 4080.02 120.74Q4077.32 125.84 4077.32 133.04L4077.32 133.04L4077.32 166.16ZM4166.84 166.76L4166.84 166.76Q4159.04 166.76 4152.08 164.54Q4145.12 162.32 4141.16 158.96L4141.16 158.96L4145.00 152.24Q4148.84 155.12 4154.84 157.22Q4160.84 159.32 4167.44 159.32L4167.44 159.32Q4176.44 159.32 4180.40 156.50Q4184.36 153.68 4184.36 149L4184.36 149Q4184.36 145.52 4182.14 143.54Q4179.92 141.56 4176.32 140.54Q4172.72 139.52 4168.28 138.80Q4163.84 138.08 4159.46 137.12Q4155.08 136.16 4151.48 134.30Q4147.88 132.44 4145.66 129.20Q4143.44 125.96 4143.44 120.56L4143.44 120.56Q4143.44 115.40 4146.32 111.32Q4149.20 107.24 4154.78 104.90Q4160.36 102.56 4168.40 102.56L4168.40 102.56Q4174.52 102.56 4180.64 104.18Q4186.76 105.80 4190.72 108.44L4190.72 108.44L4187.00 115.28Q4182.80 112.40 4178.00 111.14Q4173.20 109.88 4168.40 109.88L4168.40 109.88Q4159.88 109.88 4155.86 112.82Q4151.84 115.76 4151.84 120.32L4151.84 120.32Q4151.84 123.92 4154.06 125.96Q4156.28 128 4159.94 129.14Q4163.60 130.28 4167.98 131Q4172.36 131.72 4176.74 132.74Q4181.12 133.76 4184.78 135.50Q4188.44 137.24 4190.66 140.42Q4192.88 143.60 4192.88 148.76L4192.88 148.76Q4192.88 154.28 4189.82 158.30Q4186.76 162.32 4180.94 164.54Q4175.12 166.76 4166.84 166.76ZM4235.24 166.76L4235.24 166.76Q4225.40 166.76 4217.96 162.62Q4210.52 158.48 4206.32 151.22Q4202.12 143.96 4202.12 134.60L4202.12 134.60Q4202.12 125.24 4206.14 118.04Q4210.16 110.84 4217.18 106.70Q4224.20 102.56 4232.96 102.56L4232.96 102.56Q4241.84 102.56 4248.74 106.58Q4255.64 110.60 4259.60 117.86Q4263.56 125.12 4263.56 134.60L4263.56 134.60Q4263.56 135.20 4263.50 135.86Q4263.44 136.52 4263.44 137.24L4263.44 137.24L4208.60 137.24L4208.60 130.88L4258.88 130.88L4255.52 133.40Q4255.52 126.56 4252.58 121.22Q4249.64 115.88 4244.60 112.88Q4239.56 109.88 4232.96 109.88L4232.96 109.88Q4226.48 109.88 4221.32 112.88Q4216.16 115.88 4213.28 121.28Q4210.40 126.68 4210.40 133.64L4210.40 133.64L4210.40 134.96Q4210.40 142.16 4213.58 147.62Q4216.76 153.08 4222.46 156.14Q4228.16 159.20 4235.48 159.20L4235.48 159.20Q4241.24 159.20 4246.22 157.16Q4251.20 155.12 4254.80 150.92L4254.80 150.92L4259.60 156.44Q4255.40 161.48 4249.10 164.12Q4242.80 166.76 4235.24 166.76ZM4284.32 113.84L4277.96 113.84L4277.36 82.16L4284.92 82.16L4284.32 113.84ZM4304.84 113.84L4298.48 113.84L4297.88 82.16L4305.44 82.16L4304.84 113.84ZM4326.56 115.64L4326.56 115.64Q4323.92 115.64 4322.06 113.72Q4320.20 111.80 4320.20 109.04L4320.20 109.04Q4320.20 106.16 4322.06 104.36Q4323.92 102.56 4326.56 102.56L4326.56 102.56Q4329.20 102.56 4331.06 104.36Q4332.92 106.16 4332.92 109.04L4332.92 109.04Q4332.92 111.80 4331.06 113.72Q4329.20 115.64 4326.56 115.64ZM4326.56 166.76L4326.56 166.76Q4323.92 166.76 4322.06 164.84Q4320.20 162.92 4320.20 160.16L4320.20 160.16Q4320.20 157.28 4322.06 155.48Q4323.92 153.68 4326.56 153.68L4326.56 153.68Q4329.20 153.68 4331.06 155.48Q4332.92 157.28 4332.92 160.16L4332.92 160.16Q4332.92 162.92 4331.06 164.84Q4329.20 166.76 4326.56 166.76ZM4354.52 113.84L4348.16 113.84L4347.56 82.16L4355.12 82.16L4354.52 113.84ZM4375.04 113.84L4368.68 113.84L4368.08 82.16L4375.64 82.16L4375.04 113.84ZM4437.68 166.16L4429.16 166.16L4429.16 82.16L4436.48 82.16L4474.88 147.68L4471.04 147.68L4509.08 82.16L4516.40 82.16L4516.40 166.16L4507.88 166.16L4507.88 95.48L4509.92 95.48L4474.88 155.48L4470.68 155.48L4435.40 95.48L4437.68 95.48L4437.68 166.16ZM4545.32 113.84L4538.96 113.84L4538.36 82.16L4545.92 82.16L4545.32 113.84ZM4565.84 113.84L4559.48 113.84L4558.88 82.16L4566.44 82.16L4565.84 113.84ZM4587.32 183.68L4581.56 183.68L4586.84 161.48L4587.80 166.64Q4585.04 166.64 4583.18 164.84Q4581.32 163.04 4581.32 160.16L4581.32 160.16Q4581.32 157.28 4583.18 155.48Q4585.04 153.68 4587.68 153.68L4587.68 153.68Q4590.44 153.68 4592.18 155.60Q4593.92 157.52 4593.92 160.16L4593.92 160.16Q4593.92 161.12 4593.80 162.08Q4593.68 163.04 4593.32 164.24Q4592.96 165.44 4592.36 167.12L4592.36 167.12L4587.32 183.68ZM4615.52 113.84L4609.16 113.84L4608.56 82.16L4616.12 82.16L4615.52 113.84ZM4636.04 113.84L4629.68 113.84L4629.08 82.16L4636.64 82.16L4636.04 113.84ZM4682.00 166.76L4682.00 166.76Q4673.00 166.76 4665.86 162.68Q4658.72 158.60 4654.64 151.34Q4650.56 144.08 4650.56 134.60L4650.56 134.60Q4650.56 125 4654.64 117.80Q4658.72 110.60 4665.86 106.58Q4673.00 102.56 4682.00 102.56L4682.00 102.56Q4690.28 102.56 4696.82 106.28Q4703.36 110 4707.26 117.14Q4711.16 124.28 4711.16 134.60L4711.16 134.60Q4711.16 144.80 4707.32 152Q4703.48 159.20 4696.94 162.98Q4690.40 166.76 4682.00 166.76ZM4682.60 159.20L4682.60 159.20Q4689.32 159.20 4694.66 156.14Q4700.00 153.08 4703.06 147.50Q4706.12 141.92 4706.12 134.60L4706.12 134.60Q4706.12 127.16 4703.06 121.64Q4700.00 116.12 4694.66 113.06Q4689.32 110 4682.60 110L4682.60 110Q4676.00 110 4670.72 113.06Q4665.44 116.12 4662.32 121.64Q4659.20 127.16 4659.20 134.60L4659.20 134.60Q4659.20 141.92 4662.32 147.50Q4665.44 153.08 4670.72 156.14Q4676.00 159.20 4682.60 159.20ZM4714.52 166.16L4706.36 166.16L4706.36 147.20L4707.20 134.48L4706.00 121.76L4706.00 77.12L4714.52 77.12L4714.52 166.16ZM4763.96 166.76L4763.96 166.76Q4754.84 166.76 4747.58 162.62Q4740.32 158.48 4736.12 151.22Q4731.92 143.96 4731.92 134.60L4731.92 134.60Q4731.92 125.12 4736.12 117.92Q4740.32 110.72 4747.52 106.64Q4754.72 102.56 4763.96 102.56L4763.96 102.56Q4773.32 102.56 4780.58 106.64Q4787.84 110.72 4791.98 117.92Q4796.12 125.12 4796.12 134.60L4796.12 134.60Q4796.12 143.96 4791.98 151.22Q4787.84 158.48 4780.52 162.62Q4773.20 166.76 4763.96 166.76ZM4763.96 159.20L4763.96 159.20Q4770.80 159.20 4776.08 156.14Q4781.36 153.08 4784.42 147.50Q4787.48 141.92 4787.48 134.60L4787.48 134.60Q4787.48 127.16 4784.42 121.64Q4781.36 116.12 4776.08 113.06Q4770.80 110 4764.08 110L4764.08 110Q4757.36 110 4752.08 113.06Q4746.80 116.12 4743.68 121.64Q4740.56 127.16 4740.56 134.60L4740.56 134.60Q4740.56 141.92 4743.68 147.50Q4746.80 153.08 4752.08 156.14Q4757.36 159.20 4763.96 159.20ZM4822.04 166.16L4813.52 166.16L4813.52 103.16L4821.68 103.16L4821.68 120.44L4820.36 117.20Q4823.36 110.36 4829.96 106.46Q4836.56 102.56 4845.68 102.56L4845.68 102.56Q4853.36 102.56 4859.18 105.50Q4865 108.44 4868.30 114.44Q4871.60 120.44 4871.60 129.56L4871.60 129.56L4871.60 166.16L4863.08 166.16L4863.08 130.40Q4863.08 120.44 4858.10 115.34Q4853.12 110.24 4844.12 110.24L4844.12 110.24Q4837.40 110.24 4832.42 112.94Q4827.44 115.64 4824.74 120.74Q4822.04 125.84 4822.04 133.04L4822.04 133.04L4822.04 166.16ZM4921.40 166.76L4921.40 166.76Q4911.56 166.76 4904.12 162.62Q4896.68 158.48 4892.48 151.22Q4888.28 143.96 4888.28 134.60L4888.28 134.60Q4888.28 125.24 4892.30 118.04Q4896.32 110.84 4903.34 106.70Q4910.36 102.56 4919.12 102.56L4919.12 102.56Q4928 102.56 4934.90 106.58Q4941.80 110.60 4945.76 117.86Q4949.72 125.12 4949.72 134.60L4949.72 134.60Q4949.72 135.20 4949.66 135.86Q4949.60 136.52 4949.60 137.24L4949.60 137.24L4894.76 137.24L4894.76 130.88L4945.04 130.88L4941.68 133.40Q4941.68 126.56 4938.74 121.22Q4935.80 115.88 4930.76 112.88Q4925.72 109.88 4919.12 109.88L4919.12 109.88Q4912.64 109.88 4907.48 112.88Q4902.32 115.88 4899.44 121.28Q4896.56 126.68 4896.56 133.64L4896.56 133.64L4896.56 134.96Q4896.56 142.16 4899.74 147.62Q4902.92 153.08 4908.62 156.14Q4914.32 159.20 4921.64 159.20L4921.64 159.20Q4927.40 159.20 4932.38 157.16Q4937.36 155.12 4940.96 150.92L4940.96 150.92L4945.76 156.44Q4941.56 161.48 4935.26 164.12Q4928.96 166.76 4921.40 166.76ZM4970.48 113.84L4964.12 113.84L4963.52 82.16L4971.08 82.16L4970.48 113.84ZM4991 113.84L4984.64 113.84L4984.04 82.16L4991.60 82.16L4991 113.84ZM5012.72 115.64L5012.72 115.64Q5010.08 115.64 5008.22 113.72Q5006.36 111.80 5006.36 109.04L5006.36 109.04Q5006.36 106.16 5008.22 104.36Q5010.08 102.56 5012.72 102.56L5012.72 102.56Q5015.36 102.56 5017.22 104.36Q5019.08 106.16 5019.08 109.04L5019.08 109.04Q5019.08 111.80 5017.22 113.72Q5015.36 115.64 5012.72 115.64ZM5012.72 166.76L5012.72 166.76Q5010.08 166.76 5008.22 164.84Q5006.36 162.92 5006.36 160.16L5006.36 160.16Q5006.36 157.28 5008.22 155.48Q5010.08 153.68 5012.72 153.68L5012.72 153.68Q5015.36 153.68 5017.22 155.48Q5019.08 157.28 5019.08 160.16L5019.08 160.16Q5019.08 162.92 5017.22 164.84Q5015.36 166.76 5012.72 166.76ZM5047.28 166.16L5038.76 166.16L5038.76 95.24Q5038.76 86.84 5043.68 81.68Q5048.60 76.52 5057.84 76.52L5057.84 76.52Q5061.44 76.52 5064.80 77.48Q5068.16 78.44 5070.44 80.48L5070.44 80.48L5067.56 86.84Q5065.76 85.28 5063.36 84.50Q5060.96 83.72 5058.20 83.72L5058.20 83.72Q5052.80 83.72 5049.92 86.72Q5047.04 89.72 5047.04 95.60L5047.04 95.60L5047.04 105.20L5047.28 109.16L5047.28 166.16ZM5066.48 110.24L5027.48 110.24L5027.48 103.16L5066.48 103.16L5066.48 110.24ZM5125.64 166.16L5117.48 166.16L5117.48 152.24L5117.12 149.96L5117.12 126.68Q5117.12 118.64 5112.62 114.32Q5108.12 110 5099.24 110L5099.24 110Q5093.12 110 5087.60 112.04Q5082.08 114.08 5078.24 117.44L5078.24 117.44L5074.40 111.08Q5079.20 107 5085.92 104.78Q5092.64 102.56 5100.08 102.56L5100.08 102.56Q5112.32 102.56 5118.98 108.62Q5125.64 114.68 5125.64 127.04L5125.64 127.04L5125.64 166.16ZM5095.76 166.76L5095.76 166.76Q5088.68 166.76 5083.46 164.42Q5078.24 162.08 5075.48 157.94Q5072.72 153.80 5072.72 148.40L5072.72 148.40Q5072.72 143.48 5075.06 139.46Q5077.40 135.44 5082.74 132.98Q5088.08 130.52 5097.08 130.52L5097.08 130.52L5118.80 130.52L5118.80 136.88L5097.32 136.88Q5088.20 136.88 5084.66 140.12Q5081.12 143.36 5081.12 148.16L5081.12 148.16Q5081.12 153.56 5085.32 156.80Q5089.52 160.04 5097.08 160.04L5097.08 160.04Q5104.28 160.04 5109.50 156.74Q5114.72 153.44 5117.12 147.20L5117.12 147.20L5119.04 153.08Q5116.64 159.32 5110.70 163.04Q5104.76 166.76 5095.76 166.76ZM5157.32 166.16L5148.80 166.16L5148.80 77.12L5157.32 77.12L5157.32 166.16ZM5198 166.76L5198 166.76Q5190.20 166.76 5183.24 164.54Q5176.28 162.32 5172.32 158.96L5172.32 158.96L5176.16 152.24Q5180 155.12 5186 157.22Q5192 159.32 5198.60 159.32L5198.60 159.32Q5207.60 159.32 5211.56 156.50Q5215.52 153.68 5215.52 149L5215.52 149Q5215.52 145.52 5213.30 143.54Q5211.08 141.56 5207.48 140.54Q5203.88 139.52 5199.44 138.80Q5195 138.08 5190.62 137.12Q5186.24 136.16 5182.64 134.30Q5179.04 132.44 5176.82 129.20Q5174.60 125.96 5174.60 120.56L5174.60 120.56Q5174.60 115.40 5177.48 111.32Q5180.36 107.24 5185.94 104.90Q5191.52 102.56 5199.56 102.56L5199.56 102.56Q5205.68 102.56 5211.80 104.18Q5217.92 105.80 5221.88 108.44L5221.88 108.44L5218.16 115.28Q5213.96 112.40 5209.16 111.14Q5204.36 109.88 5199.56 109.88L5199.56 109.88Q5191.04 109.88 5187.02 112.82Q5183 115.76 5183 120.32L5183 120.32Q5183 123.92 5185.22 125.96Q5187.44 128 5191.10 129.14Q5194.76 130.28 5199.14 131Q5203.52 131.72 5207.90 132.74Q5212.28 133.76 5215.94 135.50Q5219.60 137.24 5221.82 140.42Q5224.04 143.60 5224.04 148.76L5224.04 148.76Q5224.04 154.28 5220.98 158.30Q5217.92 162.32 5212.10 164.54Q5206.28 166.76 5198 166.76ZM5266.40 166.76L5266.40 166.76Q5256.56 166.76 5249.12 162.62Q5241.68 158.48 5237.48 151.22Q5233.28 143.96 5233.28 134.60L5233.28 134.60Q5233.28 125.24 5237.30 118.04Q5241.32 110.84 5248.34 106.70Q5255.36 102.56 5264.12 102.56L5264.12 102.56Q5273 102.56 5279.90 106.58Q5286.80 110.60 5290.76 117.86Q5294.72 125.12 5294.72 134.60L5294.72 134.60Q5294.72 135.20 5294.66 135.86Q5294.60 136.52 5294.60 137.24L5294.60 137.24L5239.76 137.24L5239.76 130.88L5290.04 130.88L5286.68 133.40Q5286.68 126.56 5283.74 121.22Q5280.80 115.88 5275.76 112.88Q5270.72 109.88 5264.12 109.88L5264.12 109.88Q5257.64 109.88 5252.48 112.88Q5247.32 115.88 5244.44 121.28Q5241.56 126.68 5241.56 133.64L5241.56 133.64L5241.56 134.96Q5241.56 142.16 5244.74 147.62Q5247.92 153.08 5253.62 156.14Q5259.32 159.20 5266.64 159.20L5266.64 159.20Q5272.40 159.20 5277.38 157.16Q5282.36 155.12 5285.96 150.92L5285.96 150.92L5290.76 156.44Q5286.56 161.48 5280.26 164.12Q5273.96 166.76 5266.40 166.76ZM5307.20 189.44L5302.76 189.44L5302.76 182.36L5306 182.36Q5310.68 182.36 5312.90 179.84Q5315.12 177.32 5315.12 172.76L5315.12 172.76L5315.12 143.12Q5315.12 139.52 5315.96 137.48Q5316.80 135.44 5318.60 134.30Q5320.40 133.16 5323.04 132.68L5323.04 132.68L5323.04 133.88Q5320.40 133.28 5318.60 132.20Q5316.80 131.12 5315.96 129.08Q5315.12 127.04 5315.12 123.44L5315.12 123.44L5315.12 93.80Q5315.12 89.24 5312.90 86.72Q5310.68 84.20 5306 84.20L5306 84.20L5302.76 84.20L5302.76 77.12L5307.20 77.12Q5315.36 77.12 5319.50 81.08Q5323.64 85.04 5323.64 93.08L5323.64 93.08L5323.64 123.56Q5323.64 126.80 5325.08 128.24Q5326.52 129.68 5329.04 129.68L5329.04 129.68L5333.12 129.68L5333.12 136.88L5329.04 136.88Q5326.52 136.88 5325.08 138.32Q5323.64 139.76 5323.64 143L5323.64 143L5323.64 173.48Q5323.64 181.40 5319.50 185.42Q5315.36 189.44 5307.20 189.44L5307.20 189.44Z"/>
      </svg>
    