<svg xmlns="http://www.w3.org/2000/svg" viewBox="0 0 100 100" width="100" height="100">
  <defs>
    <filter id="glow">
      <feGaussianBlur stdDeviation="1.5" result="coloredBlur"/>
      <feMerge>
        <feMergeNode in="coloredBlur"/>
        <feMergeNode in="SourceGraphic"/>
      </feMerge>
    </filter>
  </defs>
  
  <!-- Black background -->
  <rect width="100" height="100" fill="#000000"/>
  
  <!-- Gear with 12 teeth -->
  <g filter="url(#glow)" fill="none" stroke="#00FFFF" stroke-width="2.5" stroke-linecap="round" stroke-linejoin="round">
    <!-- Outer gear path with 12 teeth -->
    <path d="M 50 10
             L 52.5 20 L 57.5 20 L 60 10
             L 70 12 L 75 15 L 80 12
             L 88 20 L 85 25 L 90 30
             L 88 40 L 85 45 L 90 50
             L 85 55 L 88 60 L 90 70
             L 85 75 L 88 80 L 80 88
             L 75 85 L 70 88 L 60 90
             L 57.5 80 L 52.5 80 L 50 90
             L 47.5 80 L 42.5 80 L 40 90
             L 30 88 L 25 85 L 20 88
             L 12 80 L 15 75 L 10 70
             L 12 60 L 15 55 L 10 50
             L 15 45 L 12 40 L 10 30
             L 15 25 L 12 20 L 20 12
             L 25 15 L 30 12 L 40 10
             L 42.5 20 L 47.5 20 Z"/>
    
    <!-- Inner gear circle -->
    <circle cx="50" cy="50" r="22" fill="none" stroke="#00FFFF" stroke-width="2"/>
  </g>
  
  <!-- Four-pointed star centered inside gear -->
  <g filter="url(#glow)" fill="#00FFFF">
    <path d="M 50 38 
             L 56 48 
             L 67 48 
             L 59 55 
             L 63 66 
             L 50 60 
             L 37 66 
             L 41 55 
             L 33 48 
             L 44 48 Z"/>
  </g>
</svg>
